<svg width="52" height="53" viewBox="0 0 52 53" fill="none" xmlns="http://www.w3.org/2000/svg">
<path d="M24.921 44.2523L24.9209 42.5445C24.9209 42.5445 27.4828 40.4461 27.483 38.0344L27.4827 36.5671" stroke="#08428F" stroke-linejoin="round"/>
<path d="M17.9881 27.0591L14.7929 30.1374C14.2395 30.6224 13.7917 31.216 13.4774 31.8813C13.1631 32.5466 12.989 33.2695 12.9658 34.005L12.9659 44.2519" stroke="#08428F" stroke-miterlimit="10"/>
<path d="M24.1743 33.2453L29.9992 39.0702C30.2394 39.3105 30.5652 39.4454 30.905 39.4454C31.2447 39.4454 31.5705 39.3105 31.8107 39.0702L40.3663 30.5147C40.6065 30.2745 40.7414 29.9487 40.7414 29.609C40.7414 29.2693 40.6065 28.9435 40.3663 28.7033L26.3803 14.7173C26.1401 14.4771 25.8143 14.3422 25.4746 14.3422C25.1349 14.3422 24.8091 14.4771 24.5689 14.7173L16.0133 23.2729C15.7731 23.5131 15.6382 23.8389 15.6382 24.1786C15.6382 24.5184 15.7731 24.8442 16.0133 25.0844L21.1064 30.1775" stroke="#ED008C" stroke-linecap="round" stroke-linejoin="round"/>
<path d="M22.5127 16.7738L38.31 32.5712" stroke="#ED008C" stroke-linecap="round" stroke-linejoin="round"/>
<path d="M11.2583 46.8139V44.2522H26.6287V46.8139" stroke="#08428F" stroke-linecap="round" stroke-linejoin="round"/>
<path d="M22.6309 11.2214C23.3515 10.5008 24.3289 10.0959 25.348 10.0959C26.3671 10.0959 27.3445 10.5008 28.0652 11.2214" stroke="#08428F" stroke-linecap="round" stroke-linejoin="round"/>
<path d="M19.6118 9.05606C20.3651 8.30277 21.2594 7.70523 22.2436 7.29755C23.2278 6.88988 24.2827 6.68005 25.348 6.68005C26.4133 6.68005 27.4682 6.88988 28.4524 7.29755C29.4366 7.70523 30.3308 8.30277 31.0841 9.05606" stroke="#08428F" stroke-linecap="round" stroke-linejoin="round"/>
<path d="M16.9707 34.3095C18.6359 32.6447 21.7372 29.5441 22.8946 28.387C24.5098 26.7721 26.7128 30.7077 24.6481 32.7721C23.7023 33.7176 22.8939 34.5258 22.8939 34.5258C22.8939 34.9201 22.8937 35.0837 22.8937 35.4258C22.9169 36.3209 22.6618 37.201 22.1636 37.945C21.6655 38.6889 20.9488 39.26 20.1124 39.5794" stroke="#08428F" stroke-miterlimit="10" stroke-linecap="round"/>
</svg>
