<svg width="52" height="53" viewBox="0 0 52 53" fill="none" xmlns="http://www.w3.org/2000/svg">
<path d="M22.6499 33.8251C22.6499 32.9366 23.0029 32.0845 23.6311 31.4563C24.2593 30.8281 25.1114 30.4751 25.9999 30.4751C26.8884 30.4751 27.7405 30.8281 28.3687 31.4563C28.997 32.0845 29.3499 32.9366 29.3499 33.8251" stroke="#08428F" stroke-miterlimit="10"/>
<path d="M32.0298 16.4049C32.0298 14.9834 32.5945 13.62 33.5997 12.6148C34.6049 11.6097 35.9682 11.0449 37.3898 11.0449C38.8113 11.0449 40.1747 11.6097 41.1799 12.6148C42.1851 13.62 42.7498 14.9834 42.7498 16.4049" stroke="#08428F" stroke-miterlimit="10" stroke-linecap="round"/>
<path d="M42.75 16.4049V34.4949" stroke="#08428F" stroke-miterlimit="10"/>
<path d="M36.0501 41.1949C39.7504 41.1949 42.7501 38.1952 42.7501 34.4949C42.7501 30.7946 39.7504 27.7949 36.0501 27.7949C32.3498 27.7949 29.3501 30.7946 29.3501 34.4949C29.3501 38.1952 32.3498 41.1949 36.0501 41.1949Z" stroke="#ED008C" stroke-miterlimit="10"/>
<path d="M19.97 16.405C19.97 14.9835 19.4053 13.6202 18.4001 12.615C17.3949 11.6098 16.0315 11.045 14.61 11.045C13.1884 11.045 11.8251 11.6098 10.8199 12.615C9.81471 13.6202 9.25 14.9835 9.25 16.405" stroke="#08428F" stroke-miterlimit="10" stroke-linecap="round"/>
<path d="M9.25 16.4049V34.4949" stroke="#08428F" stroke-miterlimit="10"/>
<path d="M15.95 41.1949C19.6503 41.1949 22.65 38.1952 22.65 34.4949C22.65 30.7946 19.6503 27.7949 15.95 27.7949C12.2497 27.7949 9.25 30.7946 9.25 34.4949C9.25 38.1952 12.2497 41.1949 15.95 41.1949Z" stroke="#ED008C" stroke-miterlimit="10"/>
<path d="M11.2603 34.495L14.6103 31.145" stroke="#08428F" stroke-miterlimit="10" stroke-linecap="round"/>
<path d="M14.6099 35.1652L18.9649 30.8102" stroke="#08428F" stroke-miterlimit="10" stroke-linecap="round"/>
<path d="M13.9399 38.515L17.9599 34.495" stroke="#08428F" stroke-miterlimit="10" stroke-linecap="round"/>
<path d="M31.3599 34.4951L34.0399 31.8151" stroke="#08428F" stroke-miterlimit="10" stroke-linecap="round"/>
<path d="M33.3701 35.1651L38.0601 30.4751" stroke="#08428F" stroke-miterlimit="10" stroke-linecap="round"/>
<path d="M40.07 33.825L34.71 39.1849" stroke="#08428F" stroke-miterlimit="10" stroke-linecap="round"/>
</svg>
