<svg width="52" height="53" viewBox="0 0 52 53" fill="none" xmlns="http://www.w3.org/2000/svg">
<path d="M37.4727 25.246C37.4727 26.6801 32.8642 28.1141 26 28.1141C19.1358 28.1141 14.5273 26.6801 14.5273 25.246" stroke="#08428F" stroke-linecap="round" stroke-linejoin="round"/>
<path d="M13.5713 22.2071C12.0595 22.8709 11.1812 23.7247 11.1812 24.7683C11.1812 24.7683 11.1812 36.2409 19.3076 39.1091L20.4313 40.6073C20.645 40.8927 20.9575 41.0881 21.3077 41.1555C24.4191 41.6138 27.5809 41.6138 30.6923 41.1555C31.0425 41.0881 31.355 40.8927 31.5687 40.6073L32.6924 39.1091C40.8188 36.2409 40.8188 24.7683 40.8188 24.7683C40.8188 23.3412 39.1764 22.2692 36.5177 21.5521" stroke="#08428F" stroke-linecap="round" stroke-linejoin="round"/>
<path d="M17.3955 38.1527C18.9032 38.8064 20.5326 39.1323 22.1758 39.1088" stroke="#08428F" stroke-linecap="round" stroke-linejoin="round"/>
<path d="M34.6045 38.1527C33.0968 38.8064 31.4674 39.1323 29.8242 39.1088" stroke="#08428F" stroke-linecap="round" stroke-linejoin="round"/>
<path d="M26.478 16.6415C27.0915 16.4548 27.6614 16.1472 28.154 15.7367C28.6466 15.3262 29.052 14.8211 29.3462 14.2513C29.3462 14.2513 31.7363 19.0316 28.8682 22.3778" stroke="#ED008C" stroke-linecap="round" stroke-linejoin="round"/>
<path d="M20.7418 19.0316C24.566 22.3778 24.8668 25.785 24.8668 25.785C24.8668 25.785 28.3902 22.8558 26.0001 19.0316C23.8681 15.6205 17.969 14.9137 16.2638 11.8612C14.9933 15.2803 14.0533 21.6808 17.3956 24.2899" stroke="#ED008C" stroke-linecap="round" stroke-linejoin="round"/>
<path d="M37.5945 18.5472L35.0825 25.2458" stroke="#08428F" stroke-linecap="round" stroke-linejoin="round"/>
<path d="M36.517 18.415C37.2814 18.6457 38.1028 18.5968 38.8344 18.2772C39.566 17.9576 40.1599 17.3881 40.51 16.6705C40.86 15.953 40.9433 15.1343 40.7449 14.361C40.5465 13.5877 40.0794 12.9102 39.4272 12.4498C38.7749 11.9894 37.9801 11.7761 37.185 11.8482C36.3899 11.9202 35.6464 12.2729 35.0875 12.843C34.5287 13.4132 34.1909 14.1636 34.1348 14.96C34.0786 15.7563 34.3077 16.5467 34.781 17.1896L29.8242 26.2019" stroke="#08428F" stroke-linecap="round" stroke-linejoin="round"/>
</svg>
