<?xml version="1.0" standalone="no"?>
<!DOCTYPE svg PUBLIC "-//W3C//DTD SVG 1.1//EN" "http://www.w3.org/Graphics/SVG/1.1/DTD/svg11.dtd" >
<svg xmlns="http://www.w3.org/2000/svg" xmlns:xlink="http://www.w3.org/1999/xlink" version="1.1">
<metadata>
Created by FontForge 20170731 at Tue Apr 18 12:32:21 2023
 By Aleksey,,,
Copyright (c) 2018-2021 by Avraham Cornfeld. All rights reserved.
</metadata>
<defs>
<font id="PloniMaccabiMLv2AAA-Bold" horiz-adv-x="0" >
  <font-face 
    font-family="Ploni Maccabi ML v2 AAA"
    font-weight="700"
    font-stretch="normal"
    units-per-em="2048"
    panose-1="0 0 0 0 0 0 0 0 0 0"
    ascent="1638"
    descent="-410"
    x-height="973"
    cap-height="1238"
    bbox="-518 -596 2929 2016"
    underline-thickness="129"
    underline-position="-499"
    unicode-range="U+0021-1F10B"
  />
<missing-glyph horiz-adv-x="1008" 
d="M890 1238q58 0 58 -58v-1123q0 -57 -58 -57h-773q-57 0 -57 57v1123q0 58 57 58h773zM272 329l131 290l-131 290v-580zM378 195h250l-124 251zM378 1043l126 -249l124 249h-250zM603 619l133 -290v580z" />
    <glyph glyph-name="f_f.liga" unicode="ff" horiz-adv-x="1257" 
d="M446 752v-752h-283v752h-99v221h99v79q0 100 36 173.5t95.5 110t132 47.5t150 -7.5t145.5 -61.5l-84 -198q-49 26 -91.5 29t-71.5 -26.5t-29 -92.5v-53h283v83q0 155 93 237.5t230 82.5q140 0 294 -103l-106 -187q-78 46 -126 46q-46 0 -74 -34.5t-28 -98.5v-26h191v-221
h-191v-752h-283v752h-283z" />
    <glyph glyph-name="f_f_i.liga" unicode="ffi" horiz-adv-x="1685" 
d="M1295 0v752h-283v-752h-283v752h-283v-752h-283v752h-99v221h99v79q0 100 36 173.5t95.5 110t132 47.5t150 -7.5t145.5 -61.5l-84 -198q-49 26 -91.5 29t-71.5 -26.5t-29 -92.5v-53h283v12q0 113 35 204t93.5 149.5t139 87t169 23t185.5 -49t186 -122.5l-150 -186
q-100 81 -187 95t-137.5 -39.5t-50.5 -161.5v-12h566v-973h-283z" />
    <glyph glyph-name="f_f_l.liga" unicode="ffl" horiz-adv-x="1710" 
d="M729 1003q0 113 35 203t95 147t144 86t180 26.5t204 -37.5t215 -102v-1326h-283v1173q-142 53 -224.5 0.5t-82.5 -195.5v-5h182v-221h-182v-752h-283v752h-283v-752h-283v752h-99v221h99v79q0 100 36 173.5t95.5 110t132 47.5t150 -7.5t145.5 -61.5l-84 -198
q-49 26 -91.5 29t-71.5 -26.5t-29 -92.5v-53h283v30z" />
    <glyph glyph-name="f_i.liga" unicode="fi" horiz-adv-x="1119" 
d="M729 0v752h-283v-752h-283v752h-99v221h99v12q0 113 35 204t93.5 149.5t139 87t169 23t185.5 -49t186 -122.5l-150 -186q-100 81 -187 95t-137.5 -39.5t-50.5 -161.5v-12h566v-973h-283z" />
    <glyph glyph-name="f_l.liga" unicode="fl" horiz-adv-x="1144" 
d="M163 1003q0 113 35 203t95 147t144 86t180 26.5t204 -37.5t215 -102v-1326h-283v1173q-142 53 -224.5 0.5t-82.5 -195.5v-5h182v-221h-182v-752h-283v752h-99v221h99v30z" />
    <glyph glyph-name="uni05D005D005D0.liga" unicode="&#x5d0;&#x5d0;&#x5d0;" horiz-adv-x="2458" 
d="M2377 0h-333l-771 1049v12h333l357 -484q64 56 91.5 171t20.5 313h300q7 -292 -57 -452t-206 -236l265 -361v-12zM71 1049v12h332l771 -1049v-12h-332l-357 485q-63 -56 -91 -171.5t-21 -313.5h-300q-7 292 57 452t206 236zM672 1049v12h333l771 -1049v-12h-333z" />
    <glyph glyph-name=".notdef" horiz-adv-x="1008" 
d="M890 1238q58 0 58 -58v-1123q0 -57 -58 -57h-773q-57 0 -57 57v1123q0 58 57 58h773zM272 329l131 290l-131 290v-580zM378 195h250l-124 251zM378 1043l126 -249l124 249h-250zM603 619l133 -290v580z" />
    <glyph glyph-name=".null" 
 />
    <glyph glyph-name="nonmarkingreturn" horiz-adv-x="682" 
 />
    <glyph glyph-name="space" unicode="&#xa0;" horiz-adv-x="530" 
 />
    <glyph glyph-name="space" unicode=" " horiz-adv-x="530" 
 />
    <glyph glyph-name="exclam" unicode="!" horiz-adv-x="661" 
d="M465 463h-269l-37 775h343zM140 179q0 79 56 135t135 56t135 -56t56 -135t-56 -135t-135 -56t-135 56t-56 135z" />
    <glyph glyph-name="quotedbl" unicode="&#x22;" horiz-adv-x="838" 
d="M149 1238h290l-145 -522h-227zM428 716l81 522h290l-145 -522h-226z" />
    <glyph glyph-name="numbersign" unicode="#" horiz-adv-x="1497" 
d="M492 0h-294l66 290h-229l55 239h228l50 214h-230l55 239h230l58 256h294l-59 -256h225l58 256h294l-59 -256h229l-55 -239h-228l-50 -214h230l-55 -239h-230l-65 -290h-294l66 290h-225zM612 529h225l49 214h-225z" />
    <glyph glyph-name="dollar" unicode="$" horiz-adv-x="1054" 
d="M426 1344h214v-129q218 -51 315 -253l-239 -115q-34 65 -91 101.5t-130 36.5q-140 0 -140 -88q0 -31 18 -53.5t72 -48t156 -54.5q72 -21 123.5 -41.5t101 -51.5t80 -67.5t49 -88.5t18.5 -117q0 -74 -27.5 -135t-75 -101.5t-105.5 -66.5t-125 -38v-140h-214v138
q-133 21 -230 96t-143 199l228 129q98 -189 265 -189q149 0 149 97q0 50 -50 87.5t-178 79.5q-47 15 -78 26t-76 30.5t-75 38.5t-63 47.5t-53 60t-33 74t-13 90.5q0 74 28 133.5t77 98.5t111 63t134 33v118z" />
    <glyph glyph-name="percent" unicode="%" horiz-adv-x="1581" 
d="M766 433l-296 -433h-284v9l330 447h250v-23zM81 883q0 166 91.5 266.5t246.5 100.5q153 0 243 -100.5t90 -266.5t-90 -267t-243 -101q-155 0 -246.5 101t-91.5 267zM292 883q0 -85 33 -135.5t94 -50.5q60 0 92 50.5t32 135.5q0 86 -32 136.5t-92 50.5q-61 0 -94 -50.5
t-33 -136.5zM829 354q0 166 91.5 267t246.5 101q153 0 243 -101t90 -267t-90 -267t-243 -101q-155 0 -246.5 101t-91.5 267zM829 782v23l296 433h285v-9l-331 -447h-250zM1040 354q0 -85 33 -135.5t94 -50.5q60 0 92 50.5t32 135.5q0 86 -32 136.5t-92 50.5q-61 0 -94 -50.5
t-33 -136.5z" />
    <glyph glyph-name="ampersand" unicode="&#x26;" horiz-adv-x="1195" 
d="M796 854q-52 145 -173 145q-59 0 -95 -31t-34 -84.5t49 -110.5l272 -333q54 88 85 211l250 -83q-60 -200 -160 -342l172 -208v-18h-324l-44 53q-137 -69 -338 -69q-197 -1 -308 95t-111 234q0 130 55.5 222.5t171.5 173.5q-51 84 -61 167.5t19.5 150t85 118.5t135.5 80.5
t171 28.5q349 0 429 -322zM336 354q0 -53 39.5 -86t105.5 -33q72 0 142 29l-199 242q-88 -59 -88 -152z" />
    <glyph glyph-name="quotesingle" unicode="'" horiz-adv-x="484" 
d="M150 1238h296l-149 -522h-230z" />
    <glyph glyph-name="parenleft" unicode="(" horiz-adv-x="668" 
d="M631 1238q-85 -98 -154.5 -299.5t-69.5 -407.5t69.5 -408t154.5 -300h-240q-129 124 -201 309t-72 399t72 398.5t201 308.5h240z" />
    <glyph glyph-name="parenright" unicode=")" horiz-adv-x="668" 
d="M278 1238q129 -124 200.5 -308.5t71.5 -398.5t-71.5 -399t-200.5 -309h-241q85 98 155 300t70 408t-70 407.5t-155 299.5h241z" />
    <glyph glyph-name="asterisk" unicode="*" horiz-adv-x="988" 
d="M94 858l74 231l216 -79l-11 228h244l-10 -228l214 79l74 -231l-219 -62l141 -177l-196 -143l-126 191l-127 -191l-196 143l141 177z" />
    <glyph glyph-name="plus" unicode="+" horiz-adv-x="1022" 
d="M104 654h283v283h248v-283h283v-247h-283v-283h-248v283h-283v247z" />
    <glyph glyph-name="comma" unicode="," horiz-adv-x="466" 
d="M115 258h290l-150 -500h-223z" />
    <glyph glyph-name="hyphen" unicode="-" horiz-adv-x="871" 
d="M104 407v247h664v-247h-664z" />
    <glyph glyph-name="period" unicode="." horiz-adv-x="527" 
d="M264 -12q-80 0 -135.5 56t-55.5 135t55.5 135t135.5 56t135.5 -56t55.5 -135t-55.5 -135t-135.5 -56z" />
    <glyph glyph-name="slash" unicode="/" horiz-adv-x="900" 
d="M881 1238v-12l-572 -1226h-290v12l572 1226h290z" />
    <glyph glyph-name="zero" unicode="0" horiz-adv-x="1177" 
d="M591 -19q-243 0 -384.5 171.5t-141.5 466.5t141.5 466.5t384.5 171.5q241 0 381 -171t140 -467t-140 -467t-381 -171zM366 619q0 -169 60.5 -267.5t164.5 -98.5q102 0 161.5 98.5t59.5 267.5t-59.5 267.5t-161.5 98.5q-104 0 -164.5 -98.5t-60.5 -267.5z" />
    <glyph glyph-name="one" unicode="1" horiz-adv-x="795" 
d="M456 1238h191v-1238h-300v773l-160 -154l-175 186z" />
    <glyph glyph-name="two" unicode="2" horiz-adv-x="1016" 
d="M35 851q72 406 469 406q200 0 316.5 -99.5t116.5 -276.5q0 -179 -247 -497l-99 -128h369v-256h-916v42l349 434q140 174 190 262t50 148q0 49 -34 78.5t-100 29.5q-67 0 -111.5 -46.5t-56.5 -141.5z" />
    <glyph glyph-name="three" unicode="3" horiz-adv-x="1013" 
d="M218 361q52 -59 121 -91.5t137 -32.5q86 0 136.5 36.5t50.5 106.5q0 151 -216 151h-145v245h110q98 0 137.5 31.5t39.5 87.5q0 106 -142 106q-124 0 -226 -111l-184 157q62 94 173 152t259 58q194 0 307.5 -94.5t113.5 -241.5q0 -172 -119 -252q88 -28 140.5 -112.5
t52.5 -204.5q0 -162 -126.5 -266.5t-347.5 -104.5q-181 0 -308 66t-177 155z" />
    <glyph glyph-name="four" unicode="4" horiz-adv-x="1052" 
d="M577 0v195h-552v240l606 803h246v-787h108v-256h-108v-195h-300zM343 451h239v324h-2z" />
    <glyph glyph-name="five" unicode="5" horiz-adv-x="955" 
d="M891 405q0 -179 -139 -301.5t-354 -122.5t-352 76l88 251q118 -60 229 -60q96 0 155.5 45t59.5 126q0 90 -64 137t-171 47q-114 0 -247 -34l-9 4l39 665h721v-256h-440l-9 -154q35 5 80 5q200 0 306.5 -118t106.5 -310z" />
    <glyph glyph-name="six" unicode="6" horiz-adv-x="1036" 
d="M35 398q0 102 36 184.5t124 213.5l300 442h361v-14l-306 -418q19 4 58 4q169 0 277.5 -111t108.5 -283q0 -190 -135 -312.5t-344 -122.5q-208 0 -344 119.5t-136 297.5zM340 416q0 -73 49 -120.5t126 -47.5t126 47.5t49 120.5t-49 120.5t-126 47.5t-126 -47.5t-49 -120.5
z" />
    <glyph glyph-name="seven" unicode="7" horiz-adv-x="914" 
d="M895 1238v-32l-428 -1206h-317l351 982h-466v256h860z" />
    <glyph glyph-name="eight" unicode="8" horiz-adv-x="1057" 
d="M529 -21q-214 0 -352 108t-138 277q0 98 50.5 179t140.5 134q-127 92 -127 241q0 147 120 242.5t306 95.5t305 -95.5t119 -242.5q0 -150 -125 -241q90 -51 140.5 -132.5t50.5 -180.5q0 -169 -138 -277t-352 -108zM345 396q0 -66 52 -109t132 -43t132 43t52 109
q0 67 -52 111.5t-132 44.5t-132 -44.5t-52 -111.5zM405 891q0 -49 35 -81t89 -32t89 32t35 81t-35 81.5t-89 32.5t-89 -32.5t-35 -81.5z" />
    <glyph glyph-name="nine" unicode="9" horiz-adv-x="1050" 
d="M1005 840q0 -102 -36 -184.5t-124 -213.5l-300 -442h-361v14l306 418q-19 -4 -58 -4q-169 0 -277.5 111t-108.5 283q0 190 135 312.5t344 122.5q208 0 344 -119.5t136 -297.5zM350 822q0 -73 49 -120.5t126 -47.5t126 47.5t49 120.5t-49 120.5t-126 47.5t-126 -47.5
t-49 -120.5z" />
    <glyph glyph-name="colon" unicode=":" horiz-adv-x="597" 
d="M299 605q-79 0 -135 55.5t-56 135.5t56 135.5t135 55.5t135 -55.5t56 -135.5t-56 -135.5t-135 -55.5zM108 179q0 79 56 135t135 56t135 -56t56 -135t-56 -135t-135 -56t-135 56t-56 135z" />
    <glyph glyph-name="semicolon" unicode=";" horiz-adv-x="601" 
d="M173 258h290l-150 -500h-223zM111 796q0 80 55.5 135.5t135.5 55.5t135.5 -55.5t55.5 -135.5t-55.5 -135.5t-135.5 -55.5t-135.5 55.5t-55.5 135.5z" />
    <glyph glyph-name="less" unicode="&#x3c;" horiz-adv-x="985" 
d="M113 409v244l727 329v-262l-458 -189l458 -188v-262z" />
    <glyph glyph-name="equal" unicode="=" horiz-adv-x="1029" 
d="M122 623v229h785v-229h-785zM122 210v230h785v-230h-785z" />
    <glyph glyph-name="greater" unicode="&#x3e;" horiz-adv-x="985" 
d="M872 409l-727 -328v262l458 188l-458 189v262l727 -329v-244z" />
    <glyph glyph-name="question" unicode="?" horiz-adv-x="997" 
d="M322 419q-3 70 17 127.5t52 93t70 70t70.5 60.5t54.5 61.5t22 75.5q0 94 -122 94q-113 0 -162 -172l-267 66q31 176 154 270.5t311 91.5q183 -3 283.5 -83.5t100.5 -232.5q0 -70 -23.5 -130.5t-58.5 -100t-76 -78t-75.5 -68t-57 -67.5t-21.5 -78h-272zM285 163
q0 72 50.5 122.5t122.5 50.5q73 0 123 -50.5t50 -122.5q0 -73 -50 -123.5t-123 -50.5q-72 0 -122.5 50.5t-50.5 123.5z" />
    <glyph glyph-name="at" unicode="@" horiz-adv-x="1692" 
d="M81 493q0 158 59.5 299.5t161.5 243.5t243.5 161.5t299.5 59.5t300 -59.5t244 -161.5t162 -243.5t60 -299.5q0 -497 -341 -497q-100 0 -159.5 46.5t-82.5 123.5q-86 -78 -230 -78q-137 0 -224.5 75t-87.5 192q0 116 88 191t224 75q95 0 168 -41q-9 62 -49 89.5t-112 27.5
q-113 0 -216 -60l-74 162q58 35 147.5 62t181.5 27q171 0 260.5 -81t89.5 -261v-152q0 -98 21 -137t62 -39q49 0 70.5 61t21.5 214q0 144 -70.5 265.5t-191 192.5t-262.5 71q-141 0 -261 -71t-190 -192.5t-70 -265.5q0 -95 31 -182t88 -155t132.5 -115.5t170 -66t195.5 -2.5
l33 -234q-156 -18 -296.5 12.5t-248 100t-187 168t-120.5 220.5t-41 254zM709 357q0 -45 37.5 -72t97.5 -27q61 0 98 27t36 72t-38 72t-96 27q-60 0 -97.5 -27t-37.5 -72z" />
    <glyph glyph-name="A" unicode="A" horiz-adv-x="1234" 
d="M1247 0h-310l-74 193h-492l-74 -193h-309v14l520 1224h219l520 -1224v-14zM463 432h308l-154 397z" />
    <glyph glyph-name="B" unicode="B" horiz-adv-x="1183" 
d="M810 872q0 124 -141 124h-245v-244h245q141 0 141 120zM134 0v1238h579q178 0 277 -93t99 -259q0 -81 -30 -142t-83 -95q73 -37 113.5 -114.5t40.5 -175.5q0 -175 -102.5 -267t-288.5 -92h-605zM424 242h275q148 0 148 145q0 142 -148 142h-275v-287z" />
    <glyph glyph-name="C" unicode="C" horiz-adv-x="1149" 
d="M707 249q74 0 139.5 28t103.5 70l178 -197q-150 -171 -438 -171q-132 0 -248 48.5t-199 133t-131 203.5t-48 255t48 255t131 203.5t199 133t248 48.5q288 0 438 -171l-178 -197q-38 42 -103.5 70t-139.5 28q-151 0 -251.5 -104.5t-100.5 -265.5t100.5 -265.5
t251.5 -104.5z" />
    <glyph glyph-name="D" unicode="D" horiz-adv-x="1299" 
d="M573 1238q315 0 489 -162t174 -457t-174 -457t-489 -162h-439v1238h439zM435 256h152q164 0 256.5 95t92.5 268t-92.5 268t-256.5 95h-152v-726z" />
    <glyph glyph-name="E" unicode="E" horiz-adv-x="1135" 
d="M1020 982h-585v-229h479v-245h-479v-252h585v-256h-886v1238h886v-256z" />
    <glyph glyph-name="F" unicode="F" horiz-adv-x="1048" 
d="M967 982h-532v-245h440v-245h-440v-492h-301v1238h833v-256z" />
    <glyph glyph-name="G" unicode="G" horiz-adv-x="1375" 
d="M1305 741q27 -220 -42.5 -394.5t-215.5 -271t-341 -96.5q-137 0 -256.5 48t-204 132.5t-133 203.5t-48.5 256t48.5 256t133 202.5t204 131.5t256.5 48q134 0 264 -60.5t211 -161.5l-198 -175q-48 56 -124.5 91.5t-147.5 35.5q-148 0 -244.5 -102.5t-96.5 -265.5
q0 -162 96 -261.5t245 -99.5q121 0 207 68t106 180h-294v235h575z" />
    <glyph glyph-name="H" unicode="H" horiz-adv-x="1361" 
d="M134 1238h301v-462h492v462h300v-1238h-300v520h-492v-520h-301v1238z" />
    <glyph glyph-name="I" unicode="I" horiz-adv-x="569" 
d="M134 1238h301v-1238h-301v1238z" />
    <glyph glyph-name="J" unicode="J" horiz-adv-x="940" 
d="M248 364q15 -54 51 -85t90 -31q56 0 90 34.5t34 106.5v849h301v-849q0 -195 -109 -301.5t-302 -106.5q-157 0 -267 69.5t-157 207.5z" />
    <glyph glyph-name="K" unicode="K" horiz-adv-x="1232" 
d="M134 1238h301v-470l403 470h368v-9l-509 -573l530 -647v-9h-364l-428 531v-531h-301v1238z" />
    <glyph glyph-name="L" unicode="L" horiz-adv-x="1006" 
d="M435 256h513v-256h-814v1238h301v-982z" />
    <glyph glyph-name="M" unicode="M" horiz-adv-x="1627" 
d="M1231 1238h262v-1238h-290v707l-354 -505h-71l-354 505v-707h-290v1238h262l418 -612z" />
    <glyph glyph-name="N" unicode="N" horiz-adv-x="1388" 
d="M1254 0h-218l-606 707v-707h-296v1238h218l607 -707v707h295v-1238z" />
    <glyph glyph-name="O" unicode="O" horiz-adv-x="1407" 
d="M704 -21q-179 0 -325.5 83t-230.5 230t-84 327t84 327t230.5 230t325.5 83t325.5 -83t230.5 -230t84 -327t-84 -327t-230.5 -230t-325.5 -83zM364 619q0 -153 97.5 -255t242.5 -102t242 102t97 255t-97 255t-242 102t-242.5 -102t-97.5 -255z" />
    <glyph glyph-name="P" unicode="P" horiz-adv-x="1193" 
d="M679 1238q210 0 330.5 -120t120.5 -320q0 -211 -119 -327t-332 -116h-244v-355h-301v1238h545zM435 612h205q89 0 139 48.5t50 137.5q0 79 -51.5 131.5t-137.5 52.5h-205v-370z" />
    <glyph glyph-name="Q" unicode="Q" horiz-adv-x="1414" 
d="M509 584h347l136 -160q51 83 51 195q0 153 -97 255t-242 102t-242.5 -102t-97.5 -255t97.5 -255t242.5 -102q39 0 65 5l-260 302v15zM64 619q0 180 84 327t230.5 230t325.5 83t325.5 -83t230.5 -230t84 -327q0 -120 -42.5 -228t-118.5 -188l163 -189v-14h-347l-39 46
q-119 -55 -272 -55q-171 0 -313.5 80t-226.5 224.5t-84 323.5z" />
    <glyph glyph-name="R" unicode="R" horiz-adv-x="1211" 
d="M842 0l-230 433h-177v-433h-301v1238h573q201 0 314 -107t113 -294q0 -135 -59.5 -231t-170.5 -139l256 -453v-14h-318zM435 690h234q77 0 120.5 40t43.5 107q0 66 -43.5 105.5t-120.5 39.5h-234v-292z" />
    <glyph glyph-name="S" unicode="S" horiz-adv-x="1110" 
d="M757 854q-37 69 -97 108t-138 39q-149 0 -149 -94q0 -49 52 -84t210 -82q76 -23 131 -44.5t107.5 -54t84.5 -71.5t51.5 -94t19.5 -123q0 -95 -42 -169.5t-111.5 -118t-150 -65.5t-166.5 -22q-181 0 -314.5 83.5t-191.5 239.5l242 137q104 -200 282 -200q157 0 157 102
q0 54 -52.5 93.5t-189.5 83.5q-49 16 -82.5 28t-80.5 32.5t-79 40.5t-67 50.5t-56 64t-35 78.5t-14 97q0 89 38 158t102.5 110t144 61.5t169.5 20.5q177 0 297.5 -77.5t180.5 -205.5z" />
    <glyph glyph-name="T" unicode="T" horiz-adv-x="1092" 
d="M53 1238h987v-256h-343v-982h-301v982h-343v256z" />
    <glyph glyph-name="U" unicode="U" horiz-adv-x="1344" 
d="M918 1238h301v-741q0 -239 -146 -378.5t-401 -139.5q-254 0 -397.5 139t-145.5 379l-3 741h300v-722q0 -121 64.5 -189.5t181.5 -68.5t181.5 68.5t64.5 189.5v722z" />
    <glyph glyph-name="V" unicode="V" horiz-adv-x="1213" 
d="M497 0l-483 1222v16h326l267 -732l267 732h325v-16l-483 -1222h-219z" />
    <glyph glyph-name="W" unicode="W" horiz-adv-x="1807" 
d="M1793 1238v-18l-426 -1220h-210l-253 741l-253 -741h-211l-426 1220v18h324l223 -686l221 686h244l221 -686l223 686h323z" />
    <glyph glyph-name="X" unicode="X" horiz-adv-x="1260" 
d="M1256 0h-347l-278 435l-279 -435h-347l4 11l424 629l-399 587v11h346l251 -393l250 393h346v-11l-399 -587l428 -629v-11z" />
    <glyph glyph-name="Y" unicode="Y" horiz-adv-x="1174" 
d="M833 1238h338v-11l-435 -725v-502h-301v502l-431 725v11h337l244 -444z" />
    <glyph glyph-name="Z" unicode="Z" horiz-adv-x="1103" 
d="M1033 1238v-18l-532 -964h532v-256h-992v18l532 964h-493v256h953z" />
    <glyph glyph-name="bracketleft" unicode="[" horiz-adv-x="702" 
d="M651 1362v-230h-216v-1203h216v-230h-499v1663h499z" />
    <glyph glyph-name="backslash" unicode="\" horiz-adv-x="900" 
d="M19 1238h290l572 -1226v-12h-290l-572 1226v12z" />
    <glyph glyph-name="bracketright" unicode="]" horiz-adv-x="702" 
d="M51 1362h499v-1663h-499v230h216v1203h-216v230z" />
    <glyph glyph-name="asciicircum" unicode="^" horiz-adv-x="1158" 
d="M584 1296l498 -514l-194 -184l-310 348l-307 -348l-195 182l497 516h11z" />
    <glyph glyph-name="underscore" unicode="_" horiz-adv-x="733" 
d="M27 -64h680v-256h-680v256z" />
    <glyph glyph-name="grave" unicode="`" horiz-adv-x="1016" 
d="M527 1326l173 -265h-240l-257 265h324z" />
    <glyph glyph-name="a" unicode="a" horiz-adv-x="1041" 
d="M663 0v44q-95 -62 -224 -62q-172 0 -283.5 95t-111.5 241t111.5 241t283.5 95q127 0 222 -62q-15 170 -214 170q-139 0 -274 -78l-92 195q73 45 185.5 79t230.5 34q218 0 336 -102t118 -329v-561h-288zM327 322q0 -60 49 -98t125 -38q78 0 125.5 38t47.5 98t-47.5 98
t-125.5 38q-76 0 -125 -38t-49 -98z" />
    <glyph glyph-name="b" unicode="b" horiz-adv-x="1177" 
d="M679 -14q-185 0 -288 124v-110h-283v1326h283v-463q103 124 288 124q194 0 321 -143t127 -358t-127 -357.5t-321 -142.5zM393 486q0 -108 64.5 -180.5t159.5 -72.5q100 0 163.5 71.5t63.5 181.5t-63.5 181.5t-163.5 71.5q-95 0 -159.5 -72.5t-64.5 -180.5z" />
    <glyph glyph-name="c" unicode="c" horiz-adv-x="1018" 
d="M51 486q0 224 138.5 365t358.5 141q137 0 254 -72.5t169 -187.5l-226 -117q-32 56 -85 90t-112 34q-100 0 -163 -70.5t-63 -182.5t63 -182.5t163 -70.5q59 0 112 35t85 91l226 -118q-52 -115 -169 -187.5t-254 -72.5q-221 0 -359 140.5t-138 364.5z" />
    <glyph glyph-name="d" unicode="d" horiz-adv-x="1177" 
d="M499 -14q-194 0 -321 142.5t-127 357.5t127 358t321 143q185 0 288 -124v463h283v-1326h-283v110q-103 -124 -288 -124zM334 486q0 -110 63.5 -181.5t163.5 -71.5q95 0 159.5 72.5t64.5 180.5t-64.5 180.5t-159.5 72.5q-100 0 -163.5 -71.5t-63.5 -181.5z" />
    <glyph glyph-name="e" unicode="e" horiz-adv-x="1073" 
d="M51 486q0 217 139 360.5t351 143.5q120 0 218.5 -52t159 -137.5t87 -196t11.5 -226.5h-688q26 -68 82 -106.5t128 -38.5q55 0 103 25t80 69l215 -148q-143 -197 -396 -197q-139 0 -251.5 66t-175.5 181t-63 257zM324 573h422q-19 71 -72 117t-135 46q-79 0 -136.5 -43.5
t-78.5 -119.5z" />
    <glyph glyph-name="f" unicode="f" horiz-adv-x="691" 
d="M64 752v221h99v83q0 155 93 237.5t230 82.5q140 0 294 -103l-106 -187q-78 46 -126 46q-46 0 -74 -34.5t-28 -98.5v-26h191v-221h-191v-752h-283v752h-99z" />
    <glyph glyph-name="g" unicode="g" horiz-adv-x="1073" 
d="M490 214q-61 0 -119 14q-23 -23 -23 -46q0 -46 114 -46h178q361 0 361 -295q0 -151 -116.5 -238.5t-341.5 -87.5q-315 0 -541 128l113 221q195 -94 428 -94q175 0 175 62q0 32 -26.5 44.5t-99.5 12.5h-189q-165 0 -257.5 63t-92.5 170q0 129 122 212q-108 105 -108 267
q0 170 119.5 279.5t303.5 109.5q167 0 283 -92q86 87 290 87v-256q-94 0 -165 -20q15 -57 15 -108q0 -169 -119.5 -278t-303.5 -109zM341 601q0 -64 42 -104.5t107 -40.5t106.5 40.5t41.5 104.5t-41.5 104.5t-106.5 40.5t-107 -40.5t-42 -104.5z" />
    <glyph glyph-name="h" unicode="h" horiz-adv-x="1121" 
d="M108 0v1326h283v-472q106 128 292 128q169 0 258.5 -113t89.5 -323v-546h-283v546q0 90 -49.5 144.5t-129.5 54.5t-129 -54.5t-49 -144.5v-546h-283z" />
    <glyph glyph-name="i" unicode="i" horiz-adv-x="498" 
d="M108 0v973h283v-973h-283zM80 1238q0 72 48.5 121t120.5 49t121 -49t49 -121t-49 -121t-121 -49t-120.5 49t-48.5 121z" />
    <glyph glyph-name="j" unicode="j" horiz-adv-x="473" 
d="M225 1068q-72 0 -121 49t-49 121q0 71 49 119.5t121 48.5t120.5 -48.5t48.5 -119.5q0 -72 -48.5 -121t-120.5 -49zM-210 -368l102 207q59 -26 106 -26q85 0 85 114v1046h283v-1091q0 -162 -88 -246.5t-220 -84.5q-127 0 -268 81z" />
    <glyph glyph-name="k" unicode="k" horiz-adv-x="1025" 
d="M108 0v1326h283v-716l292 363h346v-7l-366 -434l373 -525v-7h-336l-309 449v-449h-283z" />
    <glyph glyph-name="l" unicode="l" horiz-adv-x="498" 
d="M108 0v1326h283v-1326h-283z" />
    <glyph glyph-name="m" unicode="m" horiz-adv-x="1651" 
d="M108 0v973h283v-92q92 109 256 109q189 0 267 -150q97 150 306 150q154 0 246 -94.5t92 -264.5v-631h-283v594q0 72 -41 116.5t-106 44.5q-69 0 -111.5 -44.5t-42.5 -116.5v-594h-282v594q0 72 -41 116.5t-106 44.5q-69 0 -111.5 -44.5t-42.5 -116.5v-594h-283z" />
    <glyph glyph-name="n" unicode="n" horiz-adv-x="1121" 
d="M108 0v973h283v-106q106 123 286 123q171 0 262.5 -106.5t91.5 -310.5v-573h-283v555q0 88 -50 143t-129 55t-128.5 -55t-49.5 -143v-555h-283z" />
    <glyph glyph-name="o" unicode="o" horiz-adv-x="1100" 
d="M550 -23q-218 0 -358.5 142.5t-140.5 366.5t140.5 367t358.5 143t358.5 -143t140.5 -367t-140.5 -366.5t-358.5 -142.5zM325 486q0 -110 64.5 -182t160.5 -72t160.5 72t64.5 182t-64.5 182.5t-160.5 72.5t-160.5 -72.5t-64.5 -182.5z" />
    <glyph glyph-name="p" unicode="p" horiz-adv-x="1177" 
d="M679 -14q-185 0 -288 124v-464h-283v1327h283v-110q103 124 288 124q194 0 321 -143t127 -358t-127 -357.5t-321 -142.5zM393 486q0 -108 64.5 -180.5t159.5 -72.5q100 0 163.5 71.5t63.5 181.5t-63.5 181.5t-163.5 71.5q-95 0 -159.5 -72.5t-64.5 -180.5z" />
    <glyph glyph-name="q" unicode="q" horiz-adv-x="1177" 
d="M499 -14q-194 0 -321 142.5t-127 357.5t127 358t321 143q185 0 288 -124v110h283v-1327h-283v464q-103 -124 -288 -124zM334 486q0 -110 63.5 -181.5t163.5 -71.5q95 0 159.5 72.5t64.5 180.5t-64.5 180.5t-159.5 72.5q-100 0 -163.5 -71.5t-63.5 -181.5z" />
    <glyph glyph-name="r" unicode="r" horiz-adv-x="764" 
d="M108 0v973h239l24 -165l7 -2q39 94 131 140.5t207 35.5v-267q-49 6 -94.5 -0.5t-88 -27.5t-73.5 -56t-50 -91t-19 -128v-412h-283z" />
    <glyph glyph-name="s" unicode="s" horiz-adv-x="898" 
d="M608 669q-24 43 -69.5 71.5t-101.5 28.5q-112 0 -112 -62q0 -35 37 -57t153 -52q65 -16 113 -34t92 -44t71.5 -59t43.5 -79t16 -103q0 -76 -34.5 -136.5t-91.5 -96.5t-126 -54.5t-144 -18.5q-165 0 -276 62t-158 186l232 117q70 -133 205 -133q113 0 113 80
q0 33 -32.5 51t-121.5 42q-38 10 -68 19.5t-70.5 25.5t-70.5 33t-62 41.5t-52.5 52t-34 64.5t-13.5 78q1 97 58.5 168t146 104t195.5 33q145 0 247 -62.5t147 -165.5z" />
    <glyph glyph-name="t" unicode="t" horiz-adv-x="680" 
d="M48 973h99v192l283 54v-246h185v-221h-185v-356q0 -86 26 -117t98 -31h88v-248h-193q-302 0 -302 299v453h-99v221z" />
    <glyph glyph-name="u" unicode="u" horiz-adv-x="1096" 
d="M718 973h283l-4 -586q-2 -181 -125 -293.5t-324 -112.5q-202 0 -327 112.5t-125 293.5v586h282v-575q0 -74 47 -120t123 -46t123 46t47 120v575z" />
    <glyph glyph-name="v" unicode="v" horiz-adv-x="965" 
d="M658 973h293v-9l-350 -964h-237l-350 964v9h294l175 -556z" />
    <glyph glyph-name="w" unicode="w" horiz-adv-x="1460" 
d="M1150 973h295v-9l-348 -964h-169l-198 485l-199 -485h-167l-348 964v9h295l163 -508l193 508h127l193 -508z" />
    <glyph glyph-name="x" unicode="x" horiz-adv-x="1013" 
d="M1024 0h-320l-196 302l-199 -302h-320v9l338 499l-299 456v9h319l161 -278l159 278h318v-9l-297 -456l336 -499v-9z" />
    <glyph glyph-name="y" unicode="y" horiz-adv-x="962" 
d="M11 973h302l173 -550l168 550h294v-11l-354 -1073q-52 -157 -126.5 -234t-172.5 -84t-226 33l64 228q80 -24 129.5 -4t71.5 94l23 78l-346 962v11z" />
    <glyph glyph-name="z" unicode="z" horiz-adv-x="880" 
d="M837 973v-18l-390 -716h395v-239h-803v18l389 716h-370v239h779z" />
    <glyph glyph-name="braceleft" unicode="{" horiz-adv-x="726" 
d="M495 186q0 -136 42.5 -191.5t146.5 -67.5l-26 -212q-229 -3 -346 111t-117 361v142q0 47 -34.5 67.5t-121.5 29.5v209q84 9 120 31t36 66v166q0 244 115 346.5t348 99.5l26 -212q-55 -7 -87 -17t-57 -34.5t-35 -67t-10 -111.5v-212q0 -57 -28 -99.5t-83 -59.5
q55 -20 83 -61.5t28 -98.5v-185z" />
    <glyph glyph-name="bar" unicode="|" horiz-adv-x="551" 
d="M134 1326h283v-1680h-283v1680z" />
    <glyph glyph-name="braceright" unicode="}" horiz-adv-x="726" 
d="M232 371q0 57 28 98.5t83 61.5q-55 17 -83 59.5t-28 99.5v212q0 69 -10 111.5t-35.5 67t-57.5 34.5t-87 17l27 212q233 3 348 -99.5t115 -346.5v-166q0 -44 36 -66t120 -31v-209q-87 -9 -121.5 -29.5t-34.5 -67.5v-142q0 -247 -117 -361t-346 -111l-27 212
q104 12 147 67.5t43 191.5v185z" />
    <glyph glyph-name="asciitilde" unicode="~" horiz-adv-x="832" 
d="M729 428q-72 -88 -172 -88q-37 0 -68.5 15t-55 36.5t-45.5 43t-51 36.5t-61 15q-88 0 -172 -97v253q78 92 172 92q37 0 68.5 -15t55 -37t45.5 -43.5t51 -36.5t61 -15q94 0 172 97v-256z" />
    <glyph glyph-name="exclamdown" unicode="&#xa1;" horiz-adv-x="661" 
d="M196 511h269l37 -775h-343zM140 796q0 80 56 135.5t135 55.5t135 -55.5t56 -135.5t-56 -135.5t-135 -55.5t-135 55.5t-56 135.5z" />
    <glyph glyph-name="cent" unicode="&#xa2;" horiz-adv-x="1036" 
d="M474 1238h195v-154q95 -26 171 -87.5t113 -144.5l-212 -109q-32 53 -81 85t-105 32q-93 0 -152.5 -67t-59.5 -172t59.5 -172t152.5 -67q56 0 105.5 33t80.5 86l212 -112q-37 -83 -112.5 -143.5t-171.5 -86.5v-159h-195v150q-175 26 -281 154t-106 317q0 190 106 318
t281 154v145z" />
    <glyph glyph-name="sterling" unicode="&#xa3;" horiz-adv-x="1192" 
d="M653 990q-88 0 -133.5 -61.5t-26.5 -176.5l11 -59h271v-221h-248q-3 -134 -60 -208q81 13 223 -4q108 -12 169 0t146 60l123 -230q-125 -74 -240 -92.5t-260 4.5q-163 19 -261 14.5t-204 -32.5l-69 264q54 13 94.5 66.5t43.5 157.5h-161v221h136l-9 59q-34 232 87 359
t368 127q192 0 295.5 -79t149.5 -227l-281 -85q-19 69 -61.5 106t-102.5 37z" />
    <glyph glyph-name="currency" unicode="&#xa4;" horiz-adv-x="1142" 
d="M883 1114l185 -186l-155 -155q31 -71 31 -154t-31 -154l155 -156l-185 -185l-154 155q-75 -33 -158 -33q-82 0 -157 33l-154 -155l-186 185l156 156q-32 73 -32 154t32 154l-156 155l186 186l154 -155q75 33 157 33q83 0 158 -33zM412 619q0 -66 46.5 -112.5t112.5 -46.5
t112.5 46.5t46.5 112.5t-46.5 112.5t-112.5 46.5t-112.5 -46.5t-46.5 -112.5z" />
    <glyph glyph-name="yen" unicode="&#xa5;" horiz-adv-x="1216" 
d="M214 449v174h172l-361 604v11h338l244 -444l247 444h338v-11l-363 -604h191v-174h-263v-69h263v-173h-263v-207h-301v207h-242v173h242v69h-242z" />
    <glyph glyph-name="brokenbar" unicode="&#xa6;" horiz-adv-x="551" 
d="M134 672v654h283v-654h-283zM134 -354v655h283v-655h-283z" />
    <glyph glyph-name="section" unicode="&#xa7;" horiz-adv-x="1110" 
d="M150 -12l221 69q57 -138 175 -138q54 0 83 26.5t18.5 68t-63.5 80.5l-333 249q-80 59 -127.5 131t-58.5 147.5t30.5 151.5t134.5 138q-23 60 -22 119t28.5 112.5t69 94.5t99.5 65t120 24q181 0 287.5 -73t147.5 -222l-221 -69q-57 138 -175 138q-54 0 -83 -26.5t-18 -68
t64 -80.5l333 -249q80 -59 127.5 -131t58.5 -147.5t-30.5 -151.5t-134.5 -138q23 -60 22 -119t-28.5 -113t-69 -94.5t-100 -65t-120.5 -24.5q-180 0 -286.5 73.5t-148.5 222.5zM375 748q-51 -44 -57 -85.5t29.5 -88t119.5 -107.5l269 -196q51 44 57 85.5t-29.5 88
t-119.5 107.5z" />
    <glyph glyph-name="dieresis" unicode="&#xa8;" horiz-adv-x="958" 
d="M290 1054q-50 0 -85 35t-35 85t35 85.5t85 35.5t85 -35.5t35 -85.5t-35 -85t-85 -35zM485 1174q0 50 35 85.5t85 35.5t85 -35.5t35 -85.5t-35 -85t-85 -35t-85 35t-35 85z" />
    <glyph glyph-name="copyright" unicode="&#xa9;" horiz-adv-x="1420" 
d="M982 462q-31 -72 -103.5 -114t-160.5 -42q-136 0 -221 87t-85 224t85 225t221 88q88 0 160.5 -43.5t103.5 -115.5l-163 -97q-17 26 -45 43t-56 17q-49 0 -79.5 -33.5t-30.5 -86.5t30.5 -87t79.5 -34q29 0 57 17t44 44zM81 617q0 174 83.5 318.5t227.5 227t317 82.5
q174 0 318.5 -82.5t228 -226.5t83.5 -319q0 -174 -83.5 -318t-228 -226t-318.5 -82q-173 0 -317 82t-227.5 226t-83.5 318zM288 617q0 -178 122 -302t299 -124q179 0 301 124t122 302q0 180 -122 304t-301 124q-177 0 -299 -125t-122 -303z" />
    <glyph glyph-name="ordfeminine" unicode="&#xaa;" horiz-adv-x="751" 
d="M55 437h642v-138h-642v138zM27 753q0 109 81.5 179.5t209.5 70.5q98 0 165 -46q-10 125 -159 125q-103 0 -202 -58l-69 145q55 33 138 58t170 25q336 0 336 -318v-416h-212v34q-67 -46 -167 -46q-128 0 -209.5 69.5t-81.5 177.5zM235 757q0 -45 36 -73t92 -28
q58 0 93.5 28t35.5 73q0 44 -35.5 72.5t-93.5 28.5q-55 0 -91.5 -28.5t-36.5 -72.5z" />
    <glyph glyph-name="guillemotleft" unicode="&#xab;" horiz-adv-x="1140" 
d="M492 492l468 405l108 -108l-214 -303l214 -302l-108 -108l-468 405v11zM23 481v11l469 405l108 -108l-214 -303l214 -302l-108 -108z" />
    <glyph glyph-name="logicalnot" unicode="&#xac;" horiz-adv-x="898" 
d="M104 407v247h690v-454h-274v207h-416z" />
    <glyph glyph-name="uni00AD" unicode="&#xad;" horiz-adv-x="871" 
d="M104 407v247h664v-247h-664z" />
    <glyph glyph-name="registered" unicode="&#xae;" horiz-adv-x="924" 
d="M490 1045q55 0 89.5 -31.5t34.5 -81.5q0 -38 -17 -66t-47 -40l60 -126h-102l-50 112h-21v-112h-106v345h159zM81 865q0 161 110.5 270.5t270.5 109.5q161 0 271.5 -109.5t110.5 -270.5q0 -160 -110.5 -270t-271.5 -110q-159 0 -270 110t-111 270zM207 865q0 -108 74 -183
t181 -75q108 0 182 75t74 183q0 109 -74 184.5t-182 75.5q-107 0 -181 -76t-74 -184zM437 895h42q14 0 24 9.5t10 22.5q0 14 -10 23t-24 9h-42v-64z" />
    <glyph glyph-name="macron" unicode="&#xaf;" horiz-adv-x="877" 
d="M170 1079v171h491v-171h-491z" />
    <glyph glyph-name="degree" unicode="&#xb0;" horiz-adv-x="719" 
d="M359 677q-122 0 -204 83t-82 207q0 122 82 204.5t204 82.5q123 0 205.5 -82.5t82.5 -204.5q0 -124 -82.5 -207t-205.5 -83zM276 967q0 -37 23.5 -60.5t59.5 -23.5q38 0 61.5 23.5t23.5 60.5q0 35 -24 58.5t-61 23.5q-36 0 -59.5 -23.5t-23.5 -58.5z" />
    <glyph glyph-name="plusminus" unicode="&#xb1;" horiz-adv-x="946" 
d="M115 97v220h716v-220h-716zM115 635v219h249v248h218v-248h249v-219h-249v-248h-218v248h-249z" />
    <glyph glyph-name="uni00B2" unicode="&#xb2;" horiz-adv-x="682" 
d="M21 990q20 132 105.5 195.5t211.5 63.5q132 0 212.5 -66.5t80.5 -165.5q0 -64 -35.5 -132.5t-130.5 -157.5l-30 -28h214v-172h-612v34l230 235q94 95 124 136t30 74q0 28 -21 46t-62 18q-46 0 -75.5 -29.5t-37.5 -85.5z" />
    <glyph glyph-name="uni00B3" unicode="&#xb3;" horiz-adv-x="659" 
d="M145 750q29 -30 77 -47t100 -17q49 0 78.5 19.5t29.5 54.5t-35.5 50.5t-109.5 15.5h-82v145h39q152 0 152 55q0 27 -21.5 39t-68.5 12q-105 0 -166 -76l-122 106q96 142 286 142q144 0 219 -54t75 -141q0 -100 -94 -148q57 -16 92.5 -63.5t35.5 -113.5q0 -98 -81 -156
t-241 -58q-109 0 -190.5 39.5t-113.5 89.5z" />
    <glyph glyph-name="acute" unicode="&#xb4;" horiz-adv-x="999" 
d="M375 1326h324l-257 -265h-240z" />
    <glyph glyph-name="uni00B5" unicode="&#xb5;" horiz-adv-x="1216" 
d="M1031 248h147v-248h-317v34q-77 -43 -178 -43q-186 0 -292 127v-472h-283v1327h283v-547q0 -90 49 -144t129 -54t129.5 54t49.5 144v547h283v-725z" />
    <glyph glyph-name="paragraph" unicode="&#xb6;" horiz-adv-x="1199" 
d="M453 561q-164 3 -264.5 96t-100.5 243q0 151 100.5 244.5t264.5 93.5h612v-1240h-251v1008h-110v-1008h-251v563z" />
    <glyph glyph-name="periodcentered" unicode="&#xb7;" horiz-adv-x="590" 
d="M295 350q-79 0 -135 56t-56 135t56 135t135 56t135 -56t56 -135t-56 -135t-135 -56z" />
    <glyph glyph-name="cedilla" unicode="&#xb8;" horiz-adv-x="827" 
d="M357 30h156v-14l-32 -106q51 -11 74 -43.5t23 -69.5q0 -66 -53.5 -109t-149.5 -43q-111 0 -205 58l51 106q84 -42 136 -42q29 0 41 8.5t12 28.5q0 43 -88 60z" />
    <glyph glyph-name="uni00B9" unicode="&#xb9;" horiz-adv-x="585" 
d="M304 1238h143v-538h135v-169h-517v169h172v251l-101 -90l-118 128z" />
    <glyph glyph-name="ordmasculine" unicode="&#xba;" horiz-adv-x="799" 
d="M96 437h608v-138h-608v138zM30 879q0 165 104.5 271t265.5 106q162 0 265.5 -105.5t103.5 -271.5q0 -167 -103.5 -272.5t-265.5 -105.5q-161 0 -265.5 106t-104.5 272zM233 879q0 -82 48 -135.5t119 -53.5t118.5 53.5t47.5 135.5q0 81 -47.5 134t-118.5 53t-119 -53
t-48 -134z" />
    <glyph glyph-name="guillemotright" unicode="&#xbb;" horiz-adv-x="1140" 
d="M649 492v-11l-469 -405l-107 108l214 302l-214 303l107 108zM541 184l214 302l-214 303l108 108l469 -405v-11l-469 -405z" />
    <glyph glyph-name="onequarter" unicode="&#xbc;" horiz-adv-x="1469" 
d="M453 1238h143v-538h134v-169h-516v169h172v251l-101 -90l-119 128zM120 -7v9l331 410h249v-23l-300 -396h-280zM734 94v157l391 449h184v-442h81v-164h-81v-101h-202v101h-373zM764 812v23l301 396h279v-9l-331 -410h-249zM950 258h162v186h-1z" />
    <glyph glyph-name="onehalf" unicode="&#xbd;" horiz-adv-x="1476" 
d="M407 1242h143v-538h134v-170h-516v170h172v251l-101 -90l-119 127zM126 0v9l330 410h250v-23l-301 -396h-279zM769 819v23l301 396h279v-9l-330 -410h-250zM801 463q20 132 105.5 195.5t211.5 63.5q132 0 212.5 -66.5t80.5 -165.5q0 -64 -35.5 -132.5t-130.5 -157.5
l-30 -28h214v-172h-612v34l230 235q94 95 124 136t30 74q0 28 -21 46t-62 18q-46 0 -75.5 -29.5t-37.5 -85.5z" />
    <glyph glyph-name="threequarters" unicode="&#xbe;" horiz-adv-x="1572" 
d="M264 750q29 -30 77 -47t99 -17q49 0 78.5 19.5t29.5 54.5t-35.5 50.5t-109.5 15.5h-81v145h39q152 0 152 55q0 27 -21.5 39t-68.5 12q-106 0 -167 -76l-122 106q96 142 287 142q144 0 219 -54t75 -141q0 -100 -94 -148q57 -16 92 -63.5t35 -113.5q0 -98 -81 -156
t-241 -58q-109 0 -190.5 39.5t-113.5 89.5zM230 0v9l331 410h249v-23l-301 -396h-279zM837 101v157l390 449h184v-442h82v-164h-82v-101h-201v101h-373zM874 819v23l300 396h280v-9l-331 -410h-249zM1052 265h163v186h-2z" />
    <glyph glyph-name="questiondown" unicode="&#xbf;" horiz-adv-x="854" 
d="M584 557q2 -60 -12.5 -111t-39.5 -86t-56 -65t-62.5 -55.5t-57.5 -50t-42.5 -55t-16.5 -65.5q0 -94 122 -94q114 0 163 172l267 -66q-31 -176 -154 -270.5t-311 -91.5q-183 3 -283.5 83.5t-100.5 232.5q0 70 23.5 130.5t58.5 100t75.5 78t75 68t57 67.5t21.5 78h273z
M274 814q0 73 50 123t123 50q72 0 123 -50.5t51 -122.5t-51 -123t-123 -51t-122.5 51t-50.5 123z" />
    <glyph glyph-name="Agrave" unicode="&#xc0;" horiz-adv-x="1234" 
d="M1247 0h-310l-74 193h-492l-74 -193h-309v14l520 1224h219l520 -1224v-14zM269 1592h323l174 -266h-241zM463 432h308l-154 397z" />
    <glyph glyph-name="Aacute" unicode="&#xc1;" horiz-adv-x="1234" 
d="M1247 0h-310l-74 193h-492l-74 -193h-309v14l520 1224h219l520 -1224v-14zM463 432h308l-154 397zM479 1326l174 266h323l-256 -266h-241z" />
    <glyph glyph-name="Acircumflex" unicode="&#xc2;" horiz-adv-x="1234" 
d="M1247 0h-310l-74 193h-492l-74 -193h-309v14l520 1224h219l520 -1224v-14zM354 1425l263 229l264 -229l-135 -127l-129 129l-129 -129zM463 432h308l-154 397z" />
    <glyph glyph-name="Atilde" unicode="&#xc3;" horiz-adv-x="1234" 
d="M1247 0h-310l-74 193h-492l-74 -193h-309v14l520 1224h219l520 -1224v-14zM338 1450q94 120 200 120q30 0 53.5 -10.5t37.5 -25t26.5 -29t27.5 -25t32 -10.5q48 0 97 58l92 -103q-33 -52 -86.5 -85t-108.5 -33q-37 0 -64.5 16t-40.5 34.5t-31.5 34.5t-41.5 16
q-57 0 -101 -60zM463 432h308l-154 397z" />
    <glyph glyph-name="Adieresis" unicode="&#xc4;" horiz-adv-x="1234" 
d="M1247 0h-310l-74 193h-492l-74 -193h-309v14l520 1224h219l520 -1224v-14zM340 1440q0 50 35 85t85 35t85 -35t35 -85t-35 -85.5t-85 -35.5t-85 35.5t-35 85.5zM463 432h308l-154 397zM654 1440q0 50 35.5 85t85.5 35t85 -35t35 -85t-35 -85.5t-85 -35.5t-85.5 35.5
t-35.5 85.5z" />
    <glyph glyph-name="Aring" unicode="&#xc5;" horiz-adv-x="1234" 
d="M1247 0h-310l-74 193h-492l-74 -193h-309v14l520 1224h219l520 -1224v-14zM403 1494q0 90 61.5 150.5t152.5 60.5t152.5 -60.5t61.5 -150.5q0 -89 -61.5 -148.5t-152.5 -59.5t-152.5 59.5t-61.5 148.5zM463 432h308l-154 397zM529 1494q0 -40 25 -66.5t63 -26.5
t63.5 26.5t25.5 66.5t-25.5 67t-63.5 27q-37 0 -62.5 -27t-25.5 -67z" />
    <glyph glyph-name="AE" unicode="&#xc6;" horiz-adv-x="1895" 
d="M1781 982h-585v-229h479v-245h-479v-252h585v-256h-886v193h-483l-136 -193h-341v16l894 1222h952v-256zM582 432h313v440z" />
    <glyph glyph-name="Ccedilla" unicode="&#xc7;" horiz-adv-x="1149" 
d="M707 249q74 0 139.5 28t103.5 70l178 -197q-129 -147 -360 -168l-29 -92q51 -11 74.5 -44t23.5 -69q0 -66 -54 -109t-150 -43q-111 0 -205 58l51 107q86 -43 136 -43q29 0 41.5 8.5t12.5 28.5q0 43 -89 60l30 140q-239 28 -392.5 204.5t-153.5 430.5q0 136 48 255
t131 203.5t199 133t248 48.5q288 0 438 -171l-178 -197q-38 42 -103.5 70t-139.5 28q-151 0 -251.5 -104.5t-100.5 -265.5t100.5 -265.5t251.5 -104.5z" />
    <glyph glyph-name="Egrave" unicode="&#xc8;" horiz-adv-x="1135" 
d="M1020 982h-585v-229h479v-245h-479v-252h585v-256h-886v1238h886v-256zM253 1592h324l173 -266h-241z" />
    <glyph glyph-name="Eacute" unicode="&#xc9;" horiz-adv-x="1135" 
d="M1020 982h-585v-229h479v-245h-479v-252h585v-256h-886v1238h886v-256zM463 1326l174 266h323l-256 -266h-241z" />
    <glyph glyph-name="Ecircumflex" unicode="&#xca;" horiz-adv-x="1135" 
d="M1020 982h-585v-229h479v-245h-479v-252h585v-256h-886v1238h886v-256zM338 1425l263 229l264 -229l-135 -127l-129 129l-129 -129z" />
    <glyph glyph-name="Edieresis" unicode="&#xcb;" horiz-adv-x="1135" 
d="M1020 982h-585v-229h479v-245h-479v-252h585v-256h-886v1238h886v-256zM324 1440q0 50 35 85t85 35t85 -35t35 -85t-35 -85.5t-85 -35.5t-85 35.5t-35 85.5zM638 1440q0 50 35.5 85t85.5 35t85 -35t35 -85t-35 -85.5t-85 -35.5t-85.5 35.5t-35.5 85.5z" />
    <glyph glyph-name="Igrave" unicode="&#xcc;" horiz-adv-x="569" 
d="M134 1238h301v-1238h-301v1238zM-64 1592h324l173 -266h-240z" />
    <glyph glyph-name="Iacute" unicode="&#xcd;" horiz-adv-x="569" 
d="M134 1238h301v-1238h-301v1238zM147 1326l173 266h324l-257 -266h-240z" />
    <glyph glyph-name="Icircumflex" unicode="&#xce;" horiz-adv-x="569" 
d="M134 1238h301v-1238h-301v1238zM21 1425l264 229l263 -229l-134 -127l-129 129l-129 -129z" />
    <glyph glyph-name="Idieresis" unicode="&#xcf;" horiz-adv-x="569" 
d="M134 1238h301v-1238h-301v1238zM7 1440q0 50 35 85t85 35t85.5 -35t35.5 -85t-35.5 -85.5t-85.5 -35.5t-85 35.5t-35 85.5zM322 1440q0 50 35 85t85 35t85 -35t35 -85t-35 -85.5t-85 -35.5t-85 35.5t-35 85.5z" />
    <glyph glyph-name="Eth" unicode="&#xd0;" horiz-adv-x="1299" 
d="M573 1238q315 0 489 -162t174 -457t-174 -457t-489 -162h-439v508h-102v222h102v508h439zM435 256h152q164 0 256.5 95t92.5 268t-92.5 268t-256.5 95h-152v-252h184v-222h-184v-252z" />
    <glyph glyph-name="Ntilde" unicode="&#xd1;" horiz-adv-x="1388" 
d="M1254 0h-218l-606 707v-707h-296v1238h218l607 -707v707h295v-1238zM416 1450q94 120 199 120q30 0 53.5 -10.5t37.5 -25t26.5 -29t27.5 -25t32 -10.5q49 0 98 58l92 -103q-33 -52 -86.5 -85t-108.5 -33q-37 0 -64.5 16t-40.5 34.5t-32 34.5t-42 16q-56 0 -100 -60z" />
    <glyph glyph-name="Ograve" unicode="&#xd2;" horiz-adv-x="1407" 
d="M704 -21q-179 0 -325.5 83t-230.5 230t-84 327t84 327t230.5 230t325.5 83t325.5 -83t230.5 -230t84 -327t-84 -327t-230.5 -230t-325.5 -83zM355 1613h324l173 -265h-240zM364 619q0 -153 97.5 -255t242.5 -102t242 102t97 255t-97 255t-242 102t-242.5 -102t-97.5 -255
z" />
    <glyph glyph-name="Oacute" unicode="&#xd3;" horiz-adv-x="1407" 
d="M704 -21q-179 0 -325.5 83t-230.5 230t-84 327t84 327t230.5 230t325.5 83t325.5 -83t230.5 -230t84 -327t-84 -327t-230.5 -230t-325.5 -83zM364 619q0 -153 97.5 -255t242.5 -102t242 102t97 255t-97 255t-242 102t-242.5 -102t-97.5 -255zM566 1348l173 265h324
l-257 -265h-240z" />
    <glyph glyph-name="Ocircumflex" unicode="&#xd4;" horiz-adv-x="1407" 
d="M704 -21q-179 0 -325.5 83t-230.5 230t-84 327t84 327t230.5 230t325.5 83t325.5 -83t230.5 -230t84 -327t-84 -327t-230.5 -230t-325.5 -83zM364 619q0 -153 97.5 -255t242.5 -102t242 102t97 255t-97 255t-242 102t-242.5 -102t-97.5 -255zM440 1447l264 228l263 -228
l-134 -128l-129 129l-129 -129z" />
    <glyph glyph-name="Otilde" unicode="&#xd5;" horiz-adv-x="1407" 
d="M704 -21q-179 0 -325.5 83t-230.5 230t-84 327t84 327t230.5 230t325.5 83t325.5 -83t230.5 -230t84 -327t-84 -327t-230.5 -230t-325.5 -83zM364 619q0 -153 97.5 -255t242.5 -102t242 102t97 255t-97 255t-242 102t-242.5 -102t-97.5 -255zM424 1471q95 121 200 121
q36 0 64 -16t41.5 -34.5t32 -34.5t39.5 -16q48 0 97 58l92 -102q-34 -53 -86.5 -86t-107.5 -33q-37 0 -64.5 16t-40.5 34.5t-32 34.5t-42 16q-57 0 -101 -60z" />
    <glyph glyph-name="Odieresis" unicode="&#xd6;" horiz-adv-x="1407" 
d="M704 -21q-179 0 -325.5 83t-230.5 230t-84 327t84 327t230.5 230t325.5 83t325.5 -83t230.5 -230t84 -327t-84 -327t-230.5 -230t-325.5 -83zM364 619q0 -153 97.5 -255t242.5 -102t242 102t97 255t-97 255t-242 102t-242.5 -102t-97.5 -255zM426 1461q0 50 35 85t85 35
t85.5 -35t35.5 -85t-35.5 -85t-85.5 -35t-85 35t-35 85zM741 1461q0 50 35 85t85 35t85.5 -35t35.5 -85t-35.5 -85t-85.5 -35t-85 35t-35 85z" />
    <glyph glyph-name="multiply" unicode="&#xd7;" horiz-adv-x="901" 
d="M76 329l200 202l-200 199l175 176l200 -200l200 200l175 -176l-200 -199l200 -202l-175 -175l-200 200l-200 -200z" />
    <glyph glyph-name="Oslash" unicode="&#xd8;" horiz-adv-x="1407" 
d="M704 -21q-157 0 -292 65l-35 -44h-299l145 187q-159 181 -159 432q0 180 84 327t230.5 230t325.5 83q161 0 293 -67l36 46h297l-145 -187q159 -181 159 -432q0 -180 -84 -327t-230.5 -230t-325.5 -83zM364 619q0 -99 48 -187l405 525q-55 19 -113 19q-145 0 -242.5 -102
t-97.5 -255zM592 279q54 -17 112 -17q145 0 242 102t97 255q0 99 -46 186z" />
    <glyph glyph-name="Ugrave" unicode="&#xd9;" horiz-adv-x="1344" 
d="M918 1238h301v-741q0 -239 -146 -378.5t-401 -139.5q-254 0 -397.5 139t-145.5 379l-3 741h300v-722q0 -121 64.5 -189.5t181.5 -68.5t181.5 68.5t64.5 189.5v722zM324 1592h323l174 -266h-241z" />
    <glyph glyph-name="Uacute" unicode="&#xda;" horiz-adv-x="1344" 
d="M918 1238h301v-741q0 -239 -146 -378.5t-401 -139.5q-254 0 -397.5 139t-145.5 379l-3 741h300v-722q0 -121 64.5 -189.5t181.5 -68.5t181.5 68.5t64.5 189.5v722zM534 1326l173 266h324l-256 -266h-241z" />
    <glyph glyph-name="Ucircumflex" unicode="&#xdb;" horiz-adv-x="1344" 
d="M918 1238h301v-741q0 -239 -146 -378.5t-401 -139.5q-254 0 -397.5 139t-145.5 379l-3 741h300v-722q0 -121 64.5 -189.5t181.5 -68.5t181.5 68.5t64.5 189.5v722zM409 1425l263 229l264 -229l-135 -127l-129 129l-129 -129z" />
    <glyph glyph-name="Udieresis" unicode="&#xdc;" horiz-adv-x="1344" 
d="M918 1238h301v-741q0 -239 -146 -378.5t-401 -139.5q-254 0 -397.5 139t-145.5 379l-3 741h300v-722q0 -121 64.5 -189.5t181.5 -68.5t181.5 68.5t64.5 189.5v722zM394 1440q0 50 35.5 85t85.5 35t85 -35t35 -85t-35 -85.5t-85 -35.5t-85.5 35.5t-35.5 85.5zM709 1440
q0 50 35 85t85 35t85.5 -35t35.5 -85t-35.5 -85.5t-85.5 -35.5t-85 35.5t-35 85.5z" />
    <glyph glyph-name="Yacute" unicode="&#xdd;" horiz-adv-x="1174" 
d="M833 1238h338v-11l-435 -725v-502h-301v502l-431 725v11h337l244 -444zM449 1326l174 266h323l-256 -266h-241z" />
    <glyph glyph-name="Thorn" unicode="&#xde;" horiz-adv-x="1087" 
d="M134 1238h301v-235h170q195 0 307 -100.5t112 -283.5t-112 -283.5t-307 -100.5h-170v-235h-301v1238zM435 492h150q65 0 101.5 33.5t36.5 93.5t-36.5 93.5t-101.5 33.5h-150v-254z" />
    <glyph glyph-name="germandbls" unicode="&#xdf;" horiz-adv-x="1059" 
d="M387 0h-279v835q0 200 101 305t284 105q179 0 281.5 -87t102.5 -233q0 -77 -28 -135t-76 -84q105 -25 170 -114.5t65 -232.5q0 -155 -99.5 -259.5t-247.5 -104.5q-127 0 -203 24l48 237q40 -8 85 -8q63 0 99.5 40t36.5 108q0 66 -40.5 106.5t-108.5 40.5h-76v233h2
q43 0 70 29.5t27 77.5q0 45 -28 73.5t-72 28.5q-49 0 -81.5 -32.5t-32.5 -101.5v-851z" />
    <glyph glyph-name="agrave" unicode="&#xe0;" horiz-adv-x="1041" 
d="M663 0v44q-95 -62 -224 -62q-172 0 -283.5 95t-111.5 241t111.5 241t283.5 95q127 0 222 -62q-15 170 -214 170q-139 0 -274 -78l-92 195q73 45 185.5 79t230.5 34q218 0 336 -102t118 -329v-561h-288zM186 1346h323l174 -265h-241zM327 322q0 -60 49 -98t125 -38
q78 0 125.5 38t47.5 98t-47.5 98t-125.5 38q-76 0 -125 -38t-49 -98z" />
    <glyph glyph-name="aacute" unicode="&#xe1;" horiz-adv-x="1041" 
d="M663 0v44q-95 -62 -224 -62q-172 0 -283.5 95t-111.5 241t111.5 241t283.5 95q127 0 222 -62q-15 170 -214 170q-139 0 -274 -78l-92 195q73 45 185.5 79t230.5 34q218 0 336 -102t118 -329v-561h-288zM327 322q0 -60 49 -98t125 -38q78 0 125.5 38t47.5 98t-47.5 98
t-125.5 38q-76 0 -125 -38t-49 -98zM396 1081l173 265h324l-256 -265h-241z" />
    <glyph glyph-name="acircumflex" unicode="&#xe2;" horiz-adv-x="1041" 
d="M663 0v44q-95 -62 -224 -62q-172 0 -283.5 95t-111.5 241t111.5 241t283.5 95q127 0 222 -62q-15 170 -214 170q-139 0 -274 -78l-92 195q73 45 185.5 79t230.5 34q218 0 336 -102t118 -329v-561h-288zM271 1180l263 228l264 -228l-135 -128l-129 129l-129 -129zM327 322
q0 -60 49 -98t125 -38q78 0 125.5 38t47.5 98t-47.5 98t-125.5 38q-76 0 -125 -38t-49 -98z" />
    <glyph glyph-name="atilde" unicode="&#xe3;" horiz-adv-x="1041" 
d="M663 0v44q-95 -62 -224 -62q-172 0 -283.5 95t-111.5 241t111.5 241t283.5 95q127 0 222 -62q-15 170 -214 170q-139 0 -274 -78l-92 195q73 45 185.5 79t230.5 34q218 0 336 -102t118 -329v-561h-288zM255 1204q95 121 200 121q36 0 63.5 -16t41 -34.5t32 -34.5
t39.5 -16q49 0 98 58l92 -102q-34 -53 -87 -86t-108 -33q-37 0 -64.5 16t-40.5 34.5t-32 34.5t-42 16q-56 0 -100 -60zM327 322q0 -60 49 -98t125 -38q78 0 125.5 38t47.5 98t-47.5 98t-125.5 38q-76 0 -125 -38t-49 -98z" />
    <glyph glyph-name="adieresis" unicode="&#xe4;" horiz-adv-x="1041" 
d="M663 0v44q-95 -62 -224 -62q-172 0 -283.5 95t-111.5 241t111.5 241t283.5 95q127 0 222 -62q-15 170 -214 170q-139 0 -274 -78l-92 195q73 45 185.5 79t230.5 34q218 0 336 -102t118 -329v-561h-288zM256 1194q0 50 35.5 85t85.5 35t85 -35t35 -85t-35 -85t-85 -35
t-85.5 35t-35.5 85zM327 322q0 -60 49 -98t125 -38q78 0 125.5 38t47.5 98t-47.5 98t-125.5 38q-76 0 -125 -38t-49 -98zM571 1194q0 50 35.5 85t85.5 35t85 -35t35 -85t-35 -85t-85 -35t-85.5 35t-35.5 85z" />
    <glyph glyph-name="aring" unicode="&#xe5;" horiz-adv-x="1041" 
d="M663 0v44q-95 -62 -224 -62q-172 0 -283.5 95t-111.5 241t111.5 241t283.5 95q127 0 222 -62q-15 170 -214 170q-139 0 -274 -78l-92 195q73 45 185.5 79t230.5 34q218 0 336 -102t118 -329v-561h-288zM320 1249q0 90 61 150t153 60t153 -60t61 -150q0 -89 -61.5 -149
t-152.5 -60t-152.5 60t-61.5 149zM327 322q0 -60 49 -98t125 -38q78 0 125.5 38t47.5 98t-47.5 98t-125.5 38q-76 0 -125 -38t-49 -98zM446 1249q0 -40 25.5 -67t62.5 -27q38 0 63.5 27t25.5 67t-25.5 66.5t-63.5 26.5t-63 -26.5t-25 -66.5z" />
    <glyph glyph-name="ae" unicode="&#xe6;" horiz-adv-x="1719" 
d="M663 0v44q-95 -62 -224 -62q-172 0 -283.5 95t-111.5 241t111.5 241t283.5 95q127 0 222 -62q-15 170 -214 170q-139 0 -274 -78l-92 195q73 45 185.5 79t230.5 34q245 0 359 -125q134 123 331 123q159 0 276.5 -88.5t168.5 -228t30 -295.5h-688q26 -68 82 -106.5
t129 -38.5q55 0 102.5 25t79.5 69l216 -148q-143 -197 -396 -197q-124 0 -236 57v-39h-288zM327 322q0 -60 49 -98t125 -38q78 0 125.5 38t47.5 98t-47.5 98t-125.5 38q-76 0 -125 -38t-49 -98zM969 573h423q-19 71 -72 117t-135 46q-79 0 -137 -43.5t-79 -119.5z" />
    <glyph glyph-name="ccedilla" unicode="&#xe7;" horiz-adv-x="1018" 
d="M51 486q0 224 138.5 365t358.5 141q137 0 254 -72.5t169 -187.5l-226 -117q-32 56 -85 90t-112 34q-100 0 -163 -70.5t-63 -182.5t63 -182.5t163 -70.5q59 0 112 35t85 91l226 -118q-43 -94 -129.5 -160.5t-195.5 -89.5l-31 -101q51 -11 74.5 -44t23.5 -69
q0 -66 -54 -109t-150 -43q-111 0 -205 58l51 107q86 -43 137 -43q29 0 41 8.5t12 28.5q0 43 -89 60l30 140q-196 20 -315.5 157t-119.5 345z" />
    <glyph glyph-name="egrave" unicode="&#xe8;" horiz-adv-x="1073" 
d="M516 1344l174 -265h-241l-256 265h323zM51 486q0 217 139 360.5t351 143.5q120 0 218.5 -52t159 -137.5t87 -196t11.5 -226.5h-688q26 -68 82 -106.5t128 -38.5q55 0 103 25t80 69l215 -148q-143 -197 -396 -197q-139 0 -251.5 66t-175.5 181t-63 257zM324 573h422
q-19 71 -72 117t-135 46q-79 0 -136.5 -43.5t-78.5 -119.5z" />
    <glyph glyph-name="eacute" unicode="&#xe9;" horiz-adv-x="1073" 
d="M577 1344h323l-256 -265h-241zM51 486q0 217 139 360.5t351 143.5q120 0 218.5 -52t159 -137.5t87 -196t11.5 -226.5h-688q26 -68 82 -106.5t128 -38.5q55 0 103 25t80 69l215 -148q-143 -197 -396 -197q-139 0 -251.5 66t-175.5 181t-63 257zM324 573h422
q-19 71 -72 117t-135 46q-79 0 -136.5 -43.5t-78.5 -119.5z" />
    <glyph glyph-name="ecircumflex" unicode="&#xea;" horiz-adv-x="1073" 
d="M541 1406l264 -228l-135 -127l-129 129l-129 -129l-134 127zM51 486q0 217 139 360.5t351 143.5q120 0 218.5 -52t159 -137.5t87 -196t11.5 -226.5h-688q26 -68 82 -106.5t128 -38.5q55 0 103 25t80 69l215 -148q-143 -197 -396 -197q-139 0 -251.5 66t-175.5 181
t-63 257zM324 573h422q-19 71 -72 117t-135 46q-79 0 -136.5 -43.5t-78.5 -119.5z" />
    <glyph glyph-name="edieresis" unicode="&#xeb;" horiz-adv-x="1073" 
d="M384 1072q-50 0 -85 35t-35 85t35 85t85 35t85 -35t35 -85t-35 -85t-85 -35zM51 486q0 217 139 360.5t351 143.5q120 0 218.5 -52t159 -137.5t87 -196t11.5 -226.5h-688q26 -68 82 -106.5t128 -38.5q55 0 103 25t80 69l215 -148q-143 -197 -396 -197q-139 0 -251.5 66
t-175.5 181t-63 257zM324 573h422q-19 71 -72 117t-135 46q-79 0 -136.5 -43.5t-78.5 -119.5zM578 1192q0 50 35.5 85t85.5 35t85 -35t35 -85t-35 -85t-85 -35t-85.5 35t-35.5 85z" />
    <glyph glyph-name="igrave" unicode="&#xec;" horiz-adv-x="498" 
d="M108 0v973h283v-973h-283zM-99 1326h324l173 -265h-241z" />
    <glyph glyph-name="iacute" unicode="&#xed;" horiz-adv-x="498" 
d="M108 0v973h283v-973h-283zM111 1061l174 265h323l-256 -265h-241z" />
    <glyph glyph-name="icircumflex" unicode="&#xee;" horiz-adv-x="498" 
d="M108 0v973h283v-973h-283zM-14 1160l263 228l264 -228l-135 -127l-129 129l-129 -129z" />
    <glyph glyph-name="idieresis" unicode="&#xef;" horiz-adv-x="498" 
d="M108 0v973h283v-973h-283zM-28 1174q0 50 35 85.5t85 35.5t85 -35.5t35 -85.5t-35 -85t-85 -35t-85 35t-35 85zM287 1174q0 50 35 85.5t85 35.5t85 -35.5t35 -85.5t-35 -85t-85 -35t-85 35t-35 85z" />
    <glyph glyph-name="eth" unicode="&#xf0;" horiz-adv-x="1024" 
d="M152 960l108 87q-56 26 -127 55l122 244q128 -55 228 -119l143 115l133 -161l-106 -83q155 -141 237.5 -314t82.5 -365q0 -125 -62 -226t-166 -156.5t-229 -55.5q-198 0 -331.5 121.5t-133.5 306.5q0 171 115 282.5t274 111.5q86 0 142 -21q-59 87 -138 152l-161 -128z
M341 407q0 -70 50 -118t122 -48t121 48t49 118q0 73 -49 123t-121 50t-122 -50t-50 -123z" />
    <glyph glyph-name="ntilde" unicode="&#xf1;" horiz-adv-x="1121" 
d="M108 0v973h283v-106q106 123 286 123q171 0 262.5 -106.5t91.5 -310.5v-573h-283v555q0 88 -50 143t-129 55t-128.5 -55t-49.5 -143v-555h-283zM309 1185q94 120 200 120q36 0 64 -16t41.5 -34.5t32 -34.5t39.5 -16q47 0 97 59l92 -103q-34 -53 -86.5 -85.5t-107.5 -32.5
q-31 0 -54.5 10.5t-37.5 25t-26 29t-27 25t-34 10.5q-57 0 -101 -60z" />
    <glyph glyph-name="ograve" unicode="&#xf2;" horiz-adv-x="1100" 
d="M550 -23q-218 0 -358.5 142.5t-140.5 366.5t140.5 367t358.5 143t358.5 -143t140.5 -367t-140.5 -366.5t-358.5 -142.5zM202 1349h323l174 -265h-241zM325 486q0 -110 64.5 -182t160.5 -72t160.5 72t64.5 182t-64.5 182.5t-160.5 72.5t-160.5 -72.5t-64.5 -182.5z" />
    <glyph glyph-name="oacute" unicode="&#xf3;" horiz-adv-x="1100" 
d="M550 -23q-218 0 -358.5 142.5t-140.5 366.5t140.5 367t358.5 143t358.5 -143t140.5 -367t-140.5 -366.5t-358.5 -142.5zM325 486q0 -110 64.5 -182t160.5 -72t160.5 72t64.5 182t-64.5 182.5t-160.5 72.5t-160.5 -72.5t-64.5 -182.5zM412 1084l173 265h324l-256 -265
h-241z" />
    <glyph glyph-name="ocircumflex" unicode="&#xf4;" horiz-adv-x="1100" 
d="M550 -23q-218 0 -358.5 142.5t-140.5 366.5t140.5 367t358.5 143t358.5 -143t140.5 -367t-140.5 -366.5t-358.5 -142.5zM287 1183l263 228l264 -228l-135 -127l-129 129l-129 -129zM325 486q0 -110 64.5 -182t160.5 -72t160.5 72t64.5 182t-64.5 182.5t-160.5 72.5
t-160.5 -72.5t-64.5 -182.5z" />
    <glyph glyph-name="otilde" unicode="&#xf5;" horiz-adv-x="1100" 
d="M550 -23q-218 0 -358.5 142.5t-140.5 366.5t140.5 367t358.5 143t358.5 -143t140.5 -367t-140.5 -366.5t-358.5 -142.5zM271 1208q94 120 199 120q36 0 64 -16t41.5 -34.5t32 -34.5t39.5 -16q48 0 98 59l92 -103q-33 -52 -86.5 -85t-108.5 -33q-31 0 -54.5 10.5t-37.5 25
t-26 29t-27 25t-34 10.5q-56 0 -100 -60zM325 486q0 -110 64.5 -182t160.5 -72t160.5 72t64.5 182t-64.5 182.5t-160.5 72.5t-160.5 -72.5t-64.5 -182.5z" />
    <glyph glyph-name="odieresis" unicode="&#xf6;" horiz-adv-x="1100" 
d="M550 -23q-218 0 -358.5 142.5t-140.5 366.5t140.5 367t358.5 143t358.5 -143t140.5 -367t-140.5 -366.5t-358.5 -142.5zM272 1197q0 50 35.5 85.5t85.5 35.5t85 -35.5t35 -85.5t-35 -85t-85 -35t-85.5 35t-35.5 85zM325 486q0 -110 64.5 -182t160.5 -72t160.5 72
t64.5 182t-64.5 182.5t-160.5 72.5t-160.5 -72.5t-64.5 -182.5zM587 1197q0 50 35 85.5t85 35.5t85.5 -35.5t35.5 -85.5t-35.5 -85t-85.5 -35t-85 35t-35 85z" />
    <glyph glyph-name="divide" unicode="&#xf7;" horiz-adv-x="1142" 
d="M571 741q-69 0 -117.5 48.5t-48.5 117.5t48.5 118t117.5 49t117.5 -49t48.5 -118t-48.5 -117.5t-117.5 -48.5zM104 407v247h934v-247h-934zM405 154q0 69 48.5 117.5t117.5 48.5t117.5 -48.5t48.5 -117.5t-48.5 -117.5t-117.5 -48.5t-117.5 48.5t-48.5 117.5z" />
    <glyph glyph-name="oslash" unicode="&#xf8;" horiz-adv-x="1100" 
d="M550 -23q-132 0 -232 51l-23 -28h-235l110 143q-119 142 -119 343q0 224 140.5 367t358.5 143q129 0 237 -53l23 30h233l-111 -145q117 -139 117 -342q0 -224 -140.5 -366.5t-358.5 -142.5zM325 486q0 -60 22 -113l276 356q-31 12 -73 12q-96 0 -160.5 -72.5
t-64.5 -182.5zM483 242q30 -10 67 -10q96 0 160.5 72t64.5 182q0 60 -22 110z" />
    <glyph glyph-name="ugrave" unicode="&#xf9;" horiz-adv-x="1096" 
d="M718 973h283l-4 -586q-2 -181 -125 -293.5t-324 -112.5q-202 0 -327 112.5t-125 293.5v586h282v-575q0 -74 47 -120t123 -46t123 46t47 120v575zM200 1326h323l174 -265h-241z" />
    <glyph glyph-name="uacute" unicode="&#xfa;" horiz-adv-x="1096" 
d="M718 973h283l-4 -586q-2 -181 -125 -293.5t-324 -112.5q-202 0 -327 112.5t-125 293.5v586h282v-575q0 -74 47 -120t123 -46t123 46t47 120v575zM410 1061l174 265h323l-256 -265h-241z" />
    <glyph glyph-name="ucircumflex" unicode="&#xfb;" horiz-adv-x="1096" 
d="M718 973h283l-4 -586q-2 -181 -125 -293.5t-324 -112.5q-202 0 -327 112.5t-125 293.5v586h282v-575q0 -74 47 -120t123 -46t123 46t47 120v575zM285 1160l263 228l264 -228l-135 -127l-129 129l-129 -129z" />
    <glyph glyph-name="udieresis" unicode="&#xfc;" horiz-adv-x="1096" 
d="M718 973h283l-4 -586q-2 -181 -125 -293.5t-324 -112.5q-202 0 -327 112.5t-125 293.5v586h282v-575q0 -74 47 -120t123 -46t123 46t47 120v575zM271 1174q0 50 35 85.5t85 35.5t85 -35.5t35 -85.5t-35 -85t-85 -35t-85 35t-35 85zM585 1174q0 50 35.5 85.5t85.5 35.5
t85 -35.5t35 -85.5t-35 -85t-85 -35t-85.5 35t-35.5 85z" />
    <glyph glyph-name="yacute" unicode="&#xfd;" horiz-adv-x="962" 
d="M11 973h302l173 -550l168 550h294v-11l-354 -1073q-52 -157 -126.5 -234t-172.5 -84t-226 33l64 228q80 -24 129.5 -4t71.5 94l23 78l-346 962v11zM345 1061l173 265h324l-257 -265h-240z" />
    <glyph glyph-name="thorn" unicode="&#xfe;" horiz-adv-x="1177" 
d="M679 987q194 0 321 -143t127 -358t-127 -357.5t-321 -142.5q-185 0 -288 124v-464h-283v1682h283v-465q103 124 288 124zM393 486q0 -108 64.5 -180.5t159.5 -72.5q100 0 163.5 71.5t63.5 181.5t-63.5 181.5t-163.5 71.5q-95 0 -159.5 -72.5t-64.5 -180.5z" />
    <glyph glyph-name="ydieresis" unicode="&#xff;" horiz-adv-x="962" 
d="M11 973h302l173 -550l168 550h294v-11l-354 -1073q-52 -157 -126.5 -234t-172.5 -84t-226 33l64 228q80 -24 129.5 -4t71.5 94l23 78l-346 962v11zM205 1174q0 50 35 85.5t85 35.5t85.5 -35.5t35.5 -85.5t-35.5 -85t-85.5 -35t-85 35t-35 85zM520 1174q0 50 35 85.5
t85 35.5t85 -35.5t35 -85.5t-35 -85t-85 -35t-85 35t-35 85z" />
    <glyph glyph-name="Amacron" unicode="&#x100;" horiz-adv-x="1234" 
d="M1247 0h-310l-74 193h-492l-74 -193h-309v14l520 1224h219l520 -1224v-14zM371 1344v172h492v-172h-492zM463 432h308l-154 397z" />
    <glyph glyph-name="amacron" unicode="&#x101;" horiz-adv-x="1041" 
d="M663 0v44q-95 -62 -224 -62q-172 0 -283.5 95t-111.5 241t111.5 241t283.5 95q127 0 222 -62q-15 170 -214 170q-139 0 -274 -78l-92 195q73 45 185.5 79t230.5 34q218 0 336 -102t118 -329v-561h-288zM288 1098v172h492v-172h-492zM327 322q0 -60 49 -98t125 -38
q78 0 125.5 38t47.5 98t-47.5 98t-125.5 38q-76 0 -125 -38t-49 -98z" />
    <glyph glyph-name="Abreve" unicode="&#x102;" horiz-adv-x="1234" 
d="M1247 0h-310l-74 193h-492l-74 -193h-309v14l520 1224h219l520 -1224v-14zM366 1547l184 27q3 -111 67 -111t67 111l184 -27q-10 -119 -77 -185.5t-174 -66.5t-174 66.5t-77 185.5zM463 432h308l-154 397z" />
    <glyph glyph-name="abreve" unicode="&#x103;" horiz-adv-x="1041" 
d="M663 0v44q-95 -62 -224 -62q-172 0 -283.5 95t-111.5 241t111.5 241t283.5 95q127 0 222 -62q-15 170 -214 170q-139 0 -274 -78l-92 195q73 45 185.5 79t230.5 34q218 0 336 -102t118 -329v-561h-288zM283 1302l184 26q3 -111 67 -111t67 111l184 -26q-10 -119 -77 -186
t-174 -67t-174 67t-77 186zM327 322q0 -60 49 -98t125 -38q78 0 125.5 38t47.5 98t-47.5 98t-125.5 38q-76 0 -125 -38t-49 -98z" />
    <glyph glyph-name="Aogonek" unicode="&#x104;" horiz-adv-x="1234" 
d="M1247 0q-68 -29 -110 -81t-42 -96q0 -78 70 -78q53 0 85 64l114 -46q-27 -82 -88.5 -124t-148.5 -42q-94 0 -150 54t-56 139q0 119 114 210h-98l-74 193h-492l-74 -193h-309v14l520 1224h219l520 -1224v-14zM463 432h308l-154 397z" />
    <glyph glyph-name="aogonek" unicode="&#x105;" horiz-adv-x="1041" 
d="M663 0v44q-95 -62 -224 -62q-172 0 -283.5 95t-111.5 241t111.5 241t283.5 95q127 0 222 -62q-15 170 -214 170q-139 0 -274 -78l-92 195q73 45 185.5 79t230.5 34q218 0 336 -102t118 -329v-561q-68 -29 -110 -81t-42 -96q0 -78 71 -78q53 0 85 64l113 -46
q-27 -82 -88.5 -124t-148.5 -42q-94 0 -149.5 54t-55.5 139q0 120 113 210h-76zM327 322q0 -60 49 -98t125 -38q78 0 125.5 38t47.5 98t-47.5 98t-125.5 38q-76 0 -125 -38t-49 -98z" />
    <glyph glyph-name="Cacute" unicode="&#x106;" horiz-adv-x="1149" 
d="M707 249q74 0 139.5 28t103.5 70l178 -197q-150 -171 -438 -171q-132 0 -248 48.5t-199 133t-131 203.5t-48 255t48 255t131 203.5t199 133t248 48.5q288 0 438 -171l-178 -197q-38 42 -103.5 70t-139.5 28q-151 0 -251.5 -104.5t-100.5 -265.5t100.5 -265.5
t251.5 -104.5zM552 1346l173 265h324l-257 -265h-240z" />
    <glyph glyph-name="cacute" unicode="&#x107;" horiz-adv-x="1018" 
d="M51 486q0 224 138.5 365t358.5 141q137 0 254 -72.5t169 -187.5l-226 -117q-32 56 -85 90t-112 34q-100 0 -163 -70.5t-63 -182.5t63 -182.5t163 -70.5q59 0 112 35t85 91l226 -118q-52 -115 -169 -187.5t-254 -72.5q-221 0 -359 140.5t-138 364.5zM410 1081l174 265h323
l-256 -265h-241z" />
    <glyph glyph-name="Ccircumflex" unicode="&#x108;" horiz-adv-x="1149" 
d="M707 249q74 0 139.5 28t103.5 70l178 -197q-150 -171 -438 -171q-132 0 -248 48.5t-199 133t-131 203.5t-48 255t48 255t131 203.5t199 133t248 48.5q288 0 438 -171l-178 -197q-38 42 -103.5 70t-139.5 28q-151 0 -251.5 -104.5t-100.5 -265.5t100.5 -265.5
t251.5 -104.5zM426 1445l264 228l263 -228l-134 -127l-129 129l-129 -129z" />
    <glyph glyph-name="ccircumflex" unicode="&#x109;" horiz-adv-x="1018" 
d="M51 486q0 224 138.5 365t358.5 141q137 0 254 -72.5t169 -187.5l-226 -117q-32 56 -85 90t-112 34q-100 0 -163 -70.5t-63 -182.5t63 -182.5t163 -70.5q59 0 112 35t85 91l226 -118q-52 -115 -169 -187.5t-254 -72.5q-221 0 -359 140.5t-138 364.5zM285 1180l263 228
l264 -228l-135 -128l-129 129l-129 -129z" />
    <glyph glyph-name="Cdotaccent" unicode="&#x10a;" horiz-adv-x="1149" 
d="M707 249q74 0 139.5 28t103.5 70l178 -197q-150 -171 -438 -171q-132 0 -248 48.5t-199 133t-131 203.5t-48 255t48 255t131 203.5t199 133t248 48.5q288 0 438 -171l-178 -197q-38 42 -103.5 70t-139.5 28q-151 0 -251.5 -104.5t-100.5 -265.5t100.5 -265.5
t251.5 -104.5zM569 1459q0 50 35.5 85t85.5 35t85 -35t35 -85t-35 -85t-85 -35t-85.5 35t-35.5 85z" />
    <glyph glyph-name="cdotaccent" unicode="&#x10b;" horiz-adv-x="1018" 
d="M51 486q0 224 138.5 365t358.5 141q137 0 254 -72.5t169 -187.5l-226 -117q-32 56 -85 90t-112 34q-100 0 -163 -70.5t-63 -182.5t63 -182.5t163 -70.5q59 0 112 35t85 91l226 -118q-52 -115 -169 -187.5t-254 -72.5q-221 0 -359 140.5t-138 364.5zM428 1194q0 50 35 85
t85 35t85.5 -35t35.5 -85t-35.5 -85t-85.5 -35t-85 35t-35 85z" />
    <glyph glyph-name="Ccaron" unicode="&#x10c;" horiz-adv-x="1149" 
d="M707 249q74 0 139.5 28t103.5 70l178 -197q-150 -171 -438 -171q-132 0 -248 48.5t-199 133t-131 203.5t-48 255t48 255t131 203.5t199 133t248 48.5q288 0 438 -171l-178 -197q-38 42 -103.5 70t-139.5 28q-151 0 -251.5 -104.5t-100.5 -265.5t100.5 -265.5
t251.5 -104.5zM426 1546l135 127l129 -129l129 129l134 -127l-263 -228z" />
    <glyph glyph-name="ccaron" unicode="&#x10d;" horiz-adv-x="1018" 
d="M51 486q0 224 138.5 365t358.5 141q137 0 254 -72.5t169 -187.5l-226 -117q-32 56 -85 90t-112 34q-100 0 -163 -70.5t-63 -182.5t63 -182.5t163 -70.5q59 0 112 35t85 91l226 -118q-52 -115 -169 -187.5t-254 -72.5q-221 0 -359 140.5t-138 364.5zM285 1280l134 128
l129 -129l129 129l135 -128l-264 -228z" />
    <glyph glyph-name="Dcaron" unicode="&#x10e;" horiz-adv-x="1299" 
d="M573 1238q315 0 489 -162t174 -457t-174 -457t-489 -162h-439v1238h439zM366 1526l135 128l129 -129l129 129l134 -128l-263 -228zM435 256h152q164 0 256.5 95t92.5 268t-92.5 268t-256.5 95h-152v-726z" />
    <glyph glyph-name="dcaron" unicode="&#x10f;" horiz-adv-x="1413" 
d="M499 -14q-194 0 -321 142.5t-127 357.5t127 358t321 143q185 0 288 -124v463h283v-1326h-283v110q-103 -124 -288 -124zM334 486q0 -110 63.5 -181.5t163.5 -71.5q95 0 159.5 72.5t64.5 180.5t-64.5 180.5t-159.5 72.5q-100 0 -163.5 -71.5t-63.5 -181.5zM1190 888v440
h225v-180l-78 -260h-147z" />
    <glyph glyph-name="Dcroat" unicode="&#x110;" horiz-adv-x="1299" 
d="M573 1238q315 0 489 -162t174 -457t-174 -457t-489 -162h-439v508h-102v222h102v508h439zM435 256h152q164 0 256.5 95t92.5 268t-92.5 268t-256.5 95h-152v-252h184v-222h-184v-252z" />
    <glyph glyph-name="dcroat" unicode="&#x111;" horiz-adv-x="1177" 
d="M499 -14q-194 0 -321 142.5t-127 357.5t127 358t321 143q185 0 288 -124v166h-189v202h189v95h283v-95h95v-202h-95v-1029h-283v110q-103 -124 -288 -124zM334 486q0 -110 63.5 -181.5t163.5 -71.5q95 0 159.5 72.5t64.5 180.5t-64.5 180.5t-159.5 72.5
q-100 0 -163.5 -71.5t-63.5 -181.5z" />
    <glyph glyph-name="Emacron" unicode="&#x112;" horiz-adv-x="1135" 
d="M1020 982h-585v-229h479v-245h-479v-252h585v-256h-886v1238h886v-256zM355 1344v172h492v-172h-492z" />
    <glyph glyph-name="emacron" unicode="&#x113;" horiz-adv-x="1073" 
d="M295 1097v171h492v-171h-492zM51 486q0 217 139 360.5t351 143.5q120 0 218.5 -52t159 -137.5t87 -196t11.5 -226.5h-688q26 -68 82 -106.5t128 -38.5q55 0 103 25t80 69l215 -148q-143 -197 -396 -197q-139 0 -251.5 66t-175.5 181t-63 257zM324 573h422q-19 71 -72 117
t-135 46q-79 0 -136.5 -43.5t-78.5 -119.5z" />
    <glyph glyph-name="Ebreve" unicode="&#x114;" horiz-adv-x="1135" 
d="M1020 982h-585v-229h479v-245h-479v-252h585v-256h-886v1238h886v-256zM350 1547l184 27q3 -111 67 -111q65 0 68 111l183 -27q-10 -119 -77 -185.5t-174 -66.5t-174 66.5t-77 185.5z" />
    <glyph glyph-name="ebreve" unicode="&#x115;" horiz-adv-x="1073" 
d="M792 1300q-10 -119 -77 -186t-174 -67t-174 67t-77 186l184 26q3 -111 67 -111t67 111zM51 486q0 217 139 360.5t351 143.5q120 0 218.5 -52t159 -137.5t87 -196t11.5 -226.5h-688q26 -68 82 -106.5t128 -38.5q55 0 103 25t80 69l215 -148q-143 -197 -396 -197
q-139 0 -251.5 66t-175.5 181t-63 257zM324 573h422q-19 71 -72 117t-135 46q-79 0 -136.5 -43.5t-78.5 -119.5z" />
    <glyph glyph-name="Edotaccent" unicode="&#x116;" horiz-adv-x="1135" 
d="M1020 982h-585v-229h479v-245h-479v-252h585v-256h-886v1238h886v-256zM481 1440q0 50 35 85t85 35t85.5 -35t35.5 -85t-35.5 -85.5t-85.5 -35.5t-85 35.5t-35 85.5z" />
    <glyph glyph-name="edotaccent" unicode="&#x117;" horiz-adv-x="1073" 
d="M541 1072q-50 0 -85 35t-35 85t35 85t85 35t85 -35t35 -85t-35 -85t-85 -35zM51 486q0 217 139 360.5t351 143.5q120 0 218.5 -52t159 -137.5t87 -196t11.5 -226.5h-688q26 -68 82 -106.5t128 -38.5q55 0 103 25t80 69l215 -148q-143 -197 -396 -197q-139 0 -251.5 66
t-175.5 181t-63 257zM324 573h422q-19 71 -72 117t-135 46q-79 0 -136.5 -43.5t-78.5 -119.5z" />
    <glyph glyph-name="Eogonek" unicode="&#x118;" horiz-adv-x="1135" 
d="M1020 982h-585v-229h479v-245h-479v-252h585v-256q-68 -29 -110 -81t-42 -96q0 -78 71 -78q53 0 85 64l113 -46q-27 -82 -88.5 -124t-148.5 -42q-94 0 -149.5 54t-55.5 139q0 120 113 210h-674v1238h886v-256z" />
    <glyph glyph-name="eogonek" unicode="&#x119;" horiz-adv-x="1073" 
d="M51 486q0 217 139 360.5t351 143.5q120 0 218.5 -52t159 -137.5t87 -196t11.5 -226.5h-688q26 -68 82 -106.5t128 -38.5q55 0 103 25t80 69l215 -148q-126 -170 -334 -193q-57 -32 -91 -78.5t-34 -86.5q0 -77 70 -77q54 0 85 63l113 -46q-27 -82 -88.5 -124t-148.5 -42
q-94 0 -149.5 54t-55.5 139q0 120 113 208q-164 41 -265 175t-101 315zM324 573h422q-19 71 -72 117t-135 46q-79 0 -136.5 -43.5t-78.5 -119.5z" />
    <glyph glyph-name="Ecaron" unicode="&#x11a;" horiz-adv-x="1135" 
d="M1020 982h-585v-229h479v-245h-479v-252h585v-256h-886v1238h886v-256zM338 1526l134 128l129 -129l129 129l135 -128l-264 -228z" />
    <glyph glyph-name="ecaron" unicode="&#x11b;" horiz-adv-x="1073" 
d="M541 1051l-263 228l134 127l129 -129l129 129l135 -127zM51 486q0 217 139 360.5t351 143.5q120 0 218.5 -52t159 -137.5t87 -196t11.5 -226.5h-688q26 -68 82 -106.5t128 -38.5q55 0 103 25t80 69l215 -148q-143 -197 -396 -197q-139 0 -251.5 66t-175.5 181t-63 257z
M324 573h422q-19 71 -72 117t-135 46q-79 0 -136.5 -43.5t-78.5 -119.5z" />
    <glyph glyph-name="Gcircumflex" unicode="&#x11c;" horiz-adv-x="1375" 
d="M1305 741q27 -220 -42.5 -394.5t-215.5 -271t-341 -96.5q-137 0 -256.5 48t-204 132.5t-133 203.5t-48.5 256t48.5 256t133 202.5t204 131.5t256.5 48q134 0 264 -60.5t211 -161.5l-198 -175q-48 56 -124.5 91.5t-147.5 35.5q-148 0 -244.5 -102.5t-96.5 -265.5
q0 -162 96 -261.5t245 -99.5q121 0 207 68t106 180h-294v235h575zM442 1445l264 228l263 -228l-134 -127l-129 129l-129 -129z" />
    <glyph glyph-name="gcircumflex" unicode="&#x11d;" horiz-adv-x="1073" 
d="M490 214q-61 0 -119 14q-23 -23 -23 -46q0 -46 114 -46h178q361 0 361 -295q0 -151 -116.5 -238.5t-341.5 -87.5q-315 0 -541 128l113 221q195 -94 428 -94q175 0 175 62q0 32 -26.5 44.5t-99.5 12.5h-189q-165 0 -257.5 63t-92.5 170q0 129 122 212q-108 105 -108 267
q0 170 119.5 279.5t303.5 109.5q167 0 283 -92q86 87 290 87v-256q-94 0 -165 -20q15 -57 15 -108q0 -169 -119.5 -278t-303.5 -109zM226 1178l264 228l263 -228l-134 -127l-129 129l-129 -129zM341 601q0 -64 42 -104.5t107 -40.5t106.5 40.5t41.5 104.5t-41.5 104.5
t-106.5 40.5t-107 -40.5t-42 -104.5z" />
    <glyph glyph-name="Gbreve" unicode="&#x11e;" horiz-adv-x="1375" 
d="M1305 741q27 -220 -42.5 -394.5t-215.5 -271t-341 -96.5q-137 0 -256.5 48t-204 132.5t-133 203.5t-48.5 256t48.5 256t133 202.5t204 131.5t256.5 48q134 0 264 -60.5t211 -161.5l-198 -175q-48 56 -124.5 91.5t-147.5 35.5q-148 0 -244.5 -102.5t-96.5 -265.5
q0 -162 96 -261.5t245 -99.5q121 0 207 68t106 180h-294v235h575zM455 1567l183 26q3 -111 68 -111q64 0 67 111l184 -26q-10 -119 -77 -186t-174 -67t-174 67t-77 186z" />
    <glyph glyph-name="gbreve" unicode="&#x11f;" horiz-adv-x="1073" 
d="M490 214q-61 0 -119 14q-23 -23 -23 -46q0 -46 114 -46h178q361 0 361 -295q0 -151 -116.5 -238.5t-341.5 -87.5q-315 0 -541 128l113 221q195 -94 428 -94q175 0 175 62q0 32 -26.5 44.5t-99.5 12.5h-189q-165 0 -257.5 63t-92.5 170q0 129 122 212q-108 105 -108 267
q0 170 119.5 279.5t303.5 109.5q167 0 283 -92q86 87 290 87v-256q-94 0 -165 -20q15 -57 15 -108q0 -169 -119.5 -278t-303.5 -109zM239 1300l184 26q3 -111 67 -111t67 111l184 -26q-10 -119 -77 -186t-174 -67t-174 67t-77 186zM341 601q0 -64 42 -104.5t107 -40.5
t106.5 40.5t41.5 104.5t-41.5 104.5t-106.5 40.5t-107 -40.5t-42 -104.5z" />
    <glyph glyph-name="Gdotaccent" unicode="&#x120;" horiz-adv-x="1375" 
d="M1305 741q27 -220 -42.5 -394.5t-215.5 -271t-341 -96.5q-137 0 -256.5 48t-204 132.5t-133 203.5t-48.5 256t48.5 256t133 202.5t204 131.5t256.5 48q134 0 264 -60.5t211 -161.5l-198 -175q-48 56 -124.5 91.5t-147.5 35.5q-148 0 -244.5 -102.5t-96.5 -265.5
q0 -162 96 -261.5t245 -99.5q121 0 207 68t106 180h-294v235h575zM585 1459q0 50 35.5 85t85.5 35t85 -35t35 -85t-35 -85t-85 -35t-85.5 35t-35.5 85z" />
    <glyph glyph-name="gdotaccent" unicode="&#x121;" horiz-adv-x="1073" 
d="M490 214q-61 0 -119 14q-23 -23 -23 -46q0 -46 114 -46h178q361 0 361 -295q0 -151 -116.5 -238.5t-341.5 -87.5q-315 0 -541 128l113 221q195 -94 428 -94q175 0 175 62q0 32 -26.5 44.5t-99.5 12.5h-189q-165 0 -257.5 63t-92.5 170q0 129 122 212q-108 105 -108 267
q0 170 119.5 279.5t303.5 109.5q167 0 283 -92q86 87 290 87v-256q-94 0 -165 -20q15 -57 15 -108q0 -169 -119.5 -278t-303.5 -109zM341 601q0 -64 42 -104.5t107 -40.5t106.5 40.5t41.5 104.5t-41.5 104.5t-106.5 40.5t-107 -40.5t-42 -104.5zM370 1192q0 50 35 85t85 35
t85 -35t35 -85t-35 -85t-85 -35t-85 35t-35 85z" />
    <glyph glyph-name="uni0122" unicode="&#x122;" horiz-adv-x="1375" 
d="M1305 741q27 -220 -42.5 -394.5t-215.5 -271t-341 -96.5q-137 0 -256.5 48t-204 132.5t-133 203.5t-48.5 256t48.5 256t133 202.5t204 131.5t256.5 48q134 0 264 -60.5t211 -161.5l-198 -175q-48 56 -124.5 91.5t-147.5 35.5q-148 0 -244.5 -102.5t-96.5 -265.5
q0 -162 96 -261.5t245 -99.5q121 0 207 68t106 180h-294v235h575zM605 -424v328h212v-134l-72 -194h-140z" />
    <glyph glyph-name="uni0123" unicode="&#x123;" horiz-adv-x="1073" 
d="M490 214q-61 0 -119 14q-23 -23 -23 -46q0 -46 114 -46h178q361 0 361 -295q0 -151 -116.5 -238.5t-341.5 -87.5q-315 0 -541 128l113 221q195 -94 428 -94q175 0 175 62q0 32 -26.5 44.5t-99.5 12.5h-189q-165 0 -257.5 63t-92.5 170q0 129 122 212q-108 105 -108 267
q0 170 119.5 279.5t303.5 109.5q167 0 283 -92q86 87 290 87v-256q-94 0 -165 -20q15 -57 15 -108q0 -169 -119.5 -278t-303.5 -109zM341 601q0 -64 42 -104.5t107 -40.5t106.5 40.5t41.5 104.5t-41.5 104.5t-106.5 40.5t-107 -40.5t-42 -104.5zM366 1079l133 281h205
l-106 -281h-232z" />
    <glyph glyph-name="Hcircumflex" unicode="&#x124;" horiz-adv-x="1361" 
d="M134 1238h301v-462h492v462h300v-1238h-300v520h-492v-520h-301v1238zM417 1425l264 229l263 -229l-134 -127l-129 129l-129 -129z" />
    <glyph glyph-name="hcircumflex" unicode="&#x125;" horiz-adv-x="1121" 
d="M108 0v1326h283v-472q106 128 292 128q169 0 258.5 -113t89.5 -323v-546h-283v546q0 90 -49.5 144.5t-129.5 54.5t-129 -54.5t-49 -144.5v-546h-283zM-14 1514l263 228l264 -228l-135 -127l-129 129l-129 -129z" />
    <glyph glyph-name="Hbar" unicode="&#x126;" horiz-adv-x="1361" 
d="M134 1238h301v-149h492v149h300v-149h76v-205h-76v-884h-300v520h-492v-520h-301v884h-79v205h79v149zM435 776h492v108h-492v-108z" />
    <glyph glyph-name="hbar" unicode="&#x127;" horiz-adv-x="1121" 
d="M108 0v1020h-96v202h96v104h283v-104h189v-202h-189v-166q106 128 292 128q169 0 258.5 -113t89.5 -323v-546h-283v546q0 90 -49.5 144.5t-129.5 54.5t-129 -54.5t-49 -144.5v-546h-283z" />
    <glyph glyph-name="Itilde" unicode="&#x128;" horiz-adv-x="569" 
d="M134 1238h301v-1238h-301v1238zM5 1450q94 120 200 120q30 0 53.5 -10.5t37.5 -25t26.5 -29t27.5 -25t32 -10.5q48 0 97 58l92 -103q-34 -53 -86.5 -85.5t-107.5 -32.5q-37 0 -64.5 16t-40.5 34.5t-32 34.5t-42 16q-57 0 -101 -60z" />
    <glyph glyph-name="itilde" unicode="&#x129;" horiz-adv-x="498" 
d="M108 0v973h283v-973h-283zM-30 1185q94 120 200 120q36 0 64 -16t41.5 -34.5t32 -34.5t39.5 -16q47 0 97 59l92 -103q-33 -52 -86.5 -85t-108.5 -33q-37 0 -64.5 15.5t-40.5 34.5t-31.5 34.5t-41.5 15.5q-57 0 -101 -60z" />
    <glyph glyph-name="Imacron" unicode="&#x12a;" horiz-adv-x="569" 
d="M134 1238h301v-1238h-301v1238zM39 1344v172h492v-172h-492z" />
    <glyph glyph-name="imacron" unicode="&#x12b;" horiz-adv-x="498" 
d="M108 0v973h283v-973h-283zM4 1079v171h491v-171h-491z" />
    <glyph glyph-name="Ibreve" unicode="&#x12c;" horiz-adv-x="569" 
d="M134 1238h301v-1238h-301v1238zM34 1547l184 27q3 -111 67 -111t67 111l184 -27q-10 -119 -77 -185.5t-174 -66.5t-174 66.5t-77 185.5z" />
    <glyph glyph-name="ibreve" unicode="&#x12d;" horiz-adv-x="498" 
d="M108 0v973h283v-973h-283zM-2 1282l184 27q3 -112 67 -112q65 0 68 112l184 -27q-10 -119 -77.5 -186t-174.5 -67t-174 67t-77 186z" />
    <glyph glyph-name="Iogonek" unicode="&#x12e;" horiz-adv-x="569" 
d="M134 1238h301v-1238q-68 -29 -110 -81t-42 -96q0 -78 71 -78q53 0 85 64l113 -46q-27 -82 -88.5 -124t-148.5 -42q-94 0 -149.5 54t-55.5 139q0 120 113 210h-89v1238z" />
    <glyph glyph-name="iogonek" unicode="&#x12f;" horiz-adv-x="498" 
d="M108 0v973h283v-973q-68 -29 -110 -81t-42 -96q0 -78 70 -78q53 0 85 64l114 -46q-27 -82 -88.5 -124t-148.5 -42q-94 0 -150 54t-56 139q0 119 114 210h-71zM129 1174q0 50 35 85.5t85 35.5t85.5 -35.5t35.5 -85.5t-35.5 -85t-85.5 -35t-85 35t-35 85z" />
    <glyph glyph-name="Idotaccent" unicode="&#x130;" horiz-adv-x="569" 
d="M134 1238h301v-1238h-301v1238zM164 1440q0 50 35.5 85t85.5 35t85 -35t35 -85t-35 -85.5t-85 -35.5t-85.5 35.5t-35.5 85.5z" />
    <glyph glyph-name="dotlessi" unicode="&#x131;" horiz-adv-x="498" 
d="M108 0v973h283v-973h-283z" />
    <glyph glyph-name="IJ" unicode="&#x132;" horiz-adv-x="1510" 
d="M134 1238h301v-1238h-301v1238zM548 258l269 106q15 -54 51.5 -85t90.5 -31q55 0 89 34.5t34 106.5v849h301v-849q0 -195 -108.5 -301.5t-301.5 -106.5q-157 0 -267.5 69.5t-157.5 207.5z" />
    <glyph glyph-name="ij" unicode="&#x133;" horiz-adv-x="972" 
d="M108 0v973h283v-973h-283zM80 1238q0 72 48.5 121t120.5 49t121 -49t49 -121t-49 -121t-121 -49t-120.5 49t-48.5 121zM288 -368l103 207q59 -26 106 -26q85 0 85 114v1046h283v-1091q0 -162 -88 -246.5t-220 -84.5q-128 0 -269 81zM554 1238q0 71 48.5 119.5t120.5 48.5
t121 -48.5t49 -119.5q0 -72 -49 -121t-121 -49t-120.5 49t-48.5 121z" />
    <glyph glyph-name="Jcircumflex" unicode="&#x134;" horiz-adv-x="940" 
d="M248 364q15 -54 51 -85t90 -31q56 0 90 34.5t34 106.5v849h301v-849q0 -195 -109 -301.5t-302 -106.5q-157 0 -267 69.5t-157 207.5zM400 1425l263 229l264 -229l-135 -127l-129 129l-129 -129z" />
    <glyph glyph-name="jcircumflex" unicode="&#x135;" horiz-adv-x="498" 
d="M-83 -161q59 -26 106 -26q85 0 85 114v1046h283v-1091q0 -162 -88 -246.5t-220 -84.5q-128 0 -269 81zM-14 1160l263 228l264 -228l-135 -127l-129 129l-129 -129z" />
    <glyph glyph-name="uni0136" unicode="&#x136;" horiz-adv-x="1232" 
d="M134 1238h301v-470l403 470h368v-9l-509 -573l530 -647v-9h-364l-428 531v-531h-301v1238zM541 -403v329h212v-135l-72 -194h-140z" />
    <glyph glyph-name="uni0137" unicode="&#x137;" horiz-adv-x="1025" 
d="M108 0v1326h283v-716l292 363h346v-7l-366 -434l373 -525v-7h-336l-309 449v-449h-283zM467 -403v329h212v-135l-72 -194h-140z" />
    <glyph glyph-name="Lacute" unicode="&#x139;" horiz-adv-x="1006" 
d="M435 256h513v-256h-814v1238h301v-982zM152 1326l173 266h324l-256 -266h-241z" />
    <glyph glyph-name="lacute" unicode="&#x13a;" horiz-adv-x="498" 
d="M108 0v1326h283v-1326h-283zM111 1415l174 265h323l-256 -265h-241z" />
    <glyph glyph-name="uni013B" unicode="&#x13b;" horiz-adv-x="1006" 
d="M435 256h513v-256h-814v1238h301v-982zM453 -403v329h212v-135l-73 -194h-139z" />
    <glyph glyph-name="uni013C" unicode="&#x13c;" horiz-adv-x="498" 
d="M108 0v1326h283v-1326h-283zM149 -403v329h212v-135l-73 -194h-139z" />
    <glyph glyph-name="Lcaron" unicode="&#x13d;" horiz-adv-x="1006" 
d="M435 256h513v-256h-814v1238h301v-982zM736 783v455h207v-186l-71 -269h-136z" />
    <glyph glyph-name="lcaron" unicode="&#x13e;" horiz-adv-x="719" 
d="M108 0v1326h283v-1326h-283zM497 888v440h225v-180l-78 -260h-147z" />
    <glyph glyph-name="Ldot" unicode="&#x13f;" horiz-adv-x="1006" 
d="M435 256h513v-256h-814v1238h301v-982zM568 676q0 56 39 95t95 39t95.5 -39.5t39.5 -94.5t-39.5 -94t-95.5 -39t-95 39t-39 94z" />
    <glyph glyph-name="ldot" unicode="&#x140;" horiz-adv-x="709" 
d="M108 0v1326h283v-1326h-283zM460 591q0 55 39 94.5t95 39.5t95.5 -39.5t39.5 -94.5t-39.5 -94t-95.5 -39t-95 39t-39 94z" />
    <glyph glyph-name="Lslash" unicode="&#x141;" horiz-adv-x="1006" 
d="M435 256h513v-256h-814v317l-118 -87v283l118 87v638h301v-417l257 187v-283l-257 -187v-282z" />
    <glyph glyph-name="lslash" unicode="&#x142;" horiz-adv-x="565" 
d="M143 0v364l-122 -106v264l122 106v698h283v-451l122 107v-264l-122 -106v-612h-283z" />
    <glyph glyph-name="Nacute" unicode="&#x143;" horiz-adv-x="1388" 
d="M1254 0h-218l-606 707v-707h-296v1238h218l607 -707v707h295v-1238zM557 1326l173 266h324l-256 -266h-241z" />
    <glyph glyph-name="nacute" unicode="&#x144;" horiz-adv-x="1121" 
d="M108 0v973h283v-106q106 123 286 123q171 0 262.5 -106.5t91.5 -310.5v-573h-283v555q0 88 -50 143t-129 55t-128.5 -55t-49.5 -143v-555h-283zM451 1061l173 265h324l-256 -265h-241z" />
    <glyph glyph-name="uni0145" unicode="&#x145;" horiz-adv-x="1388" 
d="M1254 0h-218l-606 707v-707h-296v1238h218l607 -707v707h295v-1238zM594 -403v329h212v-135l-72 -194h-140z" />
    <glyph glyph-name="uni0146" unicode="&#x146;" horiz-adv-x="1121" 
d="M108 0v973h283v-106q106 123 286 123q171 0 262.5 -106.5t91.5 -310.5v-573h-283v555q0 88 -50 143t-129 55t-128.5 -55t-49.5 -143v-555h-283zM472 -403v329h212v-135l-72 -194h-140z" />
    <glyph glyph-name="Ncaron" unicode="&#x147;" horiz-adv-x="1388" 
d="M1254 0h-218l-606 707v-707h-296v1238h218l607 -707v707h295v-1238zM432 1526l134 128l129 -129l129 129l135 -128l-264 -228z" />
    <glyph glyph-name="ncaron" unicode="&#x148;" horiz-adv-x="1121" 
d="M108 0v973h283v-106q106 123 286 123q171 0 262.5 -106.5t91.5 -310.5v-573h-283v555q0 88 -50 143t-129 55t-128.5 -55t-49.5 -143v-555h-283zM325 1261l135 127l129 -129l129 129l134 -127l-263 -228z" />
    <glyph glyph-name="napostrophe" unicode="&#x149;" horiz-adv-x="1121" 
d="M108 0v973h283v-106q106 123 286 123q171 0 262.5 -106.5t91.5 -310.5v-573h-283v555q0 88 -50 143t-129 55t-128.5 -55t-49.5 -143v-555h-283zM124 1042l67 417h237l-120 -417h-184z" />
    <glyph glyph-name="Eng" unicode="&#x14a;" horiz-adv-x="1388" 
d="M1254 -131q0 -100 -42 -173t-110.5 -106.5t-149.5 -40t-164.5 21t-150.5 81.5l111 205q63 -41 113 -49t80 22t30 96v150l-541 631v-707h-296v1238h218l607 -707v707h295v-1369z" />
    <glyph glyph-name="eng" unicode="&#x14b;" horiz-adv-x="1121" 
d="M108 0v973h283v-106q106 123 286 123q171 0 262.5 -106.5t91.5 -310.5v-704q0 -100 -42 -173t-110.5 -106.5t-149.5 -40t-164.5 21t-150.5 81.5l111 205q63 -41 113 -49t80 22t30 96v629q0 88 -50 143t-129 55t-128.5 -55t-49.5 -143v-555h-283z" />
    <glyph glyph-name="Omacron" unicode="&#x14c;" horiz-adv-x="1407" 
d="M704 -21q-179 0 -325.5 83t-230.5 230t-84 327t84 327t230.5 230t325.5 83t325.5 -83t230.5 -230t84 -327t-84 -327t-230.5 -230t-325.5 -83zM364 619q0 -153 97.5 -255t242.5 -102t242 102t97 255t-97 255t-242 102t-242.5 -102t-97.5 -255zM458 1365v172h492v-172h-492
z" />
    <glyph glyph-name="omacron" unicode="&#x14d;" horiz-adv-x="1100" 
d="M550 -23q-218 0 -358.5 142.5t-140.5 366.5t140.5 367t358.5 143t358.5 -143t140.5 -367t-140.5 -366.5t-358.5 -142.5zM304 1102v171h492v-171h-492zM325 486q0 -110 64.5 -182t160.5 -72t160.5 72t64.5 182t-64.5 182.5t-160.5 72.5t-160.5 -72.5t-64.5 -182.5z" />
    <glyph glyph-name="Obreve" unicode="&#x14e;" horiz-adv-x="1407" 
d="M704 -21q-179 0 -325.5 83t-230.5 230t-84 327t84 327t230.5 230t325.5 83t325.5 -83t230.5 -230t84 -327t-84 -327t-230.5 -230t-325.5 -83zM364 619q0 -153 97.5 -255t242.5 -102t242 102t97 255t-97 255t-242 102t-242.5 -102t-97.5 -255zM453 1569l184 26
q3 -111 67 -111t67 111l184 -26q-10 -119 -77 -186t-174 -67t-174 67t-77 186z" />
    <glyph glyph-name="obreve" unicode="&#x14f;" horiz-adv-x="1100" 
d="M550 -23q-218 0 -358.5 142.5t-140.5 366.5t140.5 367t358.5 143t358.5 -143t140.5 -367t-140.5 -366.5t-358.5 -142.5zM299 1305l184 27q3 -112 67 -112t67 112l184 -27q-10 -119 -77 -186t-174 -67t-174 67t-77 186zM325 486q0 -110 64.5 -182t160.5 -72t160.5 72
t64.5 182t-64.5 182.5t-160.5 72.5t-160.5 -72.5t-64.5 -182.5z" />
    <glyph glyph-name="Ohungarumlaut" unicode="&#x150;" horiz-adv-x="1407" 
d="M704 -21q-179 0 -325.5 83t-230.5 230t-84 327t84 327t230.5 230t325.5 83t325.5 -83t230.5 -230t84 -327t-84 -327t-230.5 -230t-325.5 -83zM364 619q0 -153 97.5 -255t242.5 -102t242 102t97 255t-97 255t-242 102t-242.5 -102t-97.5 -255zM499 1348l116 300h177
l-146 -300h-147zM730 1348l117 300h177l-147 -300h-147z" />
    <glyph glyph-name="ohungarumlaut" unicode="&#x151;" horiz-adv-x="1100" 
d="M550 -23q-218 0 -358.5 142.5t-140.5 366.5t140.5 367t358.5 143t358.5 -143t140.5 -367t-140.5 -366.5t-358.5 -142.5zM325 486q0 -110 64.5 -182t160.5 -72t160.5 72t64.5 182t-64.5 182.5t-160.5 72.5t-160.5 -72.5t-64.5 -182.5zM345 1084l117 301h176l-146 -301
h-147zM577 1084l116 301h177l-147 -301h-146z" />
    <glyph glyph-name="OE" unicode="&#x152;" horiz-adv-x="1842" 
d="M711 0q-310 0 -478.5 161.5t-168.5 457.5t168.5 457.5t478.5 161.5h1017v-256h-586v-229h480v-245h-480v-252h586v-256h-1017zM364 619q0 -174 87 -268.5t246 -94.5h145v726h-145q-159 0 -246 -94.5t-87 -268.5z" />
    <glyph glyph-name="oe" unicode="&#x153;" horiz-adv-x="1618" 
d="M51 486q0 224 138.5 365t358.5 141q146 0 266 -79q117 77 272 77q120 0 218.5 -52t159 -137.5t87 -196t11.5 -226.5h-688q26 -68 82 -106.5t128 -38.5q55 0 102.5 25t79.5 69l216 -148q-143 -197 -396 -197q-150 0 -272 78q-120 -79 -266 -79q-221 0 -359 140.5
t-138 364.5zM322 486q0 -112 63 -182.5t163 -70.5q51 0 98 25q-50 108 -50 228q0 122 48 229q-42 24 -96 24q-100 0 -163 -70.5t-63 -182.5zM868 573h423q-19 71 -72 117t-135 46q-79 0 -137 -43.5t-79 -119.5z" />
    <glyph glyph-name="Racute" unicode="&#x154;" horiz-adv-x="1211" 
d="M842 0l-230 433h-177v-433h-301v1238h573q201 0 314 -107t113 -294q0 -135 -59.5 -231t-170.5 -139l256 -453v-14h-318zM435 690h234q77 0 120.5 40t43.5 107q0 66 -43.5 105.5t-120.5 39.5h-234v-292zM460 1326l173 266h324l-257 -266h-240z" />
    <glyph glyph-name="racute" unicode="&#x155;" horiz-adv-x="764" 
d="M486 1326h324l-256 -265h-241zM108 0v973h239l24 -165l7 -2q39 94 131 140.5t207 35.5v-267q-49 6 -94.5 -0.5t-88 -27.5t-73.5 -56t-50 -91t-19 -128v-412h-283z" />
    <glyph glyph-name="uni0156" unicode="&#x156;" horiz-adv-x="1211" 
d="M842 0l-230 433h-177v-433h-301v1238h573q201 0 314 -107t113 -294q0 -135 -59.5 -231t-170.5 -139l256 -453v-14h-318zM435 690h234q77 0 120.5 40t43.5 107q0 66 -43.5 105.5t-120.5 39.5h-234v-292zM527 -403v329h212v-135l-72 -194h-140z" />
    <glyph glyph-name="uni0157" unicode="&#x157;" horiz-adv-x="764" 
d="M149 -74h212v-135l-73 -194h-139v329zM108 0v973h239l24 -165l7 -2q39 94 131 140.5t207 35.5v-267q-49 6 -94.5 -0.5t-88 -27.5t-73.5 -56t-50 -91t-19 -128v-412h-283z" />
    <glyph glyph-name="Rcaron" unicode="&#x158;" horiz-adv-x="1211" 
d="M842 0l-230 433h-177v-433h-301v1238h573q201 0 314 -107t113 -294q0 -135 -59.5 -231t-170.5 -139l256 -453v-14h-318zM334 1526l135 128l129 -129l129 129l134 -128l-263 -228zM435 690h234q77 0 120.5 40t43.5 107q0 66 -43.5 105.5t-120.5 39.5h-234v-292z" />
    <glyph glyph-name="rcaron" unicode="&#x159;" horiz-adv-x="764" 
d="M451 1033l-264 228l135 127l129 -129l129 129l135 -127zM108 0v973h239l24 -165l7 -2q39 94 131 140.5t207 35.5v-267q-49 6 -94.5 -0.5t-88 -27.5t-73.5 -56t-50 -91t-19 -128v-412h-283z" />
    <glyph glyph-name="Sacute" unicode="&#x15a;" horiz-adv-x="1110" 
d="M757 854q-37 69 -97 108t-138 39q-149 0 -149 -94q0 -49 52 -84t210 -82q76 -23 131 -44.5t107.5 -54t84.5 -71.5t51.5 -94t19.5 -123q0 -95 -42 -169.5t-111.5 -118t-150 -65.5t-166.5 -22q-181 0 -314.5 83.5t-191.5 239.5l242 137q104 -200 282 -200q157 0 157 102
q0 54 -52.5 93.5t-189.5 83.5q-49 16 -82.5 28t-80.5 32.5t-79 40.5t-67 50.5t-56 64t-35 78.5t-14 97q0 89 38 158t102.5 110t144 61.5t169.5 20.5q177 0 297.5 -77.5t180.5 -205.5zM409 1346l173 265h324l-257 -265h-240z" />
    <glyph glyph-name="sacute" unicode="&#x15b;" horiz-adv-x="898" 
d="M608 669q-24 43 -69.5 71.5t-101.5 28.5q-112 0 -112 -62q0 -35 37 -57t153 -52q65 -16 113 -34t92 -44t71.5 -59t43.5 -79t16 -103q0 -76 -34.5 -136.5t-91.5 -96.5t-126 -54.5t-144 -18.5q-165 0 -276 62t-158 186l232 117q70 -133 205 -133q113 0 113 80
q0 33 -32.5 51t-121.5 42q-38 10 -68 19.5t-70.5 25.5t-70.5 33t-62 41.5t-52.5 52t-34 64.5t-13.5 78q1 97 58.5 168t146 104t195.5 33q145 0 247 -62.5t147 -165.5zM308 1084l173 265h324l-257 -265h-240z" />
    <glyph glyph-name="Scircumflex" unicode="&#x15c;" horiz-adv-x="1110" 
d="M757 854q-37 69 -97 108t-138 39q-149 0 -149 -94q0 -49 52 -84t210 -82q76 -23 131 -44.5t107.5 -54t84.5 -71.5t51.5 -94t19.5 -123q0 -95 -42 -169.5t-111.5 -118t-150 -65.5t-166.5 -22q-181 0 -314.5 83.5t-191.5 239.5l242 137q104 -200 282 -200q157 0 157 102
q0 54 -52.5 93.5t-189.5 83.5q-49 16 -82.5 28t-80.5 32.5t-79 40.5t-67 50.5t-56 64t-35 78.5t-14 97q0 89 38 158t102.5 110t144 61.5t169.5 20.5q177 0 297.5 -77.5t180.5 -205.5zM283 1445l263 228l264 -228l-134 -127l-130 129l-129 -129z" />
    <glyph glyph-name="scircumflex" unicode="&#x15d;" horiz-adv-x="898" 
d="M608 669q-24 43 -69.5 71.5t-101.5 28.5q-112 0 -112 -62q0 -35 37 -57t153 -52q65 -16 113 -34t92 -44t71.5 -59t43.5 -79t16 -103q0 -76 -34.5 -136.5t-91.5 -96.5t-126 -54.5t-144 -18.5q-165 0 -276 62t-158 186l232 117q70 -133 205 -133q113 0 113 80
q0 33 -32.5 51t-121.5 42q-38 10 -68 19.5t-70.5 25.5t-70.5 33t-62 41.5t-52.5 52t-34 64.5t-13.5 78q1 97 58.5 168t146 104t195.5 33q145 0 247 -62.5t147 -165.5zM182 1183l264 228l263 -228l-134 -127l-129 129l-129 -129z" />
    <glyph glyph-name="Scedilla" unicode="&#x15e;" horiz-adv-x="1110" 
d="M757 854q-37 69 -97 108t-138 39q-149 0 -149 -94q0 -49 52 -84t210 -82q76 -23 131 -44.5t107.5 -54t84.5 -71.5t51.5 -94t19.5 -123q0 -84 -33 -152t-90 -112t-124.5 -70.5t-144.5 -35.5l-29 -95q51 -11 74.5 -44t23.5 -70q0 -66 -54 -109t-150 -43q-110 0 -205 59
l51 106q86 -43 137 -43q29 0 41 8.5t12 28.5q0 44 -89 61l30 139q-152 18 -263.5 100t-162.5 220l242 137q104 -200 282 -200q157 0 157 102q0 54 -52.5 93.5t-189.5 83.5q-49 16 -82.5 28t-80.5 32.5t-79 40.5t-67 50.5t-56 64t-35 78.5t-14 97q0 89 38 158t102.5 110
t144 61.5t169.5 20.5q177 0 297.5 -77.5t180.5 -205.5z" />
    <glyph glyph-name="scedilla" unicode="&#x15f;" horiz-adv-x="898" 
d="M608 669q-24 43 -69.5 71.5t-101.5 28.5q-112 0 -112 -62q0 -35 37 -57t153 -52q65 -16 113 -34t92 -44t71.5 -59t43.5 -79t16 -103q0 -88 -46 -154t-116 -100.5t-157 -45.5l-28 -92q51 -11 74 -43.5t23 -69.5q0 -66 -53.5 -109t-149.5 -43q-111 0 -205 58l51 106
q84 -42 136 -42q29 0 41 8.5t12 28.5q0 43 -88 60l28 136q-271 28 -352 244l232 117q70 -133 205 -133q113 0 113 80q0 33 -32.5 51t-121.5 42q-38 10 -68 19.5t-70.5 25.5t-70.5 33t-62 41.5t-52.5 52t-34 64.5t-13.5 78q1 97 58.5 168t146 104t195.5 33q145 0 247 -62.5
t147 -165.5z" />
    <glyph glyph-name="Scaron" unicode="&#x160;" horiz-adv-x="1110" 
d="M757 854q-37 69 -97 108t-138 39q-149 0 -149 -94q0 -49 52 -84t210 -82q76 -23 131 -44.5t107.5 -54t84.5 -71.5t51.5 -94t19.5 -123q0 -95 -42 -169.5t-111.5 -118t-150 -65.5t-166.5 -22q-181 0 -314.5 83.5t-191.5 239.5l242 137q104 -200 282 -200q157 0 157 102
q0 54 -52.5 93.5t-189.5 83.5q-49 16 -82.5 28t-80.5 32.5t-79 40.5t-67 50.5t-56 64t-35 78.5t-14 97q0 89 38 158t102.5 110t144 61.5t169.5 20.5q177 0 297.5 -77.5t180.5 -205.5zM283 1546l134 127l129 -129l130 129l134 -127l-264 -228z" />
    <glyph glyph-name="scaron" unicode="&#x161;" horiz-adv-x="898" 
d="M608 669q-24 43 -69.5 71.5t-101.5 28.5q-112 0 -112 -62q0 -35 37 -57t153 -52q65 -16 113 -34t92 -44t71.5 -59t43.5 -79t16 -103q0 -76 -34.5 -136.5t-91.5 -96.5t-126 -54.5t-144 -18.5q-165 0 -276 62t-158 186l232 117q70 -133 205 -133q113 0 113 80
q0 33 -32.5 51t-121.5 42q-38 10 -68 19.5t-70.5 25.5t-70.5 33t-62 41.5t-52.5 52t-34 64.5t-13.5 78q1 97 58.5 168t146 104t195.5 33q145 0 247 -62.5t147 -165.5zM182 1284l135 127l129 -129l129 129l134 -127l-263 -228z" />
    <glyph glyph-name="uni0162" unicode="&#x162;" horiz-adv-x="1092" 
d="M53 1238h987v-256h-343v-982h-74l-27 -90q51 -11 74 -43.5t23 -69.5q0 -66 -53.5 -109t-149.5 -43q-111 0 -205 58l51 106q84 -42 136 -42q29 0 41 8.5t12 28.5q0 43 -88 60l28 136h-69v982h-343v256z" />
    <glyph glyph-name="uni0163" unicode="&#x163;" horiz-adv-x="680" 
d="M48 973h99v192l283 54v-246h185v-221h-185v-356q0 -86 26 -117t98 -31h88v-248h-111l-27 -90q51 -11 74 -43.5t23 -69.5q0 -66 -53.5 -109t-149.5 -43q-111 0 -205 58l51 106q84 -42 136 -42q29 0 41 8.5t12 28.5q0 43 -88 60l30 141q-228 36 -228 294v453h-99v221z" />
    <glyph glyph-name="Tcaron" unicode="&#x164;" horiz-adv-x="1092" 
d="M53 1238h987v-256h-343v-982h-301v982h-343v256zM283 1526l134 128l129 -129l130 129l134 -128l-264 -228z" />
    <glyph glyph-name="tcaron" unicode="&#x165;" horiz-adv-x="680" 
d="M48 973h99v192l283 54v-246h185v-221h-185v-356q0 -86 26 -117t98 -31h88v-248h-193q-302 0 -302 299v453h-99v221zM529 1033v293h177v-120l-60 -173h-117z" />
    <glyph glyph-name="Tbar" unicode="&#x166;" horiz-adv-x="1092" 
d="M53 1238h987v-256h-343v-252h214v-222h-214v-508h-301v508h-214v222h214v252h-343v256z" />
    <glyph glyph-name="tbar" unicode="&#x167;" horiz-adv-x="680" 
d="M48 973h99v192l283 54v-246h185v-221h-185v-122h189v-206h-189v-28q0 -86 26 -117t98 -31h88v-248h-193q-302 0 -302 299v125h-99v206h99v122h-99v221z" />
    <glyph glyph-name="Utilde" unicode="&#x168;" horiz-adv-x="1344" 
d="M918 1238h301v-741q0 -239 -146 -378.5t-401 -139.5q-254 0 -397.5 139t-145.5 379l-3 741h300v-722q0 -121 64.5 -189.5t181.5 -68.5t181.5 68.5t64.5 189.5v722zM393 1450q94 120 199 120q30 0 53.5 -10.5t37.5 -25t26.5 -29t27.5 -25t32 -10.5q49 0 98 58l92 -103
q-33 -52 -86.5 -85t-108.5 -33q-37 0 -64.5 16t-40.5 34.5t-32 34.5t-42 16q-56 0 -100 -60z" />
    <glyph glyph-name="utilde" unicode="&#x169;" horiz-adv-x="1096" 
d="M718 973h283l-4 -586q-2 -181 -125 -293.5t-324 -112.5q-202 0 -327 112.5t-125 293.5v586h282v-575q0 -74 47 -120t123 -46t123 46t47 120v575zM269 1185q94 120 200 120q36 0 64 -16t41.5 -34.5t32 -34.5t39.5 -16q47 0 97 59l92 -103q-33 -52 -86.5 -85t-108.5 -33
q-37 0 -64.5 15.5t-40.5 34.5t-31.5 34.5t-41.5 15.5q-57 0 -101 -60z" />
    <glyph glyph-name="Umacron" unicode="&#x16a;" horiz-adv-x="1344" 
d="M918 1238h301v-741q0 -239 -146 -378.5t-401 -139.5q-254 0 -397.5 139t-145.5 379l-3 741h300v-722q0 -121 64.5 -189.5t181.5 -68.5t181.5 68.5t64.5 189.5v722zM426 1344v172h492v-172h-492z" />
    <glyph glyph-name="umacron" unicode="&#x16b;" horiz-adv-x="1096" 
d="M718 973h283l-4 -586q-2 -181 -125 -293.5t-324 -112.5q-202 0 -327 112.5t-125 293.5v586h282v-575q0 -74 47 -120t123 -46t123 46t47 120v575zM302 1079v171h492v-171h-492z" />
    <glyph glyph-name="Ubreve" unicode="&#x16c;" horiz-adv-x="1344" 
d="M918 1238h301v-741q0 -239 -146 -378.5t-401 -139.5q-254 0 -397.5 139t-145.5 379l-3 741h300v-722q0 -121 64.5 -189.5t181.5 -68.5t181.5 68.5t64.5 189.5v722zM421 1547l184 27q3 -111 67 -111t67 111l184 -27q-10 -119 -76.5 -185.5t-174.5 -66.5t-174.5 66.5
t-76.5 185.5z" />
    <glyph glyph-name="ubreve" unicode="&#x16d;" horiz-adv-x="1096" 
d="M718 973h283l-4 -586q-2 -181 -125 -293.5t-324 -112.5q-202 0 -327 112.5t-125 293.5v586h282v-575q0 -74 47 -120t123 -46t123 46t47 120v575zM297 1282l184 27q3 -112 67 -112t67 112l184 -27q-10 -119 -77 -186t-174 -67t-174 67t-77 186z" />
    <glyph glyph-name="Uring" unicode="&#x16e;" horiz-adv-x="1344" 
d="M918 1238h301v-741q0 -239 -146 -378.5t-401 -139.5q-254 0 -397.5 139t-145.5 379l-3 741h300v-722q0 -121 64.5 -189.5t181.5 -68.5t181.5 68.5t64.5 189.5v722zM458 1494q0 90 61.5 150.5t152.5 60.5t152.5 -60.5t61.5 -150.5q0 -89 -61.5 -148.5t-152.5 -59.5
t-152.5 59.5t-61.5 148.5zM584 1494q0 -40 25 -66.5t63 -26.5t63 26.5t25 66.5t-25.5 67t-62.5 27t-62.5 -27t-25.5 -67z" />
    <glyph glyph-name="uring" unicode="&#x16f;" horiz-adv-x="1096" 
d="M718 973h283l-4 -586q-2 -181 -125 -293.5t-324 -112.5q-202 0 -327 112.5t-125 293.5v586h282v-575q0 -74 47 -120t123 -46t123 46t47 120v575zM334 1229q0 90 61.5 150.5t152.5 60.5t152.5 -60.5t61.5 -150.5q0 -89 -61.5 -149t-152.5 -60t-152.5 60t-61.5 149z
M460 1229q0 -40 25.5 -67t62.5 -27q38 0 63.5 27t25.5 67t-25.5 67t-63.5 27q-37 0 -62.5 -27t-25.5 -67z" />
    <glyph glyph-name="Uhungarumlaut" unicode="&#x170;" horiz-adv-x="1344" 
d="M918 1238h301v-741q0 -239 -146 -378.5t-401 -139.5q-254 0 -397.5 139t-145.5 379l-3 741h300v-722q0 -121 64.5 -189.5t181.5 -68.5t181.5 68.5t64.5 189.5v722zM467 1326l117 301h176l-146 -301h-147zM699 1326l116 301h177l-147 -301h-146z" />
    <glyph glyph-name="uhungarumlaut" unicode="&#x171;" horiz-adv-x="1096" 
d="M718 973h283l-4 -586q-2 -181 -125 -293.5t-324 -112.5q-202 0 -327 112.5t-125 293.5v586h282v-575q0 -74 47 -120t123 -46t123 46t47 120v575zM343 1061l117 301h177l-147 -301h-147zM575 1061l117 301h176l-146 -301h-147z" />
    <glyph glyph-name="Uogonek" unicode="&#x172;" horiz-adv-x="1344" 
d="M918 1238h301v-741q0 -239 -146 -378.5t-401 -139.5q-68 -29 -110 -81t-42 -96q0 -78 71 -78q53 0 85 64l113 -46q-27 -82 -88.5 -124t-148.5 -42q-94 0 -149.5 53.5t-55.5 138.5q0 70 40 131t103 101q-171 45 -265 175t-96 322l-3 741h300v-722q0 -121 64.5 -189.5
t181.5 -68.5t181.5 68.5t64.5 189.5v722z" />
    <glyph glyph-name="uogonek" unicode="&#x173;" horiz-adv-x="1096" 
d="M718 973h283l-4 -586q-2 -166 -107 -276t-280 -127q-58 -32 -91.5 -78t-33.5 -86q0 -78 70 -78q53 0 85 63l113 -46q-27 -82 -88.5 -124t-148.5 -42q-94 0 -149.5 54t-55.5 139q0 119 110 209q-149 32 -237 137.5t-88 254.5v586h282v-575q0 -74 47 -120t123 -46t123 46
t47 120v575z" />
    <glyph glyph-name="Wcircumflex" unicode="&#x174;" horiz-adv-x="1807" 
d="M1793 1238v-18l-426 -1220h-210l-253 741l-253 -741h-211l-426 1220v18h324l223 -686l221 686h244l221 -686l223 686h323zM640 1425l264 229l263 -229l-134 -127l-129 129l-129 -129z" />
    <glyph glyph-name="wcircumflex" unicode="&#x175;" horiz-adv-x="1460" 
d="M1150 973h295v-9l-348 -964h-169l-198 485l-199 -485h-167l-348 964v9h295l163 -508l193 508h127l193 -508zM467 1160l263 228l264 -228l-134 -127l-130 129l-129 -129z" />
    <glyph glyph-name="Ycircumflex" unicode="&#x176;" horiz-adv-x="1174" 
d="M833 1238h338v-11l-435 -725v-502h-301v502l-431 725v11h337l244 -444zM324 1425l263 229l264 -229l-135 -127l-129 129l-129 -129z" />
    <glyph glyph-name="ycircumflex" unicode="&#x177;" horiz-adv-x="962" 
d="M11 973h302l173 -550l168 550h294v-11l-354 -1073q-52 -157 -126.5 -234t-172.5 -84t-226 33l64 228q80 -24 129.5 -4t71.5 94l23 78l-346 962v11zM219 1160l264 228l263 -228l-134 -127l-129 129l-129 -129z" />
    <glyph glyph-name="Ydieresis" unicode="&#x178;" horiz-adv-x="1174" 
d="M833 1238h338v-11l-435 -725v-502h-301v502l-431 725v11h337l244 -444zM309 1440q0 50 35.5 85t85.5 35t85 -35t35 -85t-35 -85.5t-85 -35.5t-85.5 35.5t-35.5 85.5zM624 1440q0 50 35.5 85t85.5 35t85 -35t35 -85t-35 -85.5t-85 -35.5t-85.5 35.5t-35.5 85.5z" />
    <glyph glyph-name="Zacute" unicode="&#x179;" horiz-adv-x="1103" 
d="M1033 1238v-18l-532 -964h532v-256h-992v18l532 964h-493v256h953zM412 1326l173 266h324l-256 -266h-241z" />
    <glyph glyph-name="zacute" unicode="&#x17a;" horiz-adv-x="880" 
d="M837 973v-18l-390 -716h395v-239h-803v18l389 716h-370v239h779zM325 1061l174 265h323l-256 -265h-241z" />
    <glyph glyph-name="Zdotaccent" unicode="&#x17b;" horiz-adv-x="1103" 
d="M1033 1238v-18l-532 -964h532v-256h-992v18l532 964h-493v256h953zM430 1440q0 50 35 85t85 35t85 -35t35 -85t-35 -85.5t-85 -35.5t-85 35.5t-35 85.5z" />
    <glyph glyph-name="zdotaccent" unicode="&#x17c;" horiz-adv-x="880" 
d="M837 973v-18l-390 -716h395v-239h-803v18l389 716h-370v239h779zM343 1174q0 50 35 85.5t85 35.5t85.5 -35.5t35.5 -85.5t-35.5 -85t-85.5 -35t-85 35t-35 85z" />
    <glyph glyph-name="Zcaron" unicode="&#x17d;" horiz-adv-x="1103" 
d="M1033 1238v-18l-532 -964h532v-256h-992v18l532 964h-493v256h953zM287 1526l134 128l129 -129l129 129l135 -128l-264 -228z" />
    <glyph glyph-name="zcaron" unicode="&#x17e;" horiz-adv-x="880" 
d="M837 973v-18l-390 -716h395v-239h-803v18l389 716h-370v239h779zM200 1261l134 127l129 -129l129 129l135 -127l-264 -228z" />
    <glyph glyph-name="uni018F" unicode="&#x18f;" horiz-adv-x="1375" 
d="M71 741h919q-33 113 -120.5 179.5t-204.5 66.5q-71 0 -147.5 -35.5t-124.5 -91.5l-198 175q81 101 211 161.5t264 60.5q137 0 256.5 -48t204 -131.5t133 -202.5t48.5 -256t-48.5 -256t-133 -203.5t-204 -132.5t-256.5 -48q-195 0 -341 96.5t-215.5 271t-42.5 394.5z
M350 516q17 -117 103.5 -187.5t211.5 -70.5q123 0 212 69.5t117 188.5h-644z" />
    <glyph glyph-name="florin" unicode="&#x192;" horiz-adv-x="739" 
d="M704 1084q-43 19 -75.5 20.5t-56.5 -21t-27 -73.5l-11 -173h154v-223h-170l-42 -669q-10 -152 -68.5 -238.5t-167.5 -101t-267 60.5l62 226q43 -19 76 -20.5t57.5 21t27.5 73.5l41 648h-136v223h150l13 194q10 155 65 238t164 97.5t273 -55.5z" />
    <glyph glyph-name="uni01CD" unicode="&#x1cd;" horiz-adv-x="1234" 
d="M1247 0h-310l-74 193h-492l-74 -193h-309v14l520 1224h219l520 -1224v-14zM354 1526l134 128l129 -129l129 129l135 -128l-264 -228zM463 432h308l-154 397z" />
    <glyph glyph-name="uni01CE" unicode="&#x1ce;" horiz-adv-x="1041" 
d="M663 0v44q-95 -62 -224 -62q-172 0 -283.5 95t-111.5 241t111.5 241t283.5 95q127 0 222 -62q-15 170 -214 170q-139 0 -274 -78l-92 195q73 45 185.5 79t230.5 34q218 0 336 -102t118 -329v-561h-288zM271 1280l134 128l129 -129l129 129l135 -128l-264 -228zM327 322
q0 -60 49 -98t125 -38q78 0 125.5 38t47.5 98t-47.5 98t-125.5 38q-76 0 -125 -38t-49 -98z" />
    <glyph glyph-name="uni01CF" unicode="&#x1cf;" horiz-adv-x="569" 
d="M134 1238h301v-1238h-301v1238zM21 1526l135 128l129 -129l129 129l134 -128l-263 -228z" />
    <glyph glyph-name="uni01D0" unicode="&#x1d0;" horiz-adv-x="498" 
d="M108 0v973h283v-973h-283zM-14 1261l134 127l129 -129l129 129l135 -127l-264 -228z" />
    <glyph glyph-name="uni01D1" unicode="&#x1d1;" horiz-adv-x="1407" 
d="M704 -21q-179 0 -325.5 83t-230.5 230t-84 327t84 327t230.5 230t325.5 83t325.5 -83t230.5 -230t84 -327t-84 -327t-230.5 -230t-325.5 -83zM364 619q0 -153 97.5 -255t242.5 -102t242 102t97 255t-97 255t-242 102t-242.5 -102t-97.5 -255zM440 1547l135 128l129 -129
l129 129l134 -128l-263 -228z" />
    <glyph glyph-name="uni01D2" unicode="&#x1d2;" horiz-adv-x="1100" 
d="M550 -23q-218 0 -358.5 142.5t-140.5 366.5t140.5 367t358.5 143t358.5 -143t140.5 -367t-140.5 -366.5t-358.5 -142.5zM287 1284l134 127l129 -129l129 129l135 -127l-264 -228zM325 486q0 -110 64.5 -182t160.5 -72t160.5 72t64.5 182t-64.5 182.5t-160.5 72.5
t-160.5 -72.5t-64.5 -182.5z" />
    <glyph glyph-name="uni01D3" unicode="&#x1d3;" horiz-adv-x="1344" 
d="M918 1238h301v-741q0 -239 -146 -378.5t-401 -139.5q-254 0 -397.5 139t-145.5 379l-3 741h300v-722q0 -121 64.5 -189.5t181.5 -68.5t181.5 68.5t64.5 189.5v722zM409 1526l134 128l129 -129l129 129l135 -128l-264 -228z" />
    <glyph glyph-name="uni01D4" unicode="&#x1d4;" horiz-adv-x="1096" 
d="M718 973h283l-4 -586q-2 -181 -125 -293.5t-324 -112.5q-202 0 -327 112.5t-125 293.5v586h282v-575q0 -74 47 -120t123 -46t123 46t47 120v575zM285 1261l134 127l129 -129l129 129l135 -127l-264 -228z" />
    <glyph glyph-name="uni01D5" unicode="&#x1d5;" horiz-adv-x="1344" 
d="M918 1238h301v-741q0 -239 -146 -378.5t-401 -139.5q-254 0 -397.5 139t-145.5 379l-3 741h300v-722q0 -121 64.5 -189.5t181.5 -68.5t181.5 68.5t64.5 189.5v722zM394 1440q0 50 35.5 85t85.5 35t85 -35t35 -85t-35 -85.5t-85 -35.5t-85.5 35.5t-35.5 85.5zM426 1666
v172h492v-172h-492zM709 1440q0 50 35 85t85 35t85.5 -35t35.5 -85t-35.5 -85.5t-85.5 -35.5t-85 35.5t-35 85.5z" />
    <glyph glyph-name="uni01D6" unicode="&#x1d6;" horiz-adv-x="1096" 
d="M718 973h283l-4 -586q-2 -181 -125 -293.5t-324 -112.5q-202 0 -327 112.5t-125 293.5v586h282v-575q0 -74 47 -120t123 -46t123 46t47 120v575zM271 1174q0 50 35 85.5t85 35.5t85 -35.5t35 -85.5t-35 -85t-85 -35t-85 35t-35 85zM302 1401v171h492v-171h-492zM585 1174
q0 50 35.5 85.5t85.5 35.5t85 -35.5t35 -85.5t-35 -85t-85 -35t-85.5 35t-35.5 85z" />
    <glyph glyph-name="uni01D7" unicode="&#x1d7;" horiz-adv-x="1344" 
d="M918 1238h301v-741q0 -239 -146 -378.5t-401 -139.5q-254 0 -397.5 139t-145.5 379l-3 741h300v-722q0 -121 64.5 -189.5t181.5 -68.5t181.5 68.5t64.5 189.5v722zM394 1440q0 50 35.5 85t85.5 35t85 -35t35 -85t-35 -85.5t-85 -35.5t-85.5 35.5t-35.5 85.5zM534 1648
l173 266h324l-256 -266h-241zM709 1440q0 50 35 85t85 35t85.5 -35t35.5 -85t-35.5 -85.5t-85.5 -35.5t-85 35.5t-35 85.5z" />
    <glyph glyph-name="uni01D8" unicode="&#x1d8;" horiz-adv-x="1096" 
d="M718 973h283l-4 -586q-2 -181 -125 -293.5t-324 -112.5q-202 0 -327 112.5t-125 293.5v586h282v-575q0 -74 47 -120t123 -46t123 46t47 120v575zM271 1174q0 50 35 85.5t85 35.5t85 -35.5t35 -85.5t-35 -85t-85 -35t-85 35t-35 85zM410 1383l174 265h323l-256 -265h-241z
M585 1174q0 50 35.5 85.5t85.5 35.5t85 -35.5t35 -85.5t-35 -85t-85 -35t-85.5 35t-35.5 85z" />
    <glyph glyph-name="uni01D9" unicode="&#x1d9;" horiz-adv-x="1344" 
d="M918 1238h301v-741q0 -239 -146 -378.5t-401 -139.5q-254 0 -397.5 139t-145.5 379l-3 741h300v-722q0 -121 64.5 -189.5t181.5 -68.5t181.5 68.5t64.5 189.5v722zM394 1440q0 50 35.5 85t85.5 35t85 -35t35 -85t-35 -85.5t-85 -35.5t-85.5 35.5t-35.5 85.5zM409 1848
l134 127l129 -129l129 129l135 -127l-264 -228zM709 1440q0 50 35 85t85 35t85.5 -35t35.5 -85t-35.5 -85.5t-85.5 -35.5t-85 35.5t-35 85.5z" />
    <glyph glyph-name="uni01DA" unicode="&#x1da;" horiz-adv-x="1096" 
d="M718 973h283l-4 -586q-2 -181 -125 -293.5t-324 -112.5q-202 0 -327 112.5t-125 293.5v586h282v-575q0 -74 47 -120t123 -46t123 46t47 120v575zM271 1174q0 50 35 85.5t85 35.5t85 -35.5t35 -85.5t-35 -85t-85 -35t-85 35t-35 85zM285 1583l134 127l129 -129l129 129
l135 -127l-264 -228zM585 1174q0 50 35.5 85.5t85.5 35.5t85 -35.5t35 -85.5t-35 -85t-85 -35t-85.5 35t-35.5 85z" />
    <glyph glyph-name="uni01DB" unicode="&#x1db;" horiz-adv-x="1344" 
d="M918 1238h301v-741q0 -239 -146 -378.5t-401 -139.5q-254 0 -397.5 139t-145.5 379l-3 741h300v-722q0 -121 64.5 -189.5t181.5 -68.5t181.5 68.5t64.5 189.5v722zM324 1914h323l174 -266h-241zM394 1440q0 50 35.5 85t85.5 35t85 -35t35 -85t-35 -85.5t-85 -35.5
t-85.5 35.5t-35.5 85.5zM709 1440q0 50 35 85t85 35t85.5 -35t35.5 -85t-35.5 -85.5t-85.5 -35.5t-85 35.5t-35 85.5z" />
    <glyph glyph-name="uni01DC" unicode="&#x1dc;" horiz-adv-x="1096" 
d="M718 973h283l-4 -586q-2 -181 -125 -293.5t-324 -112.5q-202 0 -327 112.5t-125 293.5v586h282v-575q0 -74 47 -120t123 -46t123 46t47 120v575zM200 1648h323l174 -265h-241zM271 1174q0 50 35 85.5t85 35.5t85 -35.5t35 -85.5t-35 -85t-85 -35t-85 35t-35 85zM585 1174
q0 50 35.5 85.5t85.5 35.5t85 -35.5t35 -85.5t-35 -85t-85 -35t-85.5 35t-35.5 85z" />
    <glyph glyph-name="Gcaron" unicode="&#x1e6;" horiz-adv-x="1375" 
d="M1305 741q27 -220 -42.5 -394.5t-215.5 -271t-341 -96.5q-137 0 -256.5 48t-204 132.5t-133 203.5t-48.5 256t48.5 256t133 202.5t204 131.5t256.5 48q134 0 264 -60.5t211 -161.5l-198 -175q-48 56 -124.5 91.5t-147.5 35.5q-148 0 -244.5 -102.5t-96.5 -265.5
q0 -162 96 -261.5t245 -99.5q121 0 207 68t106 180h-294v235h575zM442 1546l135 127l129 -129l129 129l134 -127l-263 -228z" />
    <glyph glyph-name="gcaron" unicode="&#x1e7;" horiz-adv-x="1073" 
d="M490 214q-61 0 -119 14q-23 -23 -23 -46q0 -46 114 -46h178q361 0 361 -295q0 -151 -116.5 -238.5t-341.5 -87.5q-315 0 -541 128l113 221q195 -94 428 -94q175 0 175 62q0 32 -26.5 44.5t-99.5 12.5h-189q-165 0 -257.5 63t-92.5 170q0 129 122 212q-108 105 -108 267
q0 170 119.5 279.5t303.5 109.5q167 0 283 -92q86 87 290 87v-256q-94 0 -165 -20q15 -57 15 -108q0 -169 -119.5 -278t-303.5 -109zM226 1279l135 127l129 -129l129 129l134 -127l-263 -228zM341 601q0 -64 42 -104.5t107 -40.5t106.5 40.5t41.5 104.5t-41.5 104.5
t-106.5 40.5t-107 -40.5t-42 -104.5z" />
    <glyph glyph-name="uni01EA" unicode="&#x1ea;" horiz-adv-x="1407" 
d="M704 -21h-7q-66 -30 -105.5 -80.5t-39.5 -93.5q0 -77 71 -77q53 0 84 63l114 -46q-27 -82 -88.5 -124t-148.5 -42q-94 0 -150 54t-56 139q0 70 40.5 130.5t103.5 101.5q-204 56 -331 223.5t-127 391.5q0 180 84 327t230.5 230t325.5 83t325.5 -83t230.5 -230t84 -327
t-84 -327t-230.5 -230t-325.5 -83zM364 619q0 -153 97.5 -255t242.5 -102t242 102t97 255t-97 255t-242 102t-242.5 -102t-97.5 -255z" />
    <glyph glyph-name="uni01EB" unicode="&#x1eb;" horiz-adv-x="1100" 
d="M550 232q96 0 160.5 72t64.5 182t-64.5 182.5t-160.5 72.5t-160.5 -72.5t-64.5 -182.5t64.5 -182t160.5 -72zM51 486q0 224 140.5 367t358.5 143t358.5 -143t140.5 -367q0 -197 -110.5 -333t-291.5 -167q-64 -30 -103.5 -80.5t-39.5 -92.5q0 -78 71 -78q53 0 85 63
l113 -46q-27 -82 -88.5 -124t-148.5 -42q-94 0 -149.5 54t-55.5 139q0 121 111 209q-176 35 -283.5 170t-107.5 328z" />
    <glyph glyph-name="Aringacute" unicode="&#x1fa;" horiz-adv-x="1234" 
d="M1247 0h-310l-74 193h-492l-74 -193h-309v14l520 1224h219l520 -1224v-14zM403 1494q0 90 61.5 150.5t152.5 60.5t152.5 -60.5t61.5 -150.5q0 -89 -61.5 -148.5t-152.5 -59.5t-152.5 59.5t-61.5 148.5zM462 1751l173 265h324l-257 -265h-240zM463 432h308l-154 397z
M529 1494q0 -40 25 -66.5t63 -26.5t63.5 26.5t25.5 66.5t-25.5 67t-63.5 27q-37 0 -62.5 -27t-25.5 -67z" />
    <glyph glyph-name="aringacute" unicode="&#x1fb;" horiz-adv-x="1041" 
d="M663 0v44q-95 -62 -224 -62q-172 0 -283.5 95t-111.5 241t111.5 241t283.5 95q127 0 222 -62q-15 170 -214 170q-139 0 -274 -78l-92 195q73 45 185.5 79t230.5 34q218 0 336 -102t118 -329v-561h-288zM320 1249q0 90 61 150t153 60t153 -60t61 -150q0 -89 -61.5 -149
t-152.5 -60t-152.5 60t-61.5 149zM327 322q0 -60 49 -98t125 -38q78 0 125.5 38t47.5 98t-47.5 98t-125.5 38q-76 0 -125 -38t-49 -98zM378 1505l174 265h323l-256 -265h-241zM446 1249q0 -40 25.5 -67t62.5 -27q38 0 63.5 27t25.5 67t-25.5 66.5t-63.5 26.5t-63 -26.5
t-25 -66.5z" />
    <glyph glyph-name="AEacute" unicode="&#x1fc;" horiz-adv-x="1895" 
d="M1781 982h-585v-229h479v-245h-479v-252h585v-256h-886v193h-483l-136 -193h-341v16l894 1222h952v-256zM582 432h313v440zM829 1326l174 266h323l-256 -266h-241z" />
    <glyph glyph-name="aeacute" unicode="&#x1fd;" horiz-adv-x="1719" 
d="M663 0v44q-95 -62 -224 -62q-172 0 -283.5 95t-111.5 241t111.5 241t283.5 95q127 0 222 -62q-15 170 -214 170q-139 0 -274 -78l-92 195q73 45 185.5 79t230.5 34q245 0 359 -125q134 123 331 123q159 0 276.5 -88.5t168.5 -228t30 -295.5h-688q26 -68 82 -106.5
t129 -38.5q55 0 102.5 25t79.5 69l216 -148q-143 -197 -396 -197q-124 0 -236 57v-39h-288zM327 322q0 -60 49 -98t125 -38q78 0 125.5 38t47.5 98t-47.5 98t-125.5 38q-76 0 -125 -38t-49 -98zM729 1061l173 265h324l-257 -265h-240zM969 573h423q-19 71 -72 117t-135 46
q-79 0 -137 -43.5t-79 -119.5z" />
    <glyph glyph-name="Oslashacute" unicode="&#x1fe;" horiz-adv-x="1407" 
d="M704 -21q-157 0 -292 65l-35 -44h-299l145 187q-159 181 -159 432q0 180 84 327t230.5 230t325.5 83q161 0 293 -67l36 46h297l-145 -187q159 -181 159 -432q0 -180 -84 -327t-230.5 -230t-325.5 -83zM364 619q0 -99 48 -187l405 525q-55 19 -113 19q-145 0 -242.5 -102
t-97.5 -255zM566 1348l173 265h324l-257 -265h-240zM592 279q54 -17 112 -17q145 0 242 102t97 255q0 99 -46 186z" />
    <glyph glyph-name="oslashacute" unicode="&#x1ff;" horiz-adv-x="1100" 
d="M550 -23q-132 0 -232 51l-23 -28h-235l110 143q-119 142 -119 343q0 224 140.5 367t358.5 143q129 0 237 -53l23 30h233l-111 -145q117 -139 117 -342q0 -224 -140.5 -366.5t-358.5 -142.5zM325 486q0 -60 22 -113l276 356q-31 12 -73 12q-96 0 -160.5 -72.5
t-64.5 -182.5zM412 1084l173 265h324l-256 -265h-241zM483 242q30 -10 67 -10q96 0 160.5 72t64.5 182q0 60 -22 110z" />
    <glyph glyph-name="uni0218" unicode="&#x218;" horiz-adv-x="1110" 
d="M757 854q-37 69 -97 108t-138 39q-149 0 -149 -94q0 -49 52 -84t210 -82q76 -23 131 -44.5t107.5 -54t84.5 -71.5t51.5 -94t19.5 -123q0 -95 -42 -169.5t-111.5 -118t-150 -65.5t-166.5 -22q-181 0 -314.5 83.5t-191.5 239.5l242 137q104 -200 282 -200q157 0 157 102
q0 54 -52.5 93.5t-189.5 83.5q-49 16 -82.5 28t-80.5 32.5t-79 40.5t-67 50.5t-56 64t-35 78.5t-14 97q0 89 38 158t102.5 110t144 61.5t169.5 20.5q177 0 297.5 -77.5t180.5 -205.5zM458 -424v328h212v-134l-72 -194h-140z" />
    <glyph glyph-name="uni0219" unicode="&#x219;" horiz-adv-x="898" 
d="M608 669q-24 43 -69.5 71.5t-101.5 28.5q-112 0 -112 -62q0 -35 37 -57t153 -52q65 -16 113 -34t92 -44t71.5 -59t43.5 -79t16 -103q0 -76 -34.5 -136.5t-91.5 -96.5t-126 -54.5t-144 -18.5q-165 0 -276 62t-158 186l232 117q70 -133 205 -133q113 0 113 80
q0 33 -32.5 51t-121.5 42q-38 10 -68 19.5t-70.5 25.5t-70.5 33t-62 41.5t-52.5 52t-34 64.5t-13.5 78q1 97 58.5 168t146 104t195.5 33q145 0 247 -62.5t147 -165.5zM354 -426v329h212v-135l-73 -194h-139z" />
    <glyph glyph-name="uni021A" unicode="&#x21a;" horiz-adv-x="1092" 
d="M53 1238h987v-256h-343v-982h-301v982h-343v256zM446 -403v329h212v-135l-73 -194h-139z" />
    <glyph glyph-name="uni021B" unicode="&#x21b;" horiz-adv-x="680" 
d="M48 973h99v192l283 54v-246h185v-221h-185v-356q0 -86 26 -117t98 -31h88v-248h-193q-302 0 -302 299v453h-99v221zM354 -403v329h212v-135l-73 -194h-139z" />
    <glyph glyph-name="uni0232" unicode="&#x232;" horiz-adv-x="1174" 
d="M833 1238h338v-11l-435 -725v-502h-301v502l-431 725v11h337l244 -444zM341 1344v172h492v-172h-492z" />
    <glyph glyph-name="uni0233" unicode="&#x233;" horiz-adv-x="962" 
d="M11 973h302l173 -550l168 550h294v-11l-354 -1073q-52 -157 -126.5 -234t-172.5 -84t-226 33l64 228q80 -24 129.5 -4t71.5 94l23 78l-346 962v11zM237 1079v171h492v-171h-492z" />
    <glyph glyph-name="uni0237" unicode="&#x237;" horiz-adv-x="498" 
d="M-83 -161q59 -26 106 -26q85 0 85 114v1046h283v-1091q0 -162 -88 -246.5t-220 -84.5q-128 0 -269 81z" />
    <glyph glyph-name="uni0259" unicode="&#x259;" horiz-adv-x="1073" 
d="M57 594h688q-26 68 -82 106.5t-129 38.5q-55 0 -102.5 -24.5t-79.5 -68.5l-216 148q142 196 396 196q139 0 251.5 -66t175.5 -181t63 -257q0 -217 -139 -360.5t-351 -143.5q-159 0 -276.5 88.5t-168.5 228t-30 295.5zM327 400q19 -71 72 -117t135 -46q79 0 137 43.5
t79 119.5h-423z" />
    <glyph glyph-name="circumflex" unicode="&#x2c6;" horiz-adv-x="907" 
d="M423 1388l263 -228l-134 -127l-129 129l-129 -129l-135 127z" />
    <glyph glyph-name="caron" unicode="&#x2c7;" horiz-adv-x="907" 
d="M423 1033l-264 228l135 127l129 -129l129 129l134 -127z" />
    <glyph glyph-name="breve" unicode="&#x2d8;" horiz-adv-x="930" 
d="M684 1282q-10 -119 -77 -186t-174 -67t-174 67t-77 186l184 27q3 -112 67 -112q65 0 68 112z" />
    <glyph glyph-name="dotaccent" unicode="&#x2d9;" horiz-adv-x="756" 
d="M338 1054q-50 0 -85 35t-35 85t35 85.5t85 35.5t85 -35.5t35 -85.5t-35 -85t-85 -35z" />
    <glyph glyph-name="ring" unicode="&#x2da;" horiz-adv-x="845" 
d="M400 1020q-91 0 -152.5 60t-61.5 149q0 90 61.5 150.5t152.5 60.5t152.5 -60.5t61.5 -150.5q0 -89 -61.5 -149t-152.5 -60zM311 1229q0 -40 25.5 -67t63.5 -27q37 0 62.5 27t25.5 67t-25.5 67t-62.5 27q-38 0 -63.5 -27t-25.5 -67z" />
    <glyph glyph-name="ogonek" unicode="&#x2db;" horiz-adv-x="749" 
d="M465 4q-68 -29 -110 -81t-42 -96q0 -78 71 -78q53 0 85 64l113 -46q-28 -82 -89 -124.5t-148 -42.5q-94 0 -149.5 54t-55.5 139q0 78 48.5 143.5t120.5 104.5z" />
    <glyph glyph-name="tilde" unicode="&#x2dc;" horiz-adv-x="932" 
d="M154 1185q94 120 200 120q36 0 64 -16t41.5 -34.5t32 -34.5t39.5 -16q47 0 97 59l92 -103q-33 -52 -86.5 -85t-108.5 -33q-37 0 -64.5 15.5t-40.5 34.5t-31.5 34.5t-41.5 15.5q-57 0 -101 -60z" />
    <glyph glyph-name="hungarumlaut" unicode="&#x2dd;" horiz-adv-x="967" 
d="M532 1362l-146 -301h-147l116 301h177zM470 1061l117 301h177l-147 -301h-147z" />
    <glyph glyph-name="gravecomb" unicode="&#x300;" 
d="M485 1326l173 -265h-241l-256 265h324z" />
    <glyph glyph-name="acutecomb" unicode="&#x301;" 
d="M417 1326h324l-256 -265h-241z" />
    <glyph glyph-name="uni0302" unicode="&#x302;" 
d="M423 1388l263 -228l-134 -127l-129 129l-129 -129l-135 127z" />
    <glyph glyph-name="tildecomb" unicode="&#x303;" 
d="M154 1185q94 120 200 120q36 0 64 -16t41.5 -34.5t32 -34.5t39.5 -16q47 0 97 59l92 -103q-33 -52 -86.5 -85t-108.5 -33q-37 0 -64.5 15.5t-40.5 34.5t-31.5 34.5t-41.5 15.5q-57 0 -101 -60z" />
    <glyph glyph-name="uni0304" unicode="&#x304;" 
d="M157 1079v171h492v-171h-492z" />
    <glyph glyph-name="uni0306" unicode="&#x306;" 
d="M684 1282q-10 -119 -77 -186t-174 -67t-174 67t-77 186l184 27q3 -112 67 -112q65 0 68 112z" />
    <glyph glyph-name="uni0307" unicode="&#x307;" 
d="M338 1054q-50 0 -85 35t-35 85t35 85.5t85 35.5t85 -35.5t35 -85.5t-35 -85t-85 -35z" />
    <glyph glyph-name="uni0308" unicode="&#x308;" 
d="M290 1054q-50 0 -85 35t-35 85t35 85.5t85 35.5t85 -35.5t35 -85.5t-35 -85t-85 -35zM485 1174q0 50 35 85.5t85 35.5t85 -35.5t35 -85.5t-35 -85t-85 -35t-85 35t-35 85z" />
    <glyph glyph-name="uni030A" unicode="&#x30a;" 
d="M382 1020q-91 0 -152.5 60t-61.5 149q0 90 61.5 150.5t152.5 60.5t152.5 -60.5t61.5 -150.5q0 -89 -61.5 -149t-152.5 -60zM294 1229q0 -40 25.5 -67t62.5 -27t62.5 27t25.5 67t-25.5 67t-62.5 27t-62.5 -27t-25.5 -67z" />
    <glyph glyph-name="uni030B" unicode="&#x30b;" 
d="M532 1362l-146 -301h-147l116 301h177zM470 1061l117 301h177l-147 -301h-147z" />
    <glyph glyph-name="uni030C" unicode="&#x30c;" 
d="M423 1033l-264 228l135 127l129 -129l129 129l134 -127z" />
    <glyph glyph-name="uni0312" unicode="&#x312;" 
d="M465 1061h-232l133 281h205z" />
    <glyph glyph-name="uni0326" unicode="&#x326;" 
d="M391 -74h212v-135l-72 -194h-140v329z" />
    <glyph glyph-name="uni0327" unicode="&#x327;" 
d="M357 30h156v-14l-32 -106q51 -11 74 -43.5t23 -69.5q0 -66 -53.5 -109t-149.5 -43q-111 0 -205 58l51 106q84 -42 136 -42q29 0 41 8.5t12 28.5q0 43 -88 60z" />
    <glyph glyph-name="uni0328" unicode="&#x328;" 
d="M456 4q-68 -29 -110 -81t-42 -96q0 -78 71 -78q53 0 85 64l113 -46q-28 -82 -89 -124.5t-148 -42.5q-94 0 -149.5 54t-55.5 139q0 78 49 143.5t121 104.5z" />
    <glyph glyph-name="uni0335" unicode="&#x335;" 
d="M2 729h587v-223h-587v223z" />
    <glyph glyph-name="uni0336" unicode="&#x336;" 
d="M0 605h1134v-205h-1134v205z" />
    <glyph glyph-name="uni0337" unicode="&#x337;" 
d="M615 1061v-283l-613 -495v283z" />
    <glyph glyph-name="uni0338" unicode="&#x338;" 
d="M957 1238h297l-953 -1238h-299z" />
    <glyph glyph-name="uni0394" unicode="&#x394;" horiz-adv-x="1202" 
d="M748 1238l467 -1238h-1227l467 1238h293zM377 244h449l-225 644z" />
    <glyph glyph-name="uni03A9" unicode="&#x3a9;" horiz-adv-x="1377" 
d="M753 248q115 38 187.5 141t72.5 230q0 152 -90.5 249.5t-232.5 97.5q-143 0 -234.5 -97.5t-91.5 -249.5q0 -127 72.5 -230t187.5 -141v-248h-536v248h167q-90 71 -140.5 174.5t-50.5 231.5q0 169 79.5 304.5t223 213t323.5 77.5t323 -77.5t222 -213t79 -304.5
q0 -128 -50.5 -231.5t-140.5 -174.5h166v-248h-536v248z" />
    <glyph glyph-name="uni03BC" unicode="&#x3bc;" horiz-adv-x="1216" 
d="M1031 248h147v-248h-317v34q-77 -43 -178 -43q-186 0 -292 127v-472h-283v1327h283v-547q0 -90 49 -144t129 -54t129.5 54t49.5 144v547h283v-725z" />
    <glyph glyph-name="pi" unicode="&#x3c0;" horiz-adv-x="1156" 
d="M1118 973v-248h-154v-391q0 -48 19.5 -67t68.5 -19h66v-248h-108q-168 0 -248.5 67.5t-80.5 213.5v444h-202v-725h-283v725h-148v248h1070z" />
    <glyph glyph-name="uni0400" unicode="&#x400;" horiz-adv-x="1135" 
d="M1020 982h-585v-229h479v-245h-479v-252h585v-256h-886v1238h886v-256zM256 1592h324l173 -266h-240z" />
    <glyph glyph-name="uni0401" unicode="&#x401;" horiz-adv-x="1135" 
d="M1020 982h-585v-229h479v-245h-479v-252h585v-256h-886v1238h886v-256zM324 1440q0 50 35 85t85 35t85 -35t35 -85t-35 -85.5t-85 -35.5t-85 35.5t-35 85.5zM638 1440q0 50 35.5 85t85.5 35t85 -35t35 -85t-35 -85.5t-85 -35.5t-85.5 35.5t-35.5 85.5z" />
    <glyph glyph-name="uni0402" unicode="&#x402;" horiz-adv-x="1444" 
d="M941 798q218 0 334.5 -99t116.5 -301q0 -191 -118.5 -294.5t-332.5 -103.5h-131v256h92q90 0 139.5 35.5t49.5 106.5t-49.5 107t-139.5 36h-205v-541h-301v982h-343v256h1150v-256h-506v-184h244z" />
    <glyph glyph-name="uni0403" unicode="&#x403;" horiz-adv-x="1052" 
d="M967 982h-532v-982h-301v1238h833v-256zM414 1326l173 266h324l-257 -266h-240z" />
    <glyph glyph-name="uni0404" unicode="&#x404;" horiz-adv-x="1275" 
d="M1236 253q-86 -128 -225.5 -201t-306.5 -73q-179 0 -325.5 83t-230.5 230t-84 327t84 327t230.5 230t325.5 83q167 0 306.5 -73.5t225.5 -202.5l-256 -152q-46 68 -117.5 106.5t-158.5 38.5q-113 0 -199 -63.5t-121 -169.5h419v-257h-416q36 -102 121.5 -163t195.5 -61
q89 0 162 40.5t119 111.5z" />
    <glyph glyph-name="uni0405" unicode="&#x405;" horiz-adv-x="1110" 
d="M757 854q-37 69 -97 108t-138 39q-149 0 -149 -94q0 -49 52 -84t210 -82q76 -23 131 -44.5t107.5 -54t84.5 -71.5t51.5 -94t19.5 -123q0 -95 -42 -169.5t-111.5 -118t-150 -65.5t-166.5 -22q-181 0 -314.5 83.5t-191.5 239.5l242 137q104 -200 282 -200q157 0 157 102
q0 54 -52.5 93.5t-189.5 83.5q-49 16 -82.5 28t-80.5 32.5t-79 40.5t-67 50.5t-56 64t-35 78.5t-14 97q0 89 38 158t102.5 110t144 61.5t169.5 20.5q177 0 297.5 -77.5t180.5 -205.5z" />
    <glyph glyph-name="uni0406" unicode="&#x406;" horiz-adv-x="569" 
d="M134 1238h301v-1238h-301v1238z" />
    <glyph glyph-name="uni0407" unicode="&#x407;" horiz-adv-x="569" 
d="M134 1238h301v-1238h-301v1238zM7 1440q0 50 35 85t85 35t85.5 -35t35.5 -85t-35.5 -85.5t-85.5 -35.5t-85 35.5t-35 85.5zM322 1440q0 50 35 85t85 35t85 -35t35 -85t-35 -85.5t-85 -35.5t-85 35.5t-35 85.5z" />
    <glyph glyph-name="uni0408" unicode="&#x408;" horiz-adv-x="940" 
d="M248 364q15 -54 51 -85t90 -31q56 0 90 34.5t34 106.5v849h301v-849q0 -195 -109 -301.5t-302 -106.5q-157 0 -267 69.5t-157 207.5z" />
    <glyph glyph-name="uni0409" unicode="&#x409;" horiz-adv-x="1947" 
d="M225 1238h963v-355h245q213 0 332 -116t119 -327q0 -200 -120.5 -320t-330.5 -120h-545v982h-368l-9 -434q-3 -133 -18.5 -226t-44.5 -156.5t-78.5 -99.5t-113 -51t-155.5 -15h-59v272h43q67 0 94.5 53.5t30.5 199.5zM1188 256h206q86 0 137.5 52.5t51.5 131.5
q0 89 -50 137.5t-139 48.5h-206v-370z" />
    <glyph glyph-name="uni040A" unicode="&#x40a;" horiz-adv-x="1986" 
d="M1471 812q218 0 334.5 -100t116.5 -307q0 -196 -118.5 -300.5t-332.5 -104.5h-544v555h-492v-555h-301v1238h301v-426h492v426h300v-426h244zM1227 256h206q189 0 189 149q0 150 -189 150h-206v-299z" />
    <glyph glyph-name="uni040B" unicode="&#x40b;" horiz-adv-x="1457" 
d="M1091 373q0 179 -194 179q-84 0 -200 -32v-520h-301v982h-343v256h1146v-256h-502v-207q141 33 263 33q202 0 317 -107t115 -328v-373h-301v373z" />
    <glyph glyph-name="uni040C" unicode="&#x40c;" horiz-adv-x="1197" 
d="M134 1238h301v-462h159l257 462h320v-9l-333 -573l354 -647v-9h-317l-279 520h-161v-520h-301v1238zM495 1326l174 266h323l-256 -266h-241z" />
    <glyph glyph-name="uni040D" unicode="&#x40d;" horiz-adv-x="1352" 
d="M134 0v1238h296v-760l518 760h271v-1238h-296v760l-518 -760h-271zM325 1592h324l173 -266h-240z" />
    <glyph glyph-name="uni040E" unicode="&#x40e;" horiz-adv-x="1163" 
d="M835 1238h318v-11l-412 -902q-79 -175 -179.5 -250t-267.5 -75q-56 0 -138 16l30 239q40 -6 92 -6q63 0 98.5 17t62.5 59l-418 902v11h319l249 -626zM299 1592h209q0 -92 81 -92t81 92h211q2 -134 -70.5 -206t-221.5 -72t-221.5 72t-68.5 206z" />
    <glyph glyph-name="uni040F" unicode="&#x40f;" horiz-adv-x="1361" 
d="M927 256v982h300v-1238h-396v-265h-300v265h-397v1238h301v-982h492z" />
    <glyph glyph-name="uni0410" unicode="&#x410;" horiz-adv-x="1234" 
d="M1247 0h-310l-74 193h-492l-74 -193h-309v14l520 1224h219l520 -1224v-14zM463 432h308l-154 397z" />
    <glyph glyph-name="uni0411" unicode="&#x411;" horiz-adv-x="1188" 
d="M134 1238h883v-256h-582v-216h287q206 0 309.5 -102.5t103.5 -281.5q0 -177 -103.5 -279.5t-309.5 -102.5h-588v1238zM435 256h251q86 0 124.5 30.5t38.5 95.5q0 66 -38 96.5t-125 30.5h-251v-253z" />
    <glyph glyph-name="uni0412" unicode="&#x412;" horiz-adv-x="1183" 
d="M810 872q0 124 -141 124h-245v-244h245q141 0 141 120zM134 0v1238h579q178 0 277 -93t99 -259q0 -81 -30 -142t-83 -95q73 -37 113.5 -114.5t40.5 -175.5q0 -175 -102.5 -267t-288.5 -92h-605zM424 242h275q148 0 148 145q0 142 -148 142h-275v-287z" />
    <glyph glyph-name="uni0413" unicode="&#x413;" horiz-adv-x="1052" 
d="M967 982h-532v-982h-301v1238h833v-256z" />
    <glyph glyph-name="uni0414" unicode="&#x414;" horiz-adv-x="1404" 
d="M258 1238h968v-982h134v-521h-301v265h-723v-265h-301v521h69q67 0 94 53t32 200zM483 256h442v726h-377l-17 -398q-8 -206 -48 -328z" />
    <glyph glyph-name="uni0415" unicode="&#x415;" horiz-adv-x="1135" 
d="M1020 982h-585v-229h479v-245h-479v-252h585v-256h-886v1238h886v-256z" />
    <glyph glyph-name="uni0416" unicode="&#x416;" horiz-adv-x="1825" 
d="M762 1238h301v-462h168l256 462h312v-9l-333 -573l354 -647v-9h-308l-279 520h-170v-520h-301v520h-170l-279 -520h-308v9l354 647l-332 573v9h311l256 -462h168v462z" />
    <glyph glyph-name="uni0417" unicode="&#x417;" horiz-adv-x="1077" 
d="M251 361q95 -124 272 -124q97 0 154 38t57 107q0 138 -205 138h-161v226h147q94 0 139 35t45 94q0 57 -51.5 91.5t-136.5 34.5q-84 0 -145.5 -25.5t-121.5 -85.5l-189 150q174 217 467 217q215 0 341 -99.5t126 -257.5q0 -177 -142 -256q81 -36 129 -111.5t48 -180.5
q0 -164 -128.5 -267.5t-363.5 -103.5q-188 0 -308.5 65.5t-184.5 172.5z" />
    <glyph glyph-name="uni0418" unicode="&#x418;" horiz-adv-x="1352" 
d="M134 0v1238h296v-760l518 760h271v-1238h-296v760l-518 -760h-271z" />
    <glyph glyph-name="uni0419" unicode="&#x419;" horiz-adv-x="1352" 
d="M134 0v1238h296v-760l518 760h271v-1238h-296v760l-518 -760h-271zM384 1592h208q0 -92 82 -92q81 0 81 92h211q2 -134 -70.5 -206t-221.5 -72t-221.5 72t-68.5 206z" />
    <glyph glyph-name="uni041A" unicode="&#x41a;" horiz-adv-x="1197" 
d="M134 1238h301v-462h159l257 462h320v-9l-333 -573l354 -647v-9h-317l-279 520h-161v-520h-301v1238z" />
    <glyph glyph-name="uni041B" unicode="&#x41b;" horiz-adv-x="1322" 
d="M232 1238h956v-1238h-300v982h-363l-14 -434q-4 -133 -21.5 -226t-48.5 -156.5t-83.5 -99.5t-119 -51t-162.5 -15h-34v272h25q76 0 107.5 53.5t35.5 199.5z" />
    <glyph glyph-name="uni041C" unicode="&#x41c;" horiz-adv-x="1627" 
d="M1231 1238h262v-1238h-290v707l-354 -505h-71l-354 505v-707h-290v1238h262l418 -612z" />
    <glyph glyph-name="uni041D" unicode="&#x41d;" horiz-adv-x="1361" 
d="M134 1238h301v-462h492v462h300v-1238h-300v520h-492v-520h-301v1238z" />
    <glyph glyph-name="uni041E" unicode="&#x41e;" horiz-adv-x="1407" 
d="M704 -21q-179 0 -325.5 83t-230.5 230t-84 327t84 327t230.5 230t325.5 83t325.5 -83t230.5 -230t84 -327t-84 -327t-230.5 -230t-325.5 -83zM364 619q0 -153 97.5 -255t242.5 -102t242 102t97 255t-97 255t-242 102t-242.5 -102t-97.5 -255z" />
    <glyph glyph-name="uni041F" unicode="&#x41f;" horiz-adv-x="1361" 
d="M134 0v1238h1093v-1238h-300v982h-492v-982h-301z" />
    <glyph glyph-name="uni0420" unicode="&#x420;" horiz-adv-x="1193" 
d="M679 1238q210 0 330.5 -120t120.5 -320q0 -211 -119 -327t-332 -116h-244v-355h-301v1238h545zM435 612h205q89 0 139 48.5t50 137.5q0 79 -51.5 131.5t-137.5 52.5h-205v-370z" />
    <glyph glyph-name="uni0421" unicode="&#x421;" horiz-adv-x="1149" 
d="M707 249q74 0 139.5 28t103.5 70l178 -197q-150 -171 -438 -171q-132 0 -248 48.5t-199 133t-131 203.5t-48 255t48 255t131 203.5t199 133t248 48.5q288 0 438 -171l-178 -197q-38 42 -103.5 70t-139.5 28q-151 0 -251.5 -104.5t-100.5 -265.5t100.5 -265.5
t251.5 -104.5z" />
    <glyph glyph-name="uni0422" unicode="&#x422;" horiz-adv-x="1092" 
d="M53 1238h987v-256h-343v-982h-301v982h-343v256z" />
    <glyph glyph-name="uni0423" unicode="&#x423;" horiz-adv-x="1163" 
d="M835 1238h318v-11l-412 -902q-79 -175 -179.5 -250t-267.5 -75q-56 0 -138 16l30 239q40 -6 92 -6q63 0 98.5 17t62.5 59l-418 902v11h319l249 -626z" />
    <glyph glyph-name="uni0424" unicode="&#x424;" horiz-adv-x="1726" 
d="M713 1379h300v-155q306 -8 477.5 -170.5t171.5 -434.5t-172 -435t-477 -170v-155h-300v155q-306 8 -477.5 170.5t-171.5 434.5t171.5 434.5t477.5 170.5v155zM364 619q0 -163 88.5 -250.5t263.5 -92.5v686q-175 -5 -263.5 -92.5t-88.5 -250.5zM1010 276q175 5 263.5 92.5
t88.5 250.5t-88.5 250.5t-263.5 92.5v-686z" />
    <glyph glyph-name="uni0425" unicode="&#x425;" horiz-adv-x="1260" 
d="M1256 0h-347l-278 435l-279 -435h-347l4 11l424 629l-399 587v11h346l251 -393l250 393h346v-11l-399 -587l428 -629v-11z" />
    <glyph glyph-name="uni0426" unicode="&#x426;" horiz-adv-x="1398" 
d="M1355 256v-521h-301v265h-920v1238h301v-982h483v982h301v-982h136z" />
    <glyph glyph-name="uni0427" unicode="&#x427;" horiz-adv-x="1193" 
d="M364 865q0 -95 51.5 -140.5t143.5 -45.5q84 0 200 27v532h300v-1238h-300v449q-117 -26 -239 -26q-221 0 -338.5 112t-117.5 330v373h300v-373z" />
    <glyph glyph-name="uni0428" unicode="&#x428;" horiz-adv-x="1977" 
d="M134 1238h301v-982h403v982h301v-982h403v982h301v-1238h-1709v1238z" />
    <glyph glyph-name="uni0429" unicode="&#x429;" horiz-adv-x="2023" 
d="M1979 256v-521h-301v265h-1544v1238h301v-982h403v982h301v-982h403v982h301v-982h136z" />
    <glyph glyph-name="uni042A" unicode="&#x42a;" horiz-adv-x="1455" 
d="M53 1238h644v-355h244q213 0 332 -116t119 -327q0 -200 -120.5 -320t-330.5 -120h-545v982h-343v256zM697 256h205q86 0 137.5 52.5t51.5 131.5q0 89 -50 137.5t-139 48.5h-205v-370z" />
    <glyph glyph-name="uni042B" unicode="&#x42b;" horiz-adv-x="1687" 
d="M134 0v1238h301v-355h244q213 0 332 -116t119 -327q0 -200 -120.5 -320t-330.5 -120h-545zM435 256h205q86 0 137.5 52.5t51.5 131.5q0 89 -50 137.5t-139 48.5h-205v-370zM1252 0v1238h301v-1238h-301z" />
    <glyph glyph-name="uni042C" unicode="&#x42c;" horiz-adv-x="1193" 
d="M134 0v1238h301v-355h244q213 0 332 -116t119 -327q0 -200 -120.5 -320t-330.5 -120h-545zM435 256h205q86 0 137.5 52.5t51.5 131.5q0 89 -50 137.5t-139 48.5h-205v-370z" />
    <glyph glyph-name="uni042D" unicode="&#x42d;" horiz-adv-x="1275" 
d="M290 414q46 -71 119 -111.5t162 -40.5q110 0 195.5 61t121.5 163h-416v257h419q-35 106 -121 169.5t-199 63.5q-87 0 -158.5 -38.5t-117.5 -106.5l-256 152q86 129 225.5 202.5t306.5 73.5q179 0 325.5 -83t230.5 -230t84 -327t-84 -327t-230.5 -230t-325.5 -83
q-167 0 -306.5 73t-225.5 201z" />
    <glyph glyph-name="uni042E" unicode="&#x42e;" horiz-adv-x="1888" 
d="M1203 -21q-240 0 -408 145.5t-206 377.5h-154v-502h-301v1238h301v-479h157q44 223 210.5 361.5t400.5 138.5q179 0 321.5 -83.5t221.5 -229.5t79 -327t-79 -327t-221.5 -229.5t-321.5 -83.5zM881 619q0 -155 89.5 -256t232.5 -101t232.5 101t89.5 256t-89.5 256
t-232.5 101t-232.5 -101t-89.5 -256z" />
    <glyph glyph-name="uni042F" unicode="&#x42f;" horiz-adv-x="1202" 
d="M355 0h-313v14l257 453q-111 43 -170.5 139t-59.5 231q0 187 112.5 294t313.5 107h573v-1238h-300v433h-183zM370 837q0 -67 43.5 -107t120.5 -40h234v292h-234q-77 0 -120.5 -39.5t-43.5 -105.5z" />
    <glyph glyph-name="uni0430" unicode="&#x430;" horiz-adv-x="1041" 
d="M663 0v44q-95 -62 -224 -62q-172 0 -283.5 95t-111.5 241t111.5 241t283.5 95q127 0 222 -62q-15 170 -214 170q-139 0 -274 -78l-92 195q73 45 185.5 79t230.5 34q218 0 336 -102t118 -329v-561h-288zM327 322q0 -60 49 -98t125 -38q78 0 125.5 38t47.5 98t-47.5 98
t-125.5 38q-76 0 -125 -38t-49 -98z" />
    <glyph glyph-name="uni0431" unicode="&#x431;" horiz-adv-x="1064" 
d="M532 -23q-210 0 -345.5 131t-135.5 357v55q0 260 84.5 424t281.5 234l80 28q96 35 126 57t37 63h263q-3 -58 -14 -99t-37 -80.5t-74.5 -69t-121.5 -51.5l-82 -25q-122 -36 -185 -77t-91 -110q98 93 251 93q87 0 166 -30.5t141.5 -86.5t99.5 -144t37 -195
q0 -144 -63.5 -253t-172.5 -165t-245 -56zM325 451q0 -99 59 -159t148 -60q90 0 148.5 60t58.5 159q0 101 -58 160t-149 59q-90 0 -148.5 -59t-58.5 -160z" />
    <glyph glyph-name="uni0432" unicode="&#x432;" horiz-adv-x="1036" 
d="M108 0v973h527q142 0 221.5 -72t79.5 -204t-89 -195q61 -26 94 -83.5t33 -133.5q0 -133 -82.5 -209t-228.5 -76h-555zM391 200h193q109 0 109 95q0 98 -109 98h-193v-193zM391 589h161q57 0 85 26t28 71q0 92 -113 92h-161v-189z" />
    <glyph glyph-name="uni0433" unicode="&#x433;" horiz-adv-x="799" 
d="M108 0l2 973h658v-255h-375l-2 -718h-283z" />
    <glyph glyph-name="uni0434" unicode="&#x434;" horiz-adv-x="1087" 
d="M11 -237v492h47q53 0 74.5 36t24.5 125l18 555h785v-716h110v-492h-274v237h-511v-237h-274zM414 255h263v461h-228l-7 -249q-3 -127 -28 -212z" />
    <glyph glyph-name="uni0435" unicode="&#x435;" horiz-adv-x="1073" 
d="M51 486q0 217 139 360.5t351 143.5q120 0 218.5 -52t159 -137.5t87 -196t11.5 -226.5h-688q26 -68 82 -106.5t128 -38.5q55 0 103 25t80 69l215 -148q-143 -197 -396 -197q-139 0 -251.5 66t-175.5 181t-63 257zM324 573h422q-19 71 -72 117t-135 46q-79 0 -136.5 -43.5
t-78.5 -119.5z" />
    <glyph glyph-name="uni0436" unicode="&#x436;" horiz-adv-x="1545" 
d="M285 479l-260 487v7h311l186 -370h109v368h283v-368h110l186 370h311v-7l-260 -487l267 -472v-7h-301l-191 348h-120v-348h-283v348h-124l-191 -348h-300v7z" />
    <glyph glyph-name="uni0437" unicode="&#x437;" horiz-adv-x="946" 
d="M285 297q10 -46 55.5 -71.5t114.5 -25.5q146 0 146 88q0 90 -134 90h-113v225h113q124 0 124 89q0 41 -37.5 63.5t-109.5 22.5t-110 -20.5t-53 -71.5l-244 36q14 121 124 194.5t301 73.5q195 0 298 -78.5t103 -212.5q0 -142 -106 -200q127 -62 127 -225
q0 -137 -105.5 -214.5t-318.5 -77.5q-200 0 -300 63.5t-133 189.5z" />
    <glyph glyph-name="uni0438" unicode="&#x438;" horiz-adv-x="1103" 
d="M108 0v973h283v-504l304 504h301v-973h-283v504l-304 -504h-301z" />
    <glyph glyph-name="uni0439" unicode="&#x439;" horiz-adv-x="1103" 
d="M108 0v973h283v-504l304 504h301v-973h-283v504l-304 -504h-301zM272 1344h209q0 -92 81 -92q82 0 82 92h210q2 -134 -70.5 -206t-221.5 -72t-221.5 72t-68.5 206z" />
    <glyph glyph-name="uni043A" unicode="&#x43a;" horiz-adv-x="1024" 
d="M108 0l2 971h283v-368h104l186 370h316v-7l-260 -487l267 -472v-7h-306l-191 348h-118v-348h-283z" />
    <glyph glyph-name="uni043B" unicode="&#x43b;" horiz-adv-x="1078" 
d="M18 0v258h30q53 0 74.5 35t24.5 123l17 555h807v-971h-283v716h-249l-9 -304q-4 -112 -19 -184.5t-51 -126.5t-98.5 -77.5t-158.5 -23.5h-85z" />
    <glyph glyph-name="uni043C" unicode="&#x43c;" horiz-adv-x="1354" 
d="M108 0v973h297l265 -494l283 494h294v-973h-283v492l-216 -368h-141l-216 368v-492h-283z" />
    <glyph glyph-name="uni043D" unicode="&#x43d;" horiz-adv-x="1103" 
d="M108 0v971h283v-354h322v354h283v-971h-283v363h-322v-363h-283z" />
    <glyph glyph-name="uni043E" unicode="&#x43e;" horiz-adv-x="1100" 
d="M550 -23q-218 0 -358.5 142.5t-140.5 366.5t140.5 367t358.5 143t358.5 -143t140.5 -367t-140.5 -366.5t-358.5 -142.5zM325 486q0 -110 64.5 -182t160.5 -72t160.5 72t64.5 182t-64.5 182.5t-160.5 72.5t-160.5 -72.5t-64.5 -182.5z" />
    <glyph glyph-name="uni043F" unicode="&#x43f;" horiz-adv-x="1103" 
d="M108 0v971h888v-971h-283v716h-322v-716h-283z" />
    <glyph glyph-name="uni0440" unicode="&#x440;" horiz-adv-x="1177" 
d="M679 -14q-185 0 -288 124v-464h-283v1327h283v-110q103 124 288 124q194 0 321 -143t127 -358t-127 -357.5t-321 -142.5zM393 486q0 -108 64.5 -180.5t159.5 -72.5q100 0 163.5 71.5t63.5 181.5t-63.5 181.5t-163.5 71.5q-95 0 -159.5 -72.5t-64.5 -180.5z" />
    <glyph glyph-name="uni0441" unicode="&#x441;" horiz-adv-x="1018" 
d="M51 486q0 224 138.5 365t358.5 141q137 0 254 -72.5t169 -187.5l-226 -117q-32 56 -85 90t-112 34q-100 0 -163 -70.5t-63 -182.5t63 -182.5t163 -70.5q59 0 112 35t85 91l226 -118q-52 -115 -169 -187.5t-254 -72.5q-221 0 -359 140.5t-138 364.5z" />
    <glyph glyph-name="uni0442" unicode="&#x442;" horiz-adv-x="909" 
d="M313 0v718h-278v255h839v-255h-278v-718h-283z" />
    <glyph glyph-name="uni0443" unicode="&#x443;" horiz-adv-x="962" 
d="M11 973h302l173 -550l168 550h294v-11l-354 -1073q-52 -157 -126.5 -234t-172.5 -84t-226 33l64 228q80 -24 129.5 -4t71.5 94l23 78l-346 962v11z" />
    <glyph glyph-name="uni0444" unicode="&#x444;" horiz-adv-x="1552" 
d="M439 -23q-173 0 -280.5 142t-107.5 367t107.5 367.5t280.5 142.5q110 0 196 -69v399h283v-399q86 69 196 69q173 0 280.5 -142.5t107.5 -367.5t-107.5 -367t-280.5 -142q-111 0 -196 74v-405h-283v405q-85 -74 -196 -74zM325 486q0 -113 44 -183.5t121 -70.5
q80 0 120.5 69.5t40.5 184.5t-41 185t-120 70q-76 0 -120.5 -71t-44.5 -184zM902 486q0 -115 40.5 -184.5t120.5 -69.5q76 0 120 70.5t44 183.5t-44 184t-120 71q-79 0 -120 -70t-41 -185z" />
    <glyph glyph-name="uni0445" unicode="&#x445;" horiz-adv-x="1013" 
d="M1024 0h-320l-196 302l-199 -302h-320v9l338 499l-299 456v9h319l161 -278l159 278h318v-9l-297 -456l336 -499v-9z" />
    <glyph glyph-name="uni0446" unicode="&#x446;" horiz-adv-x="1123" 
d="M108 0v971h283v-716h322v716h283v-716h109v-492h-274v237h-723z" />
    <glyph glyph-name="uni0447" unicode="&#x447;" horiz-adv-x="1031" 
d="M923 973v-973h-283v334q-105 -21 -203 -21q-194 0 -284.5 84.5t-90.5 262.5v313h283v-278q0 -75 32.5 -104t114.5 -29t148 16v395h283z" />
    <glyph glyph-name="uni0448" unicode="&#x448;" horiz-adv-x="1602" 
d="M108 0v971h283v-716h269v716h283v-716h268v716h283v-971h-1386z" />
    <glyph glyph-name="uni0449" unicode="&#x449;" horiz-adv-x="1621" 
d="M1211 255v716h283v-716h110v-492h-274v237h-1222v971h283v-716h269v716h283v-716h268z" />
    <glyph glyph-name="uni044A" unicode="&#x44a;" horiz-adv-x="1192" 
d="M35 973h561v-313h225q164 0 250 -86.5t86 -242.5t-86.5 -243.5t-249.5 -87.5h-508v716h-278v257zM596 235h163q55 0 85 24t30 72q0 97 -115 97h-163v-193z" />
    <glyph glyph-name="uni044B" unicode="&#x44b;" horiz-adv-x="1455" 
d="M1065 0v973h283v-973h-283zM108 0v973h283v-313h224q164 0 250 -86.5t86 -242.5t-86.5 -243.5t-249.5 -87.5h-507zM391 235h163q55 0 85 24t30 72q0 97 -115 97h-163v-193z" />
    <glyph glyph-name="uni044C" unicode="&#x44c;" horiz-adv-x="986" 
d="M108 0v973h283v-313h224q164 0 250 -86.5t86 -242.5t-86.5 -243.5t-249.5 -87.5h-507zM391 235h163q55 0 85 24t30 72q0 97 -115 97h-163v-193z" />
    <glyph glyph-name="uni044D" unicode="&#x44d;" horiz-adv-x="965" 
d="M21 810q64 82 169 134t226 52q218 0 358 -143t140 -367t-140 -366.5t-358 -142.5q-251 0 -388 202l216 148q57 -95 172 -95q70 0 124.5 40t80.5 108h-303v237h292q-28 58 -79.5 91t-114.5 33q-107 0 -172 -85z" />
    <glyph glyph-name="uni044E" unicode="&#x44e;" horiz-adv-x="1522" 
d="M108 0v973h283v-365h129q35 177 160.5 282.5t309.5 105.5q216 0 348.5 -142t132.5 -368t-132.5 -367.5t-348.5 -141.5q-181 0 -306 102.5t-161 274.5h-132v-354h-283zM783 486q0 -112 56.5 -183t150.5 -71t150.5 71t56.5 183t-56.5 183.5t-150.5 71.5t-150.5 -71.5
t-56.5 -183.5z" />
    <glyph glyph-name="uni044F" unicode="&#x44f;" horiz-adv-x="1031" 
d="M476 741q-115 0 -115 -97q0 -48 30 -72t85 -24h162v193h-162zM53 0v7l198 336q-173 72 -173 301q0 156 86 242.5t250 86.5h507l2 -973h-283v313h-102l-179 -313h-306z" />
    <glyph glyph-name="uni0450" unicode="&#x450;" horiz-adv-x="1073" 
d="M516 1344l174 -265h-241l-256 265h323zM51 486q0 217 139 360.5t351 143.5q120 0 218.5 -52t159 -137.5t87 -196t11.5 -226.5h-688q26 -68 82 -106.5t128 -38.5q55 0 103 25t80 69l215 -148q-143 -197 -396 -197q-139 0 -251.5 66t-175.5 181t-63 257zM324 573h422
q-19 71 -72 117t-135 46q-79 0 -136.5 -43.5t-78.5 -119.5z" />
    <glyph glyph-name="uni0451" unicode="&#x451;" horiz-adv-x="1073" 
d="M384 1072q-50 0 -85 35t-35 85t35 85t85 35t85 -35t35 -85t-35 -85t-85 -35zM51 486q0 217 139 360.5t351 143.5q120 0 218.5 -52t159 -137.5t87 -196t11.5 -226.5h-688q26 -68 82 -106.5t128 -38.5q55 0 103 25t80 69l215 -148q-143 -197 -396 -197q-139 0 -251.5 66
t-175.5 181t-63 257zM324 573h422q-19 71 -72 117t-135 46q-79 0 -136.5 -43.5t-78.5 -119.5zM578 1192q0 50 35.5 85t85.5 35t85 -35t35 -85t-35 -85t-85 -35t-85.5 35t-35.5 85z" />
    <glyph glyph-name="uni0452" unicode="&#x452;" horiz-adv-x="1135" 
d="M-53 962v237h175v127h283v-127h345v-237h-345v-225q101 121 279 121q171 0 266 -113.5t95 -321.5v-541q0 -162 -88 -246.5t-220 -84.5q-119 0 -242 46l74 230q47 -14 91 -14q52 0 77 27.5t25 86.5v496q0 90 -49 144t-129 54t-129.5 -54t-49.5 -144v-423h-283v962h-175z
" />
    <glyph glyph-name="uni0453" unicode="&#x453;" horiz-adv-x="799" 
d="M108 0l2 973h658v-255h-375l-2 -718h-283zM302 1061l174 265h323l-256 -265h-241z" />
    <glyph glyph-name="uni0454" unicode="&#x454;" horiz-adv-x="965" 
d="M722 656q-65 85 -172 85q-63 0 -115 -33.5t-80 -90.5h292v-237h-302q26 -68 80.5 -108t124.5 -40q115 0 172 95l215 -148q-137 -202 -387 -202q-218 0 -358.5 142.5t-140.5 366.5t140.5 367t358.5 143q121 0 225.5 -52t168.5 -134z" />
    <glyph glyph-name="uni0455" unicode="&#x455;" horiz-adv-x="898" 
d="M608 669q-24 43 -69.5 71.5t-101.5 28.5q-112 0 -112 -62q0 -35 37 -57t153 -52q65 -16 113 -34t92 -44t71.5 -59t43.5 -79t16 -103q0 -76 -34.5 -136.5t-91.5 -96.5t-126 -54.5t-144 -18.5q-165 0 -276 62t-158 186l232 117q70 -133 205 -133q113 0 113 80
q0 33 -32.5 51t-121.5 42q-38 10 -68 19.5t-70.5 25.5t-70.5 33t-62 41.5t-52.5 52t-34 64.5t-13.5 78q1 97 58.5 168t146 104t195.5 33q145 0 247 -62.5t147 -165.5z" />
    <glyph glyph-name="uni0456" unicode="&#x456;" horiz-adv-x="498" 
d="M108 0v973h283v-973h-283zM80 1238q0 72 48.5 121t120.5 49t121 -49t49 -121t-49 -121t-121 -49t-120.5 49t-48.5 121z" />
    <glyph glyph-name="uni0457" unicode="&#x457;" horiz-adv-x="498" 
d="M108 0v973h283v-973h-283zM-28 1174q0 50 35 85.5t85 35.5t85 -35.5t35 -85.5t-35 -85t-85 -35t-85 35t-35 85zM287 1174q0 50 35 85.5t85 35.5t85 -35.5t35 -85.5t-35 -85t-85 -35t-85 35t-35 85z" />
    <glyph glyph-name="uni0458" unicode="&#x458;" horiz-adv-x="473" 
d="M225 1068q-72 0 -121 49t-49 121q0 71 49 119.5t121 48.5t120.5 -48.5t48.5 -119.5q0 -72 -48.5 -121t-120.5 -49zM-210 -368l102 207q59 -26 106 -26q85 0 85 114v1046h283v-1091q0 -162 -88 -246.5t-220 -84.5q-127 0 -268 81z" />
    <glyph glyph-name="uni0459" unicode="&#x459;" horiz-adv-x="1575" 
d="M1204 660q164 0 250 -86.5t86 -242.5t-86.5 -243.5t-249.5 -87.5h-516v716h-249l-9 -304q-4 -112 -19 -184.5t-51 -126.5t-98.5 -77.5t-158.5 -23.5h-85v258h30q53 0 74.5 35t24.5 123l17 555h807v-311h233zM971 235h171q55 0 85 24t30 72q0 97 -115 97h-171v-193z" />
    <glyph glyph-name="uni045A" unicode="&#x45a;" horiz-adv-x="1591" 
d="M108 0v971h283v-318h322v318h283v-318h224q164 0 250 -84.5t86 -239.5q0 -156 -86 -242.5t-250 -86.5h-507v416h-322v-416h-283zM996 235h162q115 0 115 90q0 91 -115 91h-162v-181z" />
    <glyph glyph-name="uni045B" unicode="&#x45b;" horiz-adv-x="1135" 
d="M122 0v962h-175v237h175v127h283v-127h345v-237h-345v-225q101 121 279 121q171 0 266 -113.5t95 -321.5v-423h-283v423q0 90 -49 144t-129 54t-129.5 -54t-49.5 -144v-423h-283z" />
    <glyph glyph-name="uni045C" unicode="&#x45c;" horiz-adv-x="1024" 
d="M108 0l2 971h283v-368h104l186 370h316v-7l-260 -487l267 -472v-7h-306l-191 348h-118v-348h-283zM389 1061l173 265h324l-256 -265h-241z" />
    <glyph glyph-name="uni045D" unicode="&#x45d;" horiz-adv-x="1103" 
d="M108 0v973h283v-504l304 504h301v-973h-283v504l-304 -504h-301zM214 1344h324l173 -265h-241z" />
    <glyph glyph-name="uni045E" unicode="&#x45e;" horiz-adv-x="962" 
d="M11 973h302l173 -550l168 550h294v-11l-354 -1073q-52 -157 -126.5 -234t-172.5 -84t-226 33l64 228q80 -24 129.5 -4t71.5 94l23 78l-346 962v11zM193 1326h208q0 -92 82 -92q81 0 81 92h211q2 -134 -70.5 -205.5t-221.5 -71.5t-221.5 71.5t-68.5 205.5z" />
    <glyph glyph-name="uni045F" unicode="&#x45f;" horiz-adv-x="1103" 
d="M713 255v716h283v-971h-306v-237h-274v237h-308v971h283v-716h322z" />
    <glyph glyph-name="uni0462" unicode="&#x462;" horiz-adv-x="1338" 
d="M53 1097h272v141h301v-141h414v-257h-414v-113h251q409 0 409 -364q0 -363 -409 -363h-552v840h-272v257zM626 256h218q141 0 141 107t-141 107h-218v-214z" />
    <glyph glyph-name="uni0463" unicode="&#x463;" horiz-adv-x="1001" 
d="M122 0v838h-175v237h175v251h283v-251h345v-237h-345v-178h225q164 0 250 -86.5t86 -242.5t-86.5 -243.5t-249.5 -87.5h-508zM405 235h163q55 0 85 24t30 72q0 97 -115 97h-163v-193z" />
    <glyph glyph-name="uni0490" unicode="&#x490;" horiz-adv-x="1052" 
d="M435 982v-982h-301v1238h533v265h300v-521h-532z" />
    <glyph glyph-name="uni0491" unicode="&#x491;" horiz-adv-x="799" 
d="M493 973v237h275v-492h-375l-2 -718h-283l2 973h383z" />
    <glyph glyph-name="uni04C1" unicode="&#x4c1;" horiz-adv-x="1825" 
d="M762 1238h301v-462h168l256 462h312v-9l-333 -573l354 -647v-9h-308l-279 520h-170v-520h-301v520h-170l-279 -520h-308v9l354 647l-332 573v9h311l256 -462h168v462zM623 1592h208q0 -92 82 -92q81 0 81 92h210q2 -134 -70.5 -206t-220.5 -72q-149 0 -221.5 72
t-68.5 206z" />
    <glyph glyph-name="uni04C2" unicode="&#x4c2;" horiz-adv-x="1545" 
d="M285 479l-260 487v7h311l186 -370h109v368h283v-368h110l186 370h311v-7l-260 -487l267 -472v-7h-301l-191 348h-120v-348h-283v348h-124l-191 -348h-300v7zM483 1325h209q0 -92 81 -92t81 92h211q2 -134 -70.5 -206t-221.5 -72t-221.5 72t-68.5 206z" />
    <glyph glyph-name="uni04F8" unicode="&#x4f8;" horiz-adv-x="1687" 
d="M134 0v1238h301v-355h244q213 0 332 -116t119 -327q0 -200 -120.5 -320t-330.5 -120h-545zM435 256h205q86 0 137.5 52.5t51.5 131.5q0 89 -50 137.5t-139 48.5h-205v-370zM578 1440q0 50 35.5 85t85.5 35t85 -35t35 -85t-35 -85.5t-85 -35.5t-85.5 35.5t-35.5 85.5z
M893 1440q0 50 35 85t85 35t85.5 -35t35.5 -85t-35.5 -85.5t-85.5 -35.5t-85 35.5t-35 85.5zM1252 0v1238h301v-1238h-301z" />
    <glyph glyph-name="uni04F9" unicode="&#x4f9;" horiz-adv-x="1455" 
d="M1065 0v973h283v-973h-283zM108 0v973h283v-313h224q164 0 250 -86.5t86 -242.5t-86.5 -243.5t-249.5 -87.5h-507zM391 235h163q55 0 85 24t30 72q0 97 -115 97h-163v-193zM446 1183q0 50 35 85t85 35t85 -35t35 -85t-35 -85t-85 -35t-85 35t-35 85zM760 1183
q0 50 35.5 85t85.5 35t85 -35t35 -85t-35 -85t-85 -35t-85.5 35t-35.5 85z" />
    <glyph glyph-name="uni05B0" unicode="&#x5b0;" 
d="M532 -295q-41 0 -69 28t-28 69t28 69t69 28t69.5 -28t28.5 -69t-28.5 -69t-69.5 -28zM435 -447q0 41 28 69t69 28t69.5 -28t28.5 -69t-28.5 -69.5t-69.5 -28.5t-69 28.5t-28 69.5z" />
    <glyph glyph-name="uni05B1" unicode="&#x5b1;" 
d="M791 -295q-41 0 -69.5 28t-28.5 69t28.5 69t69.5 28t69 -28t28 -69t-28 -69t-69 -28zM180 -198q0 41 28.5 69t69.5 28t69 -28t28 -69t-28 -69t-69 -28t-69.5 28t-28.5 69zM308 -410q0 41 28 69t69 28t69 -28t28 -69t-28 -69.5t-69 -28.5t-69 28.5t-28 69.5zM435 -198
q0 41 28 69t69 28t69.5 -28t28.5 -69t-28.5 -69t-69.5 -28t-69 28t-28 69zM693 -447q0 41 28.5 69t69.5 28t69 -28t28 -69t-28 -69.5t-69 -28.5t-69.5 28.5t-28.5 69.5z" />
    <glyph glyph-name="uni05B2" unicode="&#x5b2;" 
d="M193 -117h417v-147h-417v147zM684 -447q0 41 28.5 69t69.5 28t69 -28t28 -69t-28 -69.5t-69 -28.5t-69.5 28.5t-28.5 69.5zM684 -198q0 41 28.5 69t69.5 28t69 -28t28 -69t-28 -69t-69 -28t-69.5 28t-28.5 69z" />
    <glyph glyph-name="uni05B3" unicode="&#x5b3;" 
d="M179 -124h458v-134h-161l5 -133v-110h-147v110l6 133h-161v134zM706 -447q0 41 28 69t69 28t69 -28t28 -69t-28 -69.5t-69 -28.5t-69 28.5t-28 69.5zM706 -198q0 41 28 69t69 28t69 -28t28 -69t-28 -69t-69 -28t-69 28t-28 69z" />
    <glyph glyph-name="uni05B4" unicode="&#x5b4;" 
d="M532 -311q-43 0 -72.5 29.5t-29.5 72.5t29.5 73t72.5 30t73 -30t30 -73t-30 -72.5t-73 -29.5z" />
    <glyph glyph-name="uni05B5" unicode="&#x5b5;" 
d="M661 -295q-41 0 -69 28t-28 69t28 69t69 28t69.5 -28t28.5 -69t-28.5 -69t-69.5 -28zM306 -198q0 41 28 69t69 28t69.5 -28t28.5 -69t-28.5 -69t-69.5 -28t-69 28t-28 69z" />
    <glyph glyph-name="uni05B6" unicode="&#x5b6;" 
d="M405 -295q-41 0 -69 28t-28 69t28 69t69 28t69 -28t28 -69t-28 -69t-69 -28zM435 -410q0 41 28 69t69 28t69.5 -28t28.5 -69t-28.5 -69.5t-69.5 -28.5t-69 28.5t-28 69.5zM562 -198q0 41 28.5 69t69.5 28t69 -28t28 -69t-28 -69t-69 -28t-69.5 28t-28.5 69z" />
    <glyph glyph-name="uni05B7" unicode="&#x5b7;" 
d="M324 -117h417v-147h-417v147z" />
    <glyph glyph-name="uni05B8" unicode="&#x5b8;" 
d="M304 -124h458v-134h-161l6 -133v-110h-147v110l5 133h-161v134z" />
    <glyph glyph-name="uni05B9" unicode="&#x5b9;" 
d="M527 1151q-43 0 -73 30t-30 73t30 72.5t73 29.5t73 -29.5t30 -72.5t-30 -73t-73 -30z" />
    <glyph glyph-name="uni05BA" unicode="&#x5ba;" 
d="M532 1151q-43 0 -72.5 30t-29.5 73t29.5 72.5t72.5 29.5t73 -29.5t30 -72.5t-30 -73t-73 -30z" />
    <glyph glyph-name="uni05BB" unicode="&#x5bb;" 
d="M531 -285q-38 0 -65 27t-27 65t27 65t65 27t65 -27t27 -65t-27 -65t-65 -27zM615 -348q0 38 27 65t65 27t65 -27t27 -65t-27 -65t-65 -27t-65 27t-27 65zM792 -504q0 38 27 65t65 27t65 -27t27 -65t-27 -65t-65 -27t-65 27t-27 65z" />
    <glyph glyph-name="uni05BC" unicode="&#x5bc;" 
d="M532 424q-41 0 -70 29t-29 70t29 70.5t70 29.5t70 -29.5t29 -70.5t-29 -70t-70 -29z" />
    <glyph glyph-name="uni05BE" unicode="&#x5be;" horiz-adv-x="733" 
d="M92 1061h550v-256h-550v256z" />
    <glyph glyph-name="uni05BF" unicode="&#x5bf;" 
d="M315 1291h435v-140h-435v140z" />
    <glyph glyph-name="uni05C1" unicode="&#x5c1;" 
d="M764 1151q-43 0 -73 30t-30 73t30 72.5t73 29.5t73 -29.5t30 -72.5t-30 -73t-73 -30z" />
    <glyph glyph-name="uni05C2" unicode="&#x5c2;" 
d="M302 1151q-43 0 -72.5 30t-29.5 73t29.5 72.5t72.5 29.5t73 -29.5t30 -72.5t-30 -73t-73 -30z" />
    <glyph glyph-name="uni05C3" unicode="&#x5c3;" horiz-adv-x="597" 
d="M299 -12q-79 0 -135 56t-56 135t56 135t135 56t135 -56t56 -135t-56 -135t-135 -56zM108 886q0 80 56 135.5t135 55.5t135 -55.5t56 -135.5t-56 -135.5t-135 -55.5t-135 55.5t-56 135.5z" />
    <glyph glyph-name="uni05C6" unicode="&#x5c6;" horiz-adv-x="687" 
d="M617 0h-507v753q0 160 71 234t236 74h172v-256h-78q-60 0 -80.5 -29t-20.5 -106v-414h207v-256z" />
    <glyph glyph-name="uni05C7" unicode="&#x5c7;" 
d="M382 -117h329v-97h-115l4 -95v-80h-107v80l4 95h-115v97z" />
    <glyph glyph-name="uni05D0" unicode="&#x5d0;" horiz-adv-x="1255" 
d="M1174 0h-332l-357 485q-63 -56 -91 -171.5t-21 -313.5h-300q-7 292 57 452t206 236l-265 361v12h332l357 -484q64 56 91.5 171t20.5 313h301q7 -291 -57.5 -451.5t-206.5 -236.5l265 -361v-12z" />
    <glyph glyph-name="uni05D1" unicode="&#x5d1;" horiz-adv-x="1146" 
d="M1095 0h-1005v256h584v271q0 141 -63 220t-179 79q-122 0 -276 -85l-99 223q198 118 424 118q254 0 373.5 -133.5t119.5 -400.5v-292h121v-256z" />
    <glyph glyph-name="uni05D2" unicode="&#x5d2;" horiz-adv-x="753" 
d="M35 0v283h80q239 0 239 223v173q0 67 -28 96.5t-93 29.5h-95v256h154q179 0 265.5 -78t86.5 -240v-743h-221l-46 221h-9q-53 -221 -253 -221h-80z" />
    <glyph glyph-name="uni05D3" unicode="&#x5d3;" horiz-adv-x="1123" 
d="M1049 805q-113 0 -163.5 -64t-50.5 -196v-545h-301v534q0 180 104 271h-574v256h985v-256z" />
    <glyph glyph-name="uni05D4" unicode="&#x5d4;" horiz-adv-x="1225" 
d="M122 550l301 39v-589h-301v550zM113 805v256h433q298 0 435 -137t137 -436v-488h-301v488q0 170 -62.5 243.5t-208.5 73.5h-433z" />
    <glyph glyph-name="uni05D5" unicode="&#x5d5;" horiz-adv-x="537" 
d="M419 1061v-1061h-301v1061h301z" />
    <glyph glyph-name="uni05D6" unicode="&#x5d6;" horiz-adv-x="778" 
d="M725 805q-150 0 -213 -75t-41.5 -253t137.5 -477h-320q-240 665 52 805h-266v256h651v-256z" />
    <glyph glyph-name="uni05D7" unicode="&#x5d7;" horiz-adv-x="1257" 
d="M584 1061q292 0 429 -125t137 -398v-538h-301v538q0 136 -63.5 201.5t-201.5 65.5h-165v-805h-301v1061h466z" />
    <glyph glyph-name="uni05D8" unicode="&#x5d8;" horiz-adv-x="1246" 
d="M762 1075q190 0 303 -125.5t113 -385.5q0 -278 -140.5 -430t-400.5 -152q-263 0 -413 153t-150 429v497h301v-497q0 -156 68.5 -240.5t193.5 -84.5q123 0 185 83t62 242q0 255 -159 255q-14 0 -26 -0.5t-23.5 -3t-18.5 -4t-19 -5.5l-16.5 -5.5t-18.5 -7.5t-18 -8l-74 225
q118 65 251 65z" />
    <glyph glyph-name="uni05D9" unicode="&#x5d9;" horiz-adv-x="516" 
d="M108 1061h301v-599l-301 -46v645z" />
    <glyph glyph-name="uni05DA" unicode="&#x5da;" horiz-adv-x="1008" 
d="M377 1061q289 0 406 -126t117 -434v-766h-300v766q0 167 -55.5 235.5t-189.5 68.5h-291v256h313z" />
    <glyph glyph-name="uni05DB" unicode="&#x5db;" horiz-adv-x="1016" 
d="M416 1079q248 0 393.5 -148t145.5 -400t-145.5 -400.5t-393.5 -148.5q-202 0 -363 108l94 209q132 -69 230 -69q131 0 204 82t73 219t-73 218.5t-204 81.5q-98 0 -228 -71l-96 211q161 108 363 108z" />
    <glyph glyph-name="uni05DC" unicode="&#x5dc;" horiz-adv-x="1039" 
d="M368 1061h635v-26l-368 -1035h-320v11l290 794h-538v460h301v-204z" />
    <glyph glyph-name="uni05DD" unicode="&#x5dd;" horiz-adv-x="1268" 
d="M635 1061q276 0 400.5 -110t124.5 -366v-585h-1042v1061h517zM419 256h441v305q0 132 -55.5 188t-173.5 56h-212v-549z" />
    <glyph glyph-name="uni05DE" unicode="&#x5de;" horiz-adv-x="1347" 
d="M39 1061h295l67 -224q59 118 157.5 179t217.5 61q225 0 364 -150.5t139 -390.5q0 -133 -32 -238t-92 -174.5t-142.5 -104.5t-188 -29.5t-224.5 51.5l65 244q169 -71 250 -7t81 258q0 131 -57.5 203.5t-147.5 72.5q-87 0 -151 -76t-115 -264l-127 -472h-297l136 483z" />
    <glyph glyph-name="uni05DF" unicode="&#x5df;" horiz-adv-x="537" 
d="M419 1061v-1326h-301v1326h301z" />
    <glyph glyph-name="uni05E0" unicode="&#x5e0;" horiz-adv-x="687" 
d="M71 0v256h207v414q0 77 -20.5 106t-80.5 29h-78v256h172q165 0 236 -74t71 -234v-753h-507z" />
    <glyph glyph-name="uni05E1" unicode="&#x5e1;" horiz-adv-x="1211" 
d="M608 1061q263 0 398.5 -131.5t135.5 -390.5q0 -263 -142 -411.5t-392 -148.5q-252 0 -393 148t-141 412v522h534zM375 539q0 -145 59.5 -224.5t173.5 -79.5q112 0 173 80t61 224q0 134 -56 200t-178 66h-233v-266z" />
    <glyph glyph-name="uni05E2" unicode="&#x5e2;" horiz-adv-x="1158" 
d="M1058 681q0 -140 -26 -247t-91.5 -201.5t-174 -157.5t-276.5 -103t-396 -50l-21 246q217 27 233 30l-241 863h312l212 -785q90 50 129 143.5t39 261.5v380h301v-380z" />
    <glyph glyph-name="uni05E3" unicode="&#x5e3;" horiz-adv-x="1133" 
d="M509 1079q258 0 389 -133t131 -387v-824h-292v822q0 265 -221 265q-71 0 -122 -54t-51 -128q0 -79 44.5 -127t128.5 -58l-44 -250q-196 16 -313.5 138t-117.5 299q0 193 130 315t338 122z" />
    <glyph glyph-name="uni05E4" unicode="&#x5e4;" horiz-adv-x="1163" 
d="M545 1081q266 0 411.5 -146.5t145.5 -395.5q0 -257 -152 -407.5t-441 -150.5q-230 0 -401 74l74 233q142 -56 322 -56q139 0 218 84t79 223q0 130 -69.5 210t-186.5 80q-93 0 -142 -33t-49 -90q0 -107 182 -110l-9 -226q-215 -14 -344.5 82t-129.5 254q0 124 66.5 210
t175 125.5t250.5 39.5z" />
    <glyph glyph-name="uni05E5" unicode="&#x5e5;" horiz-adv-x="1149" 
d="M18 1061h320l235 -578q113 53 154 180t33 398h301q8 -258 -34 -425t-128 -256t-229 -134l205 -504v-7h-320l-537 1319v7z" />
    <glyph glyph-name="uni05E6" unicode="&#x5e6;" horiz-adv-x="1133" 
d="M345 1061l302 -440q65 47 92 151t20 289h290q8 -274 -53 -426t-205 -223l267 -391v-21h-954v256h460l-550 796v9h331z" />
    <glyph glyph-name="uni05E7" unicode="&#x5e7;" horiz-adv-x="1250" 
d="M412 615v-880h-290v845zM113 805v256h1022v-603q0 -470 -398 -470q-113 0 -212 30l34 247q77 -21 136 -21q41 0 66.5 9t45.5 35t29 74t9 124v319h-732z" />
    <glyph glyph-name="uni05E8" unicode="&#x5e8;" horiz-adv-x="1062" 
d="M951 548v-548h-290v536q0 141 -66 218t-188 77q-119 0 -287 -85l-99 214q206 115 437 115q107 0 195 -31t155.5 -93.5t105 -165.5t37.5 -237z" />
    <glyph glyph-name="uni05E9" unicode="&#x5e9;" horiz-adv-x="1460" 
d="M1387 614q0 -308 -170.5 -472.5t-486.5 -164.5t-486 164.5t-170 472.5v447h301v-456q0 -181 91.5 -276.5t263.5 -95.5t264 95.5t92 276.5v456h301v-447zM580 400v661h301v-601z" />
    <glyph glyph-name="uni05EA" unicode="&#x5ea;" horiz-adv-x="1349" 
d="M679 1061q303 0 433 -120.5t130 -406.5v-534h-301v534q0 142 -60.5 206.5t-204.5 64.5h-124v-529q0 -143 -76.5 -215t-196.5 -72q-58 0 -131.5 10t-112.5 24l39 237q62 -16 106 -16q43 0 59 26t16 94v441h-124v256h548z" />
    <glyph glyph-name="uni05EF" unicode="&#x5ef;" horiz-adv-x="1379" 
d="M539 1282h301v-599l-301 -46v645zM108 416v645h301v-599zM971 416v645h301v-599z" />
    <glyph glyph-name="uni05F0" unicode="&#x5f0;" horiz-adv-x="1075" 
d="M957 1061v-1061h-301v1061h301zM118 0v1061h301v-1061h-301z" />
    <glyph glyph-name="uni05F1" unicode="&#x5f1;" horiz-adv-x="1068" 
d="M108 1061h301v-599l-301 -46v645zM649 0v1061h301v-1061h-301z" />
    <glyph glyph-name="uni05F2" unicode="&#x5f2;" horiz-adv-x="1024" 
d="M615 1061h301v-599l-301 -46v645zM108 416v645h301v-599z" />
    <glyph glyph-name="uni05F3" unicode="&#x5f3;" horiz-adv-x="484" 
d="M150 1238h296l-149 -522h-230z" />
    <glyph glyph-name="uni05F4" unicode="&#x5f4;" horiz-adv-x="838" 
d="M149 1238h290l-145 -522h-227zM428 716l81 522h290l-145 -522h-226z" />
    <glyph glyph-name="uni0E3F" unicode="&#xe3f;" horiz-adv-x="1137" 
d="M437 1344h217v-134h32q169 0 264 -89t95 -247q0 -76 -29 -135.5t-79 -91.5q70 -34 108.5 -108t38.5 -168q0 -166 -97.5 -253.5t-275.5 -87.5h-57v-136h-217v136h-303v1180h303v134zM412 262h260q142 0 142 138q0 134 -142 134h-260v-272zM412 746h232q69 0 101.5 28.5
t32.5 86.5q0 117 -134 117h-232v-232z" />
    <glyph glyph-name="uni1E3E" unicode="&#x1e3e;" horiz-adv-x="1627" 
d="M1231 1238h262v-1238h-290v707l-354 -505h-71l-354 505v-707h-290v1238h262l418 -612zM676 1326l173 266h324l-257 -266h-240z" />
    <glyph glyph-name="uni1E3F" unicode="&#x1e3f;" horiz-adv-x="1651" 
d="M108 0v973h283v-92q92 109 256 109q189 0 267 -150q97 150 306 150q154 0 246 -94.5t92 -264.5v-631h-283v594q0 72 -41 116.5t-106 44.5q-69 0 -111.5 -44.5t-42.5 -116.5v-594h-282v594q0 72 -41 116.5t-106 44.5q-69 0 -111.5 -44.5t-42.5 -116.5v-594h-283zM760 1061
l174 265h323l-256 -265h-241z" />
    <glyph glyph-name="Wgrave" unicode="&#x1e80;" horiz-adv-x="1807" 
d="M1793 1238v-18l-426 -1220h-210l-253 741l-253 -741h-211l-426 1220v18h324l223 -686l221 686h244l221 -686l223 686h323zM555 1592h324l173 -266h-240z" />
    <glyph glyph-name="wgrave" unicode="&#x1e81;" horiz-adv-x="1460" 
d="M1150 973h295v-9l-348 -964h-169l-198 485l-199 -485h-167l-348 964v9h295l163 -508l193 508h127l193 -508zM382 1326h324l173 -265h-241z" />
    <glyph glyph-name="Wacute" unicode="&#x1e82;" horiz-adv-x="1807" 
d="M1793 1238v-18l-426 -1220h-210l-253 741l-253 -741h-211l-426 1220v18h324l223 -686l221 686h244l221 -686l223 686h323zM766 1326l173 266h324l-257 -266h-240z" />
    <glyph glyph-name="wacute" unicode="&#x1e83;" horiz-adv-x="1460" 
d="M1150 973h295v-9l-348 -964h-169l-198 485l-199 -485h-167l-348 964v9h295l163 -508l193 508h127l193 -508zM592 1061l174 265h323l-256 -265h-241z" />
    <glyph glyph-name="Wdieresis" unicode="&#x1e84;" horiz-adv-x="1807" 
d="M1793 1238v-18l-426 -1220h-210l-253 741l-253 -741h-211l-426 1220v18h324l223 -686l221 686h244l221 -686l223 686h323zM626 1440q0 50 35 85t85 35t85.5 -35t35.5 -85t-35.5 -85.5t-85.5 -35.5t-85 35.5t-35 85.5zM941 1440q0 50 35 85t85 35t85 -35t35 -85t-35 -85.5
t-85 -35.5t-85 35.5t-35 85.5z" />
    <glyph glyph-name="wdieresis" unicode="&#x1e85;" horiz-adv-x="1460" 
d="M1150 973h295v-9l-348 -964h-169l-198 485l-199 -485h-167l-348 964v9h295l163 -508l193 508h127l193 -508zM453 1174q0 50 35 85.5t85 35.5t85 -35.5t35 -85.5t-35 -85t-85 -35t-85 35t-35 85zM768 1174q0 50 35 85.5t85 35.5t85 -35.5t35 -85.5t-35 -85t-85 -35t-85 35
t-35 85z" />
    <glyph glyph-name="uni1E9E" unicode="&#x1e9e;" horiz-adv-x="1222" 
d="M426 0h-300v782q0 238 114.5 347t351.5 109h545v-23l-286 -470q147 -21 237 -124t90 -262t-116.5 -264.5t-297.5 -105.5q-167 0 -242 36l58 235q56 -14 124 -14q86 0 130.5 40.5t44.5 109.5t-52 109t-157 40h-108v212l131 223h-93q-39 0 -67.5 -7.5t-54 -26t-39 -56
t-13.5 -92.5v-798z" />
    <glyph glyph-name="uni1EBC" unicode="&#x1ebc;" horiz-adv-x="1135" 
d="M1020 982h-585v-229h479v-245h-479v-252h585v-256h-886v1238h886v-256zM322 1450q94 120 200 120q30 0 53.5 -10.5t37.5 -25t26.5 -29t27.5 -25t32 -10.5q48 0 97 58l92 -103q-33 -52 -86.5 -85t-108.5 -33q-37 0 -64.5 16t-40.5 34.5t-31.5 34.5t-41.5 16
q-57 0 -101 -60z" />
    <glyph glyph-name="uni1EBD" unicode="&#x1ebd;" horiz-adv-x="1073" 
d="M262 1203q94 120 200 120q36 0 63.5 -16t41 -34.5t32 -34.5t39.5 -16q49 0 98 58l92 -102q-34 -53 -87 -86t-108 -33q-37 0 -64.5 16t-40.5 34.5t-31.5 34.5t-41.5 16q-57 0 -101 -60zM51 486q0 217 139 360.5t351 143.5q120 0 218.5 -52t159 -137.5t87 -196t11.5 -226.5
h-688q26 -68 82 -106.5t128 -38.5q55 0 103 25t80 69l215 -148q-143 -197 -396 -197q-139 0 -251.5 66t-175.5 181t-63 257zM324 573h422q-19 71 -72 117t-135 46q-79 0 -136.5 -43.5t-78.5 -119.5z" />
    <glyph glyph-name="Ygrave" unicode="&#x1ef2;" horiz-adv-x="1174" 
d="M833 1238h338v-11l-435 -725v-502h-301v502l-431 725v11h337l244 -444zM239 1592h323l174 -266h-241z" />
    <glyph glyph-name="ygrave" unicode="&#x1ef3;" horiz-adv-x="962" 
d="M11 973h302l173 -550l168 550h294v-11l-354 -1073q-52 -157 -126.5 -234t-172.5 -84t-226 33l64 228q80 -24 129.5 -4t71.5 94l23 78l-346 962v11zM134 1326h324l173 -265h-240z" />
    <glyph glyph-name="uni1EF8" unicode="&#x1ef8;" horiz-adv-x="1174" 
d="M833 1238h338v-11l-435 -725v-502h-301v502l-431 725v11h337l244 -444zM308 1450q94 120 200 120q36 0 63.5 -15.5t41 -34.5t32 -34.5t39.5 -15.5q49 0 98 58l92 -103q-33 -52 -86.5 -85t-108.5 -33q-37 0 -64.5 16t-40.5 34.5t-31.5 34.5t-41.5 16q-57 0 -101 -60z" />
    <glyph glyph-name="uni1EF9" unicode="&#x1ef9;" horiz-adv-x="962" 
d="M11 973h302l173 -550l168 550h294v-11l-354 -1073q-52 -157 -126.5 -234t-172.5 -84t-226 33l64 228q80 -24 129.5 -4t71.5 94l23 78l-346 962v11zM203 1185q94 120 200 120q36 0 64 -16t41.5 -34.5t32 -34.5t39.5 -16q47 0 97 59l92 -103q-34 -53 -86.5 -85.5
t-107.5 -32.5q-31 0 -54.5 10.5t-37.5 25t-26 29t-27 25t-34 10.5q-57 0 -101 -60z" />
    <glyph glyph-name="uni200B" unicode="&#x200b;" 
 />
    <glyph glyph-name="endash" unicode="&#x2013;" horiz-adv-x="1282" 
d="M104 407v247h1074v-247h-1074z" />
    <glyph glyph-name="emdash" unicode="&#x2014;" horiz-adv-x="1467" 
d="M1395 432h-1322v198h1322v-198z" />
    <glyph glyph-name="quoteleft" unicode="&#x2018;" horiz-adv-x="500" 
d="M348 737h-295l149 522h230z" />
    <glyph glyph-name="quoteright" unicode="&#x2019;" horiz-adv-x="484" 
d="M150 1238h296l-149 -522h-230z" />
    <glyph glyph-name="quotesinglbase" unicode="&#x201a;" horiz-adv-x="466" 
d="M115 258h290l-150 -500h-223z" />
    <glyph glyph-name="quotedblleft" unicode="&#x201c;" horiz-adv-x="854" 
d="M704 737h-290l145 522h226zM53 737l145 522h226l-81 -522h-290z" />
    <glyph glyph-name="quotedblright" unicode="&#x201d;" horiz-adv-x="838" 
d="M149 1238h290l-145 -522h-227zM428 716l81 522h290l-145 -522h-226z" />
    <glyph glyph-name="quotedblbase" unicode="&#x201e;" horiz-adv-x="825" 
d="M115 258h290l-150 -500h-223zM391 -242l83 500h290l-150 -500h-223z" />
    <glyph glyph-name="dagger" unicode="&#x2020;" horiz-adv-x="1282" 
d="M492 1326h283v-412h403v-247h-1074v247h388v412zM492 -354v639h283v-639h-283z" />
    <glyph glyph-name="daggerdbl" unicode="&#x2021;" horiz-adv-x="1282" 
d="M492 1326h283v-412h403v-247h-1074v247h388v412zM104 37v248h1074v-248h-403v-391h-283v391h-388z" />
    <glyph glyph-name="bullet" unicode="&#x2022;" horiz-adv-x="921" 
d="M462 159q-157 0 -265.5 107.5t-108.5 264.5q0 155 108.5 262t265.5 107t264 -107t107 -262q0 -157 -107 -264.5t-264 -107.5z" />
    <glyph glyph-name="ellipsis" unicode="&#x2026;" horiz-adv-x="1446" 
d="M264 -12q-80 0 -135.5 56t-55.5 135t55.5 135t135.5 56t135.5 -56t55.5 -135t-55.5 -135t-135.5 -56zM532 179q0 79 56 135t135 56t135 -56t56 -135t-56 -135t-135 -56t-135 56t-56 135zM992 179q0 79 56 135t135 56t135 -56t56 -135t-56 -135t-135 -56t-135 56t-56 135z
" />
    <glyph glyph-name="perthousand" unicode="&#x2030;" horiz-adv-x="2286" 
d="M766 433l-296 -433h-284v9l330 447h250v-23zM81 883q0 166 91.5 266.5t246.5 100.5q153 0 243 -100.5t90 -266.5t-90 -267t-243 -101q-155 0 -246.5 101t-91.5 267zM292 883q0 -85 33 -135.5t94 -50.5q60 0 92 50.5t32 135.5q0 86 -32 136.5t-92 50.5q-61 0 -94 -50.5
t-33 -136.5zM829 354q0 166 91.5 267t246.5 101q153 0 243 -101t90 -267t-90 -267t-243 -101q-155 0 -246.5 101t-91.5 267zM829 782v23l296 433h285v-9l-331 -447h-250zM1040 354q0 -85 33 -135.5t94 -50.5q60 0 92 50.5t32 135.5q0 86 -32 136.5t-92 50.5q-61 0 -94 -50.5
t-33 -136.5zM1544 354q0 166 91.5 267t246.5 101q152 0 242 -101t90 -267t-90 -267t-242 -101q-155 0 -246.5 101t-91.5 267zM1754 354q0 -85 33.5 -135.5t94.5 -50.5q60 0 92 50.5t32 135.5q0 86 -32 136.5t-92 50.5q-61 0 -94.5 -50.5t-33.5 -136.5z" />
    <glyph glyph-name="uni2031" unicode="&#x2031;" horiz-adv-x="3001" 
d="M766 433l-296 -433h-284v9l330 447h250v-23zM81 883q0 166 91.5 266.5t246.5 100.5q153 0 243 -100.5t90 -266.5t-90 -267t-243 -101q-155 0 -246.5 101t-91.5 267zM292 883q0 -85 33 -135.5t94 -50.5q60 0 92 50.5t32 135.5q0 86 -32 136.5t-92 50.5q-61 0 -94 -50.5
t-33 -136.5zM829 354q0 166 91.5 267t246.5 101q153 0 243 -101t90 -267t-90 -267t-243 -101q-155 0 -246.5 101t-91.5 267zM829 782v23l296 433h285v-9l-331 -447h-250zM1040 354q0 -85 33 -135.5t94 -50.5q60 0 92 50.5t32 135.5q0 86 -32 136.5t-92 50.5q-61 0 -94 -50.5
t-33 -136.5zM1544 354q0 166 91.5 267t246.5 101q152 0 242 -101t90 -267t-90 -267t-242 -101q-155 0 -246.5 101t-91.5 267zM1754 354q0 -85 33.5 -135.5t94.5 -50.5q60 0 92 50.5t32 135.5q0 86 -32 136.5t-92 50.5q-61 0 -94.5 -50.5t-33.5 -136.5zM2258 354
q0 166 91.5 267t246.5 101q153 0 243 -101t90 -267t-90 -267t-243 -101q-155 0 -246.5 101t-91.5 267zM2469 354q0 -85 33 -135.5t94 -50.5q60 0 92 50.5t32 135.5q0 86 -32 136.5t-92 50.5q-61 0 -94 -50.5t-33 -136.5z" />
    <glyph glyph-name="guilsinglleft" unicode="&#x2039;" horiz-adv-x="672" 
d="M23 492l469 405l108 -108l-214 -303l214 -302l-108 -108l-469 405v11z" />
    <glyph glyph-name="guilsinglright" unicode="&#x203a;" horiz-adv-x="672" 
d="M649 492v-11l-469 -405l-107 108l214 302l-214 303l107 108z" />
    <glyph glyph-name="uni203D" unicode="&#x203d;" horiz-adv-x="997" 
d="M361 1379h300v-137q118 -28 181.5 -104.5t63.5 -196.5q0 -70 -23.5 -130.5t-58.5 -100t-76 -78t-75.5 -68t-57 -67.5t-21.5 -78h-272q-3 70 17 127.5t52 93t70 70t70.5 60.5t54.5 61.5t22 75.5q0 94 -122 94q-113 0 -162 -172l-267 66q24 135 103 223t201 120v141z
M285 163q0 72 50.5 122.5t122.5 50.5q73 0 123 -50.5t50 -122.5q0 -73 -50 -123.5t-123 -50.5q-72 0 -122.5 50.5t-50.5 123.5z" />
    <glyph glyph-name="fraction" unicode="&#x2044;" horiz-adv-x="187" 
d="M62 396l-301 -396h-279v9l331 410h249v-23zM126 819v23l300 396h280v-9l-331 -410h-249z" />
    <glyph glyph-name="uni2051" unicode="&#x2051;" horiz-adv-x="877" 
d="M138 264l57 173l162 -60l-9 171h183l-8 -171l160 60l56 -173l-164 -46l106 -133l-147 -108l-94 143l-95 -143l-149 108l106 133zM138 951l57 174l162 -60l-9 171h183l-8 -171l160 60l56 -174l-164 -45l106 -133l-147 -108l-94 143l-95 -143l-149 108l106 133z" />
    <glyph glyph-name="uni2055" unicode="&#x2055;" horiz-adv-x="1236" 
d="M1088 550q67 -37 87.5 -111.5t-18.5 -139.5q-37 -69 -111.5 -89.5t-139.5 18.5q-84 46 -92 136q-6 35 -9 49.5t-10.5 30.5t-19.5 23q-27 12 -62 -11q-48 -28 -48 -56q0 -30 69 -83q69 -57 69 -147q0 -77 -53.5 -130.5t-130.5 -53.5t-131.5 53.5t-54.5 130.5q0 90 71 147
q69 53 69 83q0 21 -37 47q-48 32 -74 16q-27 -16 -38 -99q-11 -90 -92 -136q-66 -38 -140 -18t-111 87q-40 66 -20 140.5t88 112.5q74 44 160 12q79 -36 107 -21q23 14 26 71q3 44 -26 62q-24 14 -107 -20q-84 -35 -160 11q-68 38 -88 112.5t20 142.5q37 66 111 85.5
t140 -18.5q81 -46 92 -136q11 -81 38 -99q27 -16 76 16q35 23 35 47q0 19 -16 36.5t-53 46.5q-71 59 -71 149q0 76 54.5 130t131.5 54t130.5 -54t53.5 -130q0 -90 -69 -149q-37 -29 -53 -46.5t-16 -36.5q0 -10 8 -20t15.5 -16t29.5 -22q32 -24 57 -7q17 9 24 30.5t15 70.5
q8 90 92 136q65 39 139.5 18.5t111.5 -87.5q38 -66 18 -140.5t-87 -112.5q-76 -46 -161 -11q-77 32 -106 18q-23 -16 -23 -64q0 -50 23 -63q34 -16 106 17q87 32 161 -12z" />
    <glyph glyph-name="uni20A9" unicode="&#x20a9;" horiz-adv-x="1947" 
d="M1843 1238v-18l-150 -429h205v-144h-255l-226 -647h-211l-221 647h-64l-221 -647h-210l-226 647h-214v144h164l-150 429v18h323l145 -447h154l145 447h244l145 -447h154l145 447h324zM578 647l32 -95l30 95h-62zM1266 647l30 -95l32 95h-62z" />
    <glyph glyph-name="uni20AA" unicode="&#x20aa;" horiz-adv-x="1609" 
d="M508 0v656h256v-426h345q45 0 64 22.5t19 74.5v646h274v-715q0 -258 -235 -258h-723zM143 0v715q0 258 235 258h724v-656h-257v426h-344q-45 0 -64.5 -22.5t-19.5 -74.5v-646h-274z" />
    <glyph glyph-name="Euro" unicode="&#x20ac;" horiz-adv-x="1105" 
d="M692 421h-202q40 -81 111 -125.5t163 -44.5q21 0 38.5 1t34.5 4.5t26.5 5.5t25.5 8.5t21.5 9t23.5 11.5t23 11l127 -208q-152 -99 -325 -99q-204 0 -363 118.5t-221 307.5h-157l53 170h74v28v28h-117l53 170h94q61 190 220.5 309t363.5 119q159 0 290 -60l-106 -226
q-42 19 -76.5 24.5t-102.5 5.5q-92 0 -163 -45.5t-111 -126.5h387l-79 -170h-351v-28v-28h322z" />
    <glyph glyph-name="uni20B9" unicode="&#x20b9;" horiz-adv-x="1126" 
d="M996 1238v-265h-191q21 -37 30 -71h161v-142h-156q-31 -281 -311 -314l431 -435v-11h-399l-428 440v246h233q68 0 105 17.5t51 56.5h-389v142h387q-27 71 -154 71h-233v265h863z" />
    <glyph glyph-name="uni20BA" unicode="&#x20ba;" horiz-adv-x="1291" 
d="M845 787v-177l-258 -74v-274h32q162 0 234 92t79 279h292q-11 -306 -171.5 -469.5t-454.5 -163.5h-311v449l-176 -51v177l176 51v89l-176 -52v177l176 51v347h300v-260l258 74v-177l-258 -74v-88z" />
    <glyph glyph-name="uni20BD" unicode="&#x20bd;" horiz-adv-x="1255" 
d="M120 449v257h133v532h518q193 0 307 -106.5t114 -287.5t-114 -288t-307 -107h-217v-63h458v-230h-458v-156h-301v156h-133v230h133v63h-133zM554 706h191q67 0 106.5 37t39.5 101t-39.5 101t-106.5 37h-191v-276z" />
    <glyph glyph-name="uni20BF" unicode="&#x20bf;" horiz-adv-x="1137" 
d="M315 1379h187v-169h64v169h189v-173q138 -19 214 -105.5t76 -226.5q0 -76 -29 -135.5t-79 -91.5q70 -34 108.5 -108t38.5 -168q0 -155 -85.5 -241.5t-243.5 -97.5v-173h-189v171h-64v-171h-187v171h-181v1180h181v169zM412 262h260q142 0 142 138q0 134 -142 134h-260
v-272zM412 746h232q69 0 101.5 28.5t32.5 86.5q0 117 -134 117h-232v-232z" />
    <glyph glyph-name="uni2113" unicode="&#x2113;" horiz-adv-x="799" 
d="M172 923q0 327 267 327q130 0 183.5 -52t53.5 -178q0 -129 -70 -258t-187 -237v-270q0 -75 38.5 -112t92.5 -32.5t103 43.5l49 -89q-53 -43 -115 -65.5t-119.5 -22.5t-112 18.5t-94.5 51.5t-64.5 82.5t-24.5 107.5v118q-14 -7 -82 -35l-40 112q56 19 122 53v438zM419 667
q140 145 140 309q0 74 -15.5 101t-53.5 27q-40 0 -55.5 -31.5t-15.5 -105.5v-300z" />
    <glyph glyph-name="uni2116" unicode="&#x2116;" horiz-adv-x="2154" 
d="M1392 347h628v-211h-628v211zM134 0v1238h218l607 -707v707h295v-1238h-218l-606 707v-707h-296zM1348 773q0 151 102.5 253t254.5 102t255.5 -102t103.5 -253q0 -155 -103 -258t-256 -103t-255 103t-102 258zM1601 773q0 -46 29.5 -76t74.5 -30t74.5 30t29.5 76
q0 43 -29.5 72t-74.5 29t-74.5 -29t-29.5 -72z" />
    <glyph glyph-name="trademark" unicode="&#x2122;" horiz-adv-x="1172" 
d="M467 1238v-177h-115v-293h-186v293h-113v177h414zM522 768v470h219l71 -129l69 129h219v-470h-186v242l-74 -165h-57l-76 165v-242h-185z" />
    <glyph glyph-name="estimated" unicode="&#x212e;" horiz-adv-x="1390" 
d="M695 1252q298 0 464.5 -179.5t166.5 -511.5h-1015v-315q150 -161 421 -161q286 0 451 223l76 -57q-160 -269 -527 -269q-312 0 -490 171.5t-178 460.5q0 288 172.5 463t458.5 175zM311 669h770v318q-149 157 -386 157q-116 0 -215 -41t-169 -116v-318z" />
    <glyph glyph-name="uni2135" unicode="&#x2135;" horiz-adv-x="1282" 
d="M642 543l-559 322l559 327l557 -327zM65 835l559 -324v-640l-557 324zM147 235l39 -32q0 7 8 10t20 -4l80 -48q12 29 12 37q-6 18 -21.5 58t-27 73t-16.5 55q-7 26 0 39t31 0q49 -102 198 -395l61 30l-2 13q-79 101 -113 162q29 12 49 37t27.5 53t10.5 45.5t3 27.5
l25 -16l10 27l-7 12l-76 43q-15 9 -27.5 29t-16.5 40l-51 19v-55l49 -42q7 -41 3 -94t-29 -65q-32 56 -68 132t-64 141.5t-31 72.5q-25 13 -57 1q-23 -9 -14 -22q55 -79 97 -150q-36 12 -56.5 -7.5t-13.5 -68.5q8 -54 35 -133l-2 -5l-28 14q-21 12 -25 12zM265 861l25 -28
q2 0 12 1.5t18.5 0t17.5 -6.5l76 -45q35 8 49 18q6 9 16 34.5t22.5 46.5t29.5 32q41 26 79 9q-3 -12 -18 -45t-28.5 -65.5t-24 -65.5t-6.5 -53.5t26 -21.5l117 -3l7 8q-23 63 -23 110q27 0 54.5 2t50 6t45.5 9.5t39 11t32.5 12t25.5 10.5t18.5 8.5t10.5 4.5l24 -18l36 14
l1 11l-76 42q-23 13 -3 43l-60 26l-50 -32l37 -33q-29 -23 -50 -36t-57.5 -26.5t-74.5 -13.5q9 88 69 224q-33 12 -72 11.5t-53 -5.5q0 -4 4 -44t4 -59q-38 15 -86.5 10t-82.5 -31q-30 -23 -66 -80l-3 -2l-30 15q-25 12 -29 12zM660 -129v642l557 322l-2 -640zM746 28l39 13
q6 21 25 33l76 48q14 45 14 51q-53 71 -63 115q-10 46 31 78q54 -57 193 -175l59 99v11q-69 9 -108 35q35 59 56 124.5t25 96t4 48.5l24 14l9 35l-7 6l-74 -41q-31 -16 -41 18l-53 -39v-55l50 12q4 -45 5 -63t-6 -58.5t-26 -74.5q-45 34 -94.5 92t-61.5 81
q-30 -18 -62.5 -54.5t-9.5 -47.5q56 -25 94 -48q-68 -55 -68 -156q0 -37 34 -93l-2 -11l-26 -16q-25 -14 -25 -18z" />
    <glyph glyph-name="uni2136" unicode="&#x2136;" horiz-adv-x="1768" 
d="M359 746q-29 21 -4 64q2 4 5 9t7.5 10.5t8.5 10t11 12t12 12.5t15 14.5t15.5 15t18 17.5t19.5 19q-177 -20 -294 -40q-45 -7 -55 33q-7 24 4 39.5t37 19.5q42 6 190 38t208 50q23 41 68 147t47 109q8 17 25 24.5t33 0.5q15 -7 22.5 -23t4.5 -32q-10 -61 -73 -182
q59 23 109.5 46t71 34.5t26.5 15.5q14 11 31.5 8t27.5 -19q20 -29 -11 -60q-23 -23 -205 -97q609 32 953 -114q49 -21 41 -60q-10 -49 -64 -31q-442 154 -1004 106q-8 -86 12 -135q7 -17 -5 -33t-34 -23q-19 -5 -33.5 5t-19.5 32q-12 52 -12 134q-59 -83 -89 -121t-51 -50
q-15 -8 -24.5 -12t-21.5 -3.5t-23 9.5zM396 -117q-47 83 11.5 234.5t183.5 283.5q64 68 137 115.5t135.5 60.5t96.5 -25q16 -23 17 -50t-13.5 -60.5t-32.5 -62.5t-41 -56.5t-37.5 -43.5t-21.5 -23q-19 -17 -42 -18t-39 13q-41 37 9 87q80 80 109 136q-88 -32 -173.5 -114.5
t-140.5 -179.5t-69 -180q-6 -38 7.5 -60t52.5 -2q169 90 388.5 313t285.5 380q21 41 11 67.5t-63 31.5q-148 13 -313 -57.5t-279 -168.5q-20 -17 -45 -14.5t-37 23.5q-10 19 -4.5 41.5t24.5 36.5q29 22 66 47.5t115 67.5t154.5 71t177 45.5t189.5 3.5q56 -8 92 -41.5
t35 -77.5q-2 -90 -98 -232t-223.5 -271.5t-254.5 -233.5t-195 -133q-120 -51 -175 46z" />
    <glyph glyph-name="uni2137" unicode="&#x2137;" horiz-adv-x="1338" 
d="M677 539q40 0 70.5 31t30.5 72q0 40 -30.5 69.5t-70.5 29.5t-70 -29.5t-30 -69.5q0 -41 30 -72t70 -31zM154 396q0 320 352 515q-235 69 -342 88l34 133q136 -29 238.5 -60t240.5 -85q240 94 480 145l35 -133q-113 -20 -341 -88q352 -196 352 -515q0 -86 -37.5 -168.5
t-103.5 -148.5t-167 -106t-218 -40t-217.5 40t-166 106t-102.5 148.5t-37 168.5zM288 401q0 -138 111.5 -237t277.5 -99q167 0 279 99.5t112 236.5q0 143 -99.5 257.5t-291.5 192.5q-192 -78 -290.5 -192.5t-98.5 -257.5zM380 442l53 115q142 -71 245 -71t245 71l53 -115
q-99 -51 -175 -67l101 -129l-110 -80l-115 154l-115 -154l-107 80l99 129q-75 19 -174 67z" />
    <glyph glyph-name="uni2150" unicode="&#x2150;" horiz-adv-x="1414" 
d="M407 1238h143v-538h134v-169h-516v169h172v251l-101 -90l-119 128zM126 0v9l330 410h250v-23l-301 -396h-279zM769 819v23l301 396h279v-9l-330 -410h-250zM822 538v169h565v-28l-280 -679h-219l221 538h-287z" />
    <glyph glyph-name="uni2151" unicode="&#x2151;" horiz-adv-x="1457" 
d="M416 1238h143v-538h134v-169h-516v169h171v251l-100 -90l-119 128zM120 0v9l331 410h249v-23l-300 -396h-280zM764 819v23l301 396h279v-9l-331 -410h-249zM805 458q0 117 84.5 190.5t226.5 73.5t227.5 -73.5t85.5 -190.5q0 -121 -87 -223l-198 -235h-258v5l203 223
q-14 -2 -42 -2q-101 0 -171.5 61.5t-70.5 170.5zM1010 456q0 -41 30.5 -68t75.5 -27q47 0 77.5 27t30.5 68t-31 68.5t-77 27.5q-45 0 -75.5 -27.5t-30.5 -68.5z" />
    <glyph glyph-name="uni2152" unicode="&#x2152;" horiz-adv-x="2060" 
d="M410 1238h144v-538h134v-169h-516v169h171v251l-101 -90l-118 128zM120 0v9l331 410h249v-23l-300 -396h-280zM764 819v23l301 396h279v-9l-331 -410h-249zM787 458l287 249h143v-537h134v-170h-516v170h171v251l-100 -90zM1360 354q0 166 91.5 267t246.5 101
q152 0 242 -101t90 -267t-90 -267t-242 -101q-155 0 -246.5 101t-91.5 267zM1570 354q0 -85 33.5 -135.5t94.5 -50.5q60 0 92 50.5t32 135.5q0 86 -32 136.5t-92 50.5q-61 0 -94.5 -50.5t-33.5 -136.5z" />
    <glyph glyph-name="uni2153" unicode="&#x2153;" horiz-adv-x="1480" 
d="M407 1238h143v-538h134v-169h-516v169h172v251l-101 -90l-119 128zM126 0v9l330 410h250v-23l-301 -396h-279zM769 819v23l301 396h279v-9l-330 -410h-250zM796 117l141 106q29 -30 77 -47t100 -17q49 0 78.5 19.5t29.5 54.5t-35.5 50.5t-109.5 15.5h-81v145h39
q152 0 152 55q0 27 -21.5 39t-68.5 12q-106 0 -167 -76l-122 106q96 142 287 142q144 0 218.5 -54t74.5 -141q0 -102 -93 -149q57 -16 92 -63t35 -113q0 -98 -81 -156t-241 -58q-109 0 -190.5 39.5t-113.5 89.5z" />
    <glyph glyph-name="uni2154" unicode="&#x2154;" horiz-adv-x="1558" 
d="M115 990q20 132 105.5 195.5t211.5 63.5q132 0 212.5 -66.5t80.5 -165.5q0 -64 -35.5 -132.5t-130.5 -157.5l-30 -28h214v-172h-612v34l230 235q94 95 124 136t30 74q0 28 -21 46t-62 18q-46 0 -76 -29.5t-38 -85.5zM195 0v9l330 410h250v-23l-301 -396h-279zM838 819v23
l301 396h279v-9l-330 -410h-250zM874 117l141 106q29 -30 77 -47t100 -17q49 0 78.5 19.5t29.5 54.5t-35.5 50.5t-109.5 15.5h-81v145h38q153 0 153 55q0 27 -22 39t-69 12q-105 0 -166 -76l-122 106q96 142 287 142q144 0 218.5 -54t74.5 -141q0 -101 -94 -149
q57 -16 92.5 -63t35.5 -113q0 -98 -81 -156t-241 -58q-109 0 -190.5 39.5t-113.5 89.5z" />
    <glyph glyph-name="uni2155" unicode="&#x2155;" horiz-adv-x="1473" 
d="M421 1238h143v-538h135v-169h-517v169h172v251l-101 -90l-119 128zM120 0v9l331 410h249v-23l-300 -396h-280zM764 819v23l301 396h279v-9l-331 -410h-249zM815 30l62 163q79 -36 151 -36t112 22.5t40 66.5q0 36 -28 57t-78 26t-108 1.5t-128 -15.5l30 392h465v-169h-284
l-7 -64q173 13 255 -49t82 -179q0 -119 -83.5 -189.5t-232.5 -70.5q-157 0 -248 44z" />
    <glyph glyph-name="uni2156" unicode="&#x2156;" horiz-adv-x="1538" 
d="M115 990q20 132 105.5 195.5t211.5 63.5q132 0 212.5 -66.5t80.5 -165.5q0 -64 -35.5 -132.5t-130.5 -157.5l-30 -28h214v-172h-612v34l230 235q94 95 124 136t30 74q0 28 -21 46t-62 18q-46 0 -76 -29.5t-38 -85.5zM164 0v9l331 410h250v-23l-301 -396h-280zM808 819v23
l301 396h279v-9l-330 -410h-250zM881 30l62 163q79 -36 150 -36q72 0 112 22.5t40 66.5q0 127 -341 69l30 392h465v-169h-285l-7 -64q173 13 255.5 -49t82.5 -179q0 -119 -84 -189.5t-233 -70.5q-156 0 -247 44z" />
    <glyph glyph-name="uni2157" unicode="&#x2157;" horiz-adv-x="1549" 
d="M264 750q29 -30 77 -47t99 -17q49 0 78.5 19.5t29.5 54.5t-35.5 50.5t-109.5 15.5h-81v145h39q152 0 152 55q0 27 -21.5 39t-68.5 12q-106 0 -167 -76l-122 106q96 142 287 142q144 0 219 -54t75 -141q0 -100 -94 -148q57 -16 92 -63.5t35 -113.5q0 -98 -81 -156
t-241 -58q-109 0 -190.5 39.5t-113.5 89.5zM196 0v9l331 410h249v-23l-300 -396h-280zM840 819v23l301 396h279v-9l-331 -410h-249zM891 30l62 163q79 -36 151 -36t112 22.5t40 66.5q0 36 -28 57t-78 26t-108 1.5t-128 -15.5l30 392h466v-169h-285l-7 -64q173 13 255.5 -49
t82.5 -179q0 -119 -84 -189.5t-233 -70.5q-157 0 -248 44z" />
    <glyph glyph-name="uni2158" unicode="&#x2158;" horiz-adv-x="1568" 
d="M478 531v100h-374v158l391 449h184v-442h81v-165h-81v-100h-201zM218 0v9l330 410h250v-23l-301 -396h-279zM320 796h163v186h-2zM861 819v23l301 396h279v-9l-330 -410h-250zM911 30l62 163q79 -36 150 -36q72 0 112 22.5t40 66.5q0 127 -341 69l30 392h465v-169h-285
l-7 -64q173 13 255.5 -49t82.5 -179q0 -119 -84 -189.5t-233 -70.5q-156 0 -247 44z" />
    <glyph glyph-name="uni2159" unicode="&#x2159;" horiz-adv-x="1480" 
d="M426 1238h143v-538h135v-169h-517v169h172v251l-101 -90l-118 128zM120 0v9l331 410h249v-23l-300 -396h-280zM764 819v23l301 396h279v-9l-331 -410h-249zM789 249q0 122 86 223l199 235h258v-5l-204 -223q14 2 43 2q101 0 171.5 -61.5t70.5 -170.5q0 -117 -84.5 -190
t-226.5 -73t-227.5 73t-85.5 190zM994 251q0 -41 30.5 -68t77.5 -27q45 0 75.5 27t30.5 68t-30.5 68.5t-75.5 27.5q-46 0 -77 -27.5t-31 -68.5z" />
    <glyph glyph-name="uni215A" unicode="&#x215a;" horiz-adv-x="1540" 
d="M707 776q0 -119 -83.5 -189.5t-232.5 -70.5q-155 0 -248 45l62 162q77 -35 150 -35q153 0 153 88q0 36 -28 57t-78 26t-108 1.5t-128 -15.5l30 393h465v-170h-284l-7 -63q173 13 255 -49.5t82 -179.5zM189 0v9l331 410h249v-23l-300 -396h-280zM833 819v23l301 396h279
v-9l-331 -410h-249zM849 249q0 121 87 223l198 235h258v-5l-204 -223q14 2 43 2q101 0 171.5 -61.5t70.5 -170.5q0 -117 -84.5 -190t-226.5 -73t-227.5 73t-85.5 190zM1054 251q0 -41 30.5 -68t77.5 -27q45 0 75.5 27t30.5 68t-30.5 68.5t-75.5 27.5q-46 0 -77 -27.5
t-31 -68.5z" />
    <glyph glyph-name="oneeighth" unicode="&#x215b;" horiz-adv-x="1451" 
d="M407 1238h143v-538h134v-169h-516v169h172v251l-101 -90l-119 128zM124 0v9l331 410h249v-23l-301 -396h-279zM768 819v23l300 396h280v-9l-331 -410h-249zM787 205q0 59 33.5 106.5t92.5 77.5q-82 55 -82 142q0 85 76.5 138.5t196.5 53.5q119 0 193.5 -53.5t74.5 -138.5
q0 -88 -79 -142q58 -30 91 -77.5t33 -106.5q0 -97 -87.5 -159t-225.5 -62q-139 0 -228 62t-89 159zM992 230q0 -38 32 -62.5t81 -24.5q48 0 78 24.5t30 62.5t-30 61.5t-78 23.5q-49 0 -81 -24t-32 -61zM1024 508q0 -27 24 -45.5t57 -18.5q34 0 55 18t21 46q0 27 -21 45
t-55 18q-33 0 -57 -18.5t-24 -44.5z" />
    <glyph glyph-name="threeeighths" unicode="&#x215c;" horiz-adv-x="1526" 
d="M264 750q29 -30 77 -47t99 -17q49 0 78.5 19.5t29.5 54.5t-35.5 50.5t-109.5 15.5h-81v145h39q152 0 152 55q0 27 -21.5 39t-68.5 12q-106 0 -167 -76l-122 106q96 142 287 142q144 0 219 -54t75 -141q0 -100 -94 -148q57 -16 92 -63.5t35 -113.5q0 -98 -81 -156
t-241 -58q-109 0 -190.5 39.5t-113.5 89.5zM187 0v9l331 410h250v-23l-301 -396h-280zM831 819v23l301 396h279v-9l-330 -410h-250zM861 205q0 59 33.5 106.5t92.5 77.5q-81 54 -81 142q0 85 76.5 138.5t195.5 53.5t194 -53.5t75 -138.5q0 -88 -80 -142q58 -30 91 -77.5
t33 -106.5q0 -97 -87.5 -159t-225.5 -62q-139 0 -228 62t-89 159zM1066 230q0 -37 32.5 -62t81.5 -25q48 0 78 24.5t30 62.5t-30 61.5t-78 23.5q-49 0 -81.5 -24t-32.5 -61zM1098 508q0 -27 24 -45.5t58 -18.5t55 18t21 46q0 27 -21 45t-55 18q-33 0 -57.5 -18.5
t-24.5 -44.5z" />
    <glyph glyph-name="fiveeighths" unicode="&#x215d;" horiz-adv-x="1510" 
d="M707 776q0 -119 -83.5 -189.5t-232.5 -70.5q-155 0 -248 45l62 162q77 -35 150 -35q153 0 153 88q0 36 -28 57t-78 26t-108 1.5t-128 -15.5l30 393h465v-170h-284l-7 -63q173 13 255 -49.5t82 -179.5zM166 0v9l331 410h249v-23l-300 -396h-280zM810 819v23l301 396h279
v-9l-331 -410h-249zM845 205q0 59 33.5 106.5t92.5 77.5q-81 54 -81 142q0 85 76.5 138.5t195.5 53.5t194 -53.5t75 -138.5q0 -88 -80 -142q58 -30 91 -77.5t33 -106.5q0 -97 -87.5 -159t-225.5 -62q-139 0 -228 62t-89 159zM1051 230q0 -38 32 -62.5t81 -24.5q48 0 78 24.5
t30 62.5t-30 61.5t-78 23.5q-49 0 -81 -24t-32 -61zM1082 508q0 -27 24 -45.5t58 -18.5t55 18t21 46q0 27 -21 45t-55 18q-33 0 -57.5 -18.5t-24.5 -44.5z" />
    <glyph glyph-name="seveneighths" unicode="&#x215e;" horiz-adv-x="1420" 
d="M681 1238v-28l-280 -679h-219l221 537h-286v170h564zM58 0v9l331 410h249v-23l-300 -396h-280zM702 819v23l301 396h279v-9l-331 -410h-249zM755 205q0 59 33.5 106.5t92.5 77.5q-82 55 -82 142q0 85 76.5 138.5t196.5 53.5q119 0 194 -53.5t75 -138.5q0 -88 -80 -142
q58 -30 91 -77.5t33 -106.5q0 -97 -87.5 -159t-225.5 -62q-139 0 -228 62t-89 159zM960 230q0 -37 32.5 -62t81.5 -25q48 0 77.5 24.5t29.5 62.5t-29.5 61.5t-77.5 23.5q-49 0 -81.5 -24t-32.5 -61zM992 508q0 -27 24 -45.5t58 -18.5t55 18t21 46q0 27 -21 45t-55 18
q-33 0 -57.5 -18.5t-24.5 -44.5z" />
    <glyph glyph-name="uni215F" unicode="&#x215f;" horiz-adv-x="825" 
d="M423 1254h143v-538h134v-170h-516v170h171v251l-100 -90l-119 128zM120 16v9l331 410h249v-23l-300 -396h-280zM764 835v23l301 396h279v-9l-331 -410h-249z" />
    <glyph glyph-name="uni2189" unicode="&#x2189;" horiz-adv-x="1586" 
d="M442 518q-155 0 -246.5 101t-91.5 267t91.5 267t246.5 101q153 0 243 -101t90 -267t-90 -267t-243 -101zM239 0v9l330 410h250v-23l-301 -396h-279zM315 886q0 -85 33 -135.5t94 -50.5q60 0 92 50.5t32 135.5q0 87 -32 137.5t-92 50.5q-61 0 -94 -50.5t-33 -137.5z
M883 819v23l300 396h280v-9l-331 -410h-249zM902 117l141 106q29 -30 77 -47t100 -17q49 0 78.5 19.5t29.5 54.5t-35.5 50.5t-109.5 15.5h-81v145h39q152 0 152 55q0 27 -21.5 39t-68.5 12q-106 0 -167 -76l-122 106q96 142 287 142q144 0 218.5 -54t74.5 -141
q0 -102 -93 -149q57 -16 92 -63t35 -113q0 -98 -81 -156t-241 -58q-109 0 -190.5 39.5t-113.5 89.5z" />
    <glyph glyph-name="arrowleft" unicode="&#x2190;" horiz-adv-x="1476" 
d="M104 536l504 504l183 -182l-202 -195h783v-254h-783l202 -193l-183 -182z" />
    <glyph glyph-name="arrowup" unicode="&#x2191;" horiz-adv-x="1105" 
d="M554 1268l502 -504l-182 -182l-193 201v-783h-255v783l-194 -201l-182 182z" />
    <glyph glyph-name="arrowright" unicode="&#x2192;" horiz-adv-x="1476" 
d="M1372 536l-504 -502l-182 182l202 193h-784v254h784l-202 195l182 182z" />
    <glyph glyph-name="arrowdown" unicode="&#x2193;" horiz-adv-x="1105" 
d="M552 -30l-502 504l182 182l192 -201v783h255v-783l195 201l182 -182z" />
    <glyph glyph-name="arrowboth" unicode="&#x2194;" horiz-adv-x="1956" 
d="M1852 536l-504 -502l-183 182l206 196h-786l206 -196l-183 -182l-504 502l504 504l183 -182l-206 -198h786l-206 198l183 182z" />
    <glyph glyph-name="arrowupdn" unicode="&#x2195;" horiz-adv-x="1105" 
d="M552 1379l504 -507l-182 -182l-198 208v-735l198 208l182 -182l-504 -507l-502 507l182 182l196 -207v733l-196 -207l-182 182z" />
    <glyph glyph-name="uni2196" unicode="&#x2196;" horiz-adv-x="1211" 
d="M147 1238h713v-258l-280 5l554 -555l-181 -179l-553 554l5 -280h-256z" />
    <glyph glyph-name="uni2197" unicode="&#x2197;" horiz-adv-x="1211" 
d="M1065 1240l-2 -713h-257l6 279l-554 -553l-180 179l553 555l-279 -5v258h713z" />
    <glyph glyph-name="uni2198" unicode="&#x2198;" horiz-adv-x="1211" 
d="M1065 -2h-713v258l279 -5l-553 555l180 179l554 -553l-6 279h257z" />
    <glyph glyph-name="uni2199" unicode="&#x2199;" horiz-adv-x="1211" 
d="M147 0l2 713h256l-5 -280l553 554l181 -179l-554 -555l280 5v-258h-713z" />
    <glyph glyph-name="uni21AF" unicode="&#x21af;" horiz-adv-x="836" 
d="M829 212l-475 -329l-312 448l172 120l126 -184l90 348l-303 -44l163 685h237l-115 -437l294 35l-144 -585l151 111z" />
    <glyph glyph-name="arrowdbldown" unicode="&#x21d3;" horiz-adv-x="1349" 
d="M644 1326v-1057h-124l-375 453l175 116l119 -169v657h205zM23 0v212h1303v-212h-1303zM706 269v1057h205v-657l118 169l175 -116l-375 -453h-123z" />
    <glyph glyph-name="uni21DE" unicode="&#x21de;" horiz-adv-x="1105" 
d="M256 370v166h170v247l-194 -201l-182 182l504 504l502 -504l-182 -182l-193 201v-247h170v-166h-170v-69h170v-167h-170v-134h-255v134h-170v167h170v69h-170z" />
    <glyph glyph-name="uni21DF" unicode="&#x21df;" horiz-adv-x="1105" 
d="M256 868h170v69h-170v167h170v134h255v-134h170v-167h-170v-69h170v-166h-170v-247l193 201l182 -182l-502 -504l-504 504l182 182l194 -201v247h-170v166z" />
    <glyph glyph-name="uni21E7" unicode="&#x21e7;" horiz-adv-x="1451" 
d="M1383 539v-5h-331v-534h-651v534h-332v4l658 727zM479 693h126v-507h244v507h125l-247 257z" />
    <glyph glyph-name="uni21E9" unicode="&#x21e9;" horiz-adv-x="1451" 
d="M1383 699l-656 -726l-658 727v4h332v534h651v-534h331v-5zM479 545l248 -257l247 257h-125v507h-244v-507h-126z" />
    <glyph glyph-name="uni21EA" unicode="&#x21ea;" horiz-adv-x="1451" 
d="M1383 539v-5h-331v-180h-651v180h-332v4l658 727zM401 0v304h651v-304h-651zM476 693h127v-159h248v159h127l-251 260z" />
    <glyph glyph-name="uni21F1" unicode="&#x21f1;" horiz-adv-x="1344" 
d="M120 265v1061h1026v-106h-918v-955h-108zM384 504v557h557v-194h-207l477 -478l-153 -154l-478 478v-209h-196z" />
    <glyph glyph-name="partialdiff" unicode="&#x2202;" horiz-adv-x="1059" 
d="M1012 504q0 -238 -132 -380t-349 -142q-211 0 -350 127.5t-139 318.5q0 187 116.5 304t326.5 117q81 0 153 -28q-62 108 -195 173t-279 80l52 263q241 -24 423.5 -141.5t277.5 -297t95 -394.5zM336 435q0 -83 54 -137t137 -54t137 54t54 137t-54 137t-137 54t-137 -54
t-54 -137z" />
    <glyph glyph-name="emptyset" unicode="&#x2205;" horiz-adv-x="1407" 
d="M704 -21q-157 0 -292 65l-35 -44h-299l145 187q-159 181 -159 432q0 180 84 327t230.5 230t325.5 83q161 0 293 -67l36 46h297l-145 -187q159 -181 159 -432q0 -180 -84 -327t-230.5 -230t-325.5 -83zM364 619q0 -99 48 -187l405 525q-55 19 -113 19q-145 0 -242.5 -102
t-97.5 -255zM592 279q54 -17 112 -17q145 0 242 102t97 255q0 99 -46 186z" />
    <glyph glyph-name="uni2206" unicode="&#x2206;" horiz-adv-x="1202" 
d="M748 1238l467 -1238h-1227l467 1238h293zM377 244h449l-225 644z" />
    <glyph glyph-name="product" unicode="&#x220f;" horiz-adv-x="1407" 
d="M134 1326h1139v-1680h-300v1424h-538v-1424h-301v1680z" />
    <glyph glyph-name="summation" unicode="&#x2211;" horiz-adv-x="1103" 
d="M41 1326h983v-256h-476l373 -584l-373 -583h476v-257h-983v18l528 822l-528 823v17z" />
    <glyph glyph-name="minus" unicode="&#x2212;" horiz-adv-x="898" 
d="M104 407v247h690v-247h-690z" />
    <glyph glyph-name="radical" unicode="&#x221a;" horiz-adv-x="1289" 
d="M386 -354l-347 846l285 102l224 -546l388 1278h313l-506 -1680h-357z" />
    <glyph glyph-name="infinity" unicode="&#x221e;" horiz-adv-x="1536" 
d="M1111 141q-179 0 -342 204q-163 -204 -343 -204q-162 0 -266.5 111t-104.5 279t104 278.5t267 110.5q180 0 343 -204q163 204 342 204q163 0 267 -110.5t104 -278.5t-104.5 -279t-266.5 -111zM318 531q0 -60 36 -99t92 -39q47 0 90 29t111 109q-68 80 -111 109t-90 29
q-56 0 -92 -39t-36 -99zM893 531q64 -79 108 -108.5t90 -29.5q56 0 92 39t36 99t-36 99t-92 39q-46 0 -90 -29.5t-108 -108.5z" />
    <glyph glyph-name="integral" unicode="&#x222b;" horiz-adv-x="739" 
d="M704 1084q-43 19 -75.5 20.5t-56.5 -21t-27 -73.5l-69 -1065q-10 -152 -68.5 -238.5t-167.5 -101t-267 60.5l62 226q43 -19 76 -20.5t57.5 21t27.5 73.5l68 1065q10 155 65 238t164 97.5t273 -55.5z" />
    <glyph glyph-name="approxequal" unicode="&#x2248;" horiz-adv-x="1031" 
d="M868 251q-83 -74 -192 -74q-51 0 -95.5 19.5t-71.5 42.5t-67.5 42.5t-84.5 19.5q-104 0 -194 -82v214q85 78 194 78q51 0 95 -19.5t71 -42.5t68 -42.5t85 -19.5q106 0 192 83v-219zM163 591v214q85 78 194 78q51 0 95 -19.5t71 -42.5t68 -42.5t85 -19.5q106 0 192 83
v-219q-84 -75 -192 -75q-51 0 -95.5 19.5t-71.5 42.5t-67.5 42.5t-84.5 19.5q-105 0 -194 -81z" />
    <glyph glyph-name="notequal" unicode="&#x2260;" horiz-adv-x="1068" 
d="M667 1061h269l-107 -209h117v-229h-231l-92 -183h323v-230h-440l-106 -210h-269l106 210h-115v230h232l92 183h-324v229h439z" />
    <glyph glyph-name="lessequal" unicode="&#x2264;" horiz-adv-x="992" 
d="M110 672v234l727 316v-251l-459 -182l459 -181v-251zM106 30v235h731v-235h-731z" />
    <glyph glyph-name="greaterequal" unicode="&#x2265;" horiz-adv-x="992" 
d="M883 672l-727 -315v251l458 181l-458 182v251l727 -316v-234zM156 30v235h730v-235h-730z" />
    <glyph glyph-name="uni2318" unicode="&#x2318;" horiz-adv-x="1398" 
d="M1070 513q113 0 191 -76.5t78 -188.5t-78 -189t-191 -77q-114 0 -192.5 77t-78.5 189v99h-199v-99q0 -112 -78.5 -189t-192.5 -77q-113 0 -191 77t-78 189t78 188.5t191 76.5h95v210h-95q-113 0 -191 77t-78 189t78 189.5t191 77.5q114 0 192.5 -77.5t78.5 -189.5v-98
h199v98q0 112 78.5 189.5t192.5 77.5q113 0 191 -77.5t78 -189.5t-78 -189t-191 -77h-96v-210h96zM235 248q0 -41 27 -69.5t67 -28.5t67.5 28.5t27.5 69.5v99h-95q-40 0 -67 -29t-27 -70zM235 989q0 -41 27 -69.5t67 -28.5h95v98q0 41 -27.5 70t-67.5 29t-67 -29t-27 -70z
M600 513h199v210h-199v-210zM974 248q0 -41 28 -69.5t68 -28.5t67 28.5t27 69.5t-27 70t-67 29h-96v-99zM974 891h96q40 0 67 28.5t27 69.5t-27 70t-67 29t-68 -29t-28 -70v-98z" />
    <glyph glyph-name="uni2325" unicode="&#x2325;" horiz-adv-x="1418" 
d="M1295 248v-248h-416l-499 990h-277v248h415l499 -990h278zM831 990v248h464v-248h-464z" />
    <glyph glyph-name="uni2326" unicode="&#x2326;" horiz-adv-x="1819" 
d="M1273 1238l497 -619l-497 -619h-1137v1238h1137zM336 182h826l357 437l-357 437h-826v-874zM470 409l213 212l-211 208l152 153l211 -209l208 209l153 -153l-209 -208l210 -212l-152 -153l-210 213l-212 -213z" />
    <glyph glyph-name="uni232B" unicode="&#x232b;" horiz-adv-x="1819" 
d="M546 1238h1138v-1238h-1138l-496 619zM301 619l357 -437h826v874h-826zM623 409l212 212l-211 208l152 153l211 -209l209 209l152 -153l-209 -208l210 -212l-152 -153l-210 213l-212 -213z" />
    <glyph glyph-name="uni2380" unicode="&#x2380;" horiz-adv-x="1110" 
d="M631 605v30q-65 -43 -152 -43q-117 0 -192 64.5t-75 164.5q0 98 75 162t192 64q87 0 152 -42q-12 116 -146 116q-92 0 -186 -53l-62 131q50 31 126 54.5t155 23.5q308 0 308 -292v-380h-195zM141 409l161 150l253 -287l255 287l159 -152l-410 -423h-7zM403 822
q0 -40 33.5 -66t85.5 -26q51 0 83.5 26t32.5 66q0 41 -32 66.5t-84 25.5t-85.5 -25.5t-33.5 -66.5z" />
    <glyph glyph-name="uni2387" unicode="&#x2387;" horiz-adv-x="1418" 
d="M1295 990h-278l-499 -990h-415v248h277l499 990h416v-248zM831 0v248h464v-248h-464z" />
    <glyph glyph-name="uni23CE" unicode="&#x23ce;" horiz-adv-x="1520" 
d="M531 -69l-494 486l494 492l153 -154l-249 -235h580q55 0 80.5 22.5t25.5 74.5v444h214v-492q0 -148 -60.5 -204.5t-213.5 -56.5h-617l240 -223z" />
    <glyph glyph-name="uni2400" unicode="&#x2400;" horiz-adv-x="1375" 
d="M688 53q-159 0 -287 96l-226 -227l-95 96l226 226q-96 128 -96 287q0 130 64 240t174 173.5t240 63.5q159 0 286 -95l227 226l95 -96l-226 -226q95 -127 95 -286q0 -130 -63.5 -240t-173.5 -174t-240 -64zM368 531q0 -98 49 -176l446 446q-81 51 -175 51q-133 0 -227 -94
t-93 -227zM513 260q81 -51 175 -51q133 0 227 94.5t93 227.5q0 97 -49 175z" />
    <glyph glyph-name="uni24D8" unicode="&#x24d8;" horiz-adv-x="1420" 
d="M584 285v389h251v-389h-251zM81 617q0 174 83.5 318.5t227.5 227t317 82.5q174 0 318.5 -82.5t228 -226.5t83.5 -319q0 -174 -83.5 -318t-228 -226t-318.5 -82q-173 0 -317 82t-227.5 226t-83.5 318zM288 617q0 -178 122 -302t299 -124q179 0 301 124t122 302
q0 180 -122 304t-301 124q-177 0 -299 -125t-122 -303zM569 854q0 54 39.5 88t100.5 34q63 0 102.5 -34t39.5 -88t-39.5 -87t-102.5 -33q-61 0 -100.5 33t-39.5 87z" />
    <glyph glyph-name="uni24FF" unicode="&#x24ff;" horiz-adv-x="1420" 
d="M713 214q-166 0 -264.5 111t-98.5 294q0 182 98.5 292.5t264.5 110.5q164 0 260.5 -110.5t96.5 -292.5q0 -183 -96.5 -294t-260.5 -111zM81 617q0 -174 83.5 -318t227.5 -226t317 -82q174 0 318.5 82t228 226t83.5 318q0 175 -83.5 319t-228 226.5t-318.5 82.5
q-173 0 -317 -82.5t-227.5 -227t-83.5 -318.5zM569 619q0 -95 37.5 -150t106.5 -55q65 0 101.5 55.5t36.5 149.5q0 93 -36.5 148t-101.5 55q-69 0 -106.5 -55t-37.5 -148z" />
    <glyph glyph-name="filledbox" unicode="&#x25a0;" horiz-adv-x="1273" 
d="M106 1061h1061v-1061h-1061v1061z" />
    <glyph glyph-name="uni25A1" unicode="&#x25a1;" horiz-adv-x="1273" 
d="M106 1061h1061v-1061h-1061v1061zM306 193h663v677h-663v-677z" />
    <glyph glyph-name="uni25A4" unicode="&#x25a4;" horiz-adv-x="1474" 
d="M118 1238h1238v-1238h-1238v1238zM209 88h1057v78h-1057v-78zM209 249h1057v82h-1057v-82zM209 414h1057v81h-1057v-81zM209 578h1057v82h-1057v-82zM209 743h1057v81h-1057v-81zM209 907h1057v80h-1057v-80zM209 1070h1057v80h-1057v-80z" />
    <glyph glyph-name="triagup" unicode="&#x25b2;" horiz-adv-x="1358" 
d="M18 0l661 1173l662 -1173h-1323z" />
    <glyph glyph-name="uni25B3" unicode="&#x25b3;" horiz-adv-x="1358" 
d="M18 0l661 1173l662 -1173h-1323zM364 200h632l-317 559z" />
    <glyph glyph-name="triagdn" unicode="&#x25bc;" horiz-adv-x="1358" 
d="M18 1061h1323l-662 -1172z" />
    <glyph glyph-name="uni25BD" unicode="&#x25bd;" horiz-adv-x="1358" 
d="M18 1061h1323l-662 -1172zM364 861l315 -559l317 559h-632z" />
    <glyph glyph-name="uni25C6" unicode="&#x25c6;" horiz-adv-x="1061" 
d="M531 150l-469 469l469 469l468 -469z" />
    <glyph glyph-name="uni25C7" unicode="&#x25c7;" horiz-adv-x="1061" 
d="M531 150l-469 469l469 469l468 -469zM320 619l211 -210l210 210l-210 210z" />
    <glyph glyph-name="lozenge" unicode="&#x25ca;" horiz-adv-x="1043" 
d="M520 1339l495 -720l-495 -718l-492 718zM267 619l253 -373l255 373l-255 373z" />
    <glyph glyph-name="circle" unicode="&#x25cb;" horiz-adv-x="1420" 
d="M709 -9q-173 0 -317 82t-227.5 226t-83.5 318t83.5 318.5t227.5 227t317 82.5q174 0 318.5 -82.5t228 -226.5t83.5 -319q0 -174 -83.5 -318t-228 -226t-318.5 -82zM288 617q0 -178 122 -302t299 -124q179 0 301 124t122 302q0 180 -122 304t-301 124q-177 0 -299 -125
t-122 -303z" />
    <glyph glyph-name="uni25CC" unicode="&#x25cc;" horiz-adv-x="1418" 
d="M709 1010q-49 0 -83 34t-34 84q0 49 34 83t83 34t83 -34t34 -83q0 -50 -34 -84t-83 -34zM81 617q0 49 34 83t83 34t83 -34t34 -83q0 -50 -34 -84t-83 -34t-83 34t-34 84zM230 256q0 49 34 83t84 34q49 0 83 -34t34 -83t-34 -82.5t-83 -33.5q-50 0 -84 33.5t-34 82.5z
M230 978q0 49 34 83t84 34q49 0 83 -34t34 -83t-34 -83t-83 -34q-50 0 -84 34t-34 83zM592 108q0 49 34 83t83 34t83 -34t34 -83q0 -50 -34 -84.5t-83 -34.5t-83 34.5t-34 84.5zM951 255q0 49 34.5 82.5t84.5 33.5q49 0 83 -33.5t34 -82.5t-34 -83t-83 -34q-50 0 -84.5 34
t-34.5 83zM951 978q0 49 34.5 83t84.5 34q49 0 83 -34t34 -83t-34 -83t-83 -34q-50 0 -84.5 34t-34.5 83zM1104 617q0 49 33.5 83t82.5 34t83 -34t34 -83q0 -50 -34 -84t-83 -34t-82.5 34t-33.5 84z" />
    <glyph glyph-name="uni25CF" unicode="&#x25cf;" horiz-adv-x="1420" 
d="M709 -9q174 0 318.5 82t228 226t83.5 318q0 175 -83.5 319t-228 226.5t-318.5 82.5q-173 0 -317 -82.5t-227.5 -227t-83.5 -318.5t83.5 -318t227.5 -226t317 -82z" />
    <glyph glyph-name="uni2605" unicode="&#x2605;" horiz-adv-x="1457" 
d="M267 -94l126 527l-411 350l538 41l209 502l207 -502l539 -41l-414 -350l131 -527l-465 285z" />
    <glyph glyph-name="uni2606" unicode="&#x2606;" horiz-adv-x="1457" 
d="M267 -94l126 527l-411 350l538 41l209 502l207 -502l539 -41l-414 -350l131 -527l-465 285zM439 640l161 -138l-52 -208l184 113l182 -113l-49 208l161 138l-214 16l-80 198l-79 -198z" />
    <glyph glyph-name="uni2610" unicode="&#x2610;" horiz-adv-x="1273" 
d="M106 1061h1061v-1061h-1061v1061zM306 193h663v677h-663v-677z" />
    <glyph glyph-name="uni2611" unicode="&#x2611;" horiz-adv-x="1273" 
d="M529 258l-184 310l166 102l108 -191l90 322h198l-164 -543h-214zM106 0v1061h1061v-1061h-1061zM306 193h663v677h-663v-677z" />
    <glyph glyph-name="uni2612" unicode="&#x2612;" horiz-adv-x="1273" 
d="M357 380l149 149l-149 148l129 129l149 -148l148 148l130 -129l-149 -148l149 -149l-130 -129l-148 149l-149 -149zM106 0v1061h1061v-1061h-1061zM306 193h663v677h-663v-677z" />
    <glyph glyph-name="uni262E" unicode="&#x262e;" horiz-adv-x="1420" 
d="M709 -9q-173 0 -317 82t-227.5 226t-83.5 318t83.5 318.5t227.5 227t317 82.5q174 0 318.5 -82.5t228 -226.5t83.5 -319q0 -174 -83.5 -318t-228 -226t-318.5 -82zM288 617q0 -61 20 -129l306 235v312q-143 -33 -234.5 -150t-91.5 -268zM405 320q86 -91 209 -118v283z
M822 205q115 31 200 122l-200 158v-280zM822 723l294 -226q16 57 16 120q0 149 -86 262.5t-224 151.5v-308z" />
    <glyph glyph-name="uni262F" unicode="&#x262f;" horiz-adv-x="1420" 
d="M911 796q88 -2 148.5 -52t72.5 -134v7q0 180 -122 304t-301 124q-175 0 -296.5 -122.5t-124.5 -298.5q2 -40 16 -71.5t34 -50t46 -30t49 -15.5t46 -4q41 0 74.5 11t55 27t40 43t28.5 48.5t23 54.5q63 162 211 159zM81 617q0 174 83.5 318.5t227.5 227t317 82.5
q174 0 318.5 -82.5t228 -226.5t83.5 -319q0 -174 -83.5 -318t-228 -226t-318.5 -82q-173 0 -317 82t-227.5 226t-83.5 318z" />
    <glyph glyph-name="smileface" unicode="&#x263a;" horiz-adv-x="1420" 
d="M1056 591q0 -135 -98 -227.5t-240 -92.5q-140 0 -237 92.5t-97 227.5h182q0 -62 44 -105.5t108 -43.5q65 0 110.5 43.5t45.5 105.5h182zM81 617q0 174 83.5 318.5t227.5 227t317 82.5q174 0 318.5 -82.5t228 -226.5t83.5 -319q0 -174 -83.5 -318t-228 -226t-318.5 -82
q-173 0 -317 82t-227.5 226t-83.5 318zM288 617q0 -178 122 -302t299 -124q179 0 301 124t122 302q0 180 -122 304t-301 124q-177 0 -299 -125t-122 -303zM439 776q0 56 37 93.5t92 37.5q53 0 90 -38t37 -93q0 -57 -36 -93.5t-91 -36.5q-56 0 -92.5 36.5t-36.5 93.5z
M743 776q0 51 38.5 91t90.5 40q54 0 91.5 -40t37.5 -91q0 -57 -37 -93.5t-92 -36.5q-56 0 -92.5 36.5t-36.5 93.5z" />
    <glyph glyph-name="uni263F" unicode="&#x263f;" horiz-adv-x="1414" 
d="M707 432q-81 0 -135.5 -56.5t-53.5 -138.5q0 -82 54.5 -138.5t134.5 -56.5t135.5 56.5t55.5 138.5t-55.5 138.5t-135.5 56.5zM271 237q0 150 90.5 265t232.5 151l7 166l-201 -76l-71 219l207 57l-135 168l186 136l119 -181l120 181l186 -136l-135 -168l207 -57l-71 -219
l-201 76l9 -166q143 -36 234 -151t91 -265q0 -182 -127.5 -307t-311.5 -125q-183 0 -309.5 125.5t-126.5 306.5z" />
    <glyph glyph-name="female" unicode="&#x2640;" horiz-adv-x="1768" 
d="M884 1243q188 0 348 -93.5t253.5 -253.5t93.5 -348q0 -143 38 -269t129 -194q27 -21 31 -49t-23 -48q-62 -41 -215.5 -51.5t-286.5 22.5q-168 -106 -368 -106t-368 106q-133 -33 -286.5 -22.5t-215.5 51.5q-26 20 -22.5 48t31.5 49q91 68 128.5 193.5t37.5 269.5
q0 188 93.5 348t253.5 253.5t348 93.5zM159 67q85 -30 232 -5q-84 81 -136 193q-29 -131 -96 -188zM311 548q0 -153 78 -285.5t210 -211t285 -78.5t285 78.5t210 211t78 285.5v18q-43 2 -91 13t-109 35t-128 70.5t-126 109.5q-83 -63 -185 -108.5t-198.5 -67t-170 -30.5
t-138.5 -10v-30zM331 693q146 11 322.5 63.5t296.5 150.5q67 53 115 0q88 -98 191 -155t185 -69q-47 189 -203.5 314.5t-353.5 125.5q-194 0 -349 -122.5t-204 -307.5zM527 451q0 41 17.5 66.5t47.5 25.5q29 0 46.5 -26t17.5 -66t-17.5 -66t-46.5 -26q-30 0 -47.5 25.5
t-17.5 66.5zM676 265q15 15 36 15.5t45 -18.5q49 -44 127 -44q79 0 128 44q24 19 45 18.5t36 -15.5q16 -14 15.5 -40t-26.5 -48q-84 -74 -198 -74t-198 74q-26 22 -26 48t16 40zM1112 451q0 41 18 66.5t48 25.5q29 0 46.5 -26t17.5 -66t-17.5 -66t-46.5 -26q-30 0 -48 25.5
t-18 66.5zM1378 62q147 -25 231 5q-66 56 -95 188q-52 -112 -136 -193z" />
    <glyph glyph-name="male" unicode="&#x2642;" horiz-adv-x="1768" 
d="M884 1243q188 0 348 -93.5t253.5 -253.5t93.5 -348t-93.5 -348t-253.5 -253.5t-348 -93.5t-348 93.5t-253.5 253.5t-93.5 348t93.5 348t253.5 253.5t348 93.5zM309 548q0 -154 78 -287t210.5 -211t286.5 -78t286.5 78t210.5 211t78 287v18q-43 2 -91 13t-109 35
t-128.5 70.5t-127.5 109.5q-84 -63 -186 -108.5t-199 -67t-170.5 -30.5t-138.5 -10v-30zM329 693q145 11 323 63.5t298 150.5q67 53 115 0q87 -98 191.5 -155t186.5 -69q-47 189 -204 315.5t-355 126.5q-196 0 -351 -122.5t-204 -309.5zM527 451q0 41 17.5 66.5t47.5 25.5
q29 0 46.5 -26t17.5 -66t-17.5 -66t-46.5 -26q-30 0 -47.5 25.5t-17.5 66.5zM676 265q15 15 36 15.5t45 -18.5q49 -44 127 -44q79 0 128 44q24 19 45 18.5t36 -15.5q16 -14 15.5 -40t-26.5 -48q-84 -74 -198 -74t-198 74q-26 22 -26 48t16 40zM1112 451q0 41 18 66.5
t48 25.5q29 0 46.5 -26t17.5 -66t-17.5 -66t-46.5 -26q-30 0 -48 25.5t-18 66.5z" />
    <glyph glyph-name="uni2661" unicode="&#x2661;" horiz-adv-x="1402" 
d="M999 1135q145 0 241.5 -93t96.5 -232q0 -160 -147 -317l-490 -527l-488 527q-147 157 -147 317q0 141 94.5 233t240.5 92q96 0 162.5 -38t137.5 -121q75 84 138.5 121.5t160.5 37.5zM271 801q0 -82 67 -152l362 -385l363 385q69 72 69 152q0 62 -37 101t-101 39
q-29 0 -56.5 -12.5t-44.5 -27.5t-49 -47l-144 -147l-141 147q-46 47 -78 67t-74 20q-61 0 -98.5 -39.5t-37.5 -100.5z" />
    <glyph glyph-name="heart" unicode="&#x2665;" horiz-adv-x="1390" 
d="M989 1146q141 0 235.5 -96t94.5 -235q0 -148 -148 -313l-476 -521l-477 521q-147 160 -147 313q0 140 92 235.5t231 95.5q66 0 122.5 -22t91 -49.5t87.5 -80.5q40 40 65 62t62 45.5t77.5 34t89.5 10.5z" />
    <glyph glyph-name="diamond" unicode="&#x2666;" horiz-adv-x="1190" 
d="M617 1381l529 -762l-529 -762h-46l-527 762l527 762h46zM218 619l316 -140v220zM320 766l214 55v249zM350 428l244 -347l243 347l-243 -110zM654 479l317 140l-317 80v-220zM654 821l214 -55l-214 304v-249z" />
    <glyph glyph-name="uni2667" unicode="&#x2667;" horiz-adv-x="2428" 
d="M810 -88q-44 0 -77 34t-33 79v1188q0 45 33 79t77 34h810q44 0 77 -34t33 -79v-1188q0 -45 -33 -79t-77 -34h-810zM58 189v692q0 23 18 41.5t42 18.5h107v-812h-107q-24 0 -42 18.5t-18 41.5zM304 58v1113q0 32 27 47t58 -5l225 -155v-1021l-225 -42q-34 -7 -59.5 12
t-25.5 51zM1818 37v1021l221 153q31 20 58 6t27 -46v-1113q0 -32 -25.5 -51t-59.5 -12zM2204 129v812h106q24 0 42 -18.5t18 -41.5v-692q0 -23 -18 -41.5t-42 -18.5h-106z" />
    <glyph glyph-name="uni267F" unicode="&#x267f;" horiz-adv-x="1540" 
d="M771 1049q-83 0 -141.5 59t-58.5 144q0 83 58.5 141.5t141.5 58.5t141.5 -58.5t58.5 -141.5q0 -85 -58.5 -144t-141.5 -59zM78 829q0 55 36 90.5t93 35.5h1126q55 0 92.5 -36t37.5 -90q0 -55 -37.5 -92t-92.5 -37h-316v-302l136 -495q14 -56 -12 -101t-80 -57t-97 14
t-57 80l-136 506l-136 -506q-14 -55 -56.5 -80.5t-97.5 -13.5q-57 12 -84 56.5t-11 101.5l137 490v307h-316q-57 0 -93 36t-36 93z" />
    <glyph glyph-name="uni26A5" unicode="&#x26a5;" horiz-adv-x="1768" 
d="M104 1222q0 30 29 30h583q30 0 30 -30v-194q0 -29 -30 -29h-583q-29 0 -29 29v194zM80 193q0 151 105 258.5t254 107.5q152 0 259.5 -109t107.5 -263q0 -149 -107.5 -254.5t-259.5 -105.5q-149 0 -254 107.5t-105 258.5zM104 690v193q0 30 29 30h583q30 0 30 -30v-193
q0 -30 -30 -30h-583q-29 0 -29 30zM138 193q0 -126 90 -217t216 -91q123 0 212 88.5t92 213.5q-57 5 -130 39t-132 101q-130 -114 -348 -125v-9zM147 267q207 19 318 127q30 26 55 -10q43 -56 107 -91.5t116 -43.5q-20 108 -105 180t-194 72q-106 0 -188.5 -66t-108.5 -168z
M164 716h522v140h-522v-140zM164 1056h522v140h-522v-140zM246 138q0 51 30 51t30 -51q0 -50 -30 -50t-30 50zM320 30q8 8 20 7t21 -9q26 -26 78 -26q50 0 76 26q24 18 40 2q24 -24 -5 -46q-39 -39 -111 -39q-71 0 -114 39q-26 22 -5 46zM571 138q0 51 30 51t30 -51
q0 -50 -30 -50t-30 50zM837 628q-19 9 -18.5 27t19.5 29q38 21 58 95t20 149q0 155 104.5 261t258.5 106t258 -106t104 -261q0 -72 19.5 -146.5t51.5 -93.5q21 -12 24.5 -31.5t-15.5 -28.5q-35 -19 -103.5 -20t-131.5 18q-91 -64 -207 -64q-118 0 -207 64q-64 -19 -132 -18
t-103 20zM900 669q59 -9 120 3q-43 50 -67 110q-17 -80 -53 -113zM911 163l74 219q7 20 28 12l131 -53l-9 135q-1 10 5 16.5t17 6.5h242q24 0 21 -23l-10 -135l129 55q23 8 30 -12l74 -221q7 -23 -16 -30l-136 -32l92 -101q19 -19 -4 -37l-198 -133q-18 -14 -30 6l-74 118
l-73 -118q-12 -20 -31 -6l-199 133q-22 18 -3 37l92 101l-138 32q-21 7 -14 30zM974 180l186 -47l-120 -145l133 -92l104 157l106 -157l133 92l-124 145l189 47l-53 147l-179 -65l9 184h-162l10 -184l-180 65zM978 928q0 -130 86.5 -217.5t214.5 -87.5q127 0 213 85.5
t89 214.5q-58 7 -128.5 41t-126.5 99q-132 -114 -348 -126v-9zM987 1003q77 5 166 34.5t154 92.5q30 27 53 -10q41 -56 102 -90.5t114 -44.5q-19 110 -101.5 180.5t-195.5 70.5q-108 0 -188.5 -65t-103.5 -168zM1088 874q0 51 32 51q28 0 28 -51q0 -23 -8 -36.5t-20 -13.5
q-32 0 -32 50zM1165 759q7 8 17 7t17 -9q32 -27 81 -27q46 0 80 29q15 18 37 -4q18 -19 -5 -42q-44 -39 -113 -39q-73 0 -112 39q-27 24 -2 46zM1410 874q0 51 31 51q29 0 29 -51q0 -23 -8.5 -36.5t-20.5 -13.5q-31 0 -31 50zM1537 672q61 -15 118 -3q-36 24 -51 111
q-22 -57 -67 -108z" />
    <glyph glyph-name="uni272A" unicode="&#x272a;" horiz-adv-x="1420" 
d="M387 164l91 375l-292 250l382 28l148 357l147 -357l384 -28l-296 -250l94 -375l-330 204zM81 617q0 -174 83.5 -318t227.5 -226t317 -82q174 0 318.5 82t228 226t83.5 318q0 175 -83.5 319t-228 226.5t-318.5 82.5q-173 0 -317 -82.5t-227.5 -227t-83.5 -318.5z" />
    <glyph glyph-name="uni2731" unicode="&#x2731;" horiz-adv-x="1312" 
d="M504 1238h304v-355l308 176l152 -261l-309 -179l309 -179l-152 -261l-308 176v-355h-304v355l-308 -176l-152 261l310 179l-310 179l152 261l308 -176v355z" />
    <glyph glyph-name="uni2732" unicode="&#x2732;" horiz-adv-x="1310" 
d="M559 785l-99 -170l-395 230l99 170zM69 391l393 224l97 -166l-393 -226zM559 2v447h194v-447h-194zM559 785v453h194v-453h-194zM753 449l98 168l394 -226l-99 -170zM753 785l395 230l97 -168l-394 -230z" />
    <glyph glyph-name="uni275B" unicode="&#x275b;" horiz-adv-x="808" 
d="M64 729q0 101 39.5 194.5t112 167.5t185.5 118.5t250 44.5v-140q-105 -2 -191.5 -55t-116.5 -139l12 -4q52 30 107 37.5t104 -8.5t88 -49t62 -87.5t23 -120.5q0 -137 -94 -226t-240 -89q-149 0 -245 100.5t-96 255.5z" />
    <glyph glyph-name="uni275C" unicode="&#x275c;" horiz-adv-x="808" 
d="M745 898q0 -101 -39.5 -194.5t-112 -167.5t-186 -118.5t-250.5 -44.5v140q105 2 191.5 55t116.5 139l-12 4q-52 -30 -107 -37.5t-104 8.5t-88 49t-62 87.5t-23 120.5q0 137 94 226t240 89q149 0 245.5 -100.5t96.5 -255.5z" />
    <glyph glyph-name="uni275D" unicode="&#x275d;" horiz-adv-x="1533" 
d="M64 729q0 101 39.5 194.5t112 167.5t185.5 118.5t250 44.5v-140q-105 -2 -191.5 -55t-116.5 -139l12 -4q52 30 107 37.5t104 -8.5t88 -49t62 -87.5t23 -120.5q0 -137 -94 -226t-240 -89q-149 0 -245 100.5t-96 255.5zM789 729q0 101 39.5 194.5t112 167.5t185.5 118.5
t250 44.5v-140q-105 -2 -191.5 -55t-116.5 -139l13 -4q64 37 133 38.5t124 -28.5t90.5 -92.5t35.5 -145.5q0 -137 -94 -226t-240 -89q-149 0 -245 100.5t-96 255.5z" />
    <glyph glyph-name="uni275E" unicode="&#x275e;" horiz-adv-x="1533" 
d="M1470 898q0 -101 -39.5 -194.5t-112 -167.5t-185.5 -118.5t-250 -44.5v140q105 2 191 55t116 139l-12 4q-52 -30 -107 -37.5t-104 8.5t-88 49t-62 87.5t-23 120.5q0 137 94 226t240 89q149 0 245.5 -100.5t96.5 -255.5zM69 939q0 137 94 226t240 89q149 0 245.5 -100.5
t96.5 -255.5q0 -101 -39.5 -194.5t-112 -167.5t-186 -118.5t-250.5 -44.5v140q105 2 191.5 55t116.5 139l-12 4q-52 -30 -107 -37.5t-104 8.5t-88 49t-62 87.5t-23 120.5z" />
    <glyph glyph-name="uni2761" unicode="&#x2761;" horiz-adv-x="1379" 
d="M630 384q-247 3 -376.5 109t-129.5 319q0 214 129.5 320t376.5 106h612v-974q0 -117 -15 -208.5t-52.5 -173t-99 -135t-158 -84.5t-225.5 -31q-131 0 -238.5 37.5t-177 97t-117 138t-67.5 156t-21 155.5l224 58q5 -68 18 -119.5t30.5 -82t40.5 -49.5t45.5 -25.5
t49.5 -6.5q151 0 151 273v120zM727 -141q134 0 198.5 109t64.5 296v742h-109v-742q0 -294 -154 -405z" />
    <glyph glyph-name="uni2776" unicode="&#x2776;" horiz-adv-x="1420" 
d="M858 426h157v-187h-583v187h214v281l-117 -102l-126 127l308 283h147v-589zM81 617q0 -174 83.5 -318t227.5 -226t317 -82q174 0 318.5 82t228 226t83.5 318q0 175 -83.5 319t-228 226.5t-318.5 82.5q-173 0 -317 -82.5t-227.5 -227t-83.5 -318.5z" />
    <glyph glyph-name="uni2777" unicode="&#x2777;" horiz-adv-x="1420" 
d="M370 748q15 99 63.5 164.5t117 93t156.5 27.5q143 0 229 -73t86 -182q0 -136 -145 -286l-62 -66h227v-187h-656v42l307 311q62 63 84 99.5t22 72.5q0 31 -22.5 52t-63.5 21q-51 0 -86.5 -34t-42.5 -94zM81 617q0 -174 83.5 -318t227.5 -226t317 -82q174 0 318.5 82
t228 226t83.5 318q0 175 -83.5 319t-228 226.5t-318.5 82.5q-173 0 -317 -82.5t-227.5 -227t-83.5 -318.5z" />
    <glyph glyph-name="uni2778" unicode="&#x2778;" horiz-adv-x="1420" 
d="M900 647q60 -18 96.5 -69t36.5 -125q0 -107 -85.5 -172t-252.5 -65q-112 0 -197 44t-121 99l148 117q30 -32 81.5 -50.5t104.5 -18.5q50 0 81.5 21t31.5 60t-37 56t-115 17h-88v157h44q159 0 159 62q0 55 -95 55q-109 0 -174 -83l-127 115q100 157 299 157q151 0 229 -59
t78 -155q0 -112 -97 -163zM81 617q0 -174 83.5 -318t227.5 -226t317 -82q174 0 318.5 82t228 226t83.5 318q0 175 -83.5 319t-228 226.5t-318.5 82.5q-173 0 -317 -82.5t-227.5 -227t-83.5 -318.5z" />
    </font>
</defs>
</svg>
