<?xml version="1.0" standalone="no"?>
<!DOCTYPE svg PUBLIC "-//W3C//DTD SVG 1.1//EN" "http://www.w3.org/Graphics/SVG/1.1/DTD/svg11.dtd" >
<svg xmlns="http://www.w3.org/2000/svg" xmlns:xlink="http://www.w3.org/1999/xlink" version="1.1">
<metadata>
Created by FontForge 20170731 at Tue Apr 18 12:32:19 2023
 By Aleksey,,,
Copyright (c) 2018-2021 by Avraham Cornfeld. All rights reserved.
</metadata>
<defs>
<font id="PloniMaccabiMLv2AAA-Regular" horiz-adv-x="0" >
  <font-face 
    font-family="Ploni Maccabi ML v2 AAA"
    font-weight="400"
    font-stretch="normal"
    units-per-em="2048"
    panose-1="0 0 0 0 0 0 0 0 0 0"
    ascent="1638"
    descent="-410"
    x-height="973"
    cap-height="1238"
    bbox="-435 -493 2754 1875"
    underline-thickness="129"
    underline-position="-499"
    unicode-range="U+0021-1F10B"
  />
<missing-glyph horiz-adv-x="955" 
d="M845 1238q28 0 40 -12t12 -38v-1140q0 -26 -12 -37t-40 -11h-737q-26 0 -37 11t-11 37v1140q0 26 11.5 38t36.5 12h737zM180 184l239 435l-239 435v-870zM242 110h471l-235 410zM242 1128l236 -410l235 410h-471zM534 619l242 -433v868z" />
    <glyph glyph-name="f_f.liga" unicode="ff" horiz-adv-x="1147" 
d="M352 849v-849h-157v849h-145v124h145v79q0 80 21.5 142.5t57.5 99.5t84 57.5t101.5 20.5t108.5 -16.5t106 -48.5l-48 -111q-39 23 -77.5 33.5t-74 5t-62.5 -26.5t-43.5 -64.5t-16.5 -105.5v-65h348v72q0 83 23 146.5t64 101t91.5 56t110.5 18.5q112 0 256 -81l-58 -105
q-106 50 -167 50q-74 0 -118 -51t-44 -163v-44h253v-124h-253v-849h-158v849h-348z" />
    <glyph glyph-name="f_f_i.liga" unicode="ffi" horiz-adv-x="1501" 
d="M1208 0v849h-350v-849h-158v849h-348v-849h-157v849h-145v124h145v79q0 80 21.5 142.5t57.5 99.5t84 57.5t101.5 20.5t108.5 -16.5t106 -48.5l-48 -111q-39 23 -77.5 33.5t-74 5t-62.5 -26.5t-43.5 -64.5t-16.5 -105.5v-65h348v40q0 97 27.5 174.5t74 126.5t110 73.5
t134 20.5t148.5 -38.5t150 -97.5l-83 -103q-103 83 -196 93.5t-150 -55t-57 -194.5v-40h507v-973h-157z" />
    <glyph glyph-name="f_f_l.liga" unicode="ffl" horiz-adv-x="1531" 
d="M700 1019q0 152 59.5 252t156.5 135.5t223 13.5t258 -102v-1318h-157v1236q-112 48 -197 43.5t-135 -75t-50 -199.5v-32h233v-124h-233v-849h-158v849h-348v-849h-157v849h-145v124h145v79q0 80 21.5 142.5t57.5 99.5t84 57.5t101.5 20.5t108.5 -16.5t106 -48.5l-48 -111
q-39 23 -77.5 33.5t-74 5t-62.5 -26.5t-43.5 -64.5t-16.5 -105.5v-65h348v46z" />
    <glyph glyph-name="f_i.liga" unicode="fi" horiz-adv-x="993" 
d="M700 0v849h-348v-849h-157v849h-145v124h145v40q0 97 27.5 174.5t73.5 126.5t110 73.5t134 20.5t148 -38.5t150 -97.5l-83 -103q-103 83 -196 93.5t-150 -55t-57 -194.5v-40h506v-973h-158z" />
    <glyph glyph-name="f_l.liga" unicode="fl" horiz-adv-x="1025" 
d="M195 1019q0 122 38 211.5t105 136t154.5 59t190.5 -15.5t208 -92v-1318h-157v1236q-112 48 -197 43.5t-135 -75t-50 -199.5v-32h233v-124h-233v-849h-157v849h-145v124h145v46z" />
    <glyph glyph-name="uni05D005D005D0.liga" unicode="&#x5d0;&#x5d0;&#x5d0;" horiz-adv-x="2338" 
d="M2230 0h-186l-847 1054v7h186l479 -598q107 61 156 199t44 399h166q7 -307 -61 -469t-216 -237l279 -348v-7zM97 1054v7h186l847 -1054v-7h-186l-479 598q-109 -61 -158 -199t-42 -399h-166q-7 307 61.5 469t216.5 237zM647 1054v7h186l847 -1054v-7h-186z" />
    <glyph glyph-name=".notdef" horiz-adv-x="955" 
d="M845 1238q28 0 40 -12t12 -38v-1140q0 -26 -12 -37t-40 -11h-737q-26 0 -37 11t-11 37v1140q0 26 11.5 38t36.5 12h737zM180 184l239 435l-239 435v-870zM242 110h471l-235 410zM242 1128l236 -410l235 410h-471zM534 619l242 -433v868z" />
    <glyph glyph-name=".null" 
 />
    <glyph glyph-name="nonmarkingreturn" horiz-adv-x="682" 
 />
    <glyph glyph-name="space" unicode="&#xa0;" horiz-adv-x="530" 
 />
    <glyph glyph-name="space" unicode=" " horiz-adv-x="530" 
 />
    <glyph glyph-name="exclam" unicode="!" horiz-adv-x="542" 
d="M345 377h-149l-21 861h193zM150 111q0 52 35 88t87 36q50 0 86 -36t36 -88q0 -50 -36 -86t-86 -36q-51 0 -86.5 35.5t-35.5 86.5z" />
    <glyph glyph-name="quotedbl" unicode="&#x22;" horiz-adv-x="664" 
d="M175 1238h163l-135 -501h-127zM363 737l99 501h162l-136 -501h-125z" />
    <glyph glyph-name="numbersign" unicode="#" horiz-adv-x="1439" 
d="M401 0h-162l78 338h-273l30 132h273l72 321h-272l30 132h272l73 315h162l-72 -315h348l73 315h164l-72 -315h270l-30 -132h-270l-73 -321h271l-30 -132h-271l-78 -338h-164l78 338h-349zM509 470h349l72 321h-348z" />
    <glyph glyph-name="dollar" unicode="$" horiz-adv-x="1062" 
d="M481 1360h96v-140q141 -15 233 -85t134 -180l-132 -62q-67 158 -235 188v-389l5 -2q75 -20 126 -37.5t104 -46t84 -62.5t51 -84.5t20 -114.5q0 -80 -33 -143t-89.5 -101t-123.5 -59t-144 -26v-138h-96v138q-155 9 -266 86t-150 213l130 69q65 -206 286 -230v424
q-39 11 -60 17.5t-59 19.5t-60.5 23t-55 27t-52 33.5t-42.5 40t-35 49t-20.5 57.5t-8.5 68q0 79 32 139t88 96t124.5 54.5t148.5 21.5v136zM244 911q0 -75 58.5 -116.5t178.5 -76.5v370q-106 -3 -171.5 -45.5t-65.5 -131.5zM577 152q104 7 169.5 53t65.5 133q0 82 -57 129
t-178 85v-400z" />
    <glyph glyph-name="percent" unicode="%" horiz-adv-x="1460" 
d="M651 423l-306 -423h-158v9l324 426h140v-12zM78 883q0 167 85.5 267t230.5 100q144 0 229.5 -100.5t85.5 -266.5q0 -165 -85.5 -266t-229.5 -101q-145 0 -230.5 100.5t-85.5 266.5zM196 883q0 -119 53 -190.5t145 -71.5t144.5 71.5t52.5 190.5q0 122 -52.5 193.5
t-144.5 71.5t-145 -71.5t-53 -193.5zM753 354q0 167 86 267.5t231 100.5q144 0 229.5 -100.5t85.5 -267.5q0 -165 -85.5 -265.5t-229.5 -100.5q-145 0 -231 100.5t-86 265.5zM821 803v12l306 423h157v-9l-322 -426h-141zM872 354q0 -119 53 -190.5t145 -71.5t144 71.5
t52 190.5q0 122 -52 193.5t-144 71.5t-145 -71.5t-53 -193.5z" />
    <glyph glyph-name="ampersand" unicode="&#x26;" horiz-adv-x="1181" 
d="M890 895q-29 111 -92.5 164t-167.5 53q-56 0 -104 -20.5t-77.5 -56.5t-41 -81t5 -98t59.5 -103l377 -440q91 121 131 311l140 -46q-60 -239 -172 -378l161 -189v-11h-181l-84 97q-148 -113 -384 -113q-188 -1 -296.5 95.5t-108.5 233.5q0 130 64 228t189 188
q-52 76 -64 154t14 143.5t77 117.5t127.5 81t163.5 29q328 0 402 -317zM219 334q0 -90 70 -150t185 -60q156 0 274 86l-348 407q-181 -122 -181 -283z" />
    <glyph glyph-name="quotesingle" unicode="'" horiz-adv-x="383" 
d="M177 1238h166l-138 -501h-129z" />
    <glyph glyph-name="parenleft" unicode="(" horiz-adv-x="599" 
d="M527 1238q-92 -104 -162 -301.5t-70 -405.5t70 -406t162 -302h-136q-120 125 -188.5 310.5t-68.5 397.5t68.5 397t188.5 310h136z" />
    <glyph glyph-name="parenright" unicode=")" horiz-adv-x="599" 
d="M209 1238q120 -125 188 -309.5t68 -397.5t-68 -398t-188 -310h-136q92 103 161.5 301.5t69.5 406.5t-69.5 406t-161.5 301h136z" />
    <glyph glyph-name="asterisk" unicode="*" horiz-adv-x="956" 
d="M94 909l40 131l285 -101l-7 299h136l-7 -297l281 99l43 -131l-287 -85l181 -237l-110 -81l-170 247l-171 -247l-110 81l182 237z" />
    <glyph glyph-name="plus" unicode="+" horiz-adv-x="962" 
d="M122 600h290v291h138v-291h292v-138h-292v-292h-138v292h-290v138z" />
    <glyph glyph-name="comma" unicode="," horiz-adv-x="396" 
d="M140 249h164l-140 -490h-125z" />
    <glyph glyph-name="hyphen" unicode="-" horiz-adv-x="905" 
d="M122 462v138h663v-138h-663z" />
    <glyph glyph-name="period" unicode="." horiz-adv-x="422" 
d="M212 -11q-51 0 -86.5 35.5t-35.5 86.5q0 52 35 88t87 36q50 0 86 -36t36 -88q0 -50 -36 -86t-86 -36z" />
    <glyph glyph-name="slash" unicode="/" horiz-adv-x="802" 
d="M775 1238v-9l-586 -1229h-161v9l586 1229h161z" />
    <glyph glyph-name="zero" unicode="0" horiz-adv-x="1186" 
d="M594 -18q-232 0 -369 171.5t-137 465.5t137 465.5t369 171.5t368 -171.5t136 -465.5t-136 -465.5t-368 -171.5zM255 619q0 -224 91 -355t248 -131q155 0 246.5 131t91.5 355t-91.5 355t-246.5 131q-157 0 -248 -131t-91 -355z" />
    <glyph glyph-name="one" unicode="1" horiz-adv-x="716" 
d="M433 1238h105v-1238h-167v980l-233 -246l-97 103z" />
    <glyph glyph-name="two" unicode="2" horiz-adv-x="1025" 
d="M65 851q16 110 57.5 190t103 126t133 67.5t156.5 21.5q191 0 301.5 -97.5t110.5 -263.5q0 -114 -75.5 -232.5t-255.5 -305.5l-221 -216h568v-141h-872v27l353 378q197 201 265 298.5t68 193.5t-64 154t-180 58q-114 0 -190.5 -68.5t-94.5 -214.5z" />
    <glyph glyph-name="three" unicode="3" horiz-adv-x="1039" 
d="M157 287q57 -74 143.5 -118.5t192.5 -44.5q141 0 223 64.5t82 179.5q0 110 -82 165.5t-215 55.5h-179v136h159q110 0 177 52t67 141q0 93 -64.5 144.5t-182.5 51.5q-184 0 -299 -154l-103 87q61 97 167.5 153t246.5 56q187 0 294 -90.5t107 -235.5q0 -97 -46.5 -164.5
t-124.5 -100.5q106 -22 175 -104t69 -209q0 -166 -123.5 -268t-339.5 -102q-167 0 -286.5 64t-173.5 154z" />
    <glyph glyph-name="four" unicode="4" horiz-adv-x="1052" 
d="M663 0v235h-621v133l651 870h136v-861h156v-142h-156v-235h-166zM219 377h448v599h-2z" />
    <glyph glyph-name="five" unicode="5" horiz-adv-x="965" 
d="M874 393q0 -179 -128 -295t-322 -116q-199 0 -346 76l51 138q126 -67 278 -67q127 0 210 74t83 197q0 126 -83.5 203.5t-243.5 77.5q-105 0 -251 -32l-7 2l51 587h665v-141h-509l-30 -301q73 12 150 12q110 0 194.5 -32.5t135.5 -90.5t76.5 -131.5t25.5 -160.5z" />
    <glyph glyph-name="six" unicode="6" horiz-adv-x="1024" 
d="M64 393q0 94 31 173t100 177l362 495h196v-9l-346 -460q68 34 154 34q171 0 284.5 -114.5t113.5 -287.5q0 -181 -127.5 -300t-320.5 -119t-320 118t-127 293zM233 401q0 -117 79 -194.5t199 -77.5t199 77.5t79 194.5q0 118 -79 196.5t-199 78.5t-199 -78.5t-79 -196.5z
" />
    <glyph glyph-name="seven" unicode="7" horiz-adv-x="910" 
d="M868 1238v-19l-465 -1219h-175l419 1097h-592v141h813z" />
    <glyph glyph-name="eight" unicode="8" horiz-adv-x="1041" 
d="M522 -19q-200 0 -329 103.5t-129 262.5q0 109 62 193t171 130q-80 40 -125.5 108t-45.5 152q0 141 111.5 232.5t284.5 91.5q172 0 283 -91.5t111 -232.5q0 -84 -45.5 -152t-125.5 -108q109 -46 171 -130t62 -193q0 -159 -128.5 -262.5t-327.5 -103.5zM233 364
q0 -103 81.5 -170t207.5 -67q125 0 206.5 67t81.5 170q0 102 -82 169t-206 67q-126 0 -207.5 -67t-81.5 -169zM292 916q0 -83 65 -136t165 -53t164 53t64 136q0 87 -64.5 143.5t-163.5 56.5q-100 0 -165 -56.5t-65 -143.5z" />
    <glyph glyph-name="nine" unicode="9" horiz-adv-x="1036" 
d="M957 845q0 -94 -31 -173t-100 -177l-361 -495h-198v9l347 460q-68 -34 -152 -34q-172 0 -285 114.5t-113 287.5q0 181 126 300t319 119t320.5 -118t127.5 -293zM232 837q0 -118 78.5 -196.5t198.5 -78.5q122 0 201 78.5t79 196.5q0 117 -79.5 194.5t-200.5 77.5
q-119 0 -198 -77.5t-79 -194.5z" />
    <glyph glyph-name="colon" unicode=":" horiz-adv-x="493" 
d="M248 741q-51 0 -86.5 35.5t-35.5 86.5q0 52 35 88t87 36q50 0 86 -36t36 -88q0 -50 -36 -86t-86 -36zM126 111q0 52 35 88t87 36q50 0 86 -36t36 -88q0 -50 -36 -86t-86 -36q-51 0 -86.5 35.5t-35.5 86.5z" />
    <glyph glyph-name="semicolon" unicode=";" horiz-adv-x="514" 
d="M195 237h164l-140 -465h-125zM147 863q0 52 35 88t87 36q50 0 86 -36t36 -88q0 -50 -36 -86t-86 -36q-51 0 -86.5 35.5t-35.5 86.5z" />
    <glyph glyph-name="less" unicode="&#x3c;" horiz-adv-x="910" 
d="M120 463v135l653 316v-146l-502 -237l502 -236v-146z" />
    <glyph glyph-name="equal" unicode="=" horiz-adv-x="1013" 
d="M133 665v133h750v-133h-750zM133 264v132h750v-132h-750z" />
    <glyph glyph-name="greater" unicode="&#x3e;" horiz-adv-x="910" 
d="M791 463l-653 -314v146l502 236l-502 237v146l653 -316v-135z" />
    <glyph glyph-name="question" unicode="?" horiz-adv-x="1020" 
d="M401 363q-2 67 16.5 121t49.5 89.5t69.5 66t77 58t71 56.5t52.5 71t20 93q0 95 -62.5 146.5t-174.5 51.5q-116 0 -193.5 -64.5t-107.5 -191.5l-146 35q33 175 155.5 270t309.5 92q182 -3 282.5 -85.5t100.5 -235.5q0 -66 -20.5 -120.5t-53.5 -91.5t-73 -69.5t-79.5 -62
t-72 -60.5t-52 -74t-18.5 -95h-151zM368 101q0 48 31.5 80.5t78.5 32.5t79 -32.5t32 -80.5q0 -45 -32.5 -77.5t-78.5 -32.5t-78 32.5t-32 77.5z" />
    <glyph glyph-name="at" unicode="@" horiz-adv-x="1699" 
d="M85 493q0 158 59.5 299.5t161.5 243.5t243.5 161.5t299.5 59.5t300 -59.5t244 -161t162 -243t60 -298.5q0 -237 -75.5 -362.5t-228.5 -125.5q-96 0 -150 55.5t-70 139.5q-42 -54 -111.5 -84t-157.5 -30q-140 0 -229 75t-89 192q0 118 89 193t229 75q143 0 237 -84v2
q0 120 -59.5 179.5t-170.5 59.5q-138 0 -251 -76l-44 90q56 39 138.5 66.5t176.5 27.5q163 0 249.5 -84.5t86.5 -257.5v-180q0 -235 129 -235q84 0 125 88t41 276q0 172 -84 317.5t-229.5 230t-317.5 84.5t-317 -84.5t-229 -230.5t-84 -319q0 -139 56.5 -263t153 -211.5
t236 -130t294.5 -21.5l19 -129q-156 -18 -296.5 12.5t-248 100t-187 168t-120.5 220.5t-41 254zM630 357q0 -78 60 -124.5t157 -46.5q98 0 157.5 47t58.5 124q0 77 -60 124.5t-156 47.5q-97 0 -157 -47t-60 -125z" />
    <glyph glyph-name="A" unicode="A" horiz-adv-x="1188" 
d="M1190 0h-171l-119 283h-612l-118 -283h-172v11l534 1227h124l534 -1227v-11zM345 416h499l-250 596z" />
    <glyph glyph-name="B" unicode="B" horiz-adv-x="1197" 
d="M907 909q0 89 -57 142t-157 53h-371v-388h371q103 0 158.5 51.5t55.5 141.5zM161 0v1238h555q159 0 253 -87t94 -235q0 -92 -41 -158t-111 -98q95 -32 149 -113.5t54 -196.5q0 -163 -103.5 -256.5t-280.5 -93.5h-569zM322 134h387q115 0 181.5 62t66.5 168t-65.5 167
t-182.5 61h-387v-458z" />
    <glyph glyph-name="C" unicode="C" horiz-adv-x="1213" 
d="M716 129q101 0 194 38t139 95l101 -106q-66 -83 -183 -129t-260 -46q-131 0 -246 49t-197 133.5t-129.5 203t-47.5 252.5t47.5 252.5t129.5 203t197 133.5t246 49q143 0 260 -46t183 -129l-101 -106q-46 57 -139 95t-194 38q-200 0 -334 -140t-134 -350t134 -350
t334 -140z" />
    <glyph glyph-name="D" unicode="D" horiz-adv-x="1299" 
d="M561 1238q311 0 481.5 -162t170.5 -457t-170.5 -457t-481.5 -162h-400v1238h400zM327 141h241q228 0 353.5 125t125.5 353t-125.5 353t-353.5 125h-241v-956z" />
    <glyph glyph-name="E" unicode="E" horiz-adv-x="1112" 
d="M1013 1097h-686v-390h605v-136h-605v-430h686v-141h-852v1238h852v-141z" />
    <glyph glyph-name="F" unicode="F" horiz-adv-x="1043" 
d="M962 1097h-635v-404h561v-136h-561v-557h-166v1238h801v-141z" />
    <glyph glyph-name="G" unicode="G" horiz-adv-x="1407" 
d="M1316 702q22 -209 -46.5 -374t-211.5 -256t-336 -91q-183 0 -328 81.5t-226 227.5t-81 329q0 278 178.5 457.5t456.5 179.5q146 0 275 -61.5t206 -161.5l-110 -97q-62 77 -161 124t-209 47q-206 0 -336.5 -136.5t-130.5 -351.5t130.5 -350t336.5 -135q194 0 317.5 121.5
t123.5 315.5h-411v131h563z" />
    <glyph glyph-name="H" unicode="H" horiz-adv-x="1329" 
d="M161 1238h166v-522h676v522h166v-1238h-166v575h-676v-575h-166v1238z" />
    <glyph glyph-name="I" unicode="I" horiz-adv-x="488" 
d="M161 1238h166v-1238h-166v1238z" />
    <glyph glyph-name="J" unicode="J" horiz-adv-x="917" 
d="M157 320q17 -88 78 -138.5t152 -50.5q101 0 158.5 62.5t57.5 174.5v870h166v-870q0 -182 -98.5 -284t-276.5 -102q-149 0 -249 72t-136 210z" />
    <glyph glyph-name="K" unicode="K" horiz-adv-x="1130" 
d="M161 1238h166v-536l552 536h203v-7l-610 -584l632 -640v-7h-204l-573 585v-585h-166v1238z" />
    <glyph glyph-name="L" unicode="L" horiz-adv-x="1015" 
d="M327 141h628v-141h-794v1238h166v-1097z" />
    <glyph glyph-name="M" unicode="M" horiz-adv-x="1616" 
d="M1311 1238h145v-1238h-161v944l-466 -643h-44l-463 643v-944h-161v1238h145l502 -706z" />
    <glyph glyph-name="N" unicode="N" horiz-adv-x="1368" 
d="M1208 0h-120l-764 943v-943h-163v1238h120l764 -943v943h163v-1238z" />
    <glyph glyph-name="O" unicode="O" horiz-adv-x="1436" 
d="M718 -19q-134 0 -251.5 48.5t-200.5 132.5t-131 202.5t-48 254.5t48 254.5t131 202.5t200.5 132.5t251.5 48.5t251.5 -48.5t200.5 -132.5t131 -202.5t48 -254.5t-48 -254.5t-131 -202.5t-200.5 -132.5t-251.5 -48.5zM253 619q0 -209 131.5 -346t333.5 -137t333.5 137
t131.5 346t-131.5 346t-333.5 137t-333.5 -137t-131.5 -346z" />
    <glyph glyph-name="P" unicode="P" horiz-adv-x="1151" 
d="M640 1238q199 0 312 -111t113 -298q0 -192 -112 -300t-313 -108h-313v-421h-166v1238h479zM327 562h292q133 0 206 71t73 196q0 121 -74 194.5t-205 73.5h-292v-535z" />
    <glyph glyph-name="Q" unicode="Q" horiz-adv-x="1443" 
d="M623 573h191l258 -278q111 130 111 324q0 209 -131.5 346t-333.5 137t-333.5 -137t-131.5 -346t131.5 -346t333.5 -137q134 0 242 66l-337 362v9zM87 619q0 136 48 254.5t131 202.5t200.5 132.5t251.5 48.5t251.5 -48.5t200.5 -132.5t131 -202.5t48 -254.5
q0 -130 -44.5 -242.5t-126.5 -194.5l161 -173v-9h-191l-83 88q-147 -100 -354 -100q-175 0 -317.5 80.5t-224.5 225t-82 325.5z" />
    <glyph glyph-name="R" unicode="R" horiz-adv-x="1172" 
d="M921 0l-261 485h-333v-485h-166v1238h527q185 0 293 -102t108 -275q0 -137 -70 -231t-197 -129l275 -490v-11h-176zM327 626h342q116 0 185 64.5t69 170.5t-69 171t-185 65h-342v-471z" />
    <glyph glyph-name="S" unicode="S" horiz-adv-x="1112" 
d="M852 909q-39 97 -122.5 151t-207.5 54q-119 0 -193 -45t-74 -142q0 -40 17.5 -72t47 -54t74.5 -40.5t94 -33.5t113 -32q2 0 3 -0.5t3 -1t3 -0.5q79 -21 133 -39.5t110 -48.5t89 -65.5t54 -89t21 -121.5q0 -74 -27 -134t-72 -99t-105.5 -65.5t-125 -38t-133.5 -11.5
q-182 0 -313.5 81.5t-175.5 236.5l137 72q41 -126 136 -186.5t224 -60.5q59 0 109.5 11t92 34t65 62t23.5 91q0 42 -15 75.5t-39.5 57t-68 45t-87 36t-110.5 33.5q-173 47 -247 83q-195 95 -195 276q0 70 24 126t65 93.5t98 62.5t119.5 36t132.5 11q180 0 297 -76.5
t168 -206.5z" />
    <glyph glyph-name="T" unicode="T" horiz-adv-x="1115" 
d="M65 1238h987v-141h-410v-1097h-166v1097h-411v141z" />
    <glyph glyph-name="U" unicode="U" horiz-adv-x="1342" 
d="M1029 1238h167v-739q0 -240 -140 -379t-384 -139t-382.5 138.5t-140.5 379.5l-2 739h166v-729q0 -175 95.5 -275t263.5 -100q167 0 262 100t95 275v729z" />
    <glyph glyph-name="V" unicode="V" horiz-adv-x="1207" 
d="M543 0l-506 1227v11h179l389 -959l387 959h181v-11l-508 -1227h-122z" />
    <glyph glyph-name="W" unicode="W" horiz-adv-x="1814" 
d="M1777 1238v-12l-422 -1226h-115l-333 959l-332 -959h-115l-423 1226v12h177l311 -932l315 932h134l315 -932l312 932h176z" />
    <glyph glyph-name="X" unicode="X" horiz-adv-x="1209" 
d="M1181 0h-191l-385 525l-387 -525h-190l2 7l467 631l-440 593v7h189l359 -485l357 485h191v-7l-440 -593l468 -631v-7z" />
    <glyph glyph-name="Y" unicode="Y" horiz-adv-x="1105" 
d="M898 1238h184v-9l-449 -725v-504h-166v504l-446 725v9h186l343 -573z" />
    <glyph glyph-name="Z" unicode="Z" horiz-adv-x="1110" 
d="M1028 1238v-14l-713 -1083h713v-141h-966v14l713 1083h-674v141h927z" />
    <glyph glyph-name="bracketleft" unicode="[" horiz-adv-x="675" 
d="M601 1344v-127h-276v-1373h276v-127h-431v1627h431z" />
    <glyph glyph-name="backslash" unicode="\" horiz-adv-x="802" 
d="M28 1238h161l586 -1229v-9h-161l-586 1229v9z" />
    <glyph glyph-name="bracketright" unicode="]" horiz-adv-x="675" 
d="M74 1344h432v-1627h-432v127h276v1373h-276v127z" />
    <glyph glyph-name="asciicircum" unicode="^" horiz-adv-x="1085" 
d="M545 1270l451 -508l-108 -101l-347 416l-343 -416l-108 99l448 510h7z" />
    <glyph glyph-name="underscore" unicode="_" horiz-adv-x="758" 
d="M44 -103h672v-141h-672v141z" />
    <glyph glyph-name="grave" unicode="`" horiz-adv-x="868" 
d="M393 1266l143 -205h-136l-195 205h188z" />
    <glyph glyph-name="a" unicode="a" horiz-adv-x="1048" 
d="M778 0v99q-109 -117 -302 -117q-178 0 -290.5 94.5t-112.5 243.5t112.5 243.5t290.5 94.5q193 0 302 -117v18q0 152 -76 229t-217 77q-90 0 -175 -28.5t-146 -70.5l-53 108q70 49 174 83.5t224 34.5q205 0 317.5 -107.5t112.5 -325.5v-559h-161zM230 322
q0 -100 77.5 -163t200.5 -63t200 63t77 163t-77 163t-200 63t-200.5 -63t-77.5 -163z" />
    <glyph glyph-name="b" unicode="b" horiz-adv-x="1183" 
d="M661 -14q-122 0 -217.5 55.5t-151.5 156.5v-198h-158v1326h158v-551q56 101 151.5 156.5t217.5 55.5q194 0 322 -143t128 -358q0 -214 -128 -357t-322 -143zM292 486q0 -157 96.5 -260.5t241.5 -103.5q141 0 233 103.5t92 260.5t-92 261t-233 104q-145 0 -241.5 -104
t-96.5 -261z" />
    <glyph glyph-name="c" unicode="c" horiz-adv-x="1052" 
d="M73 486q0 221 136.5 362.5t351.5 141.5q141 0 253.5 -72t165.5 -188l-126 -63q-45 84 -120.5 134t-172.5 50q-148 0 -243 -103t-95 -262t95 -261.5t243 -102.5q99 0 175.5 51t117.5 135l126 -66q-53 -116 -165.5 -188t-253.5 -72q-215 0 -351.5 141.5t-136.5 362.5z" />
    <glyph glyph-name="d" unicode="d" horiz-adv-x="1183" 
d="M522 -14q-194 0 -321.5 142.5t-127.5 357.5t127.5 358t321.5 143q122 0 217.5 -55.5t151.5 -156.5v551h158v-1326h-158v198q-56 -101 -151.5 -156.5t-217.5 -55.5zM228 486q0 -157 92.5 -260.5t233.5 -103.5q145 0 241 103.5t96 260.5t-96 261t-241 104
q-141 0 -233.5 -104t-92.5 -261z" />
    <glyph glyph-name="e" unicode="e" horiz-adv-x="1103" 
d="M73 486q0 216 136.5 359.5t345.5 143.5q95 0 177.5 -31.5t140 -86.5t96.5 -126.5t54 -154t5 -167.5h-805q19 -135 109.5 -218t222.5 -83q172 0 269 140l120 -83q-142 -195 -389 -195q-208 0 -345 143.5t-137 358.5zM221 541h662q-13 129 -98.5 218.5t-229.5 89.5
q-134 0 -226 -85.5t-108 -222.5z" />
    <glyph glyph-name="f" unicode="f" horiz-adv-x="641" 
d="M50 849v124h145v72q0 83 23 146.5t63.5 101t91 56t110.5 18.5q112 0 256 -81l-58 -105q-106 50 -166 50q-74 0 -118.5 -51.5t-44.5 -162.5v-44h253v-124h-253v-849h-157v849h-145z" />
    <glyph glyph-name="g" unicode="g" horiz-adv-x="1029" 
d="M492 265q-110 0 -197 41q-56 -45 -56 -101q0 -48 41.5 -71t129.5 -23h228q168 0 256 -62t88 -199q0 -143 -113.5 -219.5t-325.5 -76.5q-316 0 -520 117l64 124q175 -99 456 -99q283 0 283 150q0 74 -51 101.5t-161 27.5h-234q-148 0 -226 51.5t-78 146.5q0 116 119 200
q-107 102 -107 251q0 159 112.5 262.5t284.5 103.5q162 0 274 -95q74 92 263 92v-142q-117 0 -191 -39q48 -82 48 -182q0 -157 -109 -258t-278 -101zM241 624q0 -98 70.5 -161t180.5 -63q102 0 168.5 63t66.5 161q0 101 -68.5 166.5t-173.5 65.5q-106 0 -175 -65.5
t-69 -166.5z" />
    <glyph glyph-name="h" unicode="h" horiz-adv-x="1124" 
d="M134 0v1326h158v-535q52 92 141 142t205 50q178 0 277.5 -120t99.5 -332v-531h-157v531q0 146 -76 233.5t-204 87.5q-129 0 -207.5 -87.5t-78.5 -233.5v-531h-158z" />
    <glyph glyph-name="i" unicode="i" horiz-adv-x="426" 
d="M134 0v973h158v-973h-158zM106 1234q0 44 31.5 75.5t74.5 31.5q45 0 76.5 -31.5t31.5 -75.5q0 -45 -31.5 -76t-76.5 -31q-44 0 -75 31t-31 76z" />
    <glyph glyph-name="j" unicode="j" horiz-adv-x="419" 
d="M207 1127q-45 0 -76.5 31t-31.5 76q0 44 31.5 74.5t76.5 30.5t75.5 -30.5t30.5 -74.5q0 -45 -30.5 -76t-75.5 -31zM-207 -380l57 115q78 -36 136 -36q71 0 107 49t36 171v1054h158v-1079q0 -179 -72.5 -260t-198.5 -81q-105 0 -223 67z" />
    <glyph glyph-name="k" unicode="k" horiz-adv-x="923" 
d="M134 0v1326h158v-751l419 398h193v-6l-464 -431l478 -531v-5h-186l-440 493v-493h-158z" />
    <glyph glyph-name="l" unicode="l" horiz-adv-x="426" 
d="M134 0v1326h158v-1326h-158z" />
    <glyph glyph-name="m" unicode="m" horiz-adv-x="1673" 
d="M134 0v973h158v-145q94 161 292 161q111 0 189.5 -55.5t110.5 -151.5q42 98 126.5 152.5t200.5 54.5q154 0 250.5 -101.5t96.5 -273.5v-614h-157v594q0 117 -66.5 190.5t-170.5 73.5q-105 0 -172 -73.5t-67 -190.5v-594h-157v594q0 117 -66.5 190.5t-170.5 73.5
q-105 0 -172 -73.5t-67 -190.5v-594h-158z" />
    <glyph glyph-name="n" unicode="n" horiz-adv-x="1124" 
d="M134 0v973h158v-177q51 92 138.5 142.5t202.5 50.5q180 0 280.5 -117.5t99.5 -326.5v-545h-157l2 536q0 145 -77 232.5t-203 87.5q-130 0 -208 -87.5t-78 -232.5v-536h-158z" />
    <glyph glyph-name="o" unicode="o" horiz-adv-x="1126" 
d="M562 -21q-214 0 -351.5 142.5t-137.5 364.5q0 223 137.5 365.5t351.5 142.5q215 0 353.5 -142.5t138.5 -365.5t-138.5 -365t-353.5 -142zM225 486q0 -159 95.5 -262.5t241.5 -103.5q147 0 243.5 103.5t96.5 262.5t-96.5 262.5t-243.5 103.5q-146 0 -241.5 -103.5
t-95.5 -262.5z" />
    <glyph glyph-name="p" unicode="p" horiz-adv-x="1183" 
d="M661 -14q-122 0 -217.5 55.5t-151.5 156.5v-552h-158v1327h158v-198q56 101 151.5 156.5t217.5 55.5q194 0 322 -143t128 -358q0 -214 -128 -357t-322 -143zM292 486q0 -157 96.5 -260.5t241.5 -103.5q141 0 233 103.5t92 260.5t-92 261t-233 104q-145 0 -241.5 -104
t-96.5 -261z" />
    <glyph glyph-name="q" unicode="q" horiz-adv-x="1183" 
d="M522 -14q-194 0 -321.5 142.5t-127.5 357.5t127.5 358t321.5 143q123 0 219 -56.5t152 -159.5v202h156v-1327h-156v556q-56 -103 -152 -159.5t-219 -56.5zM230 486q0 -157 92 -260.5t232 -103.5q146 0 242.5 103.5t96.5 260.5t-96.5 261t-242.5 104q-140 0 -232 -104
t-92 -261z" />
    <glyph glyph-name="r" unicode="r" horiz-adv-x="739" 
d="M134 0v973h135l12 -262h4q32 120 142.5 197t253.5 72v-151q-58 3 -114 -10.5t-105.5 -45t-87 -77.5t-59 -111.5t-21.5 -142.5v-442h-160z" />
    <glyph glyph-name="s" unicode="s" horiz-adv-x="916" 
d="M699 713q-27 70 -93.5 112t-161.5 42q-92 0 -150.5 -35.5t-58.5 -104.5q0 -31 15 -55.5t36 -41t61 -31.5t72 -23.5t87 -21.5q64 -16 110.5 -31.5t92 -40.5t74 -55t45.5 -73.5t17 -97.5q0 -93 -58.5 -157.5t-143 -92t-183.5 -27.5q-155 0 -263.5 62.5t-143.5 184.5l129 62
q31 -93 106.5 -136.5t173.5 -43.5q97 0 162.5 38t65.5 114q0 30 -12 54t-30.5 40.5t-51.5 31t-64 23.5t-79 21q-42 10 -68.5 17.5t-70 22t-71.5 28.5t-61.5 37t-53.5 48t-34 60t-14 75q1 90 54.5 154.5t134.5 93t178 28.5q146 0 244.5 -61.5t137.5 -164.5z" />
    <glyph glyph-name="t" unicode="t" horiz-adv-x="664" 
d="M51 973h136v214l158 32v-246h240v-124h-240v-508q0 -108 40.5 -156.5t139.5 -48.5h87v-136h-140q-148 0 -216.5 73.5t-68.5 216.5v559h-136v124z" />
    <glyph glyph-name="u" unicode="u" horiz-adv-x="1091" 
d="M812 973h157l-2 -579q0 -182 -116 -295t-305 -113q-191 0 -307.5 113t-116.5 295v579h157v-573q0 -123 73.5 -199.5t193.5 -76.5q119 0 192.5 76.5t73.5 199.5v573z" />
    <glyph glyph-name="v" unicode="v" horiz-adv-x="949" 
d="M757 973h164v-7l-382 -966h-129l-380 966v7h163l283 -740z" />
    <glyph glyph-name="w" unicode="w" horiz-adv-x="1460" 
d="M1265 973h162v-7l-353 -966h-94l-250 699l-249 -699h-94l-353 966v7h162l251 -711l246 711h75l245 -711z" />
    <glyph glyph-name="x" unicode="x" horiz-adv-x="956" 
d="M953 0h-178l-296 391l-297 -391h-177v5l373 499l-343 463v6h179l265 -366l266 366h176v-6l-343 -463l375 -499v-5z" />
    <glyph glyph-name="y" unicode="y" horiz-adv-x="919" 
d="M34 973h168l268 -743l259 743h162v-7l-387 -1092q-50 -140 -111.5 -208t-142.5 -78.5t-190 19.5l34 129q107 -23 164 9t99 151l39 115l-362 955v7z" />
    <glyph glyph-name="z" unicode="z" horiz-adv-x="889" 
d="M828 973v-14l-547 -826h552v-133h-780v14l547 826h-527v133h755z" />
    <glyph glyph-name="braceleft" unicode="{" horiz-adv-x="705" 
d="M386 179q0 -183 60.5 -260.5t199.5 -84.5l-13 -119q-209 -3 -311.5 108t-102.5 356v139q0 76 -38 110.5t-133 43.5v117q94 9 132.5 45.5t38.5 110.5v162q0 237 101.5 338.5t312.5 98.5l13 -118q-141 -7 -200.5 -74.5t-59.5 -240.5v-189q0 -163 -140 -191
q140 -30 140 -190v-162z" />
    <glyph glyph-name="bar" unicode="|" horiz-adv-x="479" 
d="M161 1326h157v-1680h-157v1680z" />
    <glyph glyph-name="braceright" unicode="}" horiz-adv-x="705" 
d="M320 341q0 160 140 190q-140 28 -140 191v189q0 173 -59.5 240.5t-200.5 74.5l13 118q211 3 312 -98.5t101 -338.5v-162q0 -74 39 -110.5t133 -45.5v-117q-95 -9 -133.5 -43.5t-38.5 -110.5v-139q0 -245 -102 -356t-311 -108l-13 119q139 7 199.5 84.5t60.5 260.5v162z
" />
    <glyph glyph-name="asciitilde" unicode="~" horiz-adv-x="795" 
d="M674 479q-66 -69 -152 -69q-39 0 -73.5 18t-55.5 39.5t-52.5 39.5t-66.5 18q-79 0 -152 -76v142q67 70 152 70q39 0 73.5 -18t55.5 -39.5t52.5 -39.5t66.5 -18q85 0 152 77v-144z" />
    <glyph glyph-name="exclamdown" unicode="&#xa1;" horiz-adv-x="542" 
d="M198 598h149l21 -862h-193zM149 863q0 50 36 86t86 36q51 0 86.5 -35.5t35.5 -86.5q0 -52 -35 -88t-87 -36q-50 0 -86 36t-36 88z" />
    <glyph glyph-name="cent" unicode="&#xa2;" horiz-adv-x="1046" 
d="M518 1238h108v-161q106 -17 189.5 -79.5t125.5 -152.5l-115 -58q-42 76 -112 122t-159 46q-135 0 -222 -94t-87 -240t87 -240t222 -94q91 0 161.5 46.5t109.5 124.5l115 -60q-42 -91 -125.5 -154t-189.5 -80v-164h-108v161q-182 12 -296 139.5t-114 320.5t114 320.5
t296 139.5v157z" />
    <glyph glyph-name="sterling" unicode="&#xa3;" horiz-adv-x="1161" 
d="M635 1102q-140 0 -207.5 -96t-40.5 -270l16 -96h304v-124h-284q23 -240 -103 -366q89 19 288 -7q72 -10 124.5 -11.5t99 7.5t83.5 23t90 40l67 -128q-122 -64 -226 -80t-269 6q-136 22 -239 20.5t-195 -31.5l-39 147q15 9 27 17.5t29.5 23.5t29.5 30t27.5 38.5t22.5 49
t16 60.5t7 73t-5 88h-171v124h152l-16 96q-36 237 73.5 369.5t338.5 132.5q180 0 281 -85.5t136 -224.5l-155 -45q-22 97 -88.5 158t-173.5 61z" />
    <glyph glyph-name="currency" unicode="&#xa4;" horiz-adv-x="1075" 
d="M900 1081l101 -103l-154 -154q62 -92 62 -205t-62 -205l154 -154l-101 -103l-154 154q-89 -63 -208 -63q-118 0 -207 63l-154 -154l-103 103l154 154q-60 94 -60 205t60 205l-154 154l103 103l154 -154q89 63 207 63q119 0 208 -63zM288 619q0 -105 72.5 -178t177.5 -73
t178 73t73 178t-73 178t-178 73t-177.5 -73t-72.5 -178z" />
    <glyph glyph-name="yen" unicode="&#xa5;" horiz-adv-x="1147" 
d="M191 463v117h251l-400 649v9h186l343 -573l349 573h184v-9l-402 -649h267v-117h-315v-115h315v-116h-315v-232h-166v232h-297v116h297v115h-297z" />
    <glyph glyph-name="brokenbar" unicode="&#xa6;" horiz-adv-x="479" 
d="M161 690v636h157v-636h-157zM161 -354v637h157v-637h-157z" />
    <glyph glyph-name="section" unicode="&#xa7;" horiz-adv-x="1052" 
d="M143 21l124 37q53 -205 244 -205q52 0 92.5 20.5t59 54.5t20 73.5t-23.5 82.5t-72 77l-316 232q-85 61 -136 133t-64 147t30.5 150.5t144.5 135.5q-28 67 -15 133.5t49.5 119t101 85.5t140.5 33q322 0 389 -295l-126 -38q-53 207 -244 207q-65 0 -110 -31.5t-58 -77.5
t10 -100.5t82 -97.5l318 -232q84 -62 135 -133.5t63.5 -147t-31 -150.5t-144.5 -135q28 -67 15.5 -133.5t-49 -119t-100.5 -85.5t-140 -33q-326 0 -389 293zM309 858q-231 -168 78 -393l297 -214q36 -25 59 -51q231 168 -78 392l-297 214q-33 23 -59 52z" />
    <glyph glyph-name="dieresis" unicode="&#xa8;" horiz-adv-x="838" 
d="M285 1066q-31 0 -53 22t-22 53t22 52.5t53 21.5t52.5 -21.5t21.5 -52.5q0 -32 -21.5 -53.5t-52.5 -21.5zM446 1141q0 31 21.5 52.5t52.5 21.5t52.5 -21.5t21.5 -52.5t-21.5 -53t-52.5 -22t-52.5 21.5t-21.5 53.5z" />
    <glyph glyph-name="copyright" unicode="&#xa9;" horiz-adv-x="1423" 
d="M987 458q-31 -72 -105.5 -115.5t-163.5 -43.5q-138 1 -223.5 89.5t-85.5 228.5q0 138 85.5 227t223.5 90q88 2 163 -42.5t106 -118.5l-92 -55q-22 48 -71 77t-106 29q-89 0 -144.5 -58t-55.5 -152q0 -93 55.5 -151t144.5 -58q58 0 107 28.5t70 75.5zM85 617q0 174 83 318
t226.5 226t316.5 82q130 0 246.5 -48.5t200 -131.5t132.5 -199.5t49 -246.5t-49 -246.5t-132.5 -199.5t-200 -131.5t-246.5 -48.5q-173 0 -316.5 82t-226.5 226t-83 318zM200 617q0 -141 68 -259.5t185.5 -186.5t257.5 -68q106 0 201.5 40t163.5 109t108 164t40 201
q0 141 -67.5 259.5t-185.5 187t-260 68.5q-140 0 -257.5 -68.5t-185.5 -187t-68 -259.5z" />
    <glyph glyph-name="ordfeminine" unicode="&#xaa;" horiz-adv-x="751" 
d="M71 407h613v-78h-613v78zM42 755q0 110 84 180t215 70q143 0 225 -85v12q0 112 -56.5 169t-161.5 57q-133 0 -237 -74l-38 81q53 36 129.5 61.5t163.5 25.5q152 0 235 -79.5t83 -240.5v-414h-118v73q-82 -85 -225 -85q-132 0 -215.5 69.5t-83.5 179.5zM159 757
q0 -74 57.5 -121t147.5 -47q91 0 149 47t58 121q0 73 -58 119.5t-149 46.5q-90 0 -147.5 -46.5t-57.5 -119.5z" />
    <glyph glyph-name="guillemotleft" unicode="&#xab;" horiz-adv-x="992" 
d="M410 492l430 343l60 -62l-274 -287l274 -286l-60 -62l-430 345v9zM37 483v9l430 343l60 -62l-274 -287l274 -286l-60 -62z" />
    <glyph glyph-name="logicalnot" unicode="&#xac;" horiz-adv-x="932" 
d="M122 462v138h690v-391h-152v253h-538z" />
    <glyph glyph-name="uni00AD" unicode="&#xad;" horiz-adv-x="905" 
d="M122 462v138h663v-138h-663z" />
    <glyph glyph-name="registered" unicode="&#xae;" horiz-adv-x="930" 
d="M493 1056q59 0 93.5 -29.5t34.5 -80.5q0 -45 -23.5 -74t-65.5 -37l80 -152h-62l-74 148h-71v-148h-64v373h152zM85 863q0 161 110 270.5t270 109.5t270 -109.5t110 -270.5q0 -159 -110.5 -268.5t-269.5 -109.5t-269.5 109.5t-110.5 268.5zM159 863q0 -129 88.5 -218.5
t217.5 -89.5t217.5 89.5t88.5 218.5q0 130 -88.5 220t-217.5 90t-217.5 -90.5t-88.5 -219.5zM405 881h81q34 0 53.5 17t19.5 46q0 59 -73 59h-81v-122z" />
    <glyph glyph-name="macron" unicode="&#xaf;" horiz-adv-x="795" 
d="M210 1084v99h352v-99h-352z" />
    <glyph glyph-name="degree" unicode="&#xb0;" horiz-adv-x="650" 
d="M325 748q-106 0 -177.5 73t-71.5 180q0 105 71.5 177t177.5 72t178 -72t72 -177q0 -107 -72 -180t-178 -73zM191 1001q0 -59 38.5 -98.5t95.5 -39.5t96 40t39 98q0 56 -39 95t-96 39t-95.5 -39t-38.5 -95z" />
    <glyph glyph-name="plusminus" unicode="&#xb1;" horiz-adv-x="909" 
d="M120 163v131h672v-131h-672zM120 672v129h271v273h131v-273h272v-129h-272v-274h-131v274h-271z" />
    <glyph glyph-name="uni00B2" unicode="&#xb2;" horiz-adv-x="673" 
d="M41 1001q17 126 95 185t202 59t197 -59.5t73 -154.5q0 -72 -47.5 -142t-171.5 -173l-113 -92h348v-97h-576v19l224 206q95 84 133.5 122t61.5 75.5t23 76.5q0 54 -40.5 86t-111.5 32q-159 0 -184 -164z" />
    <glyph glyph-name="uni00B3" unicode="&#xb3;" horiz-adv-x="663" 
d="M106 702q71 -88 221 -88q82 0 129.5 34.5t47.5 96.5q0 115 -193 115h-92v83h71q79 0 127 27t48 75q0 103 -154 103q-130 0 -196 -90l-71 58q85 131 267 131q129 0 199 -51.5t70 -136.5q0 -105 -115 -153q65 -15 108.5 -61t43.5 -116q0 -97 -77.5 -155t-219.5 -58
q-107 0 -184.5 37.5t-110.5 88.5z" />
    <glyph glyph-name="acute" unicode="&#xb4;" horiz-adv-x="859" 
d="M419 1266h188l-195 -205h-136z" />
    <glyph glyph-name="uni00B5" unicode="&#xb5;" horiz-adv-x="1236" 
d="M1015 136h166v-136h-265v110q-101 -121 -278 -121q-116 0 -205 50.5t-141 142.5v-536h-158v1327h158v-531q0 -146 78.5 -234t207.5 -88q127 0 203.5 88t76.5 234v531h157v-837z" />
    <glyph glyph-name="paragraph" unicode="&#xb6;" horiz-adv-x="1061" 
d="M414 628q-152 4 -245 88t-93 218q0 136 93 220t245 84h486v-1240h-141v1111h-204v-1111h-141v630z" />
    <glyph glyph-name="periodcentered" unicode="&#xb7;" horiz-adv-x="486" 
d="M244 419q-51 0 -86.5 35.5t-35.5 86.5q0 52 35 88t87 36q50 0 86 -36t36 -88q0 -50 -36 -86t-86 -36z" />
    <glyph glyph-name="cedilla" unicode="&#xb8;" horiz-adv-x="769" 
d="M352 19h88v-10l-39 -112q56 -11 80.5 -41t24.5 -66q0 -54 -40 -89t-112 -35q-92 0 -181 55l32 61q84 -46 140 -46q65 0 65 57q0 28 -22.5 46t-79.5 28z" />
    <glyph glyph-name="uni00B9" unicode="&#xb9;" horiz-adv-x="512" 
d="M288 1236h80v-610h143v-97h-447v97h185v442l-150 -152l-67 71z" />
    <glyph glyph-name="ordmasculine" unicode="&#xba;" horiz-adv-x="811" 
d="M92 407h630v-78h-630v78zM42 879q0 164 102.5 269.5t260.5 105.5q159 0 261.5 -105.5t102.5 -269.5q0 -165 -102.5 -271t-261.5 -106q-158 0 -260.5 106t-102.5 271zM156 879q0 -118 71 -195t178 -77q110 0 180.5 77t70.5 195q0 117 -70.5 194t-180.5 77q-107 0 -178 -77
t-71 -194z" />
    <glyph glyph-name="guillemotright" unicode="&#xbb;" horiz-adv-x="992" 
d="M582 492v-9l-430 -345l-60 62l274 286l-274 287l60 62zM465 200l274 286l-274 287l60 62l430 -343v-9l-430 -345z" />
    <glyph glyph-name="onequarter" unicode="&#xbc;" horiz-adv-x="1356" 
d="M410 1236h80v-610h143v-97h-447v97h185v442l-150 -152l-67 71zM126 -4v9l306 388h139v-13l-292 -384h-153zM665 122v88l419 494h101v-488h92v-94h-92v-126h-113v126h-407zM776 838v13l290 383h156v-8l-306 -388h-140zM789 216h286v341h-1z" />
    <glyph glyph-name="onehalf" unicode="&#xbd;" horiz-adv-x="1386" 
d="M396 1238h80v-610h143v-97h-447v97h185v442l-150 -152l-67 71zM129 0v9l306 387h140v-12l-292 -384h-154zM741 474q17 126 95 185t202 59t197.5 -59.5t73.5 -154.5q0 -72 -48 -142t-172 -173l-113 -92h349v-97h-577v19l225 206q134 119 175.5 169t41.5 105q0 54 -40.5 86
t-111.5 32q-159 0 -184 -164zM780 842v12l290 384h156v-9l-306 -387h-140z" />
    <glyph glyph-name="threequarters" unicode="&#xbe;" horiz-adv-x="1451" 
d="M218 702q71 -88 221 -88q82 0 129 34.5t47 96.5q0 115 -192 115h-92v83h70q79 0 127.5 27t48.5 75q0 103 -154 103q-131 0 -197 -90l-70 58q85 131 267 131q129 0 199 -51.5t70 -136.5q0 -105 -115 -153q65 -15 108.5 -61t43.5 -116q0 -97 -77.5 -155t-219.5 -58
q-107 0 -185 37.5t-111 88.5zM255 0v9l306 387h139v-12l-291 -384h-154zM753 126v88l420 493h100v-488h92v-93h-92v-126h-113v126h-407zM877 219h287v342h-2zM906 842v12l290 384h155v-9l-306 -387h-139z" />
    <glyph glyph-name="questiondown" unicode="&#xbf;" horiz-adv-x="878" 
d="M534 614q2 -67 -16 -121t-49.5 -90t-69.5 -66t-77 -57.5t-71 -57t-52 -71.5t-20 -93q0 -95 62.5 -146.5t174.5 -51.5q115 0 192.5 65t107.5 192l147 -36q-33 -175 -155.5 -270t-309.5 -92q-182 3 -283 86t-101 236q0 66 21 120.5t54 91.5t73 69.5t79.5 62t72 60.5t52 74
t18.5 95h150zM347 875q0 46 32 79t77 33q48 0 80 -32.5t32 -79.5t-32 -79t-80 -32q-45 0 -77 32.5t-32 78.5z" />
    <glyph glyph-name="Agrave" unicode="&#xc0;" horiz-adv-x="1188" 
d="M1190 0h-171l-119 283h-612l-118 -283h-172v11l534 1227h124l534 -1227v-11zM345 416h499l-250 596zM359 1532h187l144 -206h-136z" />
    <glyph glyph-name="Aacute" unicode="&#xc1;" horiz-adv-x="1188" 
d="M1190 0h-171l-119 283h-612l-118 -283h-172v11l534 1227h124l534 -1227v-11zM345 416h499l-250 596zM499 1326l143 206h187l-194 -206h-136z" />
    <glyph glyph-name="Acircumflex" unicode="&#xc2;" horiz-adv-x="1188" 
d="M1190 0h-171l-119 283h-612l-118 -283h-172v11l534 1227h124l534 -1227v-11zM345 416h499l-250 596zM403 1385l191 175l191 -175l-78 -73l-113 117l-113 -117z" />
    <glyph glyph-name="Atilde" unicode="&#xc3;" horiz-adv-x="1188" 
d="M1190 0h-171l-119 283h-612l-118 -283h-172v11l534 1227h124l534 -1227v-11zM345 416h499l-250 596zM389 1410q59 90 140 90q27 0 48.5 -13.5t33 -29t27 -29t31.5 -13.5q41 0 77 51l57 -56q-24 -41 -60.5 -65t-75.5 -24q-28 0 -49.5 13.5t-32 30t-26.5 30t-34 13.5
q-45 0 -81 -55z" />
    <glyph glyph-name="Adieresis" unicode="&#xc4;" horiz-adv-x="1188" 
d="M1190 0h-171l-119 283h-612l-118 -283h-172v11l534 1227h124l534 -1227v-11zM345 416h499l-250 596zM403 1406q0 31 22 52.5t53 21.5t52.5 -21.5t21.5 -52.5q0 -32 -21 -53t-53 -21q-31 0 -53 21.5t-22 52.5zM638 1406q0 31 22 52.5t53 21.5t52.5 -21.5t21.5 -52.5
t-21.5 -52.5t-52.5 -21.5q-32 0 -53.5 21.5t-21.5 52.5z" />
    <glyph glyph-name="Aring" unicode="&#xc5;" horiz-adv-x="1188" 
d="M1190 0h-171l-119 283h-612l-118 -283h-172v11l534 1227h124l534 -1227v-11zM345 416h499l-250 596zM437 1466q0 66 45.5 111t111.5 45q67 0 113 -45t46 -111t-45.5 -110.5t-113.5 -44.5q-66 0 -111.5 44.5t-45.5 110.5zM511 1466q0 -38 23.5 -63t59.5 -25t60.5 25.5
t24.5 62.5t-24.5 62t-60.5 25t-59.5 -24.5t-23.5 -62.5z" />
    <glyph glyph-name="AE" unicode="&#xc6;" horiz-adv-x="1910" 
d="M1811 1097h-686v-390h605v-136h-605v-430h686v-141h-852v260h-607l-205 -260h-189v11l965 1227h888v-141zM455 391h504v642z" />
    <glyph glyph-name="Ccedilla" unicode="&#xc7;" horiz-adv-x="1213" 
d="M716 129q101 0 194 38t139 95l101 -106q-61 -76 -165 -121.5t-233 -52.5l-36 -102q56 -11 80.5 -41t24.5 -67q0 -54 -40 -89t-112 -35q-92 0 -181 55l32 62q84 -46 140 -46q65 0 65 56q0 28 -22.5 46.5t-79.5 28.5l38 132q-164 11 -295 96.5t-205 227t-74 313.5
q0 134 47.5 252.5t129.5 203t197 133.5t246 49q143 0 260 -46t183 -129l-101 -106q-46 57 -139 95t-194 38q-200 0 -334 -140t-134 -350t134 -350t334 -140z" />
    <glyph glyph-name="Egrave" unicode="&#xc8;" horiz-adv-x="1112" 
d="M1013 1097h-686v-390h605v-136h-605v-430h686v-141h-852v1238h852v-141zM371 1532h188l143 -206h-136z" />
    <glyph glyph-name="Eacute" unicode="&#xc9;" horiz-adv-x="1112" 
d="M1013 1097h-686v-390h605v-136h-605v-430h686v-141h-852v1238h852v-141zM509 1326l144 206h187l-194 -206h-137z" />
    <glyph glyph-name="Ecircumflex" unicode="&#xca;" horiz-adv-x="1112" 
d="M1013 1097h-686v-390h605v-136h-605v-430h686v-141h-852v1238h852v-141zM414 1385l191 175l191 -175l-78 -73l-113 117l-113 -117z" />
    <glyph glyph-name="Edieresis" unicode="&#xcb;" horiz-adv-x="1112" 
d="M1013 1097h-686v-390h605v-136h-605v-430h686v-141h-852v1238h852v-141zM414 1406q0 31 21.5 52.5t52.5 21.5t52.5 -21.5t21.5 -52.5q0 -32 -21 -53t-53 -21q-31 0 -52.5 21.5t-21.5 52.5zM649 1406q0 31 21.5 52.5t52.5 21.5t53 -21.5t22 -52.5t-22 -52.5t-53 -21.5
t-52.5 21t-21.5 53z" />
    <glyph glyph-name="Igrave" unicode="&#xcc;" horiz-adv-x="488" 
d="M161 1238h166v-1238h-166v1238zM9 1532h187l144 -206h-137z" />
    <glyph glyph-name="Iacute" unicode="&#xcd;" horiz-adv-x="488" 
d="M161 1238h166v-1238h-166v1238zM149 1326l143 206h187l-194 -206h-136z" />
    <glyph glyph-name="Icircumflex" unicode="&#xce;" horiz-adv-x="488" 
d="M161 1238h166v-1238h-166v1238zM53 1385l191 175l191 -175l-78 -73l-113 117l-113 -117z" />
    <glyph glyph-name="Idieresis" unicode="&#xcf;" horiz-adv-x="488" 
d="M161 1238h166v-1238h-166v1238zM51 1406q0 31 22 52.5t53 21.5t52.5 -21.5t21.5 -52.5q0 -32 -21 -53t-53 -21q-31 0 -53 21.5t-22 52.5zM287 1406q0 31 21.5 52.5t52.5 21.5t52.5 -21.5t21.5 -52.5t-21.5 -52.5t-52.5 -21.5t-52.5 21t-21.5 53z" />
    <glyph glyph-name="Eth" unicode="&#xd0;" horiz-adv-x="1299" 
d="M561 1238q311 0 481.5 -162t170.5 -457t-170.5 -457t-481.5 -162h-400v557h-131v124h131v557h400zM327 141h241q228 0 353.5 125t125.5 353t-125.5 353t-353.5 125h-241v-416h290v-124h-290v-416z" />
    <glyph glyph-name="Ntilde" unicode="&#xd1;" horiz-adv-x="1368" 
d="M1208 0h-120l-764 943v-943h-163v1238h120l764 -943v943h163v-1238zM497 1410q59 90 140 90q27 0 48.5 -13.5t32.5 -29t26.5 -29t31.5 -13.5q42 0 78 51l57 -56q-24 -41 -60.5 -65t-75.5 -24q-28 0 -49.5 13.5t-32 30t-26.5 30t-34 13.5q-45 0 -81 -55z" />
    <glyph glyph-name="Ograve" unicode="&#xd2;" horiz-adv-x="1436" 
d="M718 -19q-134 0 -251.5 48.5t-200.5 132.5t-131 202.5t-48 254.5t48 254.5t131 202.5t200.5 132.5t251.5 48.5t251.5 -48.5t200.5 -132.5t131 -202.5t48 -254.5t-48 -254.5t-131 -202.5t-200.5 -132.5t-251.5 -48.5zM253 619q0 -209 131.5 -346t333.5 -137t333.5 137
t131.5 346t-131.5 346t-333.5 137t-333.5 -137t-131.5 -346zM485 1551h187l143 -205h-136z" />
    <glyph glyph-name="Oacute" unicode="&#xd3;" horiz-adv-x="1436" 
d="M718 -19q-134 0 -251.5 48.5t-200.5 132.5t-131 202.5t-48 254.5t48 254.5t131 202.5t200.5 132.5t251.5 48.5t251.5 -48.5t200.5 -132.5t131 -202.5t48 -254.5t-48 -254.5t-131 -202.5t-200.5 -132.5t-251.5 -48.5zM253 619q0 -209 131.5 -346t333.5 -137t333.5 137
t131.5 346t-131.5 346t-333.5 137t-333.5 -137t-131.5 -346zM623 1346l143 205h187l-194 -205h-136z" />
    <glyph glyph-name="Ocircumflex" unicode="&#xd4;" horiz-adv-x="1436" 
d="M718 -19q-134 0 -251.5 48.5t-200.5 132.5t-131 202.5t-48 254.5t48 254.5t131 202.5t200.5 132.5t251.5 48.5t251.5 -48.5t200.5 -132.5t131 -202.5t48 -254.5t-48 -254.5t-131 -202.5t-200.5 -132.5t-251.5 -48.5zM253 619q0 -209 131.5 -346t333.5 -137t333.5 137
t131.5 346t-131.5 346t-333.5 137t-333.5 -137t-131.5 -346zM527 1404l191 175l191 -175l-78 -72l-113 116l-113 -116z" />
    <glyph glyph-name="Otilde" unicode="&#xd5;" horiz-adv-x="1436" 
d="M718 -19q-134 0 -251.5 48.5t-200.5 132.5t-131 202.5t-48 254.5t48 254.5t131 202.5t200.5 132.5t251.5 48.5t251.5 -48.5t200.5 -132.5t131 -202.5t48 -254.5t-48 -254.5t-131 -202.5t-200.5 -132.5t-251.5 -48.5zM253 619q0 -209 131.5 -346t333.5 -137t333.5 137
t131.5 346t-131.5 346t-333.5 137t-333.5 -137t-131.5 -346zM513 1429q59 90 140 90q27 0 48.5 -13.5t32.5 -29t26.5 -29t31.5 -13.5q42 0 78 52l57 -57q-24 -40 -60.5 -64t-75.5 -24q-28 0 -49.5 13.5t-32 29.5t-26.5 29.5t-34 13.5q-45 0 -81 -55z" />
    <glyph glyph-name="Odieresis" unicode="&#xd6;" horiz-adv-x="1436" 
d="M718 -19q-134 0 -251.5 48.5t-200.5 132.5t-131 202.5t-48 254.5t48 254.5t131 202.5t200.5 132.5t251.5 48.5t251.5 -48.5t200.5 -132.5t131 -202.5t48 -254.5t-48 -254.5t-131 -202.5t-200.5 -132.5t-251.5 -48.5zM253 619q0 -209 131.5 -346t333.5 -137t333.5 137
t131.5 346t-131.5 346t-333.5 137t-333.5 -137t-131.5 -346zM527 1425q0 31 21.5 53t52.5 22t53 -22t22 -53t-21.5 -52.5t-53.5 -21.5q-31 0 -52.5 21.5t-21.5 52.5zM762 1425q0 31 22 53t53 22t52.5 -22t21.5 -53t-21.5 -52.5t-52.5 -21.5q-32 0 -53.5 21.5t-21.5 52.5z
" />
    <glyph glyph-name="multiply" unicode="&#xd7;" horiz-adv-x="813" 
d="M104 325l205 206l-206 205l99 97l205 -205l207 205l97 -97l-205 -205l205 -207l-97 -98l-207 206l-205 -206z" />
    <glyph glyph-name="Oslash" unicode="&#xd8;" horiz-adv-x="1436" 
d="M718 -19q-209 0 -370 111l-79 -92h-168l152 177q-166 177 -166 442q0 136 48 254.5t131 202.5t200.5 132.5t251.5 48.5q214 0 370 -113l81 94h166l-152 -177q166 -177 166 -442q0 -136 -48 -254.5t-131 -202.5t-200.5 -132.5t-251.5 -48.5zM253 619q0 -188 108 -318
l622 721q-116 80 -265 80q-202 0 -333.5 -137t-131.5 -346zM455 214q114 -78 263 -78q202 0 333.5 137t131.5 346q0 187 -106 318z" />
    <glyph glyph-name="Ugrave" unicode="&#xd9;" horiz-adv-x="1342" 
d="M1029 1238h167v-739q0 -240 -140 -379t-384 -139t-382.5 138.5t-140.5 379.5l-2 739h166v-729q0 -175 95.5 -275t263.5 -100q167 0 262 100t95 275v729zM437 1532h187l144 -206h-137z" />
    <glyph glyph-name="Uacute" unicode="&#xda;" horiz-adv-x="1342" 
d="M1029 1238h167v-739q0 -240 -140 -379t-384 -139t-382.5 138.5t-140.5 379.5l-2 739h166v-729q0 -175 95.5 -275t263.5 -100q167 0 262 100t95 275v729zM575 1326l143 206h188l-195 -206h-136z" />
    <glyph glyph-name="Ucircumflex" unicode="&#xdb;" horiz-adv-x="1342" 
d="M1029 1238h167v-739q0 -240 -140 -379t-384 -139t-382.5 138.5t-140.5 379.5l-2 739h166v-729q0 -175 95.5 -275t263.5 -100q167 0 262 100t95 275v729zM479 1385l191 175l191 -175l-78 -73l-113 117l-113 -117z" />
    <glyph glyph-name="Udieresis" unicode="&#xdc;" horiz-adv-x="1342" 
d="M1029 1238h167v-739q0 -240 -140 -379t-384 -139t-382.5 138.5t-140.5 379.5l-2 739h166v-729q0 -175 95.5 -275t263.5 -100q167 0 262 100t95 275v729zM479 1406q0 31 22 52.5t53 21.5t52.5 -21.5t21.5 -52.5q0 -32 -21 -53t-53 -21q-31 0 -53 21.5t-22 52.5zM715 1406
q0 31 21.5 52.5t52.5 21.5t52.5 -21.5t21.5 -52.5t-21.5 -52.5t-52.5 -21.5t-52.5 21t-21.5 53z" />
    <glyph glyph-name="Yacute" unicode="&#xdd;" horiz-adv-x="1105" 
d="M898 1238h184v-9l-449 -725v-504h-166v504l-446 725v9h186l343 -573zM456 1326l144 206h187l-195 -206h-136z" />
    <glyph glyph-name="Thorn" unicode="&#xde;" horiz-adv-x="1071" 
d="M161 1238h166v-253h255q191 0 297 -95.5t106 -270.5t-106 -270.5t-297 -95.5h-255v-253h-166v1238zM327 394h244q118 0 183 59t65 166t-65 166t-183 59h-244v-450z" />
    <glyph glyph-name="germandbls" unicode="&#xdf;" horiz-adv-x="1045" 
d="M290 0h-156v856q0 182 96.5 285.5t264.5 103.5q157 0 252 -88.5t95 -231.5q0 -88 -42.5 -153t-111.5 -88q127 -22 206 -110.5t79 -226.5q0 -150 -99.5 -251t-249.5 -101q-118 0 -201 24l26 131q64 -16 140 -16q100 0 164 65.5t64 166.5q0 102 -78 165t-201 63h-71v131h34
q81 0 134 50t53 129q0 86 -53.5 142t-135.5 56q-95 0 -152 -62.5t-57 -174.5v-865z" />
    <glyph glyph-name="agrave" unicode="&#xe0;" horiz-adv-x="1048" 
d="M778 0v99q-109 -117 -302 -117q-178 0 -290.5 94.5t-112.5 243.5t112.5 243.5t290.5 94.5q193 0 302 -117v18q0 152 -76 229t-217 77q-90 0 -175 -28.5t-146 -70.5l-53 108q70 49 174 83.5t224 34.5q205 0 317.5 -107.5t112.5 -325.5v-559h-161zM230 322
q0 -100 77.5 -163t200.5 -63t200 63t77 163t-77 163t-200 63t-200.5 -63t-77.5 -163zM295 1286h188l143 -205h-136z" />
    <glyph glyph-name="aacute" unicode="&#xe1;" horiz-adv-x="1048" 
d="M778 0v99q-109 -117 -302 -117q-178 0 -290.5 94.5t-112.5 243.5t112.5 243.5t290.5 94.5q193 0 302 -117v18q0 152 -76 229t-217 77q-90 0 -175 -28.5t-146 -70.5l-53 108q70 49 174 83.5t224 34.5q205 0 317.5 -107.5t112.5 -325.5v-559h-161zM230 322
q0 -100 77.5 -163t200.5 -63t200 63t77 163t-77 163t-200 63t-200.5 -63t-77.5 -163zM433 1081l144 205h187l-195 -205h-136z" />
    <glyph glyph-name="acircumflex" unicode="&#xe2;" horiz-adv-x="1048" 
d="M778 0v99q-109 -117 -302 -117q-178 0 -290.5 94.5t-112.5 243.5t112.5 243.5t290.5 94.5q193 0 302 -117v18q0 152 -76 229t-217 77q-90 0 -175 -28.5t-146 -70.5l-53 108q70 49 174 83.5t224 34.5q205 0 317.5 -107.5t112.5 -325.5v-559h-161zM230 322
q0 -100 77.5 -163t200.5 -63t200 63t77 163t-77 163t-200 63t-200.5 -63t-77.5 -163zM338 1139l191 175l191 -175l-78 -73l-113 117l-113 -117z" />
    <glyph glyph-name="atilde" unicode="&#xe3;" horiz-adv-x="1048" 
d="M778 0v99q-109 -117 -302 -117q-178 0 -290.5 94.5t-112.5 243.5t112.5 243.5t290.5 94.5q193 0 302 -117v18q0 152 -76 229t-217 77q-90 0 -175 -28.5t-146 -70.5l-53 108q70 49 174 83.5t224 34.5q205 0 317.5 -107.5t112.5 -325.5v-559h-161zM230 322
q0 -100 77.5 -163t200.5 -63t200 63t77 163t-77 163t-200 63t-200.5 -63t-77.5 -163zM324 1164q59 90 139 90q27 0 48.5 -13.5t33 -29t27 -29t31.5 -13.5q42 0 78 51l56 -56q-24 -41 -60.5 -65t-75.5 -24q-28 0 -49 13.5t-32 30t-26.5 30t-33.5 13.5q-46 0 -82 -55z" />
    <glyph glyph-name="adieresis" unicode="&#xe4;" horiz-adv-x="1048" 
d="M778 0v99q-109 -117 -302 -117q-178 0 -290.5 94.5t-112.5 243.5t112.5 243.5t290.5 94.5q193 0 302 -117v18q0 152 -76 229t-217 77q-90 0 -175 -28.5t-146 -70.5l-53 108q70 49 174 83.5t224 34.5q205 0 317.5 -107.5t112.5 -325.5v-559h-161zM230 322
q0 -100 77.5 -163t200.5 -63t200 63t77 163t-77 163t-200 63t-200.5 -63t-77.5 -163zM338 1160q0 31 21.5 52.5t52.5 21.5t52.5 -21.5t21.5 -52.5q0 -32 -21 -53t-53 -21q-31 0 -52.5 21.5t-21.5 52.5zM573 1160q0 31 21.5 52.5t52.5 21.5t53 -21.5t22 -52.5t-22 -52.5
t-53 -21.5t-52.5 21t-21.5 53z" />
    <glyph glyph-name="aring" unicode="&#xe5;" horiz-adv-x="1048" 
d="M778 0v99q-109 -117 -302 -117q-178 0 -290.5 94.5t-112.5 243.5t112.5 243.5t290.5 94.5q193 0 302 -117v18q0 152 -76 229t-217 77q-90 0 -175 -28.5t-146 -70.5l-53 108q70 49 174 83.5t224 34.5q205 0 317.5 -107.5t112.5 -325.5v-559h-161zM230 322
q0 -100 77.5 -163t200.5 -63t200 63t77 163t-77 163t-200 63t-200.5 -63t-77.5 -163zM371 1220q0 66 46 111t112 45q67 0 113 -45t46 -111t-45.5 -110.5t-113.5 -44.5q-66 0 -112 44.5t-46 110.5zM446 1220q0 -38 23.5 -63t59.5 -25t60.5 25.5t24.5 62.5t-24.5 62t-60.5 25
t-59.5 -24.5t-23.5 -62.5z" />
    <glyph glyph-name="ae" unicode="&#xe6;" horiz-adv-x="1828" 
d="M778 0v99q-109 -117 -302 -117q-178 0 -290.5 94.5t-112.5 243.5t112.5 243.5t290.5 94.5q193 0 302 -117v18q0 152 -76 229t-217 77q-90 0 -175 -28.5t-146 -70.5l-53 108q70 49 174 83.5t224 34.5q286 0 382 -198q66 92 167 143.5t222 51.5q95 0 177.5 -31.5t140 -86.5
t96.5 -126.5t54 -154t5 -167.5h-805q19 -135 109.5 -218t222.5 -83q172 0 269 140l121 -83q-142 -195 -390 -195q-204 0 -341 140v-124h-161zM230 322q0 -100 77.5 -163t200.5 -63t200 63t77 163t-77 163t-200 63t-200.5 -63t-77.5 -163zM946 541h662q-13 129 -98.5 218.5
t-229.5 89.5q-134 0 -226 -85.5t-108 -222.5z" />
    <glyph glyph-name="ccedilla" unicode="&#xe7;" horiz-adv-x="1052" 
d="M73 486q0 221 136.5 362.5t351.5 141.5q141 0 253.5 -72t165.5 -188l-126 -63q-45 84 -120.5 134t-172.5 50q-148 0 -243 -103t-95 -262t95 -261.5t243 -102.5q99 0 175.5 51t117.5 135l126 -66q-47 -104 -144 -173.5t-219 -82.5l-37 -106q56 -11 80 -41t24 -67
q0 -54 -40 -89t-112 -35q-91 0 -180 55l32 62q84 -46 139 -46q66 0 66 56q0 57 -103 75l39 134q-201 12 -326.5 151t-125.5 351z" />
    <glyph glyph-name="egrave" unicode="&#xe8;" horiz-adv-x="1103" 
d="M509 1282l144 -205h-137l-194 205h187zM73 486q0 216 136.5 359.5t345.5 143.5q95 0 177.5 -31.5t140 -86.5t96.5 -126.5t54 -154t5 -167.5h-805q19 -135 109.5 -218t222.5 -83q172 0 269 140l120 -83q-142 -195 -389 -195q-208 0 -345 143.5t-137 358.5zM221 541h662
q-13 129 -98.5 218.5t-229.5 89.5q-134 0 -226 -85.5t-108 -222.5z" />
    <glyph glyph-name="eacute" unicode="&#xe9;" horiz-adv-x="1103" 
d="M603 1282h188l-195 -205h-136zM73 486q0 216 136.5 359.5t345.5 143.5q95 0 177.5 -31.5t140 -86.5t96.5 -126.5t54 -154t5 -167.5h-805q19 -135 109.5 -218t222.5 -83q172 0 269 140l120 -83q-142 -195 -389 -195q-208 0 -345 143.5t-137 358.5zM221 541h662
q-13 129 -98.5 218.5t-229.5 89.5q-134 0 -226 -85.5t-108 -222.5z" />
    <glyph glyph-name="ecircumflex" unicode="&#xea;" horiz-adv-x="1103" 
d="M555 1311l191 -176l-77 -72l-114 117l-113 -117l-78 72zM73 486q0 216 136.5 359.5t345.5 143.5q95 0 177.5 -31.5t140 -86.5t96.5 -126.5t54 -154t5 -167.5h-805q19 -135 109.5 -218t222.5 -83q172 0 269 140l120 -83q-142 -195 -389 -195q-208 0 -345 143.5t-137 358.5
zM221 541h662q-13 129 -98.5 218.5t-229.5 89.5q-134 0 -226 -85.5t-108 -222.5z" />
    <glyph glyph-name="edieresis" unicode="&#xeb;" horiz-adv-x="1103" 
d="M439 1082q-31 0 -53 22t-22 53t22 52.5t53 21.5t52.5 -21.5t21.5 -52.5q0 -32 -21.5 -53.5t-52.5 -21.5zM73 486q0 216 136.5 359.5t345.5 143.5q95 0 177.5 -31.5t140 -86.5t96.5 -126.5t54 -154t5 -167.5h-805q19 -135 109.5 -218t222.5 -83q172 0 269 140l120 -83
q-142 -195 -389 -195q-208 0 -345 143.5t-137 358.5zM221 541h662q-13 129 -98.5 218.5t-229.5 89.5q-134 0 -226 -85.5t-108 -222.5zM600 1157q0 31 21.5 52.5t52.5 21.5t52.5 -21.5t21.5 -52.5t-21.5 -53t-52.5 -22t-52.5 21.5t-21.5 53.5z" />
    <glyph glyph-name="igrave" unicode="&#xec;" horiz-adv-x="426" 
d="M134 0v973h158v-973h-158zM-21 1266h187l143 -205h-136z" />
    <glyph glyph-name="iacute" unicode="&#xed;" horiz-adv-x="426" 
d="M134 0v973h158v-973h-158zM117 1061l143 205h187l-194 -205h-136z" />
    <glyph glyph-name="icircumflex" unicode="&#xee;" horiz-adv-x="426" 
d="M134 0v973h158v-973h-158zM21 1120l191 175l191 -175l-78 -73l-113 117l-113 -117z" />
    <glyph glyph-name="idieresis" unicode="&#xef;" horiz-adv-x="426" 
d="M134 0v973h158v-973h-158zM21 1141q0 31 22 52.5t53 21.5t52.5 -21.5t21.5 -52.5q0 -32 -21.5 -53.5t-52.5 -21.5t-53 22t-22 53zM256 1141q0 31 22 52.5t53 21.5t52.5 -21.5t21.5 -52.5t-21.5 -53t-52.5 -22t-53 22t-22 53z" />
    <glyph glyph-name="eth" unicode="&#xf0;" horiz-adv-x="1041" 
d="M216 941l191 154q-103 66 -225 111l67 135q145 -56 278 -149l163 131l74 -90l-143 -115q165 -144 256.5 -331t91.5 -384q0 -182 -129 -302t-317 -120q-192 0 -321 118.5t-129 298.5q0 173 119 287t291 114q161 0 258 -92q-85 187 -240 317l-213 -170zM233 398
q0 -117 83 -195.5t206 -78.5q122 0 204 78.5t82 195.5q0 118 -83 197t-205 79t-204.5 -79t-82.5 -197z" />
    <glyph glyph-name="ntilde" unicode="&#xf1;" horiz-adv-x="1124" 
d="M134 0v973h158v-177q51 92 138.5 142.5t202.5 50.5q180 0 280.5 -117.5t99.5 -326.5v-545h-157l2 536q0 145 -77 232.5t-203 87.5q-130 0 -208 -87.5t-78 -232.5v-536h-158zM359 1144q59 90 140 90q27 0 48.5 -13t32.5 -29t26.5 -29t31.5 -13q42 0 78 51l57 -57
q-24 -40 -60.5 -64t-75.5 -24q-28 0 -49.5 13.5t-32 29.5t-26.5 29.5t-34 13.5q-46 0 -81 -54z" />
    <glyph glyph-name="ograve" unicode="&#xf2;" horiz-adv-x="1126" 
d="M562 -21q-214 0 -351.5 142.5t-137.5 364.5q0 223 137.5 365.5t351.5 142.5q215 0 353.5 -142.5t138.5 -365.5t-138.5 -365t-353.5 -142zM225 486q0 -159 95.5 -262.5t241.5 -103.5q147 0 243.5 103.5t96.5 262.5t-96.5 262.5t-243.5 103.5q-146 0 -241.5 -103.5
t-95.5 -262.5zM329 1279h187l144 -205h-137z" />
    <glyph glyph-name="oacute" unicode="&#xf3;" horiz-adv-x="1126" 
d="M562 -21q-214 0 -351.5 142.5t-137.5 364.5q0 223 137.5 365.5t351.5 142.5q215 0 353.5 -142.5t138.5 -365.5t-138.5 -365t-353.5 -142zM225 486q0 -159 95.5 -262.5t241.5 -103.5q147 0 243.5 103.5t96.5 262.5t-96.5 262.5t-243.5 103.5q-146 0 -241.5 -103.5
t-95.5 -262.5zM467 1074l143 205h188l-195 -205h-136z" />
    <glyph glyph-name="ocircumflex" unicode="&#xf4;" horiz-adv-x="1126" 
d="M562 -21q-214 0 -351.5 142.5t-137.5 364.5q0 223 137.5 365.5t351.5 142.5q215 0 353.5 -142.5t138.5 -365.5t-138.5 -365t-353.5 -142zM225 486q0 -159 95.5 -262.5t241.5 -103.5q147 0 243.5 103.5t96.5 262.5t-96.5 262.5t-243.5 103.5q-146 0 -241.5 -103.5
t-95.5 -262.5zM371 1132l191 175l191 -175l-77 -73l-114 117l-113 -117z" />
    <glyph glyph-name="otilde" unicode="&#xf5;" horiz-adv-x="1126" 
d="M562 -21q-214 0 -351.5 142.5t-137.5 364.5q0 223 137.5 365.5t351.5 142.5q215 0 353.5 -142.5t138.5 -365.5t-138.5 -365t-353.5 -142zM225 486q0 -159 95.5 -262.5t241.5 -103.5q147 0 243.5 103.5t96.5 262.5t-96.5 262.5t-243.5 103.5q-146 0 -241.5 -103.5
t-95.5 -262.5zM357 1157q59 90 140 90q27 0 48.5 -13.5t33 -29t27 -29t31.5 -13.5q42 0 78 51l56 -56q-24 -41 -60.5 -65t-75.5 -24q-28 0 -49.5 13.5t-32 30t-26.5 30t-34 13.5q-45 0 -81 -55z" />
    <glyph glyph-name="odieresis" unicode="&#xf6;" horiz-adv-x="1126" 
d="M562 -21q-214 0 -351.5 142.5t-137.5 364.5q0 223 137.5 365.5t351.5 142.5q215 0 353.5 -142.5t138.5 -365.5t-138.5 -365t-353.5 -142zM225 486q0 -159 95.5 -262.5t241.5 -103.5q147 0 243.5 103.5t96.5 262.5t-96.5 262.5t-243.5 103.5q-146 0 -241.5 -103.5
t-95.5 -262.5zM371 1153q0 31 22 52.5t53 21.5t52.5 -21.5t21.5 -52.5t-21 -52.5t-53 -21.5q-31 0 -53 21.5t-22 52.5zM607 1153q0 31 21.5 52.5t52.5 21.5t52.5 -21.5t21.5 -52.5t-21.5 -52.5t-52.5 -21.5t-52.5 21.5t-21.5 52.5z" />
    <glyph glyph-name="divide" unicode="&#xf7;" horiz-adv-x="1089" 
d="M546 783q-46 0 -77.5 31.5t-31.5 76.5q0 47 31.5 78.5t77.5 31.5q45 0 76.5 -32t31.5 -78q0 -45 -31.5 -76.5t-76.5 -31.5zM124 462v138h842v-138h-842zM437 172q0 46 31.5 77.5t77.5 31.5q45 0 76.5 -31.5t31.5 -77.5q0 -45 -31.5 -76.5t-76.5 -31.5q-46 0 -77.5 31.5
t-31.5 76.5z" />
    <glyph glyph-name="oslash" unicode="&#xf8;" horiz-adv-x="1126" 
d="M562 -21q-165 0 -291 90l-61 -69h-130l116 136q-123 139 -123 350q0 223 137.5 365.5t351.5 142.5q168 0 296 -92l60 71h131l-119 -138q124 -140 124 -349q0 -223 -138.5 -365t-353.5 -142zM225 486q0 -136 72 -233l463 538q-86 61 -198 61q-146 0 -241.5 -103.5
t-95.5 -262.5zM368 182q84 -62 194 -62q147 0 243.5 103.5t96.5 262.5q0 136 -73 234z" />
    <glyph glyph-name="ugrave" unicode="&#xf9;" horiz-adv-x="1091" 
d="M812 973h157l-2 -579q0 -182 -116 -295t-305 -113q-191 0 -307.5 113t-116.5 295v579h157v-573q0 -123 73.5 -199.5t193.5 -76.5q119 0 192.5 76.5t73.5 199.5v573zM311 1266h188l143 -205h-136z" />
    <glyph glyph-name="uacute" unicode="&#xfa;" horiz-adv-x="1091" 
d="M812 973h157l-2 -579q0 -182 -116 -295t-305 -113q-191 0 -307.5 113t-116.5 295v579h157v-573q0 -123 73.5 -199.5t193.5 -76.5q119 0 192.5 76.5t73.5 199.5v573zM449 1061l143 205h188l-195 -205h-136z" />
    <glyph glyph-name="ucircumflex" unicode="&#xfb;" horiz-adv-x="1091" 
d="M812 973h157l-2 -579q0 -182 -116 -295t-305 -113q-191 0 -307.5 113t-116.5 295v579h157v-573q0 -123 73.5 -199.5t193.5 -76.5q119 0 192.5 76.5t73.5 199.5v573zM354 1120l191 175l191 -175l-78 -73l-113 117l-113 -117z" />
    <glyph glyph-name="udieresis" unicode="&#xfc;" horiz-adv-x="1091" 
d="M812 973h157l-2 -579q0 -182 -116 -295t-305 -113q-191 0 -307.5 113t-116.5 295v579h157v-573q0 -123 73.5 -199.5t193.5 -76.5q119 0 192.5 76.5t73.5 199.5v573zM354 1141q0 31 21.5 52.5t52.5 21.5t52.5 -21.5t21.5 -52.5q0 -32 -21.5 -53.5t-52.5 -21.5t-52.5 22
t-21.5 53zM589 1141q0 31 21.5 52.5t52.5 21.5t52.5 -21.5t21.5 -52.5t-21.5 -53t-52.5 -22t-52.5 21.5t-21.5 53.5z" />
    <glyph glyph-name="yacute" unicode="&#xfd;" horiz-adv-x="919" 
d="M34 973h168l268 -743l259 743h162v-7l-387 -1092q-50 -140 -111.5 -208t-142.5 -78.5t-190 19.5l34 129q107 -23 164 9t99 151l39 115l-362 955v7zM380 1079l143 205h188l-195 -205h-136z" />
    <glyph glyph-name="thorn" unicode="&#xfe;" horiz-adv-x="1183" 
d="M661 987q194 0 322 -143t128 -358q0 -214 -128 -357t-322 -143q-122 0 -217.5 55.5t-151.5 156.5v-552h-158v1682h158v-553q56 101 151.5 156.5t217.5 55.5zM292 486q0 -157 96.5 -260.5t241.5 -103.5q141 0 233 103.5t92 260.5t-92 261t-233 104q-145 0 -241.5 -104
t-96.5 -261z" />
    <glyph glyph-name="ydieresis" unicode="&#xff;" horiz-adv-x="919" 
d="M34 973h168l268 -743l259 743h162v-7l-387 -1092q-50 -140 -111.5 -208t-142.5 -78.5t-190 19.5l34 129q107 -23 164 9t99 151l39 115l-362 955v7zM285 1158q0 31 21.5 53t52.5 22t52.5 -22t21.5 -53q0 -32 -21.5 -53t-52.5 -21t-52.5 21.5t-21.5 52.5zM520 1158
q0 31 21.5 53t52.5 22t53 -22t22 -53t-22 -52.5t-53 -21.5q-32 0 -53 21t-21 53z" />
    <glyph glyph-name="Amacron" unicode="&#x100;" horiz-adv-x="1188" 
d="M1190 0h-171l-119 283h-612l-118 -283h-172v11l534 1227h124l534 -1227v-11zM345 416h499l-250 596zM417 1349v99h352v-99h-352z" />
    <glyph glyph-name="amacron" unicode="&#x101;" horiz-adv-x="1048" 
d="M778 0v99q-109 -117 -302 -117q-178 0 -290.5 94.5t-112.5 243.5t112.5 243.5t290.5 94.5q193 0 302 -117v18q0 152 -76 229t-217 77q-90 0 -175 -28.5t-146 -70.5l-53 108q70 49 174 83.5t224 34.5q205 0 317.5 -107.5t112.5 -325.5v-559h-161zM230 322
q0 -100 77.5 -163t200.5 -63t200 63t77 163t-77 163t-200 63t-200.5 -63t-77.5 -163zM354 1104v99h352v-99h-352z" />
    <glyph glyph-name="Abreve" unicode="&#x102;" horiz-adv-x="1188" 
d="M1190 0h-171l-119 283h-612l-118 -283h-172v11l534 1227h124l534 -1227v-11zM345 416h499l-250 596zM414 1498l104 14q3 -51 23.5 -77.5t52.5 -26.5t53.5 26.5t24.5 77.5l104 -14q-8 -88 -56 -137t-126 -49q-77 0 -125 49t-55 137z" />
    <glyph glyph-name="abreve" unicode="&#x103;" horiz-adv-x="1048" 
d="M778 0v99q-109 -117 -302 -117q-178 0 -290.5 94.5t-112.5 243.5t112.5 243.5t290.5 94.5q193 0 302 -117v18q0 152 -76 229t-217 77q-90 0 -175 -28.5t-146 -70.5l-53 108q70 49 174 83.5t224 34.5q205 0 317.5 -107.5t112.5 -325.5v-559h-161zM230 322
q0 -100 77.5 -163t200.5 -63t200 63t77 163t-77 163t-200 63t-200.5 -63t-77.5 -163zM348 1252l105 14q3 -51 23.5 -77.5t52.5 -26.5t53.5 26.5t24.5 77.5l104 -14q-8 -88 -56 -137t-126 -49q-77 0 -125.5 49t-55.5 137z" />
    <glyph glyph-name="Aogonek" unicode="&#x104;" horiz-adv-x="1188" 
d="M1190 0h-2q-73 -31 -115 -78.5t-42 -100.5q0 -49 29 -77.5t77 -28.5q75 0 126 92l63 -26q-62 -151 -210 -151q-81 0 -131.5 49.5t-50.5 124.5q0 123 127 196h-42l-119 283h-612l-118 -283h-172v11l534 1227h124l534 -1227v-11zM345 416h499l-250 596z" />
    <glyph glyph-name="aogonek" unicode="&#x105;" horiz-adv-x="1048" 
d="M778 0v99q-109 -117 -302 -117q-178 0 -290.5 94.5t-112.5 243.5t112.5 243.5t290.5 94.5q193 0 302 -117v18q0 152 -76 229t-217 77q-90 0 -175 -28.5t-146 -70.5l-53 108q70 49 174 83.5t224 34.5q205 0 317.5 -107.5t112.5 -325.5v-559h-2q-73 -31 -115 -78.5
t-42 -100.5q0 -49 29 -77.5t77 -28.5q75 0 126 92l63 -26q-62 -151 -210 -151q-81 0 -131.5 49.5t-50.5 124.5q0 123 127 196h-32zM230 322q0 -100 77.5 -163t200.5 -63t200 63t77 163t-77 163t-200 63t-200.5 -63t-77.5 -163z" />
    <glyph glyph-name="Cacute" unicode="&#x106;" horiz-adv-x="1213" 
d="M716 129q101 0 194 38t139 95l101 -106q-66 -83 -183 -129t-260 -46q-131 0 -246 49t-197 133.5t-129.5 203t-47.5 252.5t47.5 252.5t129.5 203t197 133.5t246 49q143 0 260 -46t183 -129l-101 -106q-46 57 -139 95t-194 38q-200 0 -334 -140t-134 -350t134 -350
t334 -140zM610 1344l143 205h188l-195 -205h-136z" />
    <glyph glyph-name="cacute" unicode="&#x107;" horiz-adv-x="1052" 
d="M73 486q0 221 136.5 362.5t351.5 141.5q141 0 253.5 -72t165.5 -188l-126 -63q-45 84 -120.5 134t-172.5 50q-148 0 -243 -103t-95 -262t95 -261.5t243 -102.5q99 0 175.5 51t117.5 135l126 -66q-53 -116 -165.5 -188t-253.5 -72q-215 0 -351.5 141.5t-136.5 362.5z
M465 1079l143 205h188l-195 -205h-136z" />
    <glyph glyph-name="Ccircumflex" unicode="&#x108;" horiz-adv-x="1213" 
d="M716 129q101 0 194 38t139 95l101 -106q-66 -83 -183 -129t-260 -46q-131 0 -246 49t-197 133.5t-129.5 203t-47.5 252.5t47.5 252.5t129.5 203t197 133.5t246 49q143 0 260 -46t183 -129l-101 -106q-46 57 -139 95t-194 38q-200 0 -334 -140t-134 -350t134 -350
t334 -140zM515 1402l191 176l191 -176l-78 -72l-113 117l-114 -117z" />
    <glyph glyph-name="ccircumflex" unicode="&#x109;" horiz-adv-x="1052" 
d="M73 486q0 221 136.5 362.5t351.5 141.5q141 0 253.5 -72t165.5 -188l-126 -63q-45 84 -120.5 134t-172.5 50q-148 0 -243 -103t-95 -262t95 -261.5t243 -102.5q99 0 175.5 51t117.5 135l126 -66q-53 -116 -165.5 -188t-253.5 -72q-215 0 -351.5 141.5t-136.5 362.5z
M370 1137l191 175l191 -175l-78 -72l-113 116l-114 -116z" />
    <glyph glyph-name="Cdotaccent" unicode="&#x10a;" horiz-adv-x="1213" 
d="M716 129q101 0 194 38t139 95l101 -106q-66 -83 -183 -129t-260 -46q-131 0 -246 49t-197 133.5t-129.5 203t-47.5 252.5t47.5 252.5t129.5 203t197 133.5t246 49q143 0 260 -46t183 -129l-101 -106q-46 57 -139 95t-194 38q-200 0 -334 -140t-134 -350t134 -350
t334 -140zM631 1424q0 31 22 52.5t53 21.5t52.5 -21.5t21.5 -52.5q0 -32 -21.5 -53.5t-52.5 -21.5t-53 22t-22 53z" />
    <glyph glyph-name="cdotaccent" unicode="&#x10b;" horiz-adv-x="1052" 
d="M73 486q0 221 136.5 362.5t351.5 141.5q141 0 253.5 -72t165.5 -188l-126 -63q-45 84 -120.5 134t-172.5 50q-148 0 -243 -103t-95 -262t95 -261.5t243 -102.5q99 0 175.5 51t117.5 135l126 -66q-53 -116 -165.5 -188t-253.5 -72q-215 0 -351.5 141.5t-136.5 362.5z
M486 1158q0 31 22 53t53 22t52.5 -22t21.5 -53q0 -32 -21.5 -53t-52.5 -21t-53 21.5t-22 52.5z" />
    <glyph glyph-name="Ccaron" unicode="&#x10c;" horiz-adv-x="1213" 
d="M716 129q101 0 194 38t139 95l101 -106q-66 -83 -183 -129t-260 -46q-131 0 -246 49t-197 133.5t-129.5 203t-47.5 252.5t47.5 252.5t129.5 203t197 133.5t246 49q143 0 260 -46t183 -129l-101 -106q-46 57 -139 95t-194 38q-200 0 -334 -140t-134 -350t134 -350
t334 -140zM515 1500l77 74l114 -118l113 118l78 -74l-191 -174z" />
    <glyph glyph-name="ccaron" unicode="&#x10d;" horiz-adv-x="1052" 
d="M73 486q0 221 136.5 362.5t351.5 141.5q141 0 253.5 -72t165.5 -188l-126 -63q-45 84 -120.5 134t-172.5 50q-148 0 -243 -103t-95 -262t95 -261.5t243 -102.5q99 0 175.5 51t117.5 135l126 -66q-53 -116 -165.5 -188t-253.5 -72q-215 0 -351.5 141.5t-136.5 362.5z
M370 1234l77 75l114 -119l113 119l78 -75l-191 -173z" />
    <glyph glyph-name="Dcaron" unicode="&#x10e;" horiz-adv-x="1299" 
d="M561 1238q311 0 481.5 -162t170.5 -457t-170.5 -457t-481.5 -162h-400v1238h400zM327 141h241q228 0 353.5 125t125.5 353t-125.5 353t-353.5 125h-241v-956zM424 1482l78 74l113 -118l114 118l77 -74l-191 -173z" />
    <glyph glyph-name="dcaron" unicode="&#x10f;" horiz-adv-x="1333" 
d="M522 -14q-194 0 -321.5 142.5t-127.5 357.5t127.5 358t321.5 143q122 0 217.5 -55.5t151.5 -156.5v551h158v-1326h-158v198q-56 -101 -151.5 -156.5t-217.5 -55.5zM228 486q0 -157 92.5 -260.5t233.5 -103.5q145 0 241 103.5t96 260.5t-96 261t-241 104
q-141 0 -233.5 -104t-92.5 -261zM1203 881v449h129v-166l-46 -283h-83z" />
    <glyph glyph-name="Dcroat" unicode="&#x110;" horiz-adv-x="1299" 
d="M561 1238q311 0 481.5 -162t170.5 -457t-170.5 -457t-481.5 -162h-400v557h-131v124h131v557h400zM327 141h241q228 0 353.5 125t125.5 353t-125.5 353t-353.5 125h-241v-416h290v-124h-290v-416z" />
    <glyph glyph-name="dcroat" unicode="&#x111;" horiz-adv-x="1183" 
d="M522 -14q-194 0 -321.5 142.5t-127.5 357.5t127.5 358t321.5 143q122 0 217.5 -55.5t151.5 -156.5v290h-260v116h260v145h158v-145h148v-116h-148v-1065h-158v198q-56 -101 -151.5 -156.5t-217.5 -55.5zM228 486q0 -157 92.5 -260.5t233.5 -103.5q145 0 241 103.5
t96 260.5t-96 261t-241 104q-141 0 -233.5 -104t-92.5 -261z" />
    <glyph glyph-name="Emacron" unicode="&#x112;" horiz-adv-x="1112" 
d="M1013 1097h-686v-390h605v-136h-605v-430h686v-141h-852v1238h852v-141zM430 1349v99h352v-99h-352z" />
    <glyph glyph-name="emacron" unicode="&#x113;" horiz-adv-x="1103" 
d="M380 1100v99h352v-99h-352zM73 486q0 216 136.5 359.5t345.5 143.5q95 0 177.5 -31.5t140 -86.5t96.5 -126.5t54 -154t5 -167.5h-805q19 -135 109.5 -218t222.5 -83q172 0 269 140l120 -83q-142 -195 -389 -195q-208 0 -345 143.5t-137 358.5zM221 541h662
q-13 129 -98.5 218.5t-229.5 89.5q-134 0 -226 -85.5t-108 -222.5z" />
    <glyph glyph-name="Ebreve" unicode="&#x114;" horiz-adv-x="1112" 
d="M1013 1097h-686v-390h605v-136h-605v-430h686v-141h-852v1238h852v-141zM424 1498l105 14q3 -51 23.5 -77.5t52.5 -26.5t53.5 26.5t24.5 77.5l104 -14q-8 -88 -56 -137t-126 -49q-77 0 -125.5 49t-55.5 137z" />
    <glyph glyph-name="ebreve" unicode="&#x115;" horiz-adv-x="1103" 
d="M737 1249q-8 -88 -56 -137t-126 -49q-77 0 -125 49t-55 137l104 14q3 -52 23.5 -78.5t52.5 -26.5t53.5 27t24.5 78zM73 486q0 216 136.5 359.5t345.5 143.5q95 0 177.5 -31.5t140 -86.5t96.5 -126.5t54 -154t5 -167.5h-805q19 -135 109.5 -218t222.5 -83q172 0 269 140
l120 -83q-142 -195 -389 -195q-208 0 -345 143.5t-137 358.5zM221 541h662q-13 129 -98.5 218.5t-229.5 89.5q-134 0 -226 -85.5t-108 -222.5z" />
    <glyph glyph-name="Edotaccent" unicode="&#x116;" horiz-adv-x="1112" 
d="M1013 1097h-686v-390h605v-136h-605v-430h686v-141h-852v1238h852v-141zM531 1406q0 31 21.5 52.5t52.5 21.5t52.5 -21.5t21.5 -52.5q0 -32 -21.5 -53t-52.5 -21t-52.5 21.5t-21.5 52.5z" />
    <glyph glyph-name="edotaccent" unicode="&#x117;" horiz-adv-x="1103" 
d="M555 1082q-31 0 -52.5 22t-21.5 53t21.5 52.5t52.5 21.5t53 -21.5t22 -52.5t-22 -53t-53 -22zM73 486q0 216 136.5 359.5t345.5 143.5q95 0 177.5 -31.5t140 -86.5t96.5 -126.5t54 -154t5 -167.5h-805q19 -135 109.5 -218t222.5 -83q172 0 269 140l120 -83
q-142 -195 -389 -195q-208 0 -345 143.5t-137 358.5zM221 541h662q-13 129 -98.5 218.5t-229.5 89.5q-134 0 -226 -85.5t-108 -222.5z" />
    <glyph glyph-name="Eogonek" unicode="&#x118;" horiz-adv-x="1112" 
d="M1013 1097h-686v-390h605v-136h-605v-430h686v-141h-1q-73 -31 -115.5 -78.5t-42.5 -100.5q0 -49 29 -77.5t77 -28.5q75 0 126 92l64 -26q-62 -151 -211 -151q-81 0 -131.5 49.5t-50.5 124.5q0 123 127 196h-723v1238h852v-141z" />
    <glyph glyph-name="eogonek" unicode="&#x119;" horiz-adv-x="1103" 
d="M73 486q0 216 136.5 359.5t345.5 143.5q95 0 177.5 -31.5t140 -86.5t96.5 -126.5t54 -154t5 -167.5h-805q19 -135 109.5 -218t222.5 -83q172 0 269 140l120 -83q-139 -189 -375 -195q-68 -31 -106.5 -77t-38.5 -96q0 -48 29.5 -77t77.5 -29q74 0 125 92l64 -27
q-61 -150 -211 -150q-81 0 -131.5 49t-50.5 124q0 64 36 115.5t97 84.5q-173 33 -280 169t-107 324zM221 541h662q-13 129 -98.5 218.5t-229.5 89.5q-134 0 -226 -85.5t-108 -222.5z" />
    <glyph glyph-name="Ecaron" unicode="&#x11a;" horiz-adv-x="1112" 
d="M1013 1097h-686v-390h605v-136h-605v-430h686v-141h-852v1238h852v-141zM414 1482l78 74l113 -118l113 118l78 -74l-191 -173z" />
    <glyph glyph-name="ecaron" unicode="&#x11b;" horiz-adv-x="1103" 
d="M555 1059l-191 174l78 74l113 -119l114 119l77 -74zM73 486q0 216 136.5 359.5t345.5 143.5q95 0 177.5 -31.5t140 -86.5t96.5 -126.5t54 -154t5 -167.5h-805q19 -135 109.5 -218t222.5 -83q172 0 269 140l120 -83q-142 -195 -389 -195q-208 0 -345 143.5t-137 358.5z
M221 541h662q-13 129 -98.5 218.5t-229.5 89.5q-134 0 -226 -85.5t-108 -222.5z" />
    <glyph glyph-name="Gcircumflex" unicode="&#x11c;" horiz-adv-x="1407" 
d="M1316 702q22 -209 -46.5 -374t-211.5 -256t-336 -91q-183 0 -328 81.5t-226 227.5t-81 329q0 278 178.5 457.5t456.5 179.5q146 0 275 -61.5t206 -161.5l-110 -97q-62 77 -161 124t-209 47q-206 0 -336.5 -136.5t-130.5 -351.5t130.5 -350t336.5 -135q194 0 317.5 121.5
t123.5 315.5h-411v131h563zM529 1401l191 175l191 -175l-78 -73l-113 117l-113 -117z" />
    <glyph glyph-name="gcircumflex" unicode="&#x11d;" horiz-adv-x="1029" 
d="M492 265q-110 0 -197 41q-56 -45 -56 -101q0 -48 41.5 -71t129.5 -23h228q168 0 256 -62t88 -199q0 -143 -113.5 -219.5t-325.5 -76.5q-316 0 -520 117l64 124q175 -99 456 -99q283 0 283 150q0 74 -51 101.5t-161 27.5h-234q-148 0 -226 51.5t-78 146.5q0 116 119 200
q-107 102 -107 251q0 159 112.5 262.5t284.5 103.5q162 0 274 -95q74 92 263 92v-142q-117 0 -191 -39q48 -82 48 -182q0 -157 -109 -258t-278 -101zM241 624q0 -98 70.5 -161t180.5 -63q102 0 168.5 63t66.5 161q0 101 -68.5 166.5t-173.5 65.5q-106 0 -175 -65.5
t-69 -166.5zM292 1135l191 176l191 -176l-78 -72l-113 117l-113 -117z" />
    <glyph glyph-name="Gbreve" unicode="&#x11e;" horiz-adv-x="1407" 
d="M1316 702q22 -209 -46.5 -374t-211.5 -256t-336 -91q-183 0 -328 81.5t-226 227.5t-81 329q0 278 178.5 457.5t456.5 179.5q146 0 275 -61.5t206 -161.5l-110 -97q-62 77 -161 124t-209 47q-206 0 -336.5 -136.5t-130.5 -351.5t130.5 -350t336.5 -135q194 0 317.5 121.5
t123.5 315.5h-411v131h563zM539 1514l105 14q3 -51 23.5 -77.5t52.5 -26.5t53.5 26.5t24.5 77.5l104 -14q-8 -88 -56 -137t-126 -49q-77 0 -125.5 49t-55.5 137z" />
    <glyph glyph-name="gbreve" unicode="&#x11f;" horiz-adv-x="1029" 
d="M492 265q-110 0 -197 41q-56 -45 -56 -101q0 -48 41.5 -71t129.5 -23h228q168 0 256 -62t88 -199q0 -143 -113.5 -219.5t-325.5 -76.5q-316 0 -520 117l64 124q175 -99 456 -99q283 0 283 150q0 74 -51 101.5t-161 27.5h-234q-148 0 -226 51.5t-78 146.5q0 116 119 200
q-107 102 -107 251q0 159 112.5 262.5t284.5 103.5q162 0 274 -95q74 92 263 92v-142q-117 0 -191 -39q48 -82 48 -182q0 -157 -109 -258t-278 -101zM241 624q0 -98 70.5 -161t180.5 -63q102 0 168.5 63t66.5 161q0 101 -68.5 166.5t-173.5 65.5q-106 0 -175 -65.5
t-69 -166.5zM302 1249l105 14q3 -52 23.5 -78.5t52.5 -26.5t53.5 27t24.5 78l104 -14q-8 -88 -56 -137t-126 -49q-77 0 -125.5 49t-55.5 137z" />
    <glyph glyph-name="Gdotaccent" unicode="&#x120;" horiz-adv-x="1407" 
d="M1316 702q22 -209 -46.5 -374t-211.5 -256t-336 -91q-183 0 -328 81.5t-226 227.5t-81 329q0 278 178.5 457.5t456.5 179.5q146 0 275 -61.5t206 -161.5l-110 -97q-62 77 -161 124t-209 47q-206 0 -336.5 -136.5t-130.5 -351.5t130.5 -350t336.5 -135q194 0 317.5 121.5
t123.5 315.5h-411v131h563zM646 1422q0 31 21.5 52.5t52.5 21.5t52.5 -21.5t21.5 -52.5q0 -32 -21 -53t-53 -21q-31 0 -52.5 21.5t-21.5 52.5z" />
    <glyph glyph-name="gdotaccent" unicode="&#x121;" horiz-adv-x="1029" 
d="M492 265q-110 0 -197 41q-56 -45 -56 -101q0 -48 41.5 -71t129.5 -23h228q168 0 256 -62t88 -199q0 -143 -113.5 -219.5t-325.5 -76.5q-316 0 -520 117l64 124q175 -99 456 -99q283 0 283 150q0 74 -51 101.5t-161 27.5h-234q-148 0 -226 51.5t-78 146.5q0 116 119 200
q-107 102 -107 251q0 159 112.5 262.5t284.5 103.5q162 0 274 -95q74 92 263 92v-142q-117 0 -191 -39q48 -82 48 -182q0 -157 -109 -258t-278 -101zM241 624q0 -98 70.5 -161t180.5 -63q102 0 168.5 63t66.5 161q0 101 -68.5 166.5t-173.5 65.5q-106 0 -175 -65.5
t-69 -166.5zM409 1157q0 31 21.5 52.5t52.5 21.5t52.5 -21.5t21.5 -52.5q0 -32 -21.5 -53.5t-52.5 -21.5t-52.5 22t-21.5 53z" />
    <glyph glyph-name="uni0122" unicode="&#x122;" horiz-adv-x="1407" 
d="M1316 702q22 -209 -46.5 -374t-211.5 -256t-336 -91q-183 0 -328 81.5t-226 227.5t-81 329q0 278 178.5 457.5t456.5 179.5q146 0 275 -61.5t206 -161.5l-110 -97q-62 77 -161 124t-209 47q-206 0 -336.5 -136.5t-130.5 -351.5t130.5 -350t336.5 -135q194 0 317.5 121.5
t123.5 315.5h-411v131h563zM661 -400v303h126v-112l-44 -191h-82z" />
    <glyph glyph-name="uni0123" unicode="&#x123;" horiz-adv-x="1029" 
d="M492 265q-110 0 -197 41q-56 -45 -56 -101q0 -48 41.5 -71t129.5 -23h228q168 0 256 -62t88 -199q0 -143 -113.5 -219.5t-325.5 -76.5q-316 0 -520 117l64 124q175 -99 456 -99q283 0 283 150q0 74 -51 101.5t-161 27.5h-234q-148 0 -226 51.5t-78 146.5q0 116 119 200
q-107 102 -107 251q0 159 112.5 262.5t284.5 103.5q162 0 274 -95q74 92 263 92v-142q-117 0 -191 -39q48 -82 48 -182q0 -157 -109 -258t-278 -101zM241 624q0 -98 70.5 -161t180.5 -63q102 0 168.5 63t66.5 161q0 101 -68.5 166.5t-173.5 65.5q-106 0 -175 -65.5
t-69 -166.5zM416 1068l85 265h114l-65 -265h-134z" />
    <glyph glyph-name="Hcircumflex" unicode="&#x124;" horiz-adv-x="1329" 
d="M161 1238h166v-522h676v522h166v-1238h-166v575h-676v-575h-166v1238zM474 1385l191 175l191 -175l-78 -73l-113 117l-113 -117z" />
    <glyph glyph-name="hcircumflex" unicode="&#x125;" horiz-adv-x="1124" 
d="M134 0v1326h158v-535q52 92 141 142t205 50q178 0 277.5 -120t99.5 -332v-531h-157v531q0 146 -76 233.5t-204 87.5q-129 0 -207.5 -87.5t-78.5 -233.5v-531h-158zM21 1473l191 175l191 -175l-78 -72l-113 116l-113 -116z" />
    <glyph glyph-name="Hbar" unicode="&#x126;" horiz-adv-x="1329" 
d="M161 1238h166v-193h676v193h166v-193h108v-117h-108v-928h-166v575h-676v-575h-166v928h-113v117h113v193zM327 716h676v212h-676v-212z" />
    <glyph glyph-name="hbar" unicode="&#x127;" horiz-adv-x="1124" 
d="M134 0v1059h-123v117h123v150h158v-150h228v-117h-228v-268q52 92 141 142t205 50q178 0 277.5 -120t99.5 -332v-531h-157v531q0 146 -76 233.5t-204 87.5q-129 0 -207.5 -87.5t-78.5 -233.5v-531h-158z" />
    <glyph glyph-name="Itilde" unicode="&#x128;" horiz-adv-x="488" 
d="M161 1238h166v-1238h-166v1238zM39 1410q59 90 140 90q27 0 48.5 -13.5t32.5 -29t26.5 -29t31.5 -13.5q42 0 78 51l57 -56q-24 -41 -60.5 -65t-75.5 -24q-28 0 -49.5 13.5t-32 30t-26.5 30t-34 13.5q-45 0 -81 -55z" />
    <glyph glyph-name="itilde" unicode="&#x129;" horiz-adv-x="426" 
d="M134 0v973h158v-973h-158zM7 1144q59 90 140 90q27 0 48.5 -13t33 -29t27 -29t31.5 -13q41 0 77 51l57 -57q-24 -40 -60.5 -64t-75.5 -24q-28 0 -49.5 13.5t-32 29.5t-26.5 29.5t-34 13.5q-46 0 -81 -54z" />
    <glyph glyph-name="Imacron" unicode="&#x12a;" horiz-adv-x="488" 
d="M161 1238h166v-1238h-166v1238zM67 1349v99h352v-99h-352z" />
    <glyph glyph-name="imacron" unicode="&#x12b;" horiz-adv-x="426" 
d="M134 0v973h158v-973h-158zM37 1084v99h352v-99h-352z" />
    <glyph glyph-name="Ibreve" unicode="&#x12c;" horiz-adv-x="488" 
d="M161 1238h166v-1238h-166v1238zM64 1498l104 14q3 -51 23.5 -77.5t52.5 -26.5t53.5 26.5t24.5 77.5l104 -14q-8 -88 -56 -137t-126 -49q-77 0 -125 49t-55 137z" />
    <glyph glyph-name="ibreve" unicode="&#x12d;" horiz-adv-x="426" 
d="M134 0v973h158v-973h-158zM32 1233l104 14q3 -52 23.5 -78.5t52.5 -26.5t53.5 27t24.5 78l104 -14q-8 -88 -56 -137t-126 -49q-77 0 -125 49t-55 137z" />
    <glyph glyph-name="Iogonek" unicode="&#x12e;" horiz-adv-x="488" 
d="M161 1238h166v-1238q-73 -31 -115 -78.5t-42 -100.5q0 -49 29 -77.5t77 -28.5q74 0 125 92l64 -26q-62 -151 -210 -151q-81 0 -131.5 49.5t-50.5 124.5q0 123 127 196h-39v1238z" />
    <glyph glyph-name="iogonek" unicode="&#x12f;" horiz-adv-x="426" 
d="M134 0v973h158v-973h-2q-73 -31 -115 -78.5t-42 -100.5q0 -49 29 -77.5t77 -28.5q74 0 125 92l64 -26q-62 -151 -210 -151q-81 0 -132 49.5t-51 124.5q0 122 128 196h-29zM138 1141q0 31 21.5 52.5t52.5 21.5t53 -21.5t22 -52.5t-21.5 -53t-53.5 -22q-31 0 -52.5 22
t-21.5 53z" />
    <glyph glyph-name="Idotaccent" unicode="&#x130;" horiz-adv-x="488" 
d="M161 1238h166v-1238h-166v1238zM170 1406q0 31 21.5 52.5t52.5 21.5t52.5 -21.5t21.5 -52.5q0 -32 -21 -53t-53 -21q-31 0 -52.5 21.5t-21.5 52.5z" />
    <glyph glyph-name="dotlessi" unicode="&#x131;" horiz-adv-x="426" 
d="M134 0v973h158v-973h-158z" />
    <glyph glyph-name="IJ" unicode="&#x132;" horiz-adv-x="1406" 
d="M161 1238h166v-1238h-166v1238zM497 264l149 56q17 -88 77.5 -138.5t151.5 -50.5q101 0 158.5 62.5t57.5 174.5v870h166v-870q0 -182 -98 -284t-276 -102q-149 0 -249.5 72t-136.5 210z" />
    <glyph glyph-name="ij" unicode="&#x133;" horiz-adv-x="845" 
d="M134 0v973h158v-973h-158zM106 1234q0 44 31.5 75.5t74.5 31.5q45 0 76.5 -31.5t31.5 -75.5q0 -45 -31.5 -76t-76.5 -31q-44 0 -75 31t-31 76zM219 -380l57 115q78 -36 136 -36q71 0 107 49t36 171v1054h158v-1079q0 -179 -72.5 -260t-198.5 -81q-105 0 -223 67z
M525 1234q0 44 31.5 74.5t76.5 30.5t75.5 -30.5t30.5 -74.5q0 -45 -30.5 -76t-75.5 -31t-76.5 31t-31.5 76z" />
    <glyph glyph-name="Jcircumflex" unicode="&#x134;" horiz-adv-x="917" 
d="M157 320q17 -88 78 -138.5t152 -50.5q101 0 158.5 62.5t57.5 174.5v870h166v-870q0 -182 -98.5 -284t-276.5 -102q-149 0 -249 72t-136 210zM495 1385l191 175l191 -175l-78 -73l-113 117l-113 -117z" />
    <glyph glyph-name="jcircumflex" unicode="&#x135;" horiz-adv-x="426" 
d="M-145 -265q78 -36 136 -36q71 0 107 49t36 171v1054h158v-1079q0 -179 -72.5 -260t-198.5 -81q-105 0 -223 67zM21 1120l191 175l191 -175l-78 -73l-113 117l-113 -117z" />
    <glyph glyph-name="uni0136" unicode="&#x136;" horiz-adv-x="1130" 
d="M161 1238h166v-536l552 536h203v-7l-610 -584l632 -640v-7h-204l-573 585v-585h-166v1238zM536 -386v303h125v-112l-44 -191h-81z" />
    <glyph glyph-name="uni0137" unicode="&#x137;" horiz-adv-x="923" 
d="M134 0v1326h158v-751l419 398h193v-6l-464 -431l478 -531v-5h-186l-440 493v-493h-158zM446 -386v303h125v-112l-44 -191h-81z" />
    <glyph glyph-name="Lacute" unicode="&#x139;" horiz-adv-x="1015" 
d="M327 141h628v-141h-794v1238h166v-1097zM150 1326l144 206h187l-194 -206h-137z" />
    <glyph glyph-name="lacute" unicode="&#x13a;" horiz-adv-x="426" 
d="M134 0v1326h158v-1326h-158zM118 1415l144 205h187l-194 -205h-137z" />
    <glyph glyph-name="uni013B" unicode="&#x13b;" horiz-adv-x="1015" 
d="M327 141h628v-141h-794v1238h166v-1097zM529 -386v303h125v-112l-44 -191h-81z" />
    <glyph glyph-name="uni013C" unicode="&#x13c;" horiz-adv-x="426" 
d="M134 0v1326h158v-1326h-158zM154 -386v303h125v-112l-44 -191h-81z" />
    <glyph glyph-name="Lcaron" unicode="&#x13d;" horiz-adv-x="1015" 
d="M327 141h628v-141h-794v1238h166v-1097zM737 821v417h124v-154l-44 -263h-80z" />
    <glyph glyph-name="lcaron" unicode="&#x13e;" horiz-adv-x="569" 
d="M134 0v1326h158v-1326h-158zM439 881v449h129v-166l-46 -283h-83z" />
    <glyph glyph-name="Ldot" unicode="&#x13f;" horiz-adv-x="1015" 
d="M327 141h628v-141h-794v1238h166v-1097zM600 684q0 41 28 69.5t69 28.5q40 0 68.5 -28.5t28.5 -69.5t-28.5 -69t-68.5 -28q-41 0 -69 28t-28 69z" />
    <glyph glyph-name="ldot" unicode="&#x140;" horiz-adv-x="571" 
d="M134 0v1326h158v-1326h-158zM403 626q0 38 27 66t65 28q37 0 64.5 -28t27.5 -66q0 -37 -27 -63.5t-65 -26.5t-65 26.5t-27 63.5z" />
    <glyph glyph-name="Lslash" unicode="&#x141;" horiz-adv-x="1015" 
d="M327 141h628v-141h-794v416l-152 -108v159l152 108v663h166v-545l327 234v-158l-327 -233v-395z" />
    <glyph glyph-name="lslash" unicode="&#x142;" horiz-adv-x="486" 
d="M166 0v465l-154 -150v155l154 151v705h158v-553l152 148v-153l-152 -149v-619h-158z" />
    <glyph glyph-name="Nacute" unicode="&#x143;" horiz-adv-x="1368" 
d="M1208 0h-120l-764 943v-943h-163v1238h120l764 -943v943h163v-1238zM607 1326l143 206h187l-194 -206h-136z" />
    <glyph glyph-name="nacute" unicode="&#x144;" horiz-adv-x="1124" 
d="M134 0v973h158v-177q51 92 138.5 142.5t202.5 50.5q180 0 280.5 -117.5t99.5 -326.5v-545h-157l2 536q0 145 -77 232.5t-203 87.5q-130 0 -208 -87.5t-78 -232.5v-536h-158zM467 1061l143 205h188l-195 -205h-136z" />
    <glyph glyph-name="uni0145" unicode="&#x145;" horiz-adv-x="1368" 
d="M1208 0h-120l-764 943v-943h-163v1238h120l764 -943v943h163v-1238zM626 -386v303h126v-112l-45 -191h-81z" />
    <glyph glyph-name="uni0146" unicode="&#x146;" horiz-adv-x="1124" 
d="M134 0v973h158v-177q51 92 138.5 142.5t202.5 50.5q180 0 280.5 -117.5t99.5 -326.5v-545h-157l2 536q0 145 -77 232.5t-203 87.5q-130 0 -208 -87.5t-78 -232.5v-536h-158zM520 -386v303h126v-112l-45 -191h-81z" />
    <glyph glyph-name="Ncaron" unicode="&#x147;" horiz-adv-x="1368" 
d="M1208 0h-120l-764 943v-943h-163v1238h120l764 -943v943h163v-1238zM511 1482l78 74l113 -118l113 118l78 -74l-191 -173z" />
    <glyph glyph-name="ncaron" unicode="&#x148;" horiz-adv-x="1124" 
d="M134 0v973h158v-177q51 92 138.5 142.5t202.5 50.5q180 0 280.5 -117.5t99.5 -326.5v-545h-157l2 536q0 145 -77 232.5t-203 87.5q-130 0 -208 -87.5t-78 -232.5v-536h-158zM371 1217l78 74l113 -118l114 118l77 -74l-191 -174z" />
    <glyph glyph-name="napostrophe" unicode="&#x149;" horiz-adv-x="1124" 
d="M134 0v973h158v-177q51 92 138.5 142.5t202.5 50.5q180 0 280.5 -117.5t99.5 -326.5v-545h-157l2 536q0 145 -77 232.5t-203 87.5q-130 0 -208 -87.5t-78 -232.5v-536h-158zM143 1075l80 400h132l-109 -400h-103z" />
    <glyph glyph-name="Eng" unicode="&#x14a;" horiz-adv-x="1368" 
d="M1208 -122q0 -102 -42 -177t-110 -110t-149 -42t-165 20.5t-151 82.5l62 113q90 -65 182 -73.5t154 48t62 166.5v140l-727 897v-943h-163v1238h120l764 -943v943h163v-1360z" />
    <glyph glyph-name="eng" unicode="&#x14b;" horiz-adv-x="1124" 
d="M134 0v973h158v-177q51 92 138.5 142.5t202.5 50.5q180 0 280.5 -117.5t99.5 -326.5v-667q0 -102 -42 -177t-110 -110t-149 -42t-165 20.5t-151 82.5l62 113q90 -65 182 -73.5t154 48t62 166.5v260l2 370q0 145 -77 232.5t-203 87.5q-130 0 -208 -87.5t-78 -232.5v-536
h-158z" />
    <glyph glyph-name="Omacron" unicode="&#x14c;" horiz-adv-x="1436" 
d="M718 -19q-134 0 -251.5 48.5t-200.5 132.5t-131 202.5t-48 254.5t48 254.5t131 202.5t200.5 132.5t251.5 48.5t251.5 -48.5t200.5 -132.5t131 -202.5t48 -254.5t-48 -254.5t-131 -202.5t-200.5 -132.5t-251.5 -48.5zM253 619q0 -209 131.5 -346t333.5 -137t333.5 137
t131.5 346t-131.5 346t-333.5 137t-333.5 -137t-131.5 -346zM543 1369v99h352v-99h-352z" />
    <glyph glyph-name="omacron" unicode="&#x14d;" horiz-adv-x="1126" 
d="M562 -21q-214 0 -351.5 142.5t-137.5 364.5q0 223 137.5 365.5t351.5 142.5q215 0 353.5 -142.5t138.5 -365.5t-138.5 -365t-353.5 -142zM225 486q0 -159 95.5 -262.5t241.5 -103.5q147 0 243.5 103.5t96.5 262.5t-96.5 262.5t-243.5 103.5q-146 0 -241.5 -103.5
t-95.5 -262.5zM387 1097v99h352v-99h-352z" />
    <glyph glyph-name="Obreve" unicode="&#x14e;" horiz-adv-x="1436" 
d="M718 -19q-134 0 -251.5 48.5t-200.5 132.5t-131 202.5t-48 254.5t48 254.5t131 202.5t200.5 132.5t251.5 48.5t251.5 -48.5t200.5 -132.5t131 -202.5t48 -254.5t-48 -254.5t-131 -202.5t-200.5 -132.5t-251.5 -48.5zM253 619q0 -209 131.5 -346t333.5 -137t333.5 137
t131.5 346t-131.5 346t-333.5 137t-333.5 -137t-131.5 -346zM538 1517l104 15q3 -52 23.5 -78.5t52.5 -26.5t53.5 27t24.5 78l104 -15q-8 -88 -56 -136.5t-126 -48.5q-77 0 -125 48.5t-55 136.5z" />
    <glyph glyph-name="obreve" unicode="&#x14f;" horiz-adv-x="1126" 
d="M562 -21q-214 0 -351.5 142.5t-137.5 364.5q0 223 137.5 365.5t351.5 142.5q215 0 353.5 -142.5t138.5 -365.5t-138.5 -365t-353.5 -142zM225 486q0 -159 95.5 -262.5t241.5 -103.5q147 0 243.5 103.5t96.5 262.5t-96.5 262.5t-243.5 103.5q-146 0 -241.5 -103.5
t-95.5 -262.5zM382 1245l104 14q3 -51 23.5 -77.5t52.5 -26.5t53.5 26.5t24.5 77.5l105 -14q-8 -88 -56.5 -137t-126.5 -49q-77 0 -125 49t-55 137z" />
    <glyph glyph-name="Ohungarumlaut" unicode="&#x150;" horiz-adv-x="1436" 
d="M718 -19q-134 0 -251.5 48.5t-200.5 132.5t-131 202.5t-48 254.5t48 254.5t131 202.5t200.5 132.5t251.5 48.5t251.5 -48.5t200.5 -132.5t131 -202.5t48 -254.5t-48 -254.5t-131 -202.5t-200.5 -132.5t-251.5 -48.5zM253 619q0 -209 131.5 -346t333.5 -137t333.5 137
t131.5 346t-131.5 346t-333.5 137t-333.5 -137t-131.5 -346zM585 1346l91 240h106l-112 -240h-85zM746 1346l91 240h106l-112 -240h-85z" />
    <glyph glyph-name="ohungarumlaut" unicode="&#x151;" horiz-adv-x="1126" 
d="M562 -21q-214 0 -351.5 142.5t-137.5 364.5q0 223 137.5 365.5t351.5 142.5q215 0 353.5 -142.5t138.5 -365.5t-138.5 -365t-353.5 -142zM225 486q0 -159 95.5 -262.5t241.5 -103.5q147 0 243.5 103.5t96.5 262.5t-96.5 262.5t-243.5 103.5q-146 0 -241.5 -103.5
t-95.5 -262.5zM430 1074l90 240h106l-111 -240h-85zM591 1074l90 240h106l-111 -240h-85z" />
    <glyph glyph-name="OE" unicode="&#x152;" horiz-adv-x="1839" 
d="M730 0q-307 0 -475 161.5t-168 457.5t168 457.5t475 161.5h1010v-141h-686v-390h605v-136h-605v-430h686v-141h-1010zM253 619q0 -228 122.5 -353t347.5 -125h165v956h-165q-225 0 -347.5 -125t-122.5 -353z" />
    <glyph glyph-name="oe" unicode="&#x153;" horiz-adv-x="1779" 
d="M73 486q0 221 136.5 362.5t351.5 141.5q198 0 334 -136q138 135 338 135q119 0 215.5 -48.5t155.5 -128.5t86 -181.5t15 -207.5h-805q13 -99 71 -177l9 -4l-2 -3q46 -55 112 -86t143 -31q172 0 269 140l120 -83q-142 -195 -389 -195q-202 0 -338 136
q-62 -65 -148.5 -101.5t-185.5 -36.5q-215 0 -351.5 141.5t-136.5 362.5zM223 486q0 -159 95 -261.5t243 -102.5q150 0 247 115q-58 114 -58 249q0 137 58 248q-99 117 -247 117t-243 -103t-95 -262zM898 541h662q-13 129 -98 218.5t-229 89.5q-160 0 -255 -115l2 -4l-7 -3
q-62 -79 -75 -186z" />
    <glyph glyph-name="Racute" unicode="&#x154;" horiz-adv-x="1172" 
d="M921 0l-261 485h-333v-485h-166v1238h527q185 0 293 -102t108 -275q0 -137 -70 -231t-197 -129l275 -490v-11h-176zM327 626h342q116 0 185 64.5t69 170.5t-69 171t-185 65h-342v-471zM490 1326l143 206h188l-195 -206h-136z" />
    <glyph glyph-name="racute" unicode="&#x155;" horiz-adv-x="739" 
d="M470 1266h188l-195 -205h-136zM134 0v973h135l12 -262h4q32 120 142.5 197t253.5 72v-151q-58 3 -114 -10.5t-105.5 -45t-87 -77.5t-59 -111.5t-21.5 -142.5v-442h-160z" />
    <glyph glyph-name="uni0156" unicode="&#x156;" horiz-adv-x="1172" 
d="M921 0l-261 485h-333v-485h-166v1238h527q185 0 293 -102t108 -275q0 -137 -70 -231t-197 -129l275 -490v-11h-176zM327 626h342q116 0 185 64.5t69 170.5t-69 171t-185 65h-342v-471zM559 -386v303h125v-112l-44 -191h-81z" />
    <glyph glyph-name="uni0157" unicode="&#x157;" horiz-adv-x="739" 
d="M154 -83h125v-112l-44 -191h-81v303zM134 0v973h135l12 -262h4q32 120 142.5 197t253.5 72v-151q-58 3 -114 -10.5t-105.5 -45t-87 -77.5t-59 -111.5t-21.5 -142.5v-442h-160z" />
    <glyph glyph-name="Rcaron" unicode="&#x158;" horiz-adv-x="1172" 
d="M921 0l-261 485h-333v-485h-166v1238h527q185 0 293 -102t108 -275q0 -137 -70 -231t-197 -129l275 -490v-11h-176zM327 626h342q116 0 185 64.5t69 170.5t-69 171t-185 65h-342v-471zM394 1482l78 74l113 -118l114 118l77 -74l-191 -173z" />
    <glyph glyph-name="rcaron" unicode="&#x159;" horiz-adv-x="739" 
d="M423 1043l-191 174l77 74l114 -118l113 118l78 -74zM134 0v973h135l12 -262h4q32 120 142.5 197t253.5 72v-151q-58 3 -114 -10.5t-105.5 -45t-87 -77.5t-59 -111.5t-21.5 -142.5v-442h-160z" />
    <glyph glyph-name="Sacute" unicode="&#x15a;" horiz-adv-x="1112" 
d="M852 909q-39 97 -122.5 151t-207.5 54q-119 0 -193 -45t-74 -142q0 -40 17.5 -72t47 -54t74.5 -40.5t94 -33.5t113 -32q2 0 3 -0.5t3 -1t3 -0.5q79 -21 133 -39.5t110 -48.5t89 -65.5t54 -89t21 -121.5q0 -74 -27 -134t-72 -99t-105.5 -65.5t-125 -38t-133.5 -11.5
q-182 0 -313.5 81.5t-175.5 236.5l137 72q41 -126 136 -186.5t224 -60.5q59 0 109.5 11t92 34t65 62t23.5 91q0 42 -15 75.5t-39.5 57t-68 45t-87 36t-110.5 33.5q-173 47 -247 83q-195 95 -195 276q0 70 24 126t65 93.5t98 62.5t119.5 36t132.5 11q180 0 297 -76.5
t168 -206.5zM447 1344l144 205h187l-194 -205h-137z" />
    <glyph glyph-name="sacute" unicode="&#x15b;" horiz-adv-x="916" 
d="M699 713q-27 70 -93.5 112t-161.5 42q-92 0 -150.5 -35.5t-58.5 -104.5q0 -31 15 -55.5t36 -41t61 -31.5t72 -23.5t87 -21.5q64 -16 110.5 -31.5t92 -40.5t74 -55t45.5 -73.5t17 -97.5q0 -93 -58.5 -157.5t-143 -92t-183.5 -27.5q-155 0 -263.5 62.5t-143.5 184.5l129 62
q31 -93 106.5 -136.5t173.5 -43.5q97 0 162.5 38t65.5 114q0 30 -12 54t-30.5 40.5t-51.5 31t-64 23.5t-79 21q-42 10 -68.5 17.5t-70 22t-71.5 28.5t-61.5 37t-53.5 48t-34 60t-14 75q1 90 54.5 154.5t134.5 93t178 28.5q146 0 244.5 -61.5t137.5 -164.5zM352 1081l143 205
h188l-195 -205h-136z" />
    <glyph glyph-name="Scircumflex" unicode="&#x15c;" horiz-adv-x="1112" 
d="M852 909q-39 97 -122.5 151t-207.5 54q-119 0 -193 -45t-74 -142q0 -40 17.5 -72t47 -54t74.5 -40.5t94 -33.5t113 -32q2 0 3 -0.5t3 -1t3 -0.5q79 -21 133 -39.5t110 -48.5t89 -65.5t54 -89t21 -121.5q0 -74 -27 -134t-72 -99t-105.5 -65.5t-125 -38t-133.5 -11.5
q-182 0 -313.5 81.5t-175.5 236.5l137 72q41 -126 136 -186.5t224 -60.5q59 0 109.5 11t92 34t65 62t23.5 91q0 42 -15 75.5t-39.5 57t-68 45t-87 36t-110.5 33.5q-173 47 -247 83q-195 95 -195 276q0 70 24 126t65 93.5t98 62.5t119.5 36t132.5 11q180 0 297 -76.5
t168 -206.5zM352 1402l191 176l191 -176l-78 -72l-113 117l-113 -117z" />
    <glyph glyph-name="scircumflex" unicode="&#x15d;" horiz-adv-x="916" 
d="M699 713q-27 70 -93.5 112t-161.5 42q-92 0 -150.5 -35.5t-58.5 -104.5q0 -31 15 -55.5t36 -41t61 -31.5t72 -23.5t87 -21.5q64 -16 110.5 -31.5t92 -40.5t74 -55t45.5 -73.5t17 -97.5q0 -93 -58.5 -157.5t-143 -92t-183.5 -27.5q-155 0 -263.5 62.5t-143.5 184.5l129 62
q31 -93 106.5 -136.5t173.5 -43.5q97 0 162.5 38t65.5 114q0 30 -12 54t-30.5 40.5t-51.5 31t-64 23.5t-79 21q-42 10 -68.5 17.5t-70 22t-71.5 28.5t-61.5 37t-53.5 48t-34 60t-14 75q1 90 54.5 154.5t134.5 93t178 28.5q146 0 244.5 -61.5t137.5 -164.5zM256 1139l191 175
l191 -175l-77 -73l-114 117l-113 -117z" />
    <glyph glyph-name="Scedilla" unicode="&#x15e;" horiz-adv-x="1112" 
d="M852 909q-39 97 -122.5 151t-207.5 54q-119 0 -193 -45t-74 -142q0 -40 17.5 -72t47 -54t74.5 -40.5t94 -33.5t113 -32q2 0 3 -0.5t3 -1t3 -0.5q79 -21 133 -39.5t110 -48.5t89 -65.5t54 -89t21 -121.5q0 -85 -35.5 -151.5t-96 -107t-132.5 -62t-153 -26.5l-38 -104
q56 -11 80.5 -41t24.5 -67q0 -54 -40 -89t-112 -35q-92 0 -181 55l32 62q84 -46 140 -46q65 0 65 57q0 28 -22.5 46t-79.5 28l39 134q-165 9 -283 90t-160 227l137 72q41 -126 136 -186.5t224 -60.5q59 0 109.5 11t92 34t65 62t23.5 91q0 42 -15 75.5t-39.5 57t-68 45
t-87 36t-110.5 33.5q-173 47 -247 83q-195 95 -195 276q0 70 24 126t65 93.5t98 62.5t119.5 36t132.5 11q180 0 297 -76.5t168 -206.5z" />
    <glyph glyph-name="scedilla" unicode="&#x15f;" horiz-adv-x="916" 
d="M699 713q-27 70 -93.5 112t-161.5 42q-92 0 -150.5 -35.5t-58.5 -104.5q0 -31 15 -55.5t36 -41t61 -31.5t72 -23.5t87 -21.5q64 -16 110.5 -31.5t92 -40.5t74 -55t45.5 -73.5t17 -97.5q0 -65 -28.5 -116.5t-77.5 -84t-108.5 -51t-126.5 -23.5l-35 -103q56 -11 80 -41
t24 -67q0 -54 -40 -89t-112 -35q-91 0 -180 55l31 62q84 -46 140 -46q66 0 66 57q0 27 -23 45.5t-80 28.5l39 133q-139 9 -234 70t-127 175l129 62q31 -93 106.5 -136.5t173.5 -43.5q97 0 162.5 38t65.5 114q0 30 -12 54t-30.5 40.5t-51.5 31t-64 23.5t-79 21
q-42 10 -68.5 17.5t-70 22t-71.5 28.5t-61.5 37t-53.5 48t-34 60t-14 75q1 90 54.5 154.5t134.5 93t178 28.5q146 0 244.5 -61.5t137.5 -164.5z" />
    <glyph glyph-name="Scaron" unicode="&#x160;" horiz-adv-x="1112" 
d="M852 909q-39 97 -122.5 151t-207.5 54q-119 0 -193 -45t-74 -142q0 -40 17.5 -72t47 -54t74.5 -40.5t94 -33.5t113 -32q2 0 3 -0.5t3 -1t3 -0.5q79 -21 133 -39.5t110 -48.5t89 -65.5t54 -89t21 -121.5q0 -74 -27 -134t-72 -99t-105.5 -65.5t-125 -38t-133.5 -11.5
q-182 0 -313.5 81.5t-175.5 236.5l137 72q41 -126 136 -186.5t224 -60.5q59 0 109.5 11t92 34t65 62t23.5 91q0 42 -15 75.5t-39.5 57t-68 45t-87 36t-110.5 33.5q-173 47 -247 83q-195 95 -195 276q0 70 24 126t65 93.5t98 62.5t119.5 36t132.5 11q180 0 297 -76.5
t168 -206.5zM352 1500l78 74l113 -118l113 118l78 -74l-191 -174z" />
    <glyph glyph-name="scaron" unicode="&#x161;" horiz-adv-x="916" 
d="M699 713q-27 70 -93.5 112t-161.5 42q-92 0 -150.5 -35.5t-58.5 -104.5q0 -31 15 -55.5t36 -41t61 -31.5t72 -23.5t87 -21.5q64 -16 110.5 -31.5t92 -40.5t74 -55t45.5 -73.5t17 -97.5q0 -93 -58.5 -157.5t-143 -92t-183.5 -27.5q-155 0 -263.5 62.5t-143.5 184.5l129 62
q31 -93 106.5 -136.5t173.5 -43.5q97 0 162.5 38t65.5 114q0 30 -12 54t-30.5 40.5t-51.5 31t-64 23.5t-79 21q-42 10 -68.5 17.5t-70 22t-71.5 28.5t-61.5 37t-53.5 48t-34 60t-14 75q1 90 54.5 154.5t134.5 93t178 28.5q146 0 244.5 -61.5t137.5 -164.5zM256 1236l78 75
l113 -119l114 119l77 -75l-191 -173z" />
    <glyph glyph-name="uni0162" unicode="&#x162;" horiz-adv-x="1115" 
d="M65 1238h987v-141h-410v-1097h-39l-35 -103q104 -21 104 -107q0 -54 -40 -89t-112 -35q-91 0 -180 55l31 61q84 -46 140 -46q66 0 66 57q0 27 -23 45.5t-80 28.5l39 133h-37v1097h-411v141z" />
    <glyph glyph-name="uni0163" unicode="&#x163;" horiz-adv-x="664" 
d="M51 973h136v214l158 32v-246h240v-124h-240v-508q0 -108 40.5 -156.5t139.5 -48.5h87v-136h-117l-35 -103q104 -21 104 -107q0 -54 -40 -89t-112 -35q-91 0 -180 55l32 61q84 -46 139 -46q66 0 66 57q0 27 -23 45.5t-80 28.5l41 137q-220 33 -220 286v559h-136v124z" />
    <glyph glyph-name="Tcaron" unicode="&#x164;" horiz-adv-x="1115" 
d="M65 1238h987v-141h-410v-1097h-166v1097h-411v141zM366 1482l78 74l113 -118l113 118l78 -74l-191 -173z" />
    <glyph glyph-name="tcaron" unicode="&#x165;" horiz-adv-x="664" 
d="M51 973h136v214l158 32v-246h240v-124h-240v-508q0 -108 40.5 -156.5t139.5 -48.5h87v-136h-140q-148 0 -216.5 73.5t-68.5 216.5v559h-136v124zM486 1047v279h115v-102l-40 -177h-75z" />
    <glyph glyph-name="Tbar" unicode="&#x166;" horiz-adv-x="1115" 
d="M65 1238h987v-141h-410v-416h258v-124h-258v-557h-166v557h-258v124h258v416h-411v141z" />
    <glyph glyph-name="tbar" unicode="&#x167;" horiz-adv-x="664" 
d="M51 973h136v214l158 32v-246h240v-124h-240v-219h239v-119h-239v-170q0 -108 40.5 -156.5t139.5 -48.5h87v-136h-140q-148 0 -216.5 73.5t-68.5 216.5v221h-137v119h137v219h-136v124z" />
    <glyph glyph-name="Utilde" unicode="&#x168;" horiz-adv-x="1342" 
d="M1029 1238h167v-739q0 -240 -140 -379t-384 -139t-382.5 138.5t-140.5 379.5l-2 739h166v-729q0 -175 95.5 -275t263.5 -100q167 0 262 100t95 275v729zM467 1410q59 90 140 90q27 0 48.5 -13.5t32.5 -29t26.5 -29t31.5 -13.5q42 0 78 51l57 -56q-24 -41 -60.5 -65
t-75.5 -24q-28 0 -49.5 13.5t-32 30t-26.5 30t-34 13.5q-45 0 -81 -55z" />
    <glyph glyph-name="utilde" unicode="&#x169;" horiz-adv-x="1091" 
d="M812 973h157l-2 -579q0 -182 -116 -295t-305 -113q-191 0 -307.5 113t-116.5 295v579h157v-573q0 -123 73.5 -199.5t193.5 -76.5q119 0 192.5 76.5t73.5 199.5v573zM341 1144q59 90 140 90q27 0 48.5 -13t33 -29t27 -29t31.5 -13q42 0 78 51l56 -57q-24 -40 -60.5 -64
t-75.5 -24q-28 0 -49 13.5t-32 29.5t-26.5 29.5t-33.5 13.5q-47 0 -82 -54z" />
    <glyph glyph-name="Umacron" unicode="&#x16a;" horiz-adv-x="1342" 
d="M1029 1238h167v-739q0 -240 -140 -379t-384 -139t-382.5 138.5t-140.5 379.5l-2 739h166v-729q0 -175 95.5 -275t263.5 -100q167 0 262 100t95 275v729zM495 1349v99h352v-99h-352z" />
    <glyph glyph-name="umacron" unicode="&#x16b;" horiz-adv-x="1091" 
d="M812 973h157l-2 -579q0 -182 -116 -295t-305 -113q-191 0 -307.5 113t-116.5 295v579h157v-573q0 -123 73.5 -199.5t193.5 -76.5q119 0 192.5 76.5t73.5 199.5v573zM370 1084v99h352v-99h-352z" />
    <glyph glyph-name="Ubreve" unicode="&#x16c;" horiz-adv-x="1342" 
d="M1029 1238h167v-739q0 -240 -140 -379t-384 -139t-382.5 138.5t-140.5 379.5l-2 739h166v-729q0 -175 95.5 -275t263.5 -100q167 0 262 100t95 275v729zM490 1498l104 14q3 -51 23.5 -77.5t52.5 -26.5t53.5 26.5t24.5 77.5l104 -14q-8 -88 -56 -137t-126 -49
q-77 0 -125 49t-55 137z" />
    <glyph glyph-name="ubreve" unicode="&#x16d;" horiz-adv-x="1091" 
d="M812 973h157l-2 -579q0 -182 -116 -295t-305 -113q-191 0 -307.5 113t-116.5 295v579h157v-573q0 -123 73.5 -199.5t193.5 -76.5q119 0 192.5 76.5t73.5 199.5v573zM364 1233l105 14q3 -52 23.5 -78.5t52.5 -26.5t53.5 27t24.5 78l104 -14q-8 -88 -56 -137t-126 -49
q-77 0 -125.5 49t-55.5 137z" />
    <glyph glyph-name="Uring" unicode="&#x16e;" horiz-adv-x="1342" 
d="M1029 1238h167v-739q0 -240 -140 -379t-384 -139t-382.5 138.5t-140.5 379.5l-2 739h166v-729q0 -175 95.5 -275t263.5 -100q167 0 262 100t95 275v729zM513 1466q0 66 45.5 111t111.5 45q67 0 113 -45t46 -111t-45.5 -110.5t-113.5 -44.5q-66 0 -111.5 44.5t-45.5 110.5
zM587 1466q0 -38 23.5 -63t59.5 -25t60.5 25.5t24.5 62.5t-24.5 62t-60.5 25t-59.5 -24.5t-23.5 -62.5z" />
    <glyph glyph-name="uring" unicode="&#x16f;" horiz-adv-x="1091" 
d="M812 973h157l-2 -579q0 -182 -116 -295t-305 -113q-191 0 -307.5 113t-116.5 295v579h157v-573q0 -123 73.5 -199.5t193.5 -76.5q119 0 192.5 76.5t73.5 199.5v573zM387 1201q0 66 46 110.5t112 44.5q68 0 113.5 -44.5t45.5 -110.5t-46 -111t-113 -45q-66 0 -112 45
t-46 111zM462 1201q0 -38 23.5 -63.5t59.5 -25.5t60.5 25.5t24.5 63.5q0 37 -24.5 62t-60.5 25t-59.5 -24.5t-23.5 -62.5z" />
    <glyph glyph-name="Uhungarumlaut" unicode="&#x170;" horiz-adv-x="1342" 
d="M1029 1238h167v-739q0 -240 -140 -379t-384 -139t-382.5 138.5t-140.5 379.5l-2 739h166v-729q0 -175 95.5 -275t263.5 -100q167 0 262 100t95 275v729zM538 1326l90 241h106l-111 -241h-85zM699 1326l90 241h106l-112 -241h-84z" />
    <glyph glyph-name="uhungarumlaut" unicode="&#x171;" horiz-adv-x="1091" 
d="M812 973h157l-2 -579q0 -182 -116 -295t-305 -113q-191 0 -307.5 113t-116.5 295v579h157v-573q0 -123 73.5 -199.5t193.5 -76.5q119 0 192.5 76.5t73.5 199.5v573zM412 1061l90 241h106l-111 -241h-85zM573 1061l90 241h106l-111 -241h-85z" />
    <glyph glyph-name="Uogonek" unicode="&#x172;" horiz-adv-x="1342" 
d="M1029 1238h167v-739q0 -240 -140 -379t-384 -139h-5q-72 -31 -113 -78t-41 -99q0 -49 29 -77.5t77 -28.5q75 0 126 92l63 -27q-61 -150 -210 -150q-81 0 -131.5 49t-50.5 124q0 66 37.5 118t101.5 85q-191 31 -297.5 165.5t-108.5 344.5l-2 739h166v-729
q0 -175 95.5 -275t263.5 -100q167 0 262 100t95 275v729z" />
    <glyph glyph-name="uogonek" unicode="&#x173;" horiz-adv-x="1091" 
d="M812 973h157l-2 -579q0 -169 -100 -279t-267 -127q-65 -31 -102.5 -76t-37.5 -94t29 -77.5t77 -28.5q75 0 126 92l63 -27q-61 -150 -210 -150q-81 0 -131.5 49t-50.5 124q0 116 116 189q-163 21 -260 131t-97 274v579h157v-573q0 -123 73.5 -199.5t193.5 -76.5
q119 0 192.5 76.5t73.5 199.5v573z" />
    <glyph glyph-name="Wcircumflex" unicode="&#x174;" horiz-adv-x="1814" 
d="M1777 1238v-12l-422 -1226h-115l-333 959l-332 -959h-115l-423 1226v12h177l311 -932l315 932h134l315 -932l312 932h176zM716 1385l191 175l191 -175l-78 -73l-113 117l-113 -117z" />
    <glyph glyph-name="wcircumflex" unicode="&#x175;" horiz-adv-x="1460" 
d="M1265 973h162v-7l-353 -966h-94l-250 699l-249 -699h-94l-353 966v7h162l251 -711l246 711h75l245 -711zM539 1120l191 175l191 -175l-77 -73l-114 117l-113 -117z" />
    <glyph glyph-name="Ycircumflex" unicode="&#x176;" horiz-adv-x="1105" 
d="M898 1238h184v-9l-449 -725v-504h-166v504l-446 725v9h186l343 -573zM361 1385l191 175l191 -175l-78 -73l-113 117l-113 -117z" />
    <glyph glyph-name="ycircumflex" unicode="&#x177;" horiz-adv-x="919" 
d="M34 973h168l268 -743l259 743h162v-7l-387 -1092q-50 -140 -111.5 -208t-142.5 -78.5t-190 19.5l34 129q107 -23 164 9t99 151l39 115l-362 955v7zM285 1137l191 175l191 -175l-78 -72l-113 116l-113 -116z" />
    <glyph glyph-name="Ydieresis" unicode="&#x178;" horiz-adv-x="1105" 
d="M898 1238h184v-9l-449 -725v-504h-166v504l-446 725v9h186l343 -573zM361 1406q0 31 21.5 52.5t52.5 21.5t52.5 -21.5t21.5 -52.5q0 -32 -21.5 -53t-52.5 -21t-52.5 21.5t-21.5 52.5zM596 1406q0 31 21.5 52.5t52.5 21.5t53 -21.5t22 -52.5t-22 -52.5t-53 -21.5
q-32 0 -53 21t-21 53z" />
    <glyph glyph-name="Zacute" unicode="&#x179;" horiz-adv-x="1110" 
d="M1028 1238v-14l-713 -1083h713v-141h-966v14l713 1083h-674v141h927zM462 1326l143 206h187l-194 -206h-136z" />
    <glyph glyph-name="zacute" unicode="&#x17a;" horiz-adv-x="889" 
d="M828 973v-14l-547 -826h552v-133h-780v14l547 826h-527v133h755zM370 1061l143 205h187l-194 -205h-136z" />
    <glyph glyph-name="Zdotaccent" unicode="&#x17b;" horiz-adv-x="1110" 
d="M1028 1238v-14l-713 -1083h713v-141h-966v14l713 1083h-674v141h927zM483 1406q0 31 21.5 52.5t52.5 21.5t52.5 -21.5t21.5 -52.5q0 -32 -21.5 -53t-52.5 -21t-52.5 21.5t-21.5 52.5z" />
    <glyph glyph-name="zdotaccent" unicode="&#x17c;" horiz-adv-x="889" 
d="M828 973v-14l-547 -826h552v-133h-780v14l547 826h-527v133h755zM391 1141q0 31 21.5 52.5t52.5 21.5t52.5 -21.5t21.5 -52.5q0 -32 -21.5 -53.5t-52.5 -21.5t-52.5 22t-21.5 53z" />
    <glyph glyph-name="Zcaron" unicode="&#x17d;" horiz-adv-x="1110" 
d="M1028 1238v-14l-713 -1083h713v-141h-966v14l713 1083h-674v141h927zM366 1482l78 74l113 -118l113 118l78 -74l-191 -173z" />
    <glyph glyph-name="zcaron" unicode="&#x17e;" horiz-adv-x="889" 
d="M828 973v-14l-547 -826h552v-133h-780v14l547 826h-527v133h755zM274 1217l78 74l113 -118l113 118l78 -74l-191 -174z" />
    <glyph glyph-name="uni018F" unicode="&#x18f;" horiz-adv-x="1407" 
d="M92 702h1054q-26 183 -151.5 294t-310.5 111q-110 0 -208.5 -46.5t-160.5 -124.5l-110 97q77 100 206 161.5t275 61.5q278 0 456.5 -179.5t178.5 -457.5q0 -183 -81 -329t-226 -227.5t-328 -81.5q-193 0 -336 91t-211.5 256t-46.5 374zM242 577q-1 -196 122 -319.5
t320 -123.5q195 0 323.5 122.5t142.5 320.5h-908z" />
    <glyph glyph-name="florin" unicode="&#x192;" horiz-adv-x="714" 
d="M713 1188q-126 32 -180.5 -1.5t-62.5 -160.5l-14 -214h218v-124h-225l-49 -748q-9 -143 -55.5 -219.5t-140 -94t-238.5 35.5l34 126q126 -32 181 1.5t63 160.5l46 738h-203v124h212l14 224q7 109 33 177.5t78 104t131 34t191 -37.5z" />
    <glyph glyph-name="uni01CD" unicode="&#x1cd;" horiz-adv-x="1188" 
d="M1190 0h-171l-119 283h-612l-118 -283h-172v11l534 1227h124l534 -1227v-11zM345 416h499l-250 596zM403 1482l78 74l113 -118l113 118l78 -74l-191 -173z" />
    <glyph glyph-name="uni01CE" unicode="&#x1ce;" horiz-adv-x="1048" 
d="M778 0v99q-109 -117 -302 -117q-178 0 -290.5 94.5t-112.5 243.5t112.5 243.5t290.5 94.5q193 0 302 -117v18q0 152 -76 229t-217 77q-90 0 -175 -28.5t-146 -70.5l-53 108q70 49 174 83.5t224 34.5q205 0 317.5 -107.5t112.5 -325.5v-559h-161zM230 322
q0 -100 77.5 -163t200.5 -63t200 63t77 163t-77 163t-200 63t-200.5 -63t-77.5 -163zM338 1236l78 75l113 -119l113 119l78 -75l-191 -173z" />
    <glyph glyph-name="uni01CF" unicode="&#x1cf;" horiz-adv-x="488" 
d="M161 1238h166v-1238h-166v1238zM53 1482l78 74l113 -118l113 118l78 -74l-191 -173z" />
    <glyph glyph-name="uni01D0" unicode="&#x1d0;" horiz-adv-x="426" 
d="M134 0v973h158v-973h-158zM21 1217l78 74l113 -118l113 118l78 -74l-191 -174z" />
    <glyph glyph-name="uni01D1" unicode="&#x1d1;" horiz-adv-x="1436" 
d="M718 -19q-134 0 -251.5 48.5t-200.5 132.5t-131 202.5t-48 254.5t48 254.5t131 202.5t200.5 132.5t251.5 48.5t251.5 -48.5t200.5 -132.5t131 -202.5t48 -254.5t-48 -254.5t-131 -202.5t-200.5 -132.5t-251.5 -48.5zM253 619q0 -209 131.5 -346t333.5 -137t333.5 137
t131.5 346t-131.5 346t-333.5 137t-333.5 -137t-131.5 -346zM527 1502l78 74l113 -119l113 119l78 -74l-191 -174z" />
    <glyph glyph-name="uni01D2" unicode="&#x1d2;" horiz-adv-x="1126" 
d="M562 -21q-214 0 -351.5 142.5t-137.5 364.5q0 223 137.5 365.5t351.5 142.5q215 0 353.5 -142.5t138.5 -365.5t-138.5 -365t-353.5 -142zM225 486q0 -159 95.5 -262.5t241.5 -103.5q147 0 243.5 103.5t96.5 262.5t-96.5 262.5t-243.5 103.5q-146 0 -241.5 -103.5
t-95.5 -262.5zM371 1229l78 74l113 -118l114 118l77 -74l-191 -173z" />
    <glyph glyph-name="uni01D3" unicode="&#x1d3;" horiz-adv-x="1342" 
d="M1029 1238h167v-739q0 -240 -140 -379t-384 -139t-382.5 138.5t-140.5 379.5l-2 739h166v-729q0 -175 95.5 -275t263.5 -100q167 0 262 100t95 275v729zM479 1482l78 74l113 -118l113 118l78 -74l-191 -173z" />
    <glyph glyph-name="uni01D4" unicode="&#x1d4;" horiz-adv-x="1091" 
d="M812 973h157l-2 -579q0 -182 -116 -295t-305 -113q-191 0 -307.5 113t-116.5 295v579h157v-573q0 -123 73.5 -199.5t193.5 -76.5q119 0 192.5 76.5t73.5 199.5v573zM354 1217l78 74l113 -118l113 118l78 -74l-191 -174z" />
    <glyph glyph-name="uni01D5" unicode="&#x1d5;" horiz-adv-x="1342" 
d="M1029 1238h167v-739q0 -240 -140 -379t-384 -139t-382.5 138.5t-140.5 379.5l-2 739h166v-729q0 -175 95.5 -275t263.5 -100q167 0 262 100t95 275v729zM479 1406q0 31 22 52.5t53 21.5t52.5 -21.5t21.5 -52.5q0 -32 -21 -53t-53 -21q-31 0 -53 21.5t-22 52.5zM495 1593
v100h352v-100h-352zM715 1406q0 31 21.5 52.5t52.5 21.5t52.5 -21.5t21.5 -52.5t-21.5 -52.5t-52.5 -21.5t-52.5 21t-21.5 53z" />
    <glyph glyph-name="uni01D6" unicode="&#x1d6;" horiz-adv-x="1091" 
d="M812 973h157l-2 -579q0 -182 -116 -295t-305 -113q-191 0 -307.5 113t-116.5 295v579h157v-573q0 -123 73.5 -199.5t193.5 -76.5q119 0 192.5 76.5t73.5 199.5v573zM354 1141q0 31 21.5 52.5t52.5 21.5t52.5 -21.5t21.5 -52.5q0 -32 -21.5 -53.5t-52.5 -21.5t-52.5 22
t-21.5 53zM370 1328v99h352v-99h-352zM589 1141q0 31 21.5 52.5t52.5 21.5t52.5 -21.5t21.5 -52.5t-21.5 -53t-52.5 -22t-52.5 21.5t-21.5 53.5z" />
    <glyph glyph-name="uni01D7" unicode="&#x1d7;" horiz-adv-x="1342" 
d="M1029 1238h167v-739q0 -240 -140 -379t-384 -139t-382.5 138.5t-140.5 379.5l-2 739h166v-729q0 -175 95.5 -275t263.5 -100q167 0 262 100t95 275v729zM479 1406q0 31 22 52.5t53 21.5t52.5 -21.5t21.5 -52.5q0 -32 -21 -53t-53 -21q-31 0 -53 21.5t-22 52.5zM575 1570
l143 206h188l-195 -206h-136zM715 1406q0 31 21.5 52.5t52.5 21.5t52.5 -21.5t21.5 -52.5t-21.5 -52.5t-52.5 -21.5t-52.5 21t-21.5 53z" />
    <glyph glyph-name="uni01D8" unicode="&#x1d8;" horiz-adv-x="1091" 
d="M812 973h157l-2 -579q0 -182 -116 -295t-305 -113q-191 0 -307.5 113t-116.5 295v579h157v-573q0 -123 73.5 -199.5t193.5 -76.5q119 0 192.5 76.5t73.5 199.5v573zM354 1141q0 31 21.5 52.5t52.5 21.5t52.5 -21.5t21.5 -52.5q0 -32 -21.5 -53.5t-52.5 -21.5t-52.5 22
t-21.5 53zM449 1305l143 205h188l-195 -205h-136zM589 1141q0 31 21.5 52.5t52.5 21.5t52.5 -21.5t21.5 -52.5t-21.5 -53t-52.5 -22t-52.5 21.5t-21.5 53.5z" />
    <glyph glyph-name="uni01D9" unicode="&#x1d9;" horiz-adv-x="1342" 
d="M1029 1238h167v-739q0 -240 -140 -379t-384 -139t-382.5 138.5t-140.5 379.5l-2 739h166v-729q0 -175 95.5 -275t263.5 -100q167 0 262 100t95 275v729zM479 1406q0 31 22 52.5t53 21.5t52.5 -21.5t21.5 -52.5q0 -32 -21 -53t-53 -21q-31 0 -53 21.5t-22 52.5zM479 1726
l78 74l113 -118l113 118l78 -74l-191 -173zM715 1406q0 31 21.5 52.5t52.5 21.5t52.5 -21.5t21.5 -52.5t-21.5 -52.5t-52.5 -21.5t-52.5 21t-21.5 53z" />
    <glyph glyph-name="uni01DA" unicode="&#x1da;" horiz-adv-x="1091" 
d="M812 973h157l-2 -579q0 -182 -116 -295t-305 -113q-191 0 -307.5 113t-116.5 295v579h157v-573q0 -123 73.5 -199.5t193.5 -76.5q119 0 192.5 76.5t73.5 199.5v573zM354 1141q0 31 21.5 52.5t52.5 21.5t52.5 -21.5t21.5 -52.5q0 -32 -21.5 -53.5t-52.5 -21.5t-52.5 22
t-21.5 53zM354 1461l78 74l113 -118l113 118l78 -74l-191 -173zM589 1141q0 31 21.5 52.5t52.5 21.5t52.5 -21.5t21.5 -52.5t-21.5 -53t-52.5 -22t-52.5 21.5t-21.5 53.5z" />
    <glyph glyph-name="uni01DB" unicode="&#x1db;" horiz-adv-x="1342" 
d="M1029 1238h167v-739q0 -240 -140 -379t-384 -139t-382.5 138.5t-140.5 379.5l-2 739h166v-729q0 -175 95.5 -275t263.5 -100q167 0 262 100t95 275v729zM437 1776h187l144 -206h-137zM479 1406q0 31 22 52.5t53 21.5t52.5 -21.5t21.5 -52.5q0 -32 -21 -53t-53 -21
q-31 0 -53 21.5t-22 52.5zM715 1406q0 31 21.5 52.5t52.5 21.5t52.5 -21.5t21.5 -52.5t-21.5 -52.5t-52.5 -21.5t-52.5 21t-21.5 53z" />
    <glyph glyph-name="uni01DC" unicode="&#x1dc;" horiz-adv-x="1091" 
d="M812 973h157l-2 -579q0 -182 -116 -295t-305 -113q-191 0 -307.5 113t-116.5 295v579h157v-573q0 -123 73.5 -199.5t193.5 -76.5q119 0 192.5 76.5t73.5 199.5v573zM311 1510h188l143 -205h-136zM354 1141q0 31 21.5 52.5t52.5 21.5t52.5 -21.5t21.5 -52.5
q0 -32 -21.5 -53.5t-52.5 -21.5t-52.5 22t-21.5 53zM589 1141q0 31 21.5 52.5t52.5 21.5t52.5 -21.5t21.5 -52.5t-21.5 -53t-52.5 -22t-52.5 21.5t-21.5 53.5z" />
    <glyph glyph-name="Gcaron" unicode="&#x1e6;" horiz-adv-x="1407" 
d="M1316 702q22 -209 -46.5 -374t-211.5 -256t-336 -91q-183 0 -328 81.5t-226 227.5t-81 329q0 278 178.5 457.5t456.5 179.5q146 0 275 -61.5t206 -161.5l-110 -97q-62 77 -161 124t-209 47q-206 0 -336.5 -136.5t-130.5 -351.5t130.5 -350t336.5 -135q194 0 317.5 121.5
t123.5 315.5h-411v131h563zM529 1498l78 74l113 -118l113 118l78 -74l-191 -173z" />
    <glyph glyph-name="gcaron" unicode="&#x1e7;" horiz-adv-x="1029" 
d="M492 265q-110 0 -197 41q-56 -45 -56 -101q0 -48 41.5 -71t129.5 -23h228q168 0 256 -62t88 -199q0 -143 -113.5 -219.5t-325.5 -76.5q-316 0 -520 117l64 124q175 -99 456 -99q283 0 283 150q0 74 -51 101.5t-161 27.5h-234q-148 0 -226 51.5t-78 146.5q0 116 119 200
q-107 102 -107 251q0 159 112.5 262.5t284.5 103.5q162 0 274 -95q74 92 263 92v-142q-117 0 -191 -39q48 -82 48 -182q0 -157 -109 -258t-278 -101zM241 624q0 -98 70.5 -161t180.5 -63q102 0 168.5 63t66.5 161q0 101 -68.5 166.5t-173.5 65.5q-106 0 -175 -65.5
t-69 -166.5zM292 1233l78 74l113 -119l113 119l78 -74l-191 -174z" />
    <glyph glyph-name="uni01EA" unicode="&#x1ea;" horiz-adv-x="1436" 
d="M718 -19h-3q-72 -31 -113 -78t-41 -99q0 -49 29 -77.5t77 -28.5q74 0 125 92l64 -27q-61 -150 -210 -150q-82 0 -132.5 49t-50.5 124q0 129 140 203q-228 39 -372 212.5t-144 417.5q0 136 48 254.5t131 202.5t200.5 132.5t251.5 48.5t251.5 -48.5t200.5 -132.5
t131 -202.5t48 -254.5t-48 -254.5t-131 -202.5t-200.5 -132.5t-251.5 -48.5zM253 619q0 -209 131.5 -346t333.5 -137t333.5 137t131.5 346t-131.5 346t-333.5 137t-333.5 -137t-131.5 -346z" />
    <glyph glyph-name="uni01EB" unicode="&#x1eb;" horiz-adv-x="1126" 
d="M562 120q147 0 243.5 103.5t96.5 262.5t-96.5 262.5t-243.5 103.5q-146 0 -241.5 -103.5t-95.5 -262.5t95.5 -262.5t241.5 -103.5zM73 486q0 223 137.5 365.5t351.5 142.5q215 0 353.5 -142.5t138.5 -365.5q0 -206 -120 -345t-313 -159q-66 -32 -103 -76.5t-37 -94.5
q0 -49 29 -77.5t77 -28.5q75 0 126 92l63 -27q-61 -150 -210 -150q-81 0 -131.5 49t-50.5 124q0 117 115 189q-189 21 -307.5 160t-118.5 344z" />
    <glyph glyph-name="Aringacute" unicode="&#x1fa;" horiz-adv-x="1188" 
d="M1190 0h-171l-119 283h-612l-118 -283h-172v11l534 1227h124l534 -1227v-11zM345 416h499l-250 596zM437 1466q0 66 45.5 111t111.5 45q67 0 113 -45t46 -111t-45.5 -110.5t-113.5 -44.5q-66 0 -111.5 44.5t-45.5 110.5zM490 1670l143 205h188l-195 -205h-136zM511 1466
q0 -38 23.5 -63t59.5 -25t60.5 25.5t24.5 62.5t-24.5 62t-60.5 25t-59.5 -24.5t-23.5 -62.5z" />
    <glyph glyph-name="aringacute" unicode="&#x1fb;" horiz-adv-x="1048" 
d="M778 0v99q-109 -117 -302 -117q-178 0 -290.5 94.5t-112.5 243.5t112.5 243.5t290.5 94.5q193 0 302 -117v18q0 152 -76 229t-217 77q-90 0 -175 -28.5t-146 -70.5l-53 108q70 49 174 83.5t224 34.5q205 0 317.5 -107.5t112.5 -325.5v-559h-161zM230 322
q0 -100 77.5 -163t200.5 -63t200 63t77 163t-77 163t-200 63t-200.5 -63t-77.5 -163zM371 1220q0 66 46 111t112 45q67 0 113 -45t46 -111t-45.5 -110.5t-113.5 -44.5q-66 0 -112 44.5t-46 110.5zM424 1424l144 205h187l-194 -205h-137zM446 1220q0 -38 23.5 -63t59.5 -25
t60.5 25.5t24.5 62.5t-24.5 62t-60.5 25t-59.5 -24.5t-23.5 -62.5z" />
    <glyph glyph-name="AEacute" unicode="&#x1fc;" horiz-adv-x="1910" 
d="M1811 1097h-686v-390h605v-136h-605v-430h686v-141h-852v260h-607l-205 -260h-189v11l965 1227h888v-141zM455 391h504v642zM948 1326l143 206h188l-195 -206h-136z" />
    <glyph glyph-name="aeacute" unicode="&#x1fd;" horiz-adv-x="1828" 
d="M778 0v99q-109 -117 -302 -117q-178 0 -290.5 94.5t-112.5 243.5t112.5 243.5t290.5 94.5q193 0 302 -117v18q0 152 -76 229t-217 77q-90 0 -175 -28.5t-146 -70.5l-53 108q70 49 174 83.5t224 34.5q286 0 382 -198q66 92 167 143.5t222 51.5q95 0 177.5 -31.5t140 -86.5
t96.5 -126.5t54 -154t5 -167.5h-805q19 -135 109.5 -218t222.5 -83q172 0 269 140l121 -83q-142 -195 -390 -195q-204 0 -341 140v-124h-161zM230 322q0 -100 77.5 -163t200.5 -63t200 63t77 163t-77 163t-200 63t-200.5 -63t-77.5 -163zM796 1061l143 205h188l-195 -205
h-136zM946 541h662q-13 129 -98.5 218.5t-229.5 89.5q-134 0 -226 -85.5t-108 -222.5z" />
    <glyph glyph-name="Oslashacute" unicode="&#x1fe;" horiz-adv-x="1436" 
d="M718 -19q-209 0 -370 111l-79 -92h-168l152 177q-166 177 -166 442q0 136 48 254.5t131 202.5t200.5 132.5t251.5 48.5q214 0 370 -113l81 94h166l-152 -177q166 -177 166 -442q0 -136 -48 -254.5t-131 -202.5t-200.5 -132.5t-251.5 -48.5zM253 619q0 -188 108 -318
l622 721q-116 80 -265 80q-202 0 -333.5 -137t-131.5 -346zM455 214q114 -78 263 -78q202 0 333.5 137t131.5 346q0 187 -106 318zM623 1346l143 205h187l-194 -205h-136z" />
    <glyph glyph-name="oslashacute" unicode="&#x1ff;" horiz-adv-x="1126" 
d="M562 -21q-165 0 -291 90l-61 -69h-130l116 136q-123 139 -123 350q0 223 137.5 365.5t351.5 142.5q168 0 296 -92l60 71h131l-119 -138q124 -140 124 -349q0 -223 -138.5 -365t-353.5 -142zM225 486q0 -136 72 -233l463 538q-86 61 -198 61q-146 0 -241.5 -103.5
t-95.5 -262.5zM368 182q84 -62 194 -62q147 0 243.5 103.5t96.5 262.5q0 136 -73 234zM467 1074l143 205h188l-195 -205h-136z" />
    <glyph glyph-name="uni0218" unicode="&#x218;" horiz-adv-x="1112" 
d="M852 909q-39 97 -122.5 151t-207.5 54q-119 0 -193 -45t-74 -142q0 -40 17.5 -72t47 -54t74.5 -40.5t94 -33.5t113 -32q2 0 3 -0.5t3 -1t3 -0.5q79 -21 133 -39.5t110 -48.5t89 -65.5t54 -89t21 -121.5q0 -74 -27 -134t-72 -99t-105.5 -65.5t-125 -38t-133.5 -11.5
q-182 0 -313.5 81.5t-175.5 236.5l137 72q41 -126 136 -186.5t224 -60.5q59 0 109.5 11t92 34t65 62t23.5 91q0 42 -15 75.5t-39.5 57t-68 45t-87 36t-110.5 33.5q-173 47 -247 83q-195 95 -195 276q0 70 24 126t65 93.5t98 62.5t119.5 36t132.5 11q180 0 297 -76.5
t168 -206.5zM493 -405v302h126v-111l-44 -191h-82z" />
    <glyph glyph-name="uni0219" unicode="&#x219;" horiz-adv-x="916" 
d="M699 713q-27 70 -93.5 112t-161.5 42q-92 0 -150.5 -35.5t-58.5 -104.5q0 -31 15 -55.5t36 -41t61 -31.5t72 -23.5t87 -21.5q64 -16 110.5 -31.5t92 -40.5t74 -55t45.5 -73.5t17 -97.5q0 -93 -58.5 -157.5t-143 -92t-183.5 -27.5q-155 0 -263.5 62.5t-143.5 184.5l129 62
q31 -93 106.5 -136.5t173.5 -43.5q97 0 162.5 38t65.5 114q0 30 -12 54t-30.5 40.5t-51.5 31t-64 23.5t-79 21q-42 10 -68.5 17.5t-70 22t-71.5 28.5t-61.5 37t-53.5 48t-34 60t-14 75q1 90 54.5 154.5t134.5 93t178 28.5q146 0 244.5 -61.5t137.5 -164.5zM400 -405v302h125
v-111l-44 -191h-81z" />
    <glyph glyph-name="uni021A" unicode="&#x21a;" horiz-adv-x="1115" 
d="M65 1238h987v-141h-410v-1097h-166v1097h-411v141zM499 -386v303h125v-112l-44 -191h-81z" />
    <glyph glyph-name="uni021B" unicode="&#x21b;" horiz-adv-x="664" 
d="M51 973h136v214l158 32v-246h240v-124h-240v-508q0 -108 40.5 -156.5t139.5 -48.5h87v-136h-140q-148 0 -216.5 73.5t-68.5 216.5v559h-136v124zM393 -386v303h125v-112l-44 -191h-81z" />
    <glyph glyph-name="uni0232" unicode="&#x232;" horiz-adv-x="1105" 
d="M898 1238h184v-9l-449 -725v-504h-166v504l-446 725v9h186l343 -573zM377 1349v99h352v-99h-352z" />
    <glyph glyph-name="uni0233" unicode="&#x233;" horiz-adv-x="919" 
d="M34 973h168l268 -743l259 743h162v-7l-387 -1092q-50 -140 -111.5 -208t-142.5 -78.5t-190 19.5l34 129q107 -23 164 9t99 151l39 115l-362 955v7zM301 1102v99h352v-99h-352z" />
    <glyph glyph-name="uni0237" unicode="&#x237;" horiz-adv-x="426" 
d="M-145 -265q78 -36 136 -36q71 0 107 49t36 171v1054h158v-1079q0 -179 -72.5 -260t-198.5 -81q-105 0 -223 67z" />
    <glyph glyph-name="uni0259" unicode="&#x259;" horiz-adv-x="1103" 
d="M76 550h805q-19 135 -110 218t-223 83q-172 0 -269 -140l-120 83q142 195 389 195q208 0 345.5 -144t137.5 -359q0 -216 -137 -359t-346 -143q-119 0 -215.5 48.5t-155.5 128.5t-86 181.5t-15 207.5zM221 432q13 -129 98 -218.5t229 -89.5q134 0 226.5 85.5t108.5 222.5
h-662z" />
    <glyph glyph-name="circumflex" unicode="&#x2c6;" horiz-adv-x="811" 
d="M389 1295l191 -175l-78 -73l-113 117l-113 -117l-78 73z" />
    <glyph glyph-name="caron" unicode="&#x2c7;" horiz-adv-x="811" 
d="M389 1043l-191 174l78 74l113 -118l113 118l78 -74z" />
    <glyph glyph-name="breve" unicode="&#x2d8;" horiz-adv-x="822" 
d="M577 1233q-8 -88 -56.5 -137t-126.5 -49q-77 0 -125 49t-55 137l104 14q3 -52 23.5 -78.5t52.5 -26.5t53.5 27t24.5 78z" />
    <glyph glyph-name="dotaccent" unicode="&#x2d9;" horiz-adv-x="733" 
d="M345 1066q-31 0 -52.5 22t-21.5 53t21.5 52.5t52.5 21.5t52.5 -21.5t21.5 -52.5q0 -32 -21.5 -53.5t-52.5 -21.5z" />
    <glyph glyph-name="ring" unicode="&#x2da;" horiz-adv-x="778" 
d="M377 1045q-66 0 -112 45t-46 111t46 110.5t112 44.5q68 0 113.5 -44.5t45.5 -110.5t-46 -111t-113 -45zM294 1201q0 -38 23.5 -63.5t59.5 -25.5t60.5 25.5t24.5 63.5q0 37 -24.5 62t-60.5 25t-59.5 -24.5t-23.5 -62.5z" />
    <glyph glyph-name="ogonek" unicode="&#x2db;" horiz-adv-x="728" 
d="M423 4q-73 -31 -115.5 -78.5t-42.5 -100.5q0 -49 29 -77.5t77 -28.5q75 0 126 92l64 -27q-61 -150 -211 -150q-81 0 -131.5 49t-50.5 124q0 74 48 130.5t124 89.5z" />
    <glyph glyph-name="tilde" unicode="&#x2dc;" horiz-adv-x="824" 
d="M191 1144q59 90 140 90q27 0 48.5 -13t32.5 -29t26.5 -29t31.5 -13q42 0 78 51l57 -57q-24 -40 -60.5 -64t-75.5 -24q-28 0 -49.5 13.5t-32 29.5t-26.5 29.5t-34 13.5q-46 0 -81 -54z" />
    <glyph glyph-name="hungarumlaut" unicode="&#x2dd;" horiz-adv-x="841" 
d="M493 1302l-111 -241h-85l90 241h106zM458 1061l90 241h106l-111 -241h-85z" />
    <glyph glyph-name="gravecomb" unicode="&#x300;" 
d="M371 1266l144 -205h-137l-194 205h187z" />
    <glyph glyph-name="acutecomb" unicode="&#x301;" 
d="M440 1266h188l-195 -205h-136z" />
    <glyph glyph-name="uni0302" unicode="&#x302;" 
d="M389 1295l191 -175l-78 -73l-113 117l-113 -117l-78 73z" />
    <glyph glyph-name="tildecomb" unicode="&#x303;" 
d="M191 1144q59 90 140 90q27 0 48.5 -13t32.5 -29t26.5 -29t31.5 -13q42 0 78 51l57 -57q-24 -40 -60.5 -64t-75.5 -24q-28 0 -49.5 13.5t-32 29.5t-26.5 29.5t-34 13.5q-46 0 -81 -54z" />
    <glyph glyph-name="uni0304" unicode="&#x304;" 
d="M203 1084v99h352v-99h-352z" />
    <glyph glyph-name="uni0306" unicode="&#x306;" 
d="M577 1233q-8 -88 -56.5 -137t-126.5 -49q-77 0 -125 49t-55 137l104 14q3 -52 23.5 -78.5t52.5 -26.5t53.5 27t24.5 78z" />
    <glyph glyph-name="uni0307" unicode="&#x307;" 
d="M345 1066q-31 0 -52.5 22t-21.5 53t21.5 52.5t52.5 21.5t52.5 -21.5t21.5 -52.5q0 -32 -21.5 -53.5t-52.5 -21.5z" />
    <glyph glyph-name="uni0308" unicode="&#x308;" 
d="M285 1066q-31 0 -53 22t-22 53t22 52.5t53 21.5t52.5 -21.5t21.5 -52.5q0 -32 -21.5 -53.5t-52.5 -21.5zM446 1141q0 31 21.5 52.5t52.5 21.5t52.5 -21.5t21.5 -52.5t-21.5 -53t-52.5 -22t-52.5 21.5t-21.5 53.5z" />
    <glyph glyph-name="uni030A" unicode="&#x30a;" 
d="M368 1045q-66 0 -112 45t-46 111t46 110.5t112 44.5q68 0 113.5 -44.5t45.5 -110.5t-46 -111t-113 -45zM285 1201q0 -38 23.5 -63.5t59.5 -25.5t60.5 25.5t24.5 63.5q0 37 -24.5 62t-60.5 25t-59.5 -24.5t-23.5 -62.5z" />
    <glyph glyph-name="uni030B" unicode="&#x30b;" 
d="M493 1302l-111 -241h-85l90 241h106zM458 1061l90 241h106l-111 -241h-85z" />
    <glyph glyph-name="uni030C" unicode="&#x30c;" 
d="M389 1043l-191 174l78 74l113 -118l113 118l78 -74z" />
    <glyph glyph-name="uni0312" unicode="&#x312;" 
d="M424 1052h-134l85 266h115z" />
    <glyph glyph-name="uni0326" unicode="&#x326;" 
d="M453 -83h125v-112l-44 -191h-81v303z" />
    <glyph glyph-name="uni0327" unicode="&#x327;" 
d="M352 19h88v-10l-39 -112q56 -11 80.5 -41t24.5 -66q0 -54 -40 -89t-112 -35q-92 0 -181 55l32 61q84 -46 140 -46q65 0 65 57q0 28 -22.5 46t-79.5 28z" />
    <glyph glyph-name="uni0328" unicode="&#x328;" 
d="M417 4q-73 -31 -115 -78.5t-42 -100.5q0 -49 29 -77.5t77 -28.5q75 0 126 92l63 -27q-61 -150 -210 -150q-81 0 -131.5 49t-50.5 124q0 74 47.5 130.5t123.5 89.5z" />
    <glyph glyph-name="uni0335" unicode="&#x335;" 
d="M19 679h588v-124h-588v124z" />
    <glyph glyph-name="uni0336" unicode="&#x336;" 
d="M18 561h1116v-117h-1116v117z" />
    <glyph glyph-name="uni0337" unicode="&#x337;" 
d="M607 980v-158l-563 -461v159z" />
    <glyph glyph-name="uni0338" unicode="&#x338;" 
d="M1088 1238h166l-1067 -1238h-168z" />
    <glyph glyph-name="uni0394" unicode="&#x394;" horiz-adv-x="1119" 
d="M640 1238l481 -1238h-1123l481 1238h161zM216 134h688l-345 909z" />
    <glyph glyph-name="uni03A9" unicode="&#x3a9;" horiz-adv-x="1420" 
d="M789 136q162 24 270 162t108 321q0 207 -130.5 342.5t-327.5 135.5q-198 0 -327 -135.5t-129 -342.5q0 -183 106.5 -321t268.5 -162v-136h-499v136h235q-126 71 -201.5 203t-75.5 298q0 175 79.5 315.5t222 220t320.5 79.5q269 0 446.5 -175t177.5 -440
q0 -165 -76 -297.5t-203 -203.5h232v-136h-497v136z" />
    <glyph glyph-name="uni03BC" unicode="&#x3bc;" horiz-adv-x="1236" 
d="M1015 136h166v-136h-265v110q-101 -121 -278 -121q-116 0 -205 50.5t-141 142.5v-536h-158v1327h158v-531q0 -146 78.5 -234t207.5 -88q127 0 203.5 88t76.5 234v531h157v-837z" />
    <glyph glyph-name="pi" unicode="&#x3c0;" horiz-adv-x="1147" 
d="M1095 973v-136h-197v-588q0 -59 27 -86t92 -27h78v-136h-101q-131 0 -191 54t-60 167v616h-363v-837h-157v837h-172v136h1044z" />
    <glyph glyph-name="uni0400" unicode="&#x400;" horiz-adv-x="1112" 
d="M1013 1097h-686v-390h605v-136h-605v-430h686v-141h-852v1238h852v-141zM370 1532h187l143 -206h-136z" />
    <glyph glyph-name="uni0401" unicode="&#x401;" horiz-adv-x="1112" 
d="M1013 1097h-686v-390h605v-136h-605v-430h686v-141h-852v1238h852v-141zM414 1406q0 31 21.5 52.5t52.5 21.5t52.5 -21.5t21.5 -52.5q0 -32 -21 -53t-53 -21q-31 0 -52.5 21.5t-21.5 52.5zM649 1406q0 31 21.5 52.5t52.5 21.5t53 -21.5t22 -52.5t-22 -52.5t-53 -21.5
t-52.5 21t-21.5 53z" />
    <glyph glyph-name="uni0402" unicode="&#x402;" horiz-adv-x="1464" 
d="M967 753q204 0 312.5 -95t108.5 -283q0 -180 -109.5 -277.5t-311.5 -97.5h-168v141h149q133 0 203.5 60t70.5 174q0 115 -70.5 176t-203.5 61h-306v-612h-166v1097h-411v141h1148v-141h-571v-344h325z" />
    <glyph glyph-name="uni0403" unicode="&#x403;" horiz-adv-x="1041" 
d="M944 1097h-617v-1097h-166v1238h783v-141zM460 1326l143 206h188l-195 -206h-136z" />
    <glyph glyph-name="uni0404" unicode="&#x404;" horiz-adv-x="1308" 
d="M1238 242q-84 -122 -220 -191.5t-300 -69.5q-134 0 -251.5 48.5t-200.5 132.5t-131 202.5t-48 254.5t48 254.5t131 202.5t200.5 132.5t251.5 48.5q163 0 298.5 -69t221.5 -192l-143 -85q-62 90 -160 140.5t-217 50.5q-184 0 -311.5 -115t-150.5 -299h563v-142h-561
q23 -182 149.5 -296t310.5 -114q120 0 219 52t161 143z" />
    <glyph glyph-name="uni0405" unicode="&#x405;" horiz-adv-x="1112" 
d="M852 909q-39 97 -122.5 151t-207.5 54q-119 0 -193 -45t-74 -142q0 -40 17.5 -72t47 -54t74.5 -40.5t94 -33.5t113 -32q2 0 3 -0.5t3 -1t3 -0.5q79 -21 133 -39.5t110 -48.5t89 -65.5t54 -89t21 -121.5q0 -74 -27 -134t-72 -99t-105.5 -65.5t-125 -38t-133.5 -11.5
q-182 0 -313.5 81.5t-175.5 236.5l137 72q41 -126 136 -186.5t224 -60.5q59 0 109.5 11t92 34t65 62t23.5 91q0 42 -15 75.5t-39.5 57t-68 45t-87 36t-110.5 33.5q-173 47 -247 83q-195 95 -195 276q0 70 24 126t65 93.5t98 62.5t119.5 36t132.5 11q180 0 297 -76.5
t168 -206.5z" />
    <glyph glyph-name="uni0406" unicode="&#x406;" horiz-adv-x="488" 
d="M161 1238h166v-1238h-166v1238z" />
    <glyph glyph-name="uni0407" unicode="&#x407;" horiz-adv-x="488" 
d="M161 1238h166v-1238h-166v1238zM51 1406q0 31 22 52.5t53 21.5t52.5 -21.5t21.5 -52.5q0 -32 -21 -53t-53 -21q-31 0 -53 21.5t-22 52.5zM287 1406q0 31 21.5 52.5t52.5 21.5t52.5 -21.5t21.5 -52.5t-21.5 -52.5t-52.5 -21.5t-52.5 21t-21.5 53z" />
    <glyph glyph-name="uni0408" unicode="&#x408;" horiz-adv-x="917" 
d="M157 320q17 -88 78 -138.5t152 -50.5q101 0 158.5 62.5t57.5 174.5v870h166v-870q0 -182 -98.5 -284t-276.5 -102q-149 0 -249 72t-136 210z" />
    <glyph glyph-name="uni0409" unicode="&#x409;" horiz-adv-x="1934" 
d="M262 1238h854v-417h309q212 0 324.5 -108.5t112.5 -302.5q0 -189 -113 -299.5t-324 -110.5h-475v1097h-526l-15 -528q-6 -180 -24.5 -288t-61 -172.5t-103 -86.5t-160.5 -22h-32v152h25q55 0 87 15t55 61t32.5 122t14.5 207zM1116 141h290q142 0 217 73.5t75 195.5
q0 127 -74 198t-218 71h-290v-538z" />
    <glyph glyph-name="uni040A" unicode="&#x40a;" horiz-adv-x="1986" 
d="M1479 752q436 0 436 -377q0 -184 -111 -279.5t-325 -95.5h-476v610h-676v-610h-166v1238h166v-486h676v486h166v-486h310zM1169 141h288q294 0 294 234q0 235 -294 235h-288v-469z" />
    <glyph glyph-name="uni040B" unicode="&#x40b;" horiz-adv-x="1503" 
d="M1231 355q0 141 -73.5 208t-225.5 67q-141 0 -290 -46v-584h-166v1097h-411v141h1155v-141h-578v-372q171 46 322 46q433 0 433 -416v-355h-166v355z" />
    <glyph glyph-name="uni040C" unicode="&#x40c;" horiz-adv-x="1137" 
d="M161 1238h166v-525h218l368 525h176v-7l-417 -584l439 -640v-7h-177l-388 571h-219v-571h-166v1238zM504 1326l143 206h188l-195 -206h-136z" />
    <glyph glyph-name="uni040D" unicode="&#x40d;" horiz-adv-x="1351" 
d="M161 0v1238h163v-971l718 971h148v-1238h-164v971l-717 -971h-148zM439 1523h187l143 -205h-136z" />
    <glyph glyph-name="uni040E" unicode="&#x40e;" horiz-adv-x="1091" 
d="M898 1238h176v-9l-437 -935q-76 -165 -152 -230.5t-195 -65.5q-62 0 -138 29l21 132q49 -21 108 -21q61 0 101 33.5t87 122.5l-439 935v9h175l347 -785zM292 1590h118q0 -163 149 -163q148 0 148 163h119q2 -130 -65.5 -198.5t-201.5 -68.5q-135 0 -202.5 68.5
t-64.5 198.5z" />
    <glyph glyph-name="uni040F" unicode="&#x40f;" horiz-adv-x="1329" 
d="M1003 141v1097h166v-1238h-421v-288h-166v288h-421v1238h166v-1097h676z" />
    <glyph glyph-name="uni0410" unicode="&#x410;" horiz-adv-x="1188" 
d="M1190 0h-171l-119 283h-612l-118 -283h-172v11l534 1227h124l534 -1227v-11zM345 416h499l-250 596z" />
    <glyph glyph-name="uni0411" unicode="&#x411;" horiz-adv-x="1193" 
d="M161 1238h838v-141h-672v-360h391q198 0 300 -97t102 -272q0 -173 -102 -270.5t-300 -97.5h-557v1238zM327 141h373q260 0 260 227q0 228 -260 228h-373v-455z" />
    <glyph glyph-name="uni0412" unicode="&#x412;" horiz-adv-x="1197" 
d="M907 909q0 89 -57 142t-157 53h-371v-388h371q103 0 158.5 51.5t55.5 141.5zM161 0v1238h555q159 0 253 -87t94 -235q0 -92 -41 -158t-111 -98q95 -32 149 -113.5t54 -196.5q0 -163 -103.5 -256.5t-280.5 -93.5h-569zM322 134h387q115 0 181.5 62t66.5 168t-65.5 167
t-182.5 61h-387v-458z" />
    <glyph glyph-name="uni0413" unicode="&#x413;" horiz-adv-x="1041" 
d="M944 1097h-617v-1097h-166v1238h783v-141z" />
    <glyph glyph-name="uni0414" unicode="&#x414;" horiz-adv-x="1340" 
d="M287 1238h864v-1097h142v-429h-166v288h-925v-288h-167v429h50q67 0 102.5 34t53.5 123.5t24 265.5zM354 141h631v956h-538l-17 -503q-11 -336 -76 -453z" />
    <glyph glyph-name="uni0415" unicode="&#x415;" horiz-adv-x="1112" 
d="M1013 1097h-686v-390h605v-136h-605v-430h686v-141h-852v1238h852v-141z" />
    <glyph glyph-name="uni0416" unicode="&#x416;" horiz-adv-x="1788" 
d="M810 1238h166v-525h246l345 525h173v-7l-392 -584l412 -640v-7h-172l-362 571h-250v-571h-166v571h-248l-362 -571h-172v7l412 640l-392 584v7h173l345 -525h244v525z" />
    <glyph glyph-name="uni0417" unicode="&#x417;" horiz-adv-x="1110" 
d="M189 278q44 -72 134.5 -113t219.5 -41q152 0 238 63t86 176q0 102 -78.5 163t-213.5 61h-205v126h198q117 0 185 53.5t68 142.5q0 94 -76.5 149.5t-210.5 55.5q-123 0 -200.5 -35.5t-137.5 -109.5l-106 82q69 97 175 151t276 54q206 0 323.5 -92t117.5 -243
q0 -97 -50 -165t-134 -100q100 -29 165 -110t65 -198q0 -167 -126.5 -266.5t-355.5 -99.5q-184 0 -303 61t-172 159z" />
    <glyph glyph-name="uni0418" unicode="&#x418;" horiz-adv-x="1351" 
d="M161 0v1238h163v-971l718 971h148v-1238h-164v971l-717 -971h-148z" />
    <glyph glyph-name="uni0419" unicode="&#x419;" horiz-adv-x="1351" 
d="M161 0v1238h163v-971l718 971h148v-1238h-164v971l-717 -971h-148zM407 1581h118q0 -163 149 -163q148 0 148 163h119q2 -130 -65.5 -198.5t-201.5 -68.5q-135 0 -202.5 68.5t-64.5 198.5z" />
    <glyph glyph-name="uni041A" unicode="&#x41a;" horiz-adv-x="1137" 
d="M161 1238h166v-525h218l368 525h176v-7l-417 -584l439 -640v-7h-177l-388 571h-219v-571h-166v1238z" />
    <glyph glyph-name="uni041B" unicode="&#x41b;" horiz-adv-x="1294" 
d="M265 1238h869v-1238h-167v1097h-541l-17 -528q-6 -144 -20 -240t-39 -162.5t-67.5 -102t-97.5 -50t-137 -14.5h-20v152h16q76 0 114.5 31t58 116t25.5 258z" />
    <glyph glyph-name="uni041C" unicode="&#x41c;" horiz-adv-x="1616" 
d="M1311 1238h145v-1238h-161v944l-466 -643h-44l-463 643v-944h-161v1238h145l502 -706z" />
    <glyph glyph-name="uni041D" unicode="&#x41d;" horiz-adv-x="1329" 
d="M161 1238h166v-522h676v522h166v-1238h-166v575h-676v-575h-166v1238z" />
    <glyph glyph-name="uni041E" unicode="&#x41e;" horiz-adv-x="1436" 
d="M718 -19q-134 0 -251.5 48.5t-200.5 132.5t-131 202.5t-48 254.5t48 254.5t131 202.5t200.5 132.5t251.5 48.5t251.5 -48.5t200.5 -132.5t131 -202.5t48 -254.5t-48 -254.5t-131 -202.5t-200.5 -132.5t-251.5 -48.5zM253 619q0 -209 131.5 -346t333.5 -137t333.5 137
t131.5 346t-131.5 346t-333.5 137t-333.5 -137t-131.5 -346z" />
    <glyph glyph-name="uni041F" unicode="&#x41f;" horiz-adv-x="1329" 
d="M161 0v1238h1008v-1238h-166v1097h-676v-1097h-166z" />
    <glyph glyph-name="uni0420" unicode="&#x420;" horiz-adv-x="1151" 
d="M640 1238q199 0 312 -111t113 -298q0 -192 -112 -300t-313 -108h-313v-421h-166v1238h479zM327 562h292q133 0 206 71t73 196q0 121 -74 194.5t-205 73.5h-292v-535z" />
    <glyph glyph-name="uni0421" unicode="&#x421;" horiz-adv-x="1213" 
d="M716 129q101 0 194 38t139 95l101 -106q-66 -83 -183 -129t-260 -46q-131 0 -246 49t-197 133.5t-129.5 203t-47.5 252.5t47.5 252.5t129.5 203t197 133.5t246 49q143 0 260 -46t183 -129l-101 -106q-46 57 -139 95t-194 38q-200 0 -334 -140t-134 -350t134 -350
t334 -140z" />
    <glyph glyph-name="uni0422" unicode="&#x422;" horiz-adv-x="1115" 
d="M65 1238h987v-141h-410v-1097h-166v1097h-411v141z" />
    <glyph glyph-name="uni0423" unicode="&#x423;" horiz-adv-x="1091" 
d="M898 1238h176v-9l-437 -935q-76 -165 -152 -230.5t-195 -65.5q-62 0 -138 29l21 132q49 -21 108 -21q61 0 101 33.5t87 122.5l-439 935v9h175l347 -785z" />
    <glyph glyph-name="uni0424" unicode="&#x424;" horiz-adv-x="1669" 
d="M752 1355h166v-158q316 -5 490.5 -156t174.5 -422q0 -272 -175 -423t-490 -155v-158h-166v158q-316 5 -490.5 156t-174.5 422t174.5 422t490.5 156v158zM253 619q0 -209 128.5 -319t371.5 -114v866q-243 -4 -371.5 -114t-128.5 -319zM916 186q244 4 372.5 113.5
t128.5 319.5t-128.5 319.5t-372.5 113.5v-866z" />
    <glyph glyph-name="uni0425" unicode="&#x425;" horiz-adv-x="1209" 
d="M1181 0h-191l-385 525l-387 -525h-190l2 7l467 631l-440 593v7h189l359 -485l357 485h191v-7l-440 -593l468 -631v-7z" />
    <glyph glyph-name="uni0426" unicode="&#x426;" horiz-adv-x="1354" 
d="M1307 141v-429h-166v288h-980v1238h166v-1097h670v1097h167v-1097h143z" />
    <glyph glyph-name="uni0427" unicode="&#x427;" horiz-adv-x="1183" 
d="M267 874q0 -142 73.5 -210t225.5 -68q139 0 290 42v591h166v-1229h-166v497q-156 -42 -310 -42q-445 0 -445 419v355h166v-355z" />
    <glyph glyph-name="uni0428" unicode="&#x428;" horiz-adv-x="1902" 
d="M161 1238h166v-1097h541v1097h167v-1097h541v1097h166v-1238h-1581v1238z" />
    <glyph glyph-name="uni0429" unicode="&#x429;" horiz-adv-x="1933" 
d="M1884 141v-429h-167v288h-1556v1238h166v-1097h541v1097h167v-1097h541v1097h166v-1097h142z" />
    <glyph glyph-name="uni042A" unicode="&#x42a;" horiz-adv-x="1459" 
d="M65 1238h577v-417h309q211 0 324 -108.5t113 -302.5q0 -188 -113.5 -299t-323.5 -111h-475v1097h-411v141zM642 141h290q141 0 216.5 73.5t75.5 195.5q0 127 -75 198t-217 71h-290v-538z" />
    <glyph glyph-name="uni042B" unicode="&#x42b;" horiz-adv-x="1602" 
d="M161 0v1238h166v-417h310q211 0 324 -108.5t113 -302.5q0 -188 -113.5 -299t-323.5 -111h-476zM327 141h290q141 0 216.5 73.5t75.5 195.5q0 127 -75 198t-217 71h-290v-538zM1277 0v1238h166v-1238h-166z" />
    <glyph glyph-name="uni042C" unicode="&#x42c;" horiz-adv-x="1146" 
d="M161 0v1238h166v-417h310q211 0 324 -108.5t113 -302.5q0 -188 -113.5 -299t-323.5 -111h-476zM327 141h290q141 0 216.5 73.5t75.5 195.5q0 127 -75 198t-217 71h-290v-538z" />
    <glyph glyph-name="uni042D" unicode="&#x42d;" horiz-adv-x="1308" 
d="M210 331q62 -91 161 -143t220 -52q184 0 310.5 114t149.5 296h-561v142h562q-23 184 -150 299t-311 115q-119 0 -217 -50.5t-160 -140.5l-143 85q86 123 221.5 192t298.5 69q134 0 251.5 -48.5t200.5 -132.5t131 -202.5t48 -254.5t-48 -254.5t-131 -202.5t-200.5 -132.5
t-251.5 -48.5q-164 0 -300 69.5t-220 191.5z" />
    <glyph glyph-name="uni042E" unicode="&#x42e;" horiz-adv-x="1862" 
d="M1160 -19q-169 0 -304 74.5t-215 205.5t-93 298h-221v-559h-166v1238h166v-538h223q27 246 194 401.5t416 155.5q179 0 320 -82.5t218.5 -228t77.5 -327.5t-77.5 -327.5t-218.5 -228t-320 -82.5zM713 619q0 -211 124 -347t323 -136q200 0 324.5 136t124.5 347t-124.5 347
t-324.5 136q-199 0 -323 -136t-124 -347z" />
    <glyph glyph-name="uni042F" unicode="&#x42f;" horiz-adv-x="1169" 
d="M244 0h-173v11l274 490q-125 33 -195 127.5t-70 232.5q0 173 107.5 275t293.5 102h527v-1238h-166v485h-336zM246 861q0 -106 69 -170.5t186 -64.5h341v471h-341q-117 0 -186 -64.5t-69 -171.5z" />
    <glyph glyph-name="uni0430" unicode="&#x430;" horiz-adv-x="1048" 
d="M778 0v99q-109 -117 -302 -117q-178 0 -290.5 94.5t-112.5 243.5t112.5 243.5t290.5 94.5q193 0 302 -117v18q0 152 -76 229t-217 77q-90 0 -175 -28.5t-146 -70.5l-53 108q70 49 174 83.5t224 34.5q205 0 317.5 -107.5t112.5 -325.5v-559h-161zM230 322
q0 -100 77.5 -163t200.5 -63t200 63t77 163t-77 163t-200 63t-200.5 -63t-77.5 -163z" />
    <glyph glyph-name="uni0431" unicode="&#x431;" horiz-adv-x="1108" 
d="M554 -21q-212 0 -346.5 128.5t-134.5 350.5v62q0 117 16 207.5t55.5 172t111.5 140.5t177 95l135 48q112 38 149.5 66.5t48.5 76.5h147q-5 -45 -17 -77t-39 -63.5t-74.5 -57t-119.5 -49.5l-136 -44q-145 -47 -216 -120t-93 -188q50 86 143 136t212 50q128 0 232 -53
t167.5 -159.5t63.5 -249.5q0 -217 -135 -344.5t-347 -127.5zM225 451q0 -151 92.5 -241t236.5 -90q146 0 237.5 90t91.5 241q0 153 -91.5 242t-237.5 89q-145 0 -237 -89.5t-92 -241.5z" />
    <glyph glyph-name="uni0432" unicode="&#x432;" horiz-adv-x="1038" 
d="M134 0v973h506q134 0 207 -68t73 -190q0 -76 -32.5 -131.5t-91.5 -81.5q79 -25 119 -86t40 -145q0 -125 -78.5 -198t-230.5 -73h-512zM292 113h309q100 0 149 44t49 119q0 76 -48.5 120t-149.5 44h-309v-327zM292 555h300q87 0 131.5 40.5t44.5 113.5t-44.5 113.5
t-131.5 40.5h-300v-308z" />
    <glyph glyph-name="uni0433" unicode="&#x433;" horiz-adv-x="802" 
d="M134 0v973h625v-142h-467v-831h-158z" />
    <glyph glyph-name="uni0434" unicode="&#x434;" horiz-adv-x="1087" 
d="M16 -256v397h44q74 0 101 77.5t34 303.5l12 449h730l-1 -830h127v-397h-154v256h-741v-256h-152zM294 141h484l2 690h-421l-7 -285q-8 -296 -58 -405z" />
    <glyph glyph-name="uni0435" unicode="&#x435;" horiz-adv-x="1103" 
d="M73 486q0 216 136.5 359.5t345.5 143.5q95 0 177.5 -31.5t140 -86.5t96.5 -126.5t54 -154t5 -167.5h-805q19 -135 109.5 -218t222.5 -83q172 0 269 140l120 -83q-142 -195 -389 -195q-208 0 -345 143.5t-137 358.5zM221 541h662q-13 129 -98.5 218.5t-229.5 89.5
q-134 0 -226 -85.5t-108 -222.5z" />
    <glyph glyph-name="uni0436" unicode="&#x436;" horiz-adv-x="1455" 
d="M359 492l-332 475v6h173l281 -412h168v410h157v-410h168l282 412h173v-6l-332 -475l344 -487v-5h-166l-293 419h-176v-419h-155v419h-177l-294 -419h-166v5z" />
    <glyph glyph-name="uni0437" unicode="&#x437;" horiz-adv-x="942" 
d="M193 244q18 -62 85.5 -101t174.5 -39q121 0 185 45.5t64 124.5q0 70 -53 116.5t-154 46.5h-131v124h131q92 0 139 41t47 111q0 72 -60 115.5t-174 43.5q-210 0 -252 -136l-135 21q20 106 120.5 169.5t275.5 63.5q183 0 280 -75t97 -199q0 -77 -36 -132.5t-100 -81.5
q77 -27 120 -87t43 -148q0 -133 -102.5 -209t-301.5 -76q-337 0 -406 227z" />
    <glyph glyph-name="uni0438" unicode="&#x438;" horiz-adv-x="1112" 
d="M134 0v973h158v-717l516 717h170v-973h-157l1 716l-518 -716h-170z" />
    <glyph glyph-name="uni0439" unicode="&#x439;" horiz-adv-x="1112" 
d="M134 0v973h158v-717l516 717h170v-973h-157l1 716l-518 -716h-170zM295 1360h119q0 -163 148 -163q149 0 149 163h118q2 -130 -65.5 -198.5t-201.5 -68.5q-135 0 -202.5 68.5t-64.5 198.5z" />
    <glyph glyph-name="uni043A" unicode="&#x43a;" horiz-adv-x="940" 
d="M134 0v971h158v-410h166l281 412h175v-6l-332 -475l346 -487v-5h-169l-294 419h-173v-419h-158z" />
    <glyph glyph-name="uni043B" unicode="&#x43b;" horiz-adv-x="1064" 
d="M21 0v145h23q56 0 85.5 33t43.5 112t18 232l12 449h727v-971h-157l2 831h-420l-8 -313q-3 -122 -11.5 -204t-26.5 -146t-49 -98.5t-76 -52t-111 -17.5h-52z" />
    <glyph glyph-name="uni043C" unicode="&#x43c;" horiz-adv-x="1377" 
d="M134 0v973h168l382 -600l393 600h166l-1 -973h-158l2 720l-359 -536h-80l-355 534v-718h-158z" />
    <glyph glyph-name="uni043D" unicode="&#x43d;" horiz-adv-x="1112" 
d="M134 0v971h158v-387h530v387h156v-971h-157v444h-529v-444h-158z" />
    <glyph glyph-name="uni043E" unicode="&#x43e;" horiz-adv-x="1126" 
d="M562 -21q-214 0 -351.5 142.5t-137.5 364.5q0 223 137.5 365.5t351.5 142.5q215 0 353.5 -142.5t138.5 -365.5t-138.5 -365t-353.5 -142zM225 486q0 -159 95.5 -262.5t241.5 -103.5q147 0 243.5 103.5t96.5 262.5t-96.5 262.5t-243.5 103.5q-146 0 -241.5 -103.5
t-95.5 -262.5z" />
    <glyph glyph-name="uni043F" unicode="&#x43f;" horiz-adv-x="1119" 
d="M134 0v971h851l-2 -971h-157l2 831h-536v-831h-158z" />
    <glyph glyph-name="uni0440" unicode="&#x440;" horiz-adv-x="1183" 
d="M661 -14q-122 0 -217.5 55.5t-151.5 156.5v-552h-158v1327h158v-198q56 101 151.5 156.5t217.5 55.5q194 0 322 -143t128 -358q0 -214 -128 -357t-322 -143zM292 486q0 -157 96.5 -260.5t241.5 -103.5q141 0 233 103.5t92 260.5t-92 261t-233 104q-145 0 -241.5 -104
t-96.5 -261z" />
    <glyph glyph-name="uni0441" unicode="&#x441;" horiz-adv-x="1052" 
d="M73 486q0 221 136.5 362.5t351.5 141.5q141 0 253.5 -72t165.5 -188l-126 -63q-45 84 -120.5 134t-172.5 50q-148 0 -243 -103t-95 -262t95 -261.5t243 -102.5q99 0 175.5 51t117.5 135l126 -66q-53 -116 -165.5 -188t-253.5 -72q-215 0 -351.5 141.5t-136.5 362.5z" />
    <glyph glyph-name="uni0442" unicode="&#x442;" horiz-adv-x="924" 
d="M384 0v831h-336v142h827v-142h-334v-831h-157z" />
    <glyph glyph-name="uni0443" unicode="&#x443;" horiz-adv-x="919" 
d="M34 973h168l268 -743l259 743h162v-7l-387 -1092q-50 -140 -111.5 -208t-142.5 -78.5t-190 19.5l34 129q107 -23 164 9t99 151l39 115l-362 955v7z" />
    <glyph glyph-name="uni0444" unicode="&#x444;" horiz-adv-x="1508" 
d="M428 -21q-163 0 -259 140.5t-96 366.5t96 367t259 141q157 0 248 -134v466h157v-465q93 133 246 133q165 0 261 -141t96 -367t-96 -366.5t-261 -140.5q-151 0 -246 138v-471h-157v471q-95 -138 -248 -138zM225 486q0 -164 60.5 -265t169.5 -101q111 0 170 100.5t59 265.5
t-59 265.5t-170 100.5q-109 0 -169.5 -101t-60.5 -265zM824 486q0 -164 59.5 -265t168.5 -101q110 0 171 101t61 265t-61 265t-171 101q-109 0 -168.5 -101t-59.5 -265z" />
    <glyph glyph-name="uni0445" unicode="&#x445;" horiz-adv-x="956" 
d="M953 0h-178l-296 391l-297 -391h-177v5l373 499l-343 463v6h179l265 -366l266 366h176v-6l-343 -463l375 -499v-5z" />
    <glyph glyph-name="uni0446" unicode="&#x446;" horiz-adv-x="1126" 
d="M134 0v971h158v-830h525l2 830h155v-830h128v-397h-154v256h-814z" />
    <glyph glyph-name="uni0447" unicode="&#x447;" horiz-adv-x="1006" 
d="M872 973v-973h-157v377q-143 -30 -253 -30q-193 0 -284 84t-91 268v274h157v-257q0 -125 59.5 -177.5t188.5 -52.5q94 0 223 27v460h157z" />
    <glyph glyph-name="uni0448" unicode="&#x448;" horiz-adv-x="1563" 
d="M134 0v971h158v-830h412v830h156v-830h412l1 830h156v-971h-1295z" />
    <glyph glyph-name="uni0449" unicode="&#x449;" horiz-adv-x="1581" 
d="M1272 141l1 830h156v-830h127v-397h-154v256h-1268v971h158v-830h412v830h156v-830h412z" />
    <glyph glyph-name="uni044A" unicode="&#x44a;" horiz-adv-x="1204" 
d="M48 973h493v-358h292q155 0 239.5 -78.5t84.5 -228.5t-84.5 -229t-239.5 -79h-449v831h-336v142zM541 131h257q94 0 147.5 44t53.5 133t-54 134.5t-147 45.5h-257v-357z" />
    <glyph glyph-name="uni044B" unicode="&#x44b;" horiz-adv-x="1375" 
d="M1084 0v973h158v-973h-158zM134 0v973h158v-358h292q155 0 239 -78.5t84 -228.5t-84 -229t-239 -79h-450zM292 131h256q94 0 148 44t54 133t-54.5 134.5t-147.5 45.5h-256v-357z" />
    <glyph glyph-name="uni044C" unicode="&#x44c;" horiz-adv-x="955" 
d="M134 0v973h158v-358h292q155 0 239 -78.5t84 -228.5t-84 -229t-239 -79h-450zM292 131h256q94 0 148 44t54 133t-54.5 134.5t-147.5 45.5h-256v-357z" />
    <glyph glyph-name="uni044D" unicode="&#x44d;" horiz-adv-x="986" 
d="M55 831q65 75 161 119t208 44q214 0 352 -143t138 -365t-138 -364.5t-352 -142.5q-231 0 -366 171l119 83q90 -113 247 -113q132 0 225 87t110 225h-435v130h431q-23 130 -113.5 210t-217.5 80q-151 0 -247 -107z" />
    <glyph glyph-name="uni044E" unicode="&#x44e;" horiz-adv-x="1490" 
d="M134 0v973h158v-414h184q23 195 151 315t317 120q208 0 341 -142.5t133 -365.5t-133 -365t-341 -142q-190 0 -318.5 121t-149.5 317h-184v-417h-158zM624 486q0 -159 90.5 -262.5t229.5 -103.5q140 0 230.5 103.5t90.5 262.5t-90.5 262.5t-230.5 103.5
q-139 0 -229.5 -103.5t-90.5 -262.5z" />
    <glyph glyph-name="uni044F" unicode="&#x44f;" horiz-adv-x="990" 
d="M440 844q-93 0 -146 -44t-53 -131q0 -88 53 -132t146 -44h259v351h-259zM76 0v5l221 370q-104 24 -159 99t-55 195q0 147 84.5 225.5t239.5 78.5h447l2 -973h-157v363h-241l-212 -363h-170z" />
    <glyph glyph-name="uni0450" unicode="&#x450;" horiz-adv-x="1103" 
d="M509 1282l144 -205h-137l-194 205h187zM73 486q0 216 136.5 359.5t345.5 143.5q95 0 177.5 -31.5t140 -86.5t96.5 -126.5t54 -154t5 -167.5h-805q19 -135 109.5 -218t222.5 -83q172 0 269 140l120 -83q-142 -195 -389 -195q-208 0 -345 143.5t-137 358.5zM221 541h662
q-13 129 -98.5 218.5t-229.5 89.5q-134 0 -226 -85.5t-108 -222.5z" />
    <glyph glyph-name="uni0451" unicode="&#x451;" horiz-adv-x="1103" 
d="M439 1082q-31 0 -53 22t-22 53t22 52.5t53 21.5t52.5 -21.5t21.5 -52.5q0 -32 -21.5 -53.5t-52.5 -21.5zM73 486q0 216 136.5 359.5t345.5 143.5q95 0 177.5 -31.5t140 -86.5t96.5 -126.5t54 -154t5 -167.5h-805q19 -135 109.5 -218t222.5 -83q172 0 269 140l120 -83
q-142 -195 -389 -195q-208 0 -345 143.5t-137 358.5zM221 541h662q-13 129 -98.5 218.5t-229.5 89.5q-134 0 -226 -85.5t-108 -222.5zM600 1157q0 31 21.5 52.5t52.5 21.5t52.5 -21.5t21.5 -52.5t-21.5 -53t-52.5 -22t-52.5 21.5t-21.5 53.5z" />
    <glyph glyph-name="uni0452" unicode="&#x452;" horiz-adv-x="1133" 
d="M-19 1031v131h160v164h158v-164h410v-131h-410v-347q51 93 138 143t201 50q178 0 281 -121.5t103 -331.5v-530q0 -179 -77 -260t-209 -81q-82 0 -202 30l39 129q72 -13 124 -13q85 0 126.5 48.5t41.5 171.5v505q0 146 -76 233.5t-204 87.5q-129 0 -207.5 -87.5
t-78.5 -233.5v-424h-158v1031h-160z" />
    <glyph glyph-name="uni0453" unicode="&#x453;" horiz-adv-x="802" 
d="M134 0v973h625v-142h-467v-831h-158zM354 1070l143 205h187l-194 -205h-136z" />
    <glyph glyph-name="uni0454" unicode="&#x454;" horiz-adv-x="986" 
d="M810 745q-96 107 -248 107q-127 0 -217 -80t-113 -210h431v-130h-435q17 -139 109.5 -225.5t224.5 -86.5q158 0 248 113l118 -83q-135 -171 -366 -171q-214 0 -351.5 142.5t-137.5 364.5q0 223 137.5 365.5t351.5 142.5q112 0 209 -44t161 -119z" />
    <glyph glyph-name="uni0455" unicode="&#x455;" horiz-adv-x="916" 
d="M699 713q-27 70 -93.5 112t-161.5 42q-92 0 -150.5 -35.5t-58.5 -104.5q0 -31 15 -55.5t36 -41t61 -31.5t72 -23.5t87 -21.5q64 -16 110.5 -31.5t92 -40.5t74 -55t45.5 -73.5t17 -97.5q0 -93 -58.5 -157.5t-143 -92t-183.5 -27.5q-155 0 -263.5 62.5t-143.5 184.5l129 62
q31 -93 106.5 -136.5t173.5 -43.5q97 0 162.5 38t65.5 114q0 30 -12 54t-30.5 40.5t-51.5 31t-64 23.5t-79 21q-42 10 -68.5 17.5t-70 22t-71.5 28.5t-61.5 37t-53.5 48t-34 60t-14 75q1 90 54.5 154.5t134.5 93t178 28.5q146 0 244.5 -61.5t137.5 -164.5z" />
    <glyph glyph-name="uni0456" unicode="&#x456;" horiz-adv-x="426" 
d="M134 0v973h158v-973h-158zM106 1234q0 44 31.5 75.5t74.5 31.5q45 0 76.5 -31.5t31.5 -75.5q0 -45 -31.5 -76t-76.5 -31q-44 0 -75 31t-31 76z" />
    <glyph glyph-name="uni0457" unicode="&#x457;" horiz-adv-x="426" 
d="M134 0v973h158v-973h-158zM21 1141q0 31 22 52.5t53 21.5t52.5 -21.5t21.5 -52.5q0 -32 -21.5 -53.5t-52.5 -21.5t-53 22t-22 53zM256 1141q0 31 22 52.5t53 21.5t52.5 -21.5t21.5 -52.5t-21.5 -53t-52.5 -22t-53 22t-22 53z" />
    <glyph glyph-name="uni0458" unicode="&#x458;" horiz-adv-x="419" 
d="M207 1127q-45 0 -76.5 31t-31.5 76q0 44 31.5 74.5t76.5 30.5t75.5 -30.5t30.5 -74.5q0 -45 -30.5 -76t-75.5 -31zM-207 -380l57 115q78 -36 136 -36q71 0 107 49t36 171v1054h158v-1079q0 -179 -72.5 -260t-198.5 -81q-105 0 -223 67z" />
    <glyph glyph-name="uni0459" unicode="&#x459;" horiz-adv-x="1604" 
d="M1233 615q155 0 239 -78.5t84 -228.5t-84 -229t-239 -79h-460l2 831h-420l-8 -313q-3 -122 -11.5 -204t-26.5 -146t-49 -98.5t-76 -52t-111 -17.5h-52v145h23q56 0 85.5 33t43.5 112t18 232l12 449h727v-356h303zM930 131h267q95 0 148.5 44t53.5 133t-54 134.5
t-148 45.5h-267v-357z" />
    <glyph glyph-name="uni045A" unicode="&#x45a;" horiz-adv-x="1644" 
d="M134 0v971h158v-368h530v368h156v-368h295q156 0 240 -76t84 -225q0 -150 -84 -226t-240 -76h-452v470h-529v-470h-158zM978 131h262q200 0 200 170q0 169 -200 169h-262v-339z" />
    <glyph glyph-name="uni045B" unicode="&#x45b;" horiz-adv-x="1133" 
d="M141 0v1031h-160v131h160v164h158v-164h410v-131h-410v-347q51 93 138 143t201 50q178 0 281 -121.5t103 -331.5v-424h-157v424q0 146 -76 233.5t-204 87.5q-129 0 -207.5 -87.5t-78.5 -233.5v-424h-158z" />
    <glyph glyph-name="uni045C" unicode="&#x45c;" horiz-adv-x="940" 
d="M134 0v971h158v-410h166l281 412h175v-6l-332 -475l346 -487v-5h-169l-294 419h-173v-419h-158zM405 1061l143 205h188l-195 -205h-136z" />
    <glyph glyph-name="uni045D" unicode="&#x45d;" horiz-adv-x="1112" 
d="M134 0v973h158v-717l516 717h170v-973h-157l1 716l-518 -716h-170zM327 1302h188l143 -205h-136z" />
    <glyph glyph-name="uni045E" unicode="&#x45e;" horiz-adv-x="919" 
d="M34 973h168l268 -743l259 743h162v-7l-387 -1092q-50 -140 -111.5 -208t-142.5 -78.5t-190 19.5l34 129q107 -23 164 9t99 151l39 115l-362 955v7zM210 1342h119q0 -162 149 -162q148 0 148 162h119q2 -130 -65.5 -198.5t-201.5 -68.5q-136 0 -203.5 68.5t-64.5 198.5z
" />
    <glyph glyph-name="uni045F" unicode="&#x45f;" horiz-adv-x="1108" 
d="M817 141l2 830h155v-971h-343v-256h-152v256h-345v971h158v-830h525z" />
    <glyph glyph-name="uni0462" unicode="&#x462;" horiz-adv-x="1289" 
d="M65 1054h255v184h166v-184h469v-141h-469v-207h313q202 0 309 -89t107 -265q0 -175 -107 -263.5t-309 -88.5h-479v913h-255v141zM486 141h296q133 0 200 55t67 156q0 102 -67 157t-200 55h-296v-423z" />
    <glyph glyph-name="uni0463" unicode="&#x463;" horiz-adv-x="974" 
d="M141 0v895h-160v131h160v300h158v-300h410v-131h-410v-280h304q154 0 238 -78.5t84 -228.5t-84 -229t-238 -79h-462zM299 131h269q94 0 147.5 44t53.5 133t-54 134.5t-147 45.5h-269v-357z" />
    <glyph glyph-name="uni0490" unicode="&#x490;" horiz-adv-x="1041" 
d="M327 1097v-1097h-166v1238h617v288h166v-429h-617z" />
    <glyph glyph-name="uni0491" unicode="&#x491;" horiz-adv-x="802" 
d="M134 0v973h473v256h152v-398h-467v-831h-158z" />
    <glyph glyph-name="uni04C1" unicode="&#x4c1;" horiz-adv-x="1788" 
d="M810 1238h166v-525h246l345 525h173v-7l-392 -584l412 -640v-7h-172l-362 571h-250v-571h-166v571h-248l-362 -571h-172v7l412 640l-392 584v7h173l345 -525h244v525zM628 1590h118q0 -163 149 -163q148 0 148 163h119q2 -130 -65.5 -198.5t-201.5 -68.5
q-135 0 -202.5 68.5t-64.5 198.5z" />
    <glyph glyph-name="uni04C2" unicode="&#x4c2;" horiz-adv-x="1455" 
d="M359 492l-332 475v6h173l281 -412h168v410h157v-410h168l282 412h173v-6l-332 -475l344 -487v-5h-166l-293 419h-176v-419h-155v419h-177l-294 -419h-166v5zM462 1349h118q0 -162 149 -162q148 0 148 162h119q2 -130 -65.5 -198.5t-201.5 -68.5q-135 0 -202.5 68.5
t-64.5 198.5z" />
    <glyph glyph-name="uni04F8" unicode="&#x4f8;" horiz-adv-x="1602" 
d="M161 0v1238h166v-417h310q211 0 324 -108.5t113 -302.5q0 -188 -113.5 -299t-323.5 -111h-476zM327 141h290q141 0 216.5 73.5t75.5 195.5q0 127 -75 198t-217 71h-290v-538zM619 1397q0 31 21.5 52.5t52.5 21.5t53 -21.5t22 -52.5t-21.5 -52.5t-53.5 -21.5
q-31 0 -52.5 21.5t-21.5 52.5zM854 1397q0 31 21.5 52.5t52.5 21.5t53 -21.5t22 -52.5t-22 -52.5t-53 -21.5q-32 0 -53 21.5t-21 52.5zM1277 0v1238h166v-1238h-166z" />
    <glyph glyph-name="uni04F9" unicode="&#x4f9;" horiz-adv-x="1375" 
d="M1084 0v973h158v-973h-158zM134 0v973h158v-358h292q155 0 239 -78.5t84 -228.5t-84 -229t-239 -79h-450zM292 131h256q94 0 148 44t54 133t-54.5 134.5t-147.5 45.5h-256v-357zM497 1146q0 31 21.5 52.5t52.5 21.5t53 -21.5t22 -52.5t-21.5 -52.5t-53.5 -21.5
q-31 0 -52.5 21.5t-21.5 52.5zM732 1146q0 31 21.5 52.5t52.5 21.5t53 -21.5t22 -52.5t-22 -52.5t-53 -21.5q-32 0 -53 21t-21 53z" />
    <glyph glyph-name="uni05B0" unicode="&#x5b0;" 
d="M516 -260q-26 0 -44.5 19t-18.5 45q0 28 18.5 46.5t44.5 18.5q28 0 47 -18.5t19 -46.5q0 -26 -19 -45t-47 -19zM453 -384q0 26 18.5 45t44.5 19q28 0 47 -19t19 -45q0 -28 -19 -46.5t-47 -18.5q-26 0 -44.5 18.5t-18.5 46.5z" />
    <glyph glyph-name="uni05B1" unicode="&#x5b1;" 
d="M637 -260q-26 0 -45 19t-19 45q0 28 18.5 46.5t45.5 18.5q28 0 46.5 -18.5t18.5 -46.5q0 -26 -19 -45t-46 -19zM180 -196q0 28 19 46.5t47 18.5q27 0 46 -19t19 -46q0 -26 -19.5 -45t-45.5 -19q-28 0 -47 19t-19 45zM278 -357q0 28 18.5 46.5t46.5 18.5q27 0 45.5 -19
t18.5 -46q0 -26 -19 -45t-45 -19q-27 0 -46 18.5t-19 45.5zM375 -196q0 28 18.5 46.5t45.5 18.5q28 0 46.5 -18.5t18.5 -46.5q0 -26 -19 -45t-46 -19q-26 0 -45 19t-19 45zM573 -384q0 26 19 45t45 19q27 0 46 -19t19 -45q0 -28 -18.5 -46.5t-46.5 -18.5q-27 0 -45.5 18.5
t-18.5 46.5z" />
    <glyph glyph-name="uni05B2" unicode="&#x5b2;" 
d="M189 -143h326v-94h-326v94zM592 -384q0 26 19 45t45 19q28 0 47 -19t19 -45q0 -28 -19 -46.5t-47 -18.5q-26 0 -45 18.5t-19 46.5zM592 -196q0 28 19 46.5t45 18.5q28 0 47 -18.5t19 -46.5q0 -26 -19 -45t-47 -19q-26 0 -45 19t-19 45z" />
    <glyph glyph-name="uni05B3" unicode="&#x5b3;" 
d="M164 -145h329v-85h-120l4 -106v-78h-94v78l5 106h-124v85zM566 -384q0 26 19 45t45 19q28 0 46.5 -19t18.5 -45q0 -28 -18.5 -46.5t-46.5 -18.5q-26 0 -45 18.5t-19 46.5zM566 -196q0 28 19 46.5t45 18.5q28 0 46.5 -18.5t18.5 -46.5q0 -26 -18.5 -45t-46.5 -19
q-26 0 -45 19t-19 45z" />
    <glyph glyph-name="uni05B4" unicode="&#x5b4;" 
d="M516 -271q-29 0 -49 20t-20 49t20 49t49 20t49 -20t20 -49t-20 -49t-49 -20z" />
    <glyph glyph-name="uni05B5" unicode="&#x5b5;" 
d="M582 -260q-28 0 -47 19t-19 45q0 28 19 46.5t47 18.5q27 0 46 -19t19 -46q0 -26 -19.5 -45t-45.5 -19zM322 -196q0 28 19 46.5t45 18.5q28 0 46.5 -18.5t18.5 -46.5q0 -26 -18.5 -45t-46.5 -19q-26 0 -45 19t-19 45z" />
    <glyph glyph-name="uni05B6" unicode="&#x5b6;" 
d="M387 -260q-27 0 -46 19t-19 45q0 28 18.5 46.5t46.5 18.5q27 0 46.5 -19t19.5 -46q0 -26 -20 -45t-46 -19zM419 -357q0 28 19 46.5t47 18.5q26 0 44.5 -18.5t18.5 -46.5q0 -26 -18.5 -45t-44.5 -19q-28 0 -47 19t-19 45zM516 -196q0 28 19 46.5t45 18.5q28 0 47 -18.5
t19 -46.5q0 -26 -19 -45t-47 -19q-26 0 -45 19t-19 45z" />
    <glyph glyph-name="uni05B7" unicode="&#x5b7;" 
d="M334 -140h326v-93h-326v93z" />
    <glyph glyph-name="uni05B8" unicode="&#x5b8;" 
d="M315 -145h329v-85h-121l4 -106v-78h-94v78l6 106h-124v85z" />
    <glyph glyph-name="uni05B9" unicode="&#x5b9;" 
d="M522 1178q-29 0 -50 21t-21 50q0 28 21 47.5t50 19.5q28 0 47.5 -19.5t19.5 -47.5q0 -29 -19.5 -50t-47.5 -21z" />
    <glyph glyph-name="uni05BA" unicode="&#x5ba;" 
d="M525 1178q-29 0 -49.5 21t-20.5 50q0 28 20.5 47.5t49.5 19.5q28 0 47.5 -19.5t19.5 -47.5q0 -29 -19.5 -50t-47.5 -21z" />
    <glyph glyph-name="uni05BB" unicode="&#x5bb;" 
d="M518 -255q-26 0 -44 18t-18 44t18 44t44 18t44 -18.5t18 -43.5t-18 -43.5t-44 -18.5zM589 -313q0 26 18 44t44 18t44 -18t18 -44q0 -25 -18.5 -43.5t-43.5 -18.5q-26 0 -44 18t-18 44zM722 -433q0 26 17.5 44.5t43.5 18.5t44 -18.5t18 -44.5q0 -25 -18 -42.5t-44 -17.5
t-43.5 17t-17.5 43z" />
    <glyph glyph-name="uni05BC" unicode="&#x5bc;" 
d="M518 456q-29 0 -48 19.5t-19 47.5t19 48t48 20q28 0 47.5 -20t19.5 -48t-19.5 -47.5t-47.5 -19.5z" />
    <glyph glyph-name="uni05BE" unicode="&#x5be;" horiz-adv-x="762" 
d="M106 1061h550v-141h-550v141z" />
    <glyph glyph-name="uni05BF" unicode="&#x5bf;" 
d="M332 1250h386v-81h-386v81z" />
    <glyph glyph-name="uni05C1" unicode="&#x5c1;" 
d="M775 1178q-29 0 -50 21t-21 50q0 28 21 47.5t50 19.5q28 0 47.5 -19.5t19.5 -47.5q0 -29 -19.5 -50t-47.5 -21z" />
    <glyph glyph-name="uni05C2" unicode="&#x5c2;" 
d="M279 1178q-29 0 -49.5 21t-20.5 50q0 28 20.5 47.5t49.5 19.5q28 0 48 -19.5t20 -47.5q0 -29 -20 -50t-48 -21z" />
    <glyph glyph-name="uni05C3" unicode="&#x5c3;" horiz-adv-x="493" 
d="M248 -11q-51 0 -86.5 35.5t-35.5 86.5q0 52 35 88t87 36q50 0 86 -36t36 -88q0 -50 -36 -86t-86 -36zM126 953q0 52 35 88t87 36q50 0 86 -36t36 -88q0 -50 -36 -86t-86 -36q-51 0 -86.5 35.5t-35.5 86.5z" />
    <glyph glyph-name="uni05C6" unicode="&#x5c6;" horiz-adv-x="693" 
d="M600 0h-466v745q0 160 67 238t213 78h147v-141h-99q-86 0 -123.5 -53t-37.5 -165v-561h299v-141z" />
    <glyph glyph-name="uni05C7" unicode="&#x5c7;" 
d="M423 -138h258v-65h-96l4 -84v-61h-73v61l4 84h-97v65z" />
    <glyph glyph-name="uni05D0" unicode="&#x5d0;" horiz-adv-x="1236" 
d="M1130 0h-186l-479 598q-109 -61 -158 -199t-42 -399h-166q-7 307 61.5 469t216.5 237l-280 348v7h186l479 -596q108 60 156.5 197.5t43.5 398.5h166q7 -307 -61 -469t-216 -237l279 -348v-7z" />
    <glyph glyph-name="uni05D1" unicode="&#x5d1;" horiz-adv-x="1167" 
d="M1135 0h-1039v141h716v423q0 175 -80.5 276t-243.5 101q-166 0 -357 -103l-55 124q207 120 437 120q465 0 465 -507v-434h157v-141z" />
    <glyph glyph-name="uni05D2" unicode="&#x5d2;" horiz-adv-x="714" 
d="M41 0v156h70q74 0 134.5 26.5t98 71t57.5 101t20 117.5v274q0 174 -161 174h-117v141h147q290 0 290 -281v-780h-124l-24 262h-6q-32 -121 -113 -191.5t-202 -70.5h-70z" />
    <glyph glyph-name="uni05D3" unicode="&#x5d3;" horiz-adv-x="1142" 
d="M1070 920q-248 0 -248 -292v-628h-166v623q0 212 133 297h-715v141h996v-141z" />
    <glyph glyph-name="uni05D4" unicode="&#x5d4;" horiz-adv-x="1234" 
d="M150 566l167 23v-589h-167v566zM138 920v141h456q260 0 383 -128.5t123 -401.5v-531h-166v531q0 203 -81.5 296t-258.5 93h-456z" />
    <glyph glyph-name="uni05D5" unicode="&#x5d5;" horiz-adv-x="458" 
d="M311 1061v-1061h-166v1061h166z" />
    <glyph glyph-name="uni05D6" unicode="&#x5d6;" horiz-adv-x="762" 
d="M704 920q-131 0 -207.5 -47.5t-104.5 -154.5t3.5 -285t122.5 -433h-175q-280 796 83 920h-345v141h623v-141z" />
    <glyph glyph-name="uni05D7" unicode="&#x5d7;" horiz-adv-x="1264" 
d="M631 1061q256 0 377.5 -123t121.5 -383v-555h-166v555q0 184 -81.5 274.5t-251.5 90.5h-320v-920h-166v1061h486z" />
    <glyph glyph-name="uni05D8" unicode="&#x5d8;" horiz-adv-x="1262" 
d="M775 1075q183 0 290.5 -132t107.5 -379q0 -273 -138 -427.5t-388 -154.5q-252 0 -393 155t-141 427v497h166v-497q0 -206 96 -323t272 -117q174 0 268.5 117t94.5 323q0 169 -66.5 269.5t-188.5 100.5q-100 0 -196 -48l-43 124q114 65 259 65z" />
    <glyph glyph-name="uni05D9" unicode="&#x5d9;" horiz-adv-x="431" 
d="M133 1061h166v-599l-166 -29v628z" />
    <glyph glyph-name="uni05DA" unicode="&#x5da;" horiz-adv-x="1027" 
d="M412 1061q256 0 369.5 -123t113.5 -400v-846h-166v846q0 200 -79 291t-249 91h-327v141h338z" />
    <glyph glyph-name="uni05DB" unicode="&#x5db;" horiz-adv-x="1061" 
d="M447 1079q240 0 384.5 -149t144.5 -399t-144.5 -399.5t-384.5 -149.5q-208 0 -369 108l53 117q145 -89 297 -89q174 0 278 113t104 300t-104 299.5t-278 112.5q-154 0 -297 -91l-53 119q161 108 369 108z" />
    <glyph glyph-name="uni05DC" unicode="&#x5dc;" horiz-adv-x="1027" 
d="M244 1061h730v-18l-406 -1043h-175v7l362 913h-677v359h166v-218z" />
    <glyph glyph-name="uni05DD" unicode="&#x5dd;" horiz-adv-x="1280" 
d="M649 1061q260 0 378.5 -114.5t118.5 -362.5v-584h-1001v1061h504zM311 141h669v430q0 180 -80 264.5t-253 84.5h-336v-779z" />
    <glyph glyph-name="uni05DE" unicode="&#x5de;" horiz-adv-x="1335" 
d="M64 1061h164l115 -359q37 109 94 190.5t143.5 133t190.5 51.5q213 0 343.5 -150.5t130.5 -390.5q0 -165 -48 -286.5t-136.5 -185.5t-213 -73t-278.5 50l38 134q231 -90 356 7.5t125 353.5q0 178 -87 286t-223 108q-71 0 -129 -32.5t-100.5 -94t-73 -133.5t-56.5 -166
l-136 -504h-165l137 497z" />
    <glyph glyph-name="uni05DF" unicode="&#x5df;" horiz-adv-x="458" 
d="M311 1061v-1369h-166v1369h166z" />
    <glyph glyph-name="uni05E0" unicode="&#x5e0;" horiz-adv-x="693" 
d="M94 0v141h299v561q0 112 -37.5 165t-123.5 53h-99v141h146q146 0 213 -78t67 -238v-745h-465z" />
    <glyph glyph-name="uni05E1" unicode="&#x5e1;" horiz-adv-x="1230" 
d="M628 1061q245 0 379 -137.5t134 -384.5q0 -258 -138 -409t-375 -151q-238 0 -376.5 151t-138.5 409v522h515zM279 539q0 -192 93.5 -305.5t255.5 -113.5t254 113t92 306q0 179 -89.5 280t-256.5 101h-349v-381z" />
    <glyph glyph-name="uni05E2" unicode="&#x5e2;" horiz-adv-x="1174" 
d="M1049 715q0 -151 -25.5 -264t-89.5 -211t-171.5 -162.5t-275 -105t-395.5 -50.5l-12 136q140 9 284 34l-249 969h172l236 -930q201 65 280.5 199.5t79.5 384.5v346h166v-346z" />
    <glyph glyph-name="uni05E3" unicode="&#x5e3;" horiz-adv-x="1147" 
d="M527 1079q247 0 373 -136.5t126 -392.5v-858h-163v856q0 189 -82.5 289t-249.5 100q-135 0 -219 -82.5t-84 -214.5q0 -124 75.5 -203.5t212.5 -93.5l-24 -138q-197 16 -314.5 136t-117.5 301q0 197 128 317t339 120z" />
    <glyph glyph-name="uni05E4" unicode="&#x5e4;" horiz-adv-x="1160" 
d="M538 1081q251 0 393.5 -148.5t142.5 -393.5q0 -257 -149.5 -407.5t-418.5 -150.5q-226 0 -388 72l41 129q156 -62 345 -62q187 0 295 114t108 305q0 179 -99 290.5t-270 111.5q-134 0 -217.5 -61t-83.5 -162q0 -95 80 -145.5t210 -43.5l-5 -128q-199 -16 -325 74
t-126 243q0 171 130.5 267t336.5 96z" />
    <glyph glyph-name="uni05E5" unicode="&#x5e5;" horiz-adv-x="1101" 
d="M48 1061h177l283 -695q92 31 151 77.5t99 127t54.5 199t9.5 291.5h167q7 -203 -15.5 -345.5t-78.5 -237.5t-135.5 -150.5t-198.5 -90.5l219 -539v-6h-177l-555 1364v5z" />
    <glyph glyph-name="uni05E6" unicode="&#x5e6;" horiz-adv-x="1107" 
d="M230 1061l393 -527q214 104 198 527h161q16 -507 -276 -640l302 -405v-16h-914v141h642l-692 915v5h186z" />
    <glyph glyph-name="uni05E7" unicode="&#x5e7;" horiz-adv-x="1252" 
d="M311 614v-922h-161v900zM138 920v141h974v-614q0 -246 -97 -352.5t-276 -106.5q-115 0 -214 30l20 138q93 -27 173 -27q124 0 178.5 75t54.5 259v457h-813z" />
    <glyph glyph-name="uni05E8" unicode="&#x5e8;" horiz-adv-x="1080" 
d="M948 548v-548h-161v541q0 198 -93 299t-261 101q-153 0 -325 -90l-57 118q192 106 409 106q224 0 356 -131t132 -396z" />
    <glyph glyph-name="uni05E9" unicode="&#x5e9;" horiz-adv-x="1437" 
d="M1323 580q0 -279 -162 -440t-443 -161t-443 161t-162 440v481h166v-484q0 -209 118.5 -333t320.5 -124t320.5 124t118.5 333v484h166v-481zM635 382v679h166v-644z" />
    <glyph glyph-name="uni05EA" unicode="&#x5ea;" horiz-adv-x="1337" 
d="M707 1061q261 0 379 -120.5t118 -388.5v-552h-166v552q0 189 -80 278.5t-254 89.5h-260v-679q0 -125 -61 -188.5t-165 -63.5q-114 0 -197 30l23 131q55 -19 122 -19q60 0 86.5 37t26.5 119v633h-152v141h580z" />
    <glyph glyph-name="uni05EF" unicode="&#x5ef;" horiz-adv-x="1294" 
d="M564 1300h166v-600l-166 -28v628zM133 433v628h166v-599zM996 433v628h166v-599z" />
    <glyph glyph-name="uni05F0" unicode="&#x5f0;" horiz-adv-x="916" 
d="M769 1061v-1061h-166v1061h166zM145 0v1061h166v-1061h-166z" />
    <glyph glyph-name="uni05F1" unicode="&#x5f1;" horiz-adv-x="896" 
d="M133 1061h166v-599l-166 -29v628zM584 0v1061h166v-1061h-166z" />
    <glyph glyph-name="uni05F2" unicode="&#x5f2;" horiz-adv-x="857" 
d="M559 1061h166v-599l-166 -29v628zM133 433v628h166v-599z" />
    <glyph glyph-name="uni05F3" unicode="&#x5f3;" horiz-adv-x="383" 
d="M177 1238h166l-138 -501h-129z" />
    <glyph glyph-name="uni05F4" unicode="&#x5f4;" horiz-adv-x="664" 
d="M175 1238h163l-135 -501h-127zM363 737l99 501h162l-136 -501h-125z" />
    <glyph glyph-name="uni0E3F" unicode="&#xe3f;" horiz-adv-x="1147" 
d="M527 1360h74v-154h87q152 0 240.5 -82t88.5 -222q0 -89 -38.5 -151.5t-104.5 -92.5q89 -30 140 -107.5t51 -186.5q0 -155 -97.5 -243.5t-265.5 -88.5h-101v-154h-74v154h-366v1174h366v154zM315 161h212v433h-212v-433zM315 713h212v366h-212v-366zM601 161h80
q110 0 172.5 58.5t62.5 158.5q0 101 -61.5 158.5t-173.5 57.5h-80v-433zM601 713h66q98 0 149.5 48t51.5 134q0 84 -53.5 134t-147.5 50h-66v-366z" />
    <glyph glyph-name="uni1E3E" unicode="&#x1e3e;" horiz-adv-x="1616" 
d="M1311 1238h145v-1238h-161v944l-466 -643h-44l-463 643v-944h-161v1238h145l502 -706zM713 1326l143 206h187l-194 -206h-136z" />
    <glyph glyph-name="uni1E3F" unicode="&#x1e3f;" horiz-adv-x="1673" 
d="M134 0v973h158v-145q94 161 292 161q111 0 189.5 -55.5t110.5 -151.5q42 98 126.5 152.5t200.5 54.5q154 0 250.5 -101.5t96.5 -273.5v-614h-157v594q0 117 -66.5 190.5t-170.5 73.5q-105 0 -172 -73.5t-67 -190.5v-594h-157v594q0 117 -66.5 190.5t-170.5 73.5
q-105 0 -172 -73.5t-67 -190.5v-594h-158zM769 1061l144 205h187l-194 -205h-137z" />
    <glyph glyph-name="Wgrave" unicode="&#x1e80;" horiz-adv-x="1814" 
d="M1777 1238v-12l-422 -1226h-115l-333 959l-332 -959h-115l-423 1226v12h177l311 -932l315 932h134l315 -932l312 932h176zM672 1532h188l143 -206h-136z" />
    <glyph glyph-name="wgrave" unicode="&#x1e81;" horiz-adv-x="1460" 
d="M1265 973h162v-7l-353 -966h-94l-250 699l-249 -699h-94l-353 966v7h162l251 -711l246 711h75l245 -711zM495 1266h188l143 -205h-136z" />
    <glyph glyph-name="Wacute" unicode="&#x1e82;" horiz-adv-x="1814" 
d="M1777 1238v-12l-422 -1226h-115l-333 959l-332 -959h-115l-423 1226v12h177l311 -932l315 932h134l315 -932l312 932h176zM812 1326l143 206h187l-194 -206h-136z" />
    <glyph glyph-name="wacute" unicode="&#x1e83;" horiz-adv-x="1460" 
d="M1265 973h162v-7l-353 -966h-94l-250 699l-249 -699h-94l-353 966v7h162l251 -711l246 711h75l245 -711zM635 1061l143 205h188l-195 -205h-136z" />
    <glyph glyph-name="Wdieresis" unicode="&#x1e84;" horiz-adv-x="1814" 
d="M1777 1238v-12l-422 -1226h-115l-333 959l-332 -959h-115l-423 1226v12h177l311 -932l315 932h134l315 -932l312 932h176zM715 1406q0 31 21.5 52.5t52.5 21.5t52.5 -21.5t21.5 -52.5q0 -32 -21.5 -53t-52.5 -21t-52.5 21.5t-21.5 52.5zM950 1406q0 31 21.5 52.5
t52.5 21.5t52.5 -21.5t21.5 -52.5t-21.5 -52.5t-52.5 -21.5q-32 0 -53 21t-21 53z" />
    <glyph glyph-name="wdieresis" unicode="&#x1e85;" horiz-adv-x="1460" 
d="M1265 973h162v-7l-353 -966h-94l-250 699l-249 -699h-94l-353 966v7h162l251 -711l246 711h75l245 -711zM538 1141q0 31 21.5 52.5t52.5 21.5t52.5 -21.5t21.5 -52.5q0 -32 -21.5 -53.5t-52.5 -21.5t-52.5 22t-21.5 53zM773 1141q0 31 21.5 52.5t52.5 21.5t52.5 -21.5
t21.5 -52.5t-21.5 -53t-52.5 -22t-52.5 21.5t-21.5 53.5z" />
    <glyph glyph-name="uni1E9E" unicode="&#x1e9e;" horiz-adv-x="1199" 
d="M315 0h-166v828q0 203 103.5 306.5t299.5 103.5h509v-18l-329 -470q180 -11 290 -112.5t110 -266.5q0 -169 -110.5 -274.5t-289.5 -105.5q-146 0 -233 32l33 129q82 -18 168 -18q124 0 195 69.5t71 187.5q0 114 -88.5 180.5t-247.5 66.5h-66v115l251 342h-260
q-110 0 -175 -64t-65 -194v-837z" />
    <glyph glyph-name="uni1EBC" unicode="&#x1ebc;" horiz-adv-x="1112" 
d="M1013 1097h-686v-390h605v-136h-605v-430h686v-141h-852v1238h852v-141zM401 1410q59 90 140 90q27 0 48.5 -13.5t33 -29t27 -29t31.5 -13.5q42 0 78 51l56 -56q-24 -41 -60.5 -65t-75.5 -24q-28 0 -49 13.5t-32 30t-26.5 30t-33.5 13.5q-46 0 -82 -55z" />
    <glyph glyph-name="uni1EBD" unicode="&#x1ebd;" horiz-adv-x="1103" 
d="M352 1160q59 90 140 90q27 0 48.5 -13.5t32.5 -29t26.5 -29t31.5 -13.5q42 0 78 52l57 -57q-24 -40 -60.5 -64t-75.5 -24q-28 0 -49.5 13.5t-32 29.5t-26.5 29.5t-34 13.5q-46 0 -81 -54zM73 486q0 216 136.5 359.5t345.5 143.5q95 0 177.5 -31.5t140 -86.5t96.5 -126.5
t54 -154t5 -167.5h-805q19 -135 109.5 -218t222.5 -83q172 0 269 140l120 -83q-142 -195 -389 -195q-208 0 -345 143.5t-137 358.5zM221 541h662q-13 129 -98.5 218.5t-229.5 89.5q-134 0 -226 -85.5t-108 -222.5z" />
    <glyph glyph-name="Ygrave" unicode="&#x1ef2;" horiz-adv-x="1105" 
d="M898 1238h184v-9l-449 -725v-504h-166v504l-446 725v9h186l343 -573zM318 1532h188l143 -206h-136z" />
    <glyph glyph-name="ygrave" unicode="&#x1ef3;" horiz-adv-x="919" 
d="M34 973h168l268 -743l259 743h162v-7l-387 -1092q-50 -140 -111.5 -208t-142.5 -78.5t-190 19.5l34 129q107 -23 164 9t99 151l39 115l-362 955v7zM242 1284h188l143 -205h-136z" />
    <glyph glyph-name="uni1EF8" unicode="&#x1ef8;" horiz-adv-x="1105" 
d="M898 1238h184v-9l-449 -725v-504h-166v504l-446 725v9h186l343 -573zM347 1410q59 90 139 90q27 0 48.5 -13.5t33 -29t27 -29t31.5 -13.5q42 0 78 51l56 -56q-24 -41 -60.5 -65t-75.5 -24q-28 0 -49 13.5t-32 30t-26.5 30t-33.5 13.5q-46 0 -82 -55z" />
    <glyph glyph-name="uni1EF9" unicode="&#x1ef9;" horiz-adv-x="919" 
d="M34 973h168l268 -743l259 743h162v-7l-387 -1092q-50 -140 -111.5 -208t-142.5 -78.5t-190 19.5l34 129q107 -23 164 9t99 151l39 115l-362 955v7zM272 1162q59 90 140 90q27 0 48.5 -13.5t33 -29t27 -29t31.5 -13.5q42 0 78 52l56 -57q-24 -40 -60.5 -64t-75.5 -24
q-28 0 -49 13.5t-32 29.5t-26.5 29.5t-33.5 13.5q-46 0 -82 -55z" />
    <glyph glyph-name="uni200B" unicode="&#x200b;" 
 />
    <glyph glyph-name="endash" unicode="&#x2013;" horiz-adv-x="1252" 
d="M122 462v138h1008v-138h-1008z" />
    <glyph glyph-name="emdash" unicode="&#x2014;" horiz-adv-x="1453" 
d="M1365 476h-1277v109h1277v-109z" />
    <glyph glyph-name="quoteleft" unicode="&#x2018;" horiz-adv-x="406" 
d="M219 748h-166l138 501h129z" />
    <glyph glyph-name="quoteright" unicode="&#x2019;" horiz-adv-x="383" 
d="M177 1238h166l-138 -501h-129z" />
    <glyph glyph-name="quotesinglbase" unicode="&#x201a;" horiz-adv-x="396" 
d="M140 249h164l-140 -490h-125z" />
    <glyph glyph-name="quotedblleft" unicode="&#x201c;" horiz-adv-x="686" 
d="M501 748h-163l136 501h126zM53 748l134 501h128l-99 -501h-163z" />
    <glyph glyph-name="quotedblright" unicode="&#x201d;" horiz-adv-x="664" 
d="M175 1238h163l-135 -501h-127zM363 737l99 501h162l-136 -501h-125z" />
    <glyph glyph-name="quotedblbase" unicode="&#x201e;" horiz-adv-x="672" 
d="M140 249h164l-140 -490h-125zM317 -241l100 490h165l-140 -490h-125z" />
    <glyph glyph-name="dagger" unicode="&#x2020;" horiz-adv-x="1252" 
d="M548 1326h158v-472h424v-138h-1008v138h426v472zM548 -354v591h158v-591h-158z" />
    <glyph glyph-name="daggerdbl" unicode="&#x2021;" horiz-adv-x="1252" 
d="M548 1326h158v-472h424v-138h-1008v138h426v472zM122 99v138h1008v-138h-424v-453h-158v453h-426z" />
    <glyph glyph-name="bullet" unicode="&#x2022;" horiz-adv-x="921" 
d="M462 159q-157 0 -265.5 107.5t-108.5 264.5q0 155 108.5 262t265.5 107t264 -107t107 -262q0 -157 -107 -264.5t-264 -107.5z" />
    <glyph glyph-name="ellipsis" unicode="&#x2026;" horiz-adv-x="1190" 
d="M212 -11q-51 0 -86.5 35.5t-35.5 86.5q0 52 35 88t87 36q50 0 86 -36t36 -88q0 -50 -36 -86t-86 -36zM474 111q0 52 35 88t87 36q50 0 86 -36t36 -88q0 -50 -36 -86t-86 -36q-51 0 -86.5 35.5t-35.5 86.5zM856 111q0 52 35 88t87 36q50 0 86 -36t36 -88q0 -50 -36 -86
t-86 -36q-51 0 -86.5 35.5t-35.5 86.5z" />
    <glyph glyph-name="perthousand" unicode="&#x2030;" horiz-adv-x="2138" 
d="M651 423l-306 -423h-158v9l324 426h140v-12zM78 883q0 167 85.5 267t230.5 100q144 0 229.5 -100.5t85.5 -266.5q0 -165 -85.5 -266t-229.5 -101q-145 0 -230.5 100.5t-85.5 266.5zM196 883q0 -119 53 -190.5t145 -71.5t144.5 71.5t52.5 190.5q0 122 -52.5 193.5
t-144.5 71.5t-145 -71.5t-53 -193.5zM753 354q0 167 86 267.5t231 100.5q144 0 229.5 -100.5t85.5 -267.5q0 -165 -85.5 -265.5t-229.5 -100.5q-145 0 -231 100.5t-86 265.5zM821 803v12l306 423h157v-9l-322 -426h-141zM872 354q0 -119 53 -190.5t145 -71.5t144 71.5
t52 190.5q0 122 -52 193.5t-144 71.5t-145 -71.5t-53 -193.5zM1438 354q0 167 85.5 267.5t230.5 100.5q144 0 229.5 -100.5t85.5 -267.5q0 -165 -85.5 -265.5t-229.5 -100.5q-145 0 -230.5 100.5t-85.5 265.5zM1556 354q0 -119 53 -190.5t145 -71.5t144.5 71.5t52.5 190.5
q0 122 -52.5 193.5t-144.5 71.5t-145 -71.5t-53 -193.5z" />
    <glyph glyph-name="uni2031" unicode="&#x2031;" horiz-adv-x="2822" 
d="M651 423l-306 -423h-158v9l324 426h140v-12zM78 883q0 167 85.5 267t230.5 100q144 0 229.5 -100.5t85.5 -266.5q0 -165 -85.5 -266t-229.5 -101q-145 0 -230.5 100.5t-85.5 266.5zM196 883q0 -119 53 -190.5t145 -71.5t144.5 71.5t52.5 190.5q0 122 -52.5 193.5
t-144.5 71.5t-145 -71.5t-53 -193.5zM753 354q0 167 86 267.5t231 100.5q144 0 229.5 -100.5t85.5 -267.5q0 -165 -85.5 -265.5t-229.5 -100.5q-145 0 -231 100.5t-86 265.5zM821 803v12l306 423h157v-9l-322 -426h-141zM872 354q0 -119 53 -190.5t145 -71.5t144 71.5
t52 190.5q0 122 -52 193.5t-144 71.5t-145 -71.5t-53 -193.5zM1438 354q0 167 85.5 267.5t230.5 100.5q144 0 229.5 -100.5t85.5 -267.5q0 -165 -85.5 -265.5t-229.5 -100.5q-145 0 -230.5 100.5t-85.5 265.5zM1556 354q0 -119 53 -190.5t145 -71.5t144.5 71.5t52.5 190.5
q0 122 -52.5 193.5t-144.5 71.5t-145 -71.5t-53 -193.5zM2122 354q0 167 86 267.5t231 100.5q144 0 229.5 -100.5t85.5 -267.5q0 -165 -85.5 -265.5t-229.5 -100.5q-145 0 -231 100.5t-86 265.5zM2241 354q0 -119 53 -190.5t145 -71.5t144 71.5t52 190.5q0 122 -52 193.5
t-144 71.5t-145 -71.5t-53 -193.5z" />
    <glyph glyph-name="guilsinglleft" unicode="&#x2039;" horiz-adv-x="618" 
d="M37 492l430 343l60 -62l-274 -287l274 -286l-60 -62l-430 345v9z" />
    <glyph glyph-name="guilsinglright" unicode="&#x203a;" horiz-adv-x="618" 
d="M582 492v-9l-430 -345l-60 62l274 286l-274 287l60 62z" />
    <glyph glyph-name="uni203D" unicode="&#x203d;" horiz-adv-x="1020" 
d="M442 1379h166v-127q149 -18 231 -98.5t82 -217.5q0 -66 -20.5 -120.5t-53.5 -91.5t-73 -69.5t-79.5 -62t-72 -60.5t-52 -74t-18.5 -95h-151q-2 67 16.5 121t49.5 89.5t69.5 66t77 58t71 56.5t52.5 71t20 93q0 95 -62.5 146.5t-174.5 51.5q-116 0 -193.5 -64.5
t-107.5 -191.5l-146 35q29 151 125 243.5t244 113.5v127zM368 101q0 48 31.5 80.5t78.5 32.5t79 -32.5t32 -80.5q0 -45 -32.5 -77.5t-78.5 -32.5t-78 32.5t-32 77.5z" />
    <glyph glyph-name="fraction" unicode="&#x2044;" horiz-adv-x="226" 
d="M11 384l-292 -384h-154v9l306 387h140v-12zM216 842v12l290 384h155v-9l-306 -387h-139z" />
    <glyph glyph-name="uni2051" unicode="&#x2051;" horiz-adv-x="852" 
d="M124 295l33 101l223 -78l-5 236h106l-5 -236l221 78l33 -101l-224 -67l141 -187l-86 -64l-133 195l-134 -195l-87 64l143 185zM124 978l33 103l223 -78l-5 233h106l-5 -233l221 78l33 -103l-224 -65l141 -188l-86 -64l-133 195l-134 -195l-87 64l143 186z" />
    <glyph glyph-name="uni2055" unicode="&#x2055;" horiz-adv-x="1236" 
d="M1088 550q67 -37 87.5 -111.5t-18.5 -139.5q-37 -69 -111.5 -89.5t-139.5 18.5q-84 46 -92 136q-6 35 -9 49.5t-10.5 30.5t-19.5 23q-27 12 -62 -11q-48 -28 -48 -56q0 -30 69 -83q69 -57 69 -147q0 -77 -53.5 -130.5t-130.5 -53.5t-131.5 53.5t-54.5 130.5q0 90 71 147
q69 53 69 83q0 21 -37 47q-48 32 -74 16q-27 -16 -38 -99q-11 -90 -92 -136q-66 -38 -140 -18t-111 87q-40 66 -20 140.5t88 112.5q74 44 160 12q79 -36 107 -21q23 14 26 71q3 44 -26 62q-24 14 -107 -20q-84 -35 -160 11q-68 38 -88 112.5t20 142.5q37 66 111 85.5
t140 -18.5q81 -46 92 -136q11 -81 38 -99q27 -16 76 16q35 23 35 47q0 19 -16 36.5t-53 46.5q-71 59 -71 149q0 76 54.5 130t131.5 54t130.5 -54t53.5 -130q0 -90 -69 -149q-37 -29 -53 -46.5t-16 -36.5q0 -10 8 -20t15.5 -16t29.5 -22q32 -24 57 -7q17 9 24 30.5t15 70.5
q8 90 92 136q65 39 139.5 18.5t111.5 -87.5q38 -66 18 -140.5t-87 -112.5q-76 -46 -161 -11q-77 32 -106 18q-23 -16 -23 -64q0 -50 23 -63q34 -16 106 17q87 32 161 -12z" />
    <glyph glyph-name="uni20A9" unicode="&#x20a9;" horiz-adv-x="1936" 
d="M1829 1238v-12l-177 -511h212v-100h-246l-212 -615h-115l-214 615h-237l-214 -615h-115l-212 615h-226v100h192l-177 511v12h177l175 -523h275l176 523h135l177 -523h274l175 523h177zM474 615l103 -309l104 309h-207zM874 715h169l-84 244zM1236 615l105 -309l102 309
h-207z" />
    <glyph glyph-name="uni20AA" unicode="&#x20aa;" horiz-adv-x="1529" 
d="M525 0v661h144v-534h382q91 0 123 44.5t32 150.5v651h152v-688q0 -149 -55 -217t-189 -68h-589zM170 0v688q0 149 55.5 217t190.5 68h589v-662h-144v534h-382q-91 0 -123 -44t-32 -150v-651h-154z" />
    <glyph glyph-name="Euro" unicode="&#x20ac;" horiz-adv-x="1179" 
d="M736 460h-377q44 -149 159.5 -239t268.5 -90q142 0 260 67l69 -115q-144 -94 -331 -94q-218 0 -381.5 132t-212.5 339h-156l27 97h113q-3 31 -3 62q0 35 3 67h-129l27 97h118q51 206 214 336t380 130q159 0 292 -61l-58 -123q-56 24 -105 33t-127 9q-153 0 -267.5 -88.5
t-158.5 -235.5h527l-46 -97h-501q-3 -32 -3 -67q0 -33 3 -62h439z" />
    <glyph glyph-name="uni20B9" unicode="&#x20b9;" horiz-adv-x="1075" 
d="M983 1238v-147h-295q91 -76 101 -205h194v-81h-194q-13 -160 -110.5 -243t-266.5 -83h-57l467 -470v-9h-219l-467 479v136h232q223 0 247 190h-479v81h481q-17 205 -249 205h-221v147h836z" />
    <glyph glyph-name="uni20BA" unicode="&#x20ba;" horiz-adv-x="1169" 
d="M757 755v-101l-304 -111v-398h46q211 0 306.5 107.5t98.5 329.5h161q-11 -582 -579 -582h-199v481l-191 -71v101l191 71v131l-191 -71v101l191 71v424h166v-363l304 112v-101l-304 -111v-131z" />
    <glyph glyph-name="uni20BD" unicode="&#x20bd;" horiz-adv-x="1202" 
d="M143 502v142h126v594h447q190 0 295 -97t105 -271t-105 -271t-295 -97h-281v-115h495v-127h-495v-260h-166v260h-126v127h126v115h-126zM435 644h265q121 0 185.5 58.5t64.5 167.5t-64.5 168t-185.5 59h-265v-453z" />
    <glyph glyph-name="uni20BF" unicode="&#x20bf;" horiz-adv-x="1147" 
d="M375 1371h104v-165h110v165h108v-165q147 -3 233.5 -84.5t86.5 -219.5q0 -89 -38.5 -151.5t-104.5 -92.5q89 -30 140 -107.5t51 -186.5q0 -155 -97.5 -243.5t-265.5 -88.5h-5v-165h-108v165h-110v-165h-104v165h-214v1174h214v165zM315 161h366q110 0 172.5 58.5
t62.5 158.5q0 101 -61.5 158.5t-173.5 57.5h-366v-433zM315 713h352q98 0 149.5 48t51.5 134q0 84 -53.5 134t-147.5 50h-352v-366z" />
    <glyph glyph-name="uni2113" unicode="&#x2113;" horiz-adv-x="716" 
d="M195 989q0 261 205 261q101 0 146.5 -51t45.5 -156q0 -155 -70.5 -295.5t-189.5 -245.5v-270q0 -84 36.5 -129t95 -44t123.5 44l30 -52q-72 -53 -149 -65t-136.5 13t-98 84.5t-38.5 139.5v180q-43 -24 -107 -49l-23 67q70 26 130 62v506zM332 591q190 185 190 429
q0 76 -23.5 110.5t-72.5 34.5q-94 0 -94 -153v-421z" />
    <glyph glyph-name="uni2116" unicode="&#x2116;" horiz-adv-x="2046" 
d="M1365 348h538v-118h-538v118zM161 0v1238h120l764 -943v943h163v-1238h-120l-764 943v-943h-163zM1328 755q0 128 87.5 216t216.5 88t217 -88t88 -216q0 -131 -88 -219.5t-217 -88.5q-130 0 -217 88.5t-87 219.5zM1468 755q0 -72 47 -120t117 -48q69 0 117 48t48 120
q0 68 -48 116.5t-117 48.5q-70 0 -117 -48.5t-47 -116.5z" />
    <glyph glyph-name="trademark" unicode="&#x2122;" horiz-adv-x="1038" 
d="M423 1238v-101h-136v-345h-107v345h-132v101h375zM478 792v446h125l113 -186l112 186h125v-446h-106v317l-113 -203h-35l-115 203v-317h-106z" />
    <glyph glyph-name="estimated" unicode="&#x212e;" horiz-adv-x="1436" 
d="M718 1252q297 0 464 -176.5t167 -498.5h-1041v-354q76 -82 190.5 -127.5t256.5 -45.5q315 0 478 237l53 -36q-161 -270 -531 -270q-311 0 -489.5 172t-178.5 461q0 288 172.5 463t458.5 175zM308 654h822v358q-148 166 -412 166q-257 0 -410 -166v-358z" />
    <glyph glyph-name="uni2135" unicode="&#x2135;" horiz-adv-x="1282" 
d="M642 543l-559 322l559 327l557 -327zM65 835l559 -324v-640l-557 324zM147 235l39 -32q0 7 8 10t20 -4l80 -48q12 29 12 37q-6 18 -21.5 58t-27 73t-16.5 55q-7 26 0 39t31 0q49 -102 198 -395l61 30l-2 13q-79 101 -113 162q29 12 49 37t27.5 53t10.5 45.5t3 27.5
l25 -16l10 27l-7 12l-76 43q-15 9 -27.5 29t-16.5 40l-51 19v-55l49 -42q7 -41 3 -94t-29 -65q-32 56 -68 132t-64 141.5t-31 72.5q-25 13 -57 1q-23 -9 -14 -22q55 -79 97 -150q-36 12 -56.5 -7.5t-13.5 -68.5q8 -54 35 -133l-2 -5l-28 14q-21 12 -25 12zM265 861l25 -28
q2 0 12 1.5t18.5 0t17.5 -6.5l76 -45q35 8 49 18q6 9 16 34.5t22.5 46.5t29.5 32q41 26 79 9q-3 -12 -18 -45t-28.5 -65.5t-24 -65.5t-6.5 -53.5t26 -21.5l117 -3l7 8q-23 63 -23 110q27 0 54.5 2t50 6t45.5 9.5t39 11t32.5 12t25.5 10.5t18.5 8.5t10.5 4.5l24 -18l36 14
l1 11l-76 42q-23 13 -3 43l-60 26l-50 -32l37 -33q-29 -23 -50 -36t-57.5 -26.5t-74.5 -13.5q9 88 69 224q-33 12 -72 11.5t-53 -5.5q0 -4 4 -44t4 -59q-38 15 -86.5 10t-82.5 -31q-30 -23 -66 -80l-3 -2l-30 15q-25 12 -29 12zM660 -129v642l557 322l-2 -640zM746 28l39 13
q6 21 25 33l76 48q14 45 14 51q-53 71 -63 115q-10 46 31 78q54 -57 193 -175l59 99v11q-69 9 -108 35q35 59 56 124.5t25 96t4 48.5l24 14l9 35l-7 6l-74 -41q-31 -16 -41 18l-53 -39v-55l50 12q4 -45 5 -63t-6 -58.5t-26 -74.5q-45 34 -94.5 92t-61.5 81
q-30 -18 -62.5 -54.5t-9.5 -47.5q56 -25 94 -48q-68 -55 -68 -156q0 -37 34 -93l-2 -11l-26 -16q-25 -14 -25 -18z" />
    <glyph glyph-name="uni2136" unicode="&#x2136;" horiz-adv-x="1768" 
d="M359 746q-29 21 -4 64q2 4 5 9t7.5 10.5t8.5 10t11 12t12 12.5t15 14.5t15.5 15t18 17.5t19.5 19q-177 -20 -294 -40q-45 -7 -55 33q-7 24 4 39.5t37 19.5q42 6 190 38t208 50q23 41 68 147t47 109q8 17 25 24.5t33 0.5q15 -7 22.5 -23t4.5 -32q-10 -61 -73 -182
q59 23 109.5 46t71 34.5t26.5 15.5q14 11 31.5 8t27.5 -19q20 -29 -11 -60q-23 -23 -205 -97q609 32 953 -114q49 -21 41 -60q-10 -49 -64 -31q-442 154 -1004 106q-8 -86 12 -135q7 -17 -5 -33t-34 -23q-19 -5 -33.5 5t-19.5 32q-12 52 -12 134q-59 -83 -89 -121t-51 -50
q-15 -8 -24.5 -12t-21.5 -3.5t-23 9.5zM396 -117q-47 83 11.5 234.5t183.5 283.5q64 68 137 115.5t135.5 60.5t96.5 -25q16 -23 17 -50t-13.5 -60.5t-32.5 -62.5t-41 -56.5t-37.5 -43.5t-21.5 -23q-19 -17 -42 -18t-39 13q-41 37 9 87q80 80 109 136q-88 -32 -173.5 -114.5
t-140.5 -179.5t-69 -180q-6 -38 7.5 -60t52.5 -2q169 90 388.5 313t285.5 380q21 41 11 67.5t-63 31.5q-148 13 -313 -57.5t-279 -168.5q-20 -17 -45 -14.5t-37 23.5q-10 19 -4.5 41.5t24.5 36.5q29 22 66 47.5t115 67.5t154.5 71t177 45.5t189.5 3.5q56 -8 92 -41.5
t35 -77.5q-2 -90 -98 -232t-223.5 -271.5t-254.5 -233.5t-195 -133q-120 -51 -175 46z" />
    <glyph glyph-name="uni2137" unicode="&#x2137;" horiz-adv-x="1338" 
d="M677 539q40 0 70.5 31t30.5 72q0 40 -30.5 69.5t-70.5 29.5t-70 -29.5t-30 -69.5q0 -41 30 -72t70 -31zM154 396q0 320 352 515q-235 69 -342 88l34 133q136 -29 238.5 -60t240.5 -85q240 94 480 145l35 -133q-113 -20 -341 -88q352 -196 352 -515q0 -86 -37.5 -168.5
t-103.5 -148.5t-167 -106t-218 -40t-217.5 40t-166 106t-102.5 148.5t-37 168.5zM288 401q0 -138 111.5 -237t277.5 -99q167 0 279 99.5t112 236.5q0 143 -99.5 257.5t-291.5 192.5q-192 -78 -290.5 -192.5t-98.5 -257.5zM380 442l53 115q142 -71 245 -71t245 71l53 -115
q-99 -51 -175 -67l101 -129l-110 -80l-115 154l-115 -154l-107 80l99 129q-75 19 -174 67z" />
    <glyph glyph-name="uni2150" unicode="&#x2150;" horiz-adv-x="1344" 
d="M384 1236h79v-610h144v-97h-448v97h186v442l-150 -152l-68 71zM145 0v9l306 387h140v-12l-292 -384h-154zM760 610v97h522v-17l-299 -690h-123l265 610h-365zM796 842v12l290 384h156v-9l-306 -387h-140z" />
    <glyph glyph-name="uni2151" unicode="&#x2151;" horiz-adv-x="1381" 
d="M400 1236h79v-610h144v-97h-448v97h186v442l-151 -152l-67 71zM126 0v9l306 387h139v-12l-292 -384h-153zM771 470q0 108 80.5 178t209.5 70q128 0 208 -70t80 -178q0 -110 -74 -196l-235 -274h-143v5l223 251q-42 -17 -94 -17q-108 0 -181.5 64t-73.5 167zM776 842v12
l290 384h156v-9l-306 -387h-140zM888 470q0 -67 48.5 -110t124.5 -43t124.5 43t48.5 110q0 66 -48.5 108.5t-124.5 42.5t-124.5 -42.5t-48.5 -108.5z" />
    <glyph glyph-name="uni2152" unicode="&#x2152;" horiz-adv-x="1913" 
d="M393 1236h79v-610h143v-97h-447v97h186v442l-151 -152l-67 71zM126 0v9l306 387h139v-12l-292 -384h-153zM745 458l256 249h80v-610h143v-97h-448v97h186v442l-150 -152zM776 842v12l290 384h156v-9l-306 -387h-140zM1245 354q0 167 86 267.5t231 100.5q144 0 229 -100.5
t85 -267.5q0 -165 -85 -265.5t-229 -100.5q-145 0 -231 100.5t-86 265.5zM1364 354q0 -119 53 -190.5t145 -71.5t144 71.5t52 190.5q0 122 -52 193.5t-144 71.5t-145 -71.5t-53 -193.5z" />
    <glyph glyph-name="uni2153" unicode="&#x2153;" horiz-adv-x="1379" 
d="M384 1236h79v-610h144v-97h-448v97h186v442l-150 -152l-68 71zM138 0v9l306 387h140v-12l-292 -384h-154zM725 115l81 60q71 -88 222 -88q82 0 129 34.5t47 96.5q0 114 -192 114h-92v84h70q79 0 127 27t48 75q0 103 -153 103q-131 0 -197 -90l-70 58q85 131 267 131
q129 0 198.5 -51.5t69.5 -136.5q0 -106 -115 -154q66 -15 109.5 -60.5t43.5 -115.5q0 -97 -78 -155t-220 -58q-107 0 -184.5 37.5t-110.5 88.5zM789 842v12l290 384h155v-9l-306 -387h-139z" />
    <glyph glyph-name="uni2154" unicode="&#x2154;" horiz-adv-x="1496" 
d="M122 1001q17 126 95 185t202 59t197.5 -59.5t73.5 -154.5q0 -72 -48 -142t-172 -173l-113 -92h349v-97h-577v19l225 206q134 119 175.5 169t41.5 105q0 54 -40.5 86t-111.5 32q-159 0 -184 -164zM221 0v9l306 387h140v-12l-292 -384h-154zM842 115l81 60q71 -88 221 -88
q82 0 129.5 34.5t47.5 96.5q0 114 -193 114h-92v84h71q79 0 127 27t48 75q0 103 -154 103q-130 0 -196 -90l-71 58q85 131 267 131q129 0 199 -51.5t70 -136.5q0 -106 -115 -154q66 -15 109 -60.5t43 -115.5q0 -97 -77.5 -155t-219.5 -58q-107 0 -184.5 37.5t-110.5 88.5z
M872 842v12l290 384h156v-9l-306 -387h-140z" />
    <glyph glyph-name="uni2155" unicode="&#x2155;" horiz-adv-x="1381" 
d="M396 1236h80v-610h143v-97h-447v97h185v442l-150 -152l-67 71zM126 0v9l306 387h139v-12l-292 -384h-153zM768 32l35 94q83 -39 180 -39q88 0 141.5 38t53.5 107q0 93 -101.5 129.5t-285.5 -0.5l35 346h430v-97h-329l-20 -155q107 12 180 2.5t118 -43.5t64.5 -79
t19.5 -103q0 -111 -77 -177.5t-211 -66.5q-136 0 -233 44zM776 842v12l290 384h156v-9l-306 -387h-140z" />
    <glyph glyph-name="uni2156" unicode="&#x2156;" horiz-adv-x="1471" 
d="M122 1001q17 126 95 185t202 59t197.5 -59.5t73.5 -154.5q0 -72 -48 -142t-172 -173l-113 -92h349v-97h-577v19l225 206q134 119 175.5 169t41.5 105q0 54 -40.5 86t-111.5 32q-159 0 -184 -164zM210 0v9l306 387h140v-12l-292 -384h-154zM856 32l35 94q83 -39 181 -39
q88 0 141 38t53 107q0 93 -101.5 129.5t-285.5 -0.5l35 346h430v-97h-329l-19 -155q107 12 180 2.5t118 -43.5t64.5 -79t19.5 -103q0 -111 -77.5 -177.5t-211.5 -66.5q-136 0 -233 44zM861 842v12l290 384h156v-9l-306 -387h-140z" />
    <glyph glyph-name="uni2157" unicode="&#x2157;" horiz-adv-x="1482" 
d="M218 702q71 -88 221 -88q82 0 129 34.5t47 96.5q0 115 -192 115h-92v83h70q79 0 127.5 27t48.5 75q0 103 -154 103q-131 0 -197 -90l-70 58q85 131 267 131q129 0 199 -51.5t70 -136.5q0 -105 -115 -153q65 -15 108.5 -61t43.5 -116q0 -97 -77.5 -155t-219.5 -58
q-107 0 -185 37.5t-111 88.5zM233 0v9l306 387h140v-12l-292 -384h-154zM868 32l36 94q83 -39 180 -39q88 0 141.5 38t53.5 107q0 92 -102 129t-286 0l36 346h429v-97h-328l-20 -155q107 12 180 2.5t118 -43.5t64.5 -79t19.5 -103q0 -111 -77 -177.5t-211 -66.5
q-137 0 -234 44zM884 842v12l290 384h156v-9l-306 -387h-140z" />
    <glyph glyph-name="uni2158" unicode="&#x2158;" horiz-adv-x="1485" 
d="M506 529v125h-407v89l419 493h101v-488h92v-94h-92v-125h-113zM223 748h286v341h-1zM233 0v9l306 387h140v-12l-292 -384h-154zM872 32l35 94q83 -39 181 -39q88 0 141 38t53 107q0 93 -101.5 129.5t-285.5 -0.5l35 346h430v-97h-329l-19 -155q107 12 180 2.5t118 -43.5
t64.5 -79t19.5 -103q0 -111 -77.5 -177.5t-211.5 -66.5q-136 0 -233 44zM884 842v12l290 384h156v-9l-306 -387h-140z" />
    <glyph glyph-name="uni2159" unicode="&#x2159;" horiz-adv-x="1356" 
d="M393 1236h79v-610h143v-97h-447v97h186v442l-151 -152l-67 71zM140 0v9l306 387h139v-12l-291 -384h-154zM715 237q0 110 74 196l235 274h143v-5l-223 -251q44 18 94 18q108 0 181.5 -64.5t73.5 -167.5q0 -108 -80.5 -178t-209.5 -70q-128 0 -208 70t-80 178zM791 842v12
l290 384h155v-9l-306 -387h-139zM829 237q0 -66 49 -108t125 -42t124.5 42t48.5 108q0 67 -48.5 110.5t-124.5 43.5t-125 -43.5t-49 -110.5z" />
    <glyph glyph-name="uni215A" unicode="&#x215a;" horiz-adv-x="1393" 
d="M661 762q0 -111 -77 -177.5t-211 -66.5q-136 0 -233 44l35 94q83 -39 180 -39q88 0 141.5 38t53.5 107q0 93 -101.5 129.5t-285.5 -0.5l35 347h430v-97h-329l-20 -156q107 12 180 2.5t118 -43.5t64.5 -79t19.5 -103zM182 0v9l306 387h140v-12l-292 -384h-154zM752 237
q0 110 74 196l235 274h143v-5l-222 -251q44 18 93 18q108 0 181.5 -64.5t73.5 -167.5q0 -108 -80.5 -178t-209.5 -70q-128 0 -208 70t-80 178zM833 842v12l290 384h156v-9l-306 -387h-140zM867 237q0 -66 48.5 -108t124.5 -42t124.5 42t48.5 108q0 67 -48.5 110.5
t-124.5 43.5t-124.5 -43.5t-48.5 -110.5z" />
    <glyph glyph-name="oneeighth" unicode="&#x215b;" horiz-adv-x="1383" 
d="M384 1236h79v-610h144v-97h-448v97h186v442l-150 -152l-68 71zM134 0v9l306 387h140v-12l-292 -384h-154zM736 198q0 63 40.5 111.5t113.5 74.5q-54 23 -84 62.5t-30 89.5q0 81 72 132.5t185 51.5q112 0 182.5 -51.5t70.5 -132.5q0 -50 -30 -89.5t-82 -62.5
q71 -26 111.5 -74.5t40.5 -111.5q0 -93 -82 -151.5t-211 -58.5q-131 0 -214 58.5t-83 151.5zM785 842v12l290 384h156v-9l-306 -387h-140zM851 210q0 -57 51 -93.5t131 -36.5q78 0 128 36.5t50 93.5t-50 93.5t-128 36.5q-80 0 -131 -36.5t-51 -93.5zM886 523q0 -46 42 -75
t105 -29q64 0 103.5 29t39.5 75q0 48 -40 79t-103 31t-105 -31t-42 -79z" />
    <glyph glyph-name="threeeighths" unicode="&#x215c;" horiz-adv-x="1512" 
d="M218 702q71 -88 221 -88q82 0 129 34.5t47 96.5q0 115 -192 115h-92v83h70q79 0 127.5 27t48.5 75q0 103 -154 103q-131 0 -197 -90l-70 58q85 131 267 131q129 0 199 -51.5t70 -136.5q0 -105 -115 -153q65 -15 108.5 -61t43.5 -116q0 -97 -77.5 -155t-219.5 -58
q-107 0 -185 37.5t-111 88.5zM251 0v9l306 387h140v-12l-292 -384h-154zM865 198q0 63 40.5 111.5t113.5 74.5q-54 23 -83.5 62.5t-29.5 89.5q0 81 71.5 132.5t184.5 51.5q112 0 182.5 -51.5t70.5 -132.5q0 -50 -30 -89.5t-82 -62.5q72 -26 112.5 -74.5t40.5 -111.5
q0 -93 -82.5 -151.5t-211.5 -58.5q-131 0 -214 58.5t-83 151.5zM902 842v12l290 384h156v-9l-306 -387h-140zM980 210q0 -57 51 -93.5t131 -36.5q78 0 128.5 36.5t50.5 93.5t-50.5 93.5t-128.5 36.5q-80 0 -131 -36.5t-51 -93.5zM1015 523q0 -46 42 -75t105 -29
q64 0 103.5 29t39.5 75q0 48 -40 79t-103 31t-105 -31t-42 -79z" />
    <glyph glyph-name="fiveeighths" unicode="&#x215d;" horiz-adv-x="1446" 
d="M661 762q0 -111 -77 -177.5t-211 -66.5q-136 0 -233 44l35 94q83 -39 180 -39q88 0 141.5 38t53.5 107q0 93 -101.5 129.5t-285.5 -0.5l35 347h430v-97h-329l-20 -156q107 12 180 2.5t118 -43.5t64.5 -79t19.5 -103zM184 0v9l306 387h140v-12l-292 -384h-154zM799 198
q0 63 40.5 111.5t113.5 74.5q-54 23 -83.5 62.5t-29.5 89.5q0 81 72 132.5t185 51.5q112 0 182 -51.5t70 -132.5q0 -50 -29.5 -89.5t-81.5 -62.5q71 -26 111.5 -74.5t40.5 -111.5q0 -93 -82 -151.5t-211 -58.5q-131 0 -214.5 58.5t-83.5 151.5zM835 842v12l290 384h155v-9
l-306 -387h-139zM914 210q0 -57 51.5 -93.5t131.5 -36.5q78 0 128 36.5t50 93.5t-50 93.5t-128 36.5q-80 0 -131.5 -36.5t-51.5 -93.5zM950 523q0 -46 42 -75t105 -29q64 0 103.5 29t39.5 75q0 48 -40 79t-103 31t-105 -31t-42 -79z" />
    <glyph glyph-name="seveneighths" unicode="&#x215e;" horiz-adv-x="1340" 
d="M637 1236v-17l-299 -690h-124l265 610h-364v97h522zM67 0v9l306 387h140v-12l-292 -384h-154zM693 198q0 63 40.5 111.5t113.5 74.5q-54 23 -83.5 62.5t-29.5 89.5q0 81 71.5 132.5t184.5 51.5q112 0 182.5 -51.5t70.5 -132.5q0 -50 -29.5 -89.5t-81.5 -62.5
q71 -26 111.5 -74.5t40.5 -111.5q0 -93 -82.5 -151.5t-211.5 -58.5q-131 0 -214 58.5t-83 151.5zM718 842v12l290 384h156v-9l-306 -387h-140zM808 210q0 -57 51 -93.5t131 -36.5q78 0 128.5 36.5t50.5 93.5t-50.5 93.5t-128.5 36.5q-80 0 -131 -36.5t-51 -93.5zM844 523
q0 -46 41.5 -75t104.5 -29q64 0 104 29t40 75q0 48 -40 79t-104 31q-63 0 -104.5 -31t-41.5 -79z" />
    <glyph glyph-name="uni215F" unicode="&#x215f;" horiz-adv-x="787" 
d="M435 1245h80v-610h143v-97h-448v97h186v442l-150 -152l-67 71zM126 9v9l306 387h139v-12l-292 -384h-153zM776 851v12l290 384h156v-9l-306 -387h-140z" />
    <glyph glyph-name="uni2189" unicode="&#x2189;" horiz-adv-x="1531" 
d="M432 520q-145 0 -231 100.5t-86 265.5q0 167 86 267.5t231 100.5q144 0 229 -100.5t85 -267.5q0 -165 -85 -265.5t-229 -100.5zM233 886q0 -119 53.5 -190.5t145.5 -71.5t144 71.5t52 190.5q0 122 -52 193.5t-144 71.5t-145.5 -72t-53.5 -193zM269 0v9l306 387h140v-12
l-292 -384h-154zM877 115l82 60q71 -88 221 -88q82 0 129 34.5t47 96.5q0 114 -192 114h-92v84h70q79 0 127.5 27t48.5 75q0 103 -154 103q-131 0 -197 -90l-70 58q85 131 267 131q129 0 199 -51.5t70 -136.5q0 -106 -115 -154q66 -15 109 -60.5t43 -115.5q0 -97 -77.5 -155
t-219.5 -58q-107 0 -185 37.5t-111 88.5zM920 842v12l290 384h155v-9l-306 -387h-139z" />
    <glyph glyph-name="arrowleft" unicode="&#x2190;" horiz-adv-x="1517" 
d="M122 536l419 419l101 -101l-251 -247h1004v-142h-1004l251 -246l-101 -101z" />
    <glyph glyph-name="arrowup" unicode="&#x2191;" horiz-adv-x="983" 
d="M492 1273l417 -419l-101 -101l-246 252v-1005h-141v1005l-248 -252l-100 101z" />
    <glyph glyph-name="arrowright" unicode="&#x2192;" horiz-adv-x="1517" 
d="M1395 536l-419 -418l-101 101l252 246h-1005v142h1005l-252 247l101 101z" />
    <glyph glyph-name="arrowdown" unicode="&#x2193;" horiz-adv-x="983" 
d="M490 -35l-417 419l100 101l246 -252v1005h142v-1005l247 252l101 -101z" />
    <glyph glyph-name="arrowboth" unicode="&#x2194;" horiz-adv-x="1858" 
d="M1739 536l-421 -418l-101 101l254 248h-1084l255 -248l-101 -101l-419 418l419 419l99 -101l-253 -249h1084l-252 249l100 101z" />
    <glyph glyph-name="arrowupdn" unicode="&#x2195;" horiz-adv-x="983" 
d="M490 1275l419 -421l-101 -101l-247 253v-948l247 253l101 -99l-419 -421l-417 421l100 101l248 -256v951l-248 -255l-100 99z" />
    <glyph glyph-name="uni2196" unicode="&#x2196;" horiz-adv-x="1232" 
d="M161 1238h592v-143l-352 3l710 -711l-99 -99l-711 711l3 -352h-141z" />
    <glyph glyph-name="uni2197" unicode="&#x2197;" horiz-adv-x="1232" 
d="M1070 1238v-591h-143l3 350l-709 -709l-101 101l711 711l-353 -3v141h592z" />
    <glyph glyph-name="uni2198" unicode="&#x2198;" horiz-adv-x="1232" 
d="M1070 0h-592v141l353 -3l-711 711l101 101l709 -709l-3 350h143v-591z" />
    <glyph glyph-name="uni2199" unicode="&#x2199;" horiz-adv-x="1232" 
d="M161 0l2 591h141l-3 -352l711 711l99 -99l-710 -711l352 3v-143h-592z" />
    <glyph glyph-name="uni21AF" unicode="&#x21af;" horiz-adv-x="797" 
d="M746 163l-396 -276l-256 371l95 67l154 -221l135 533l-342 -66l161 676h133l-135 -534l338 58l-164 -668l214 153z" />
    <glyph glyph-name="arrowdbldown" unicode="&#x21d3;" horiz-adv-x="1264" 
d="M571 1326v-1101h-69l-339 452l97 66l196 -288v871h115zM23 0v118h1219v-118h-1219zM693 225v1101h115v-871l197 288l97 -66l-340 -452h-69z" />
    <glyph glyph-name="uni21DE" unicode="&#x21de;" horiz-adv-x="983" 
d="M209 474v103h212v428l-248 -252l-100 101l419 419l417 -419l-101 -101l-246 252v-428h216v-103h-216v-122h216v-101h-216v-251h-141v251h-212v101h212v122h-212z" />
    <glyph glyph-name="uni21DF" unicode="&#x21df;" horiz-adv-x="983" 
d="M209 764h212v122h-212v101h212v251h141v-251h216v-101h-216v-122h216v-103h-216v-428l246 252l101 -101l-417 -419l-419 419l100 101l248 -252v428h-212v103z" />
    <glyph glyph-name="uni21E7" unicode="&#x21e7;" horiz-adv-x="1451" 
d="M1383 573v-5h-331v-568h-651v568h-332v3l658 694zM302 660h214v-556h421v556h214l-424 428z" />
    <glyph glyph-name="uni21E9" unicode="&#x21e9;" horiz-adv-x="1451" 
d="M1383 665l-656 -692l-658 694v3h332v568h651v-568h331v-5zM302 578l425 -428l424 428h-214v556h-421v-556h-214z" />
    <glyph glyph-name="uni21EA" unicode="&#x21ea;" horiz-adv-x="1451" 
d="M1383 573v-5h-331v-232h-651v232h-332v3l658 694zM301 660h214v-221h424v221h214l-426 429zM401 0v262h651v-262h-651zM515 88h424v85h-424v-85z" />
    <glyph glyph-name="uni21F1" unicode="&#x21f1;" horiz-adv-x="1363" 
d="M140 350v976h939v-63h-874v-913h-65zM401 580v481h464v-110h-267l631 -631l-85 -85l-631 630v-285h-112z" />
    <glyph glyph-name="partialdiff" unicode="&#x2202;" horiz-adv-x="1046" 
d="M980 460q0 -213 -128 -345.5t-330 -132.5q-198 0 -330 125t-132 312q0 186 120 306t319 120q165 0 272 -109q-60 193 -219 308t-377 148l28 145q358 -49 567.5 -282t209.5 -595zM223 423q0 -127 84.5 -211.5t212.5 -84.5q129 0 213 84t84 212t-84 212.5t-213 84.5
t-213 -84.5t-84 -212.5z" />
    <glyph glyph-name="emptyset" unicode="&#x2205;" horiz-adv-x="1436" 
d="M718 -19q-209 0 -370 111l-79 -92h-168l152 177q-166 177 -166 442q0 136 48 254.5t131 202.5t200.5 132.5t251.5 48.5q214 0 370 -113l81 94h166l-152 -177q166 -177 166 -442q0 -136 -48 -254.5t-131 -202.5t-200.5 -132.5t-251.5 -48.5zM253 619q0 -188 108 -318
l622 721q-116 80 -265 80q-202 0 -333.5 -137t-131.5 -346zM455 214q114 -78 263 -78q202 0 333.5 137t131.5 346q0 187 -106 318z" />
    <glyph glyph-name="uni2206" unicode="&#x2206;" horiz-adv-x="1119" 
d="M640 1238l481 -1238h-1123l481 1238h161zM216 134h688l-345 909z" />
    <glyph glyph-name="product" unicode="&#x220f;" horiz-adv-x="1342" 
d="M161 1326h1022v-1680h-166v1539h-690v-1539h-166v1680z" />
    <glyph glyph-name="summation" unicode="&#x2211;" horiz-adv-x="1082" 
d="M57 1326h937v-141h-658l488 -699l-488 -698h658v-142h-937v13l571 827l-571 828v12z" />
    <glyph glyph-name="minus" unicode="&#x2212;" horiz-adv-x="932" 
d="M122 462v138h690v-138h-690z" />
    <glyph glyph-name="radical" unicode="&#x221a;" horiz-adv-x="1112" 
d="M382 -354l-327 846l157 56l258 -677l425 1455h173l-491 -1680h-195z" />
    <glyph glyph-name="infinity" unicode="&#x221e;" horiz-adv-x="1542" 
d="M1127 172q-197 0 -354 240q-161 -240 -356 -240q-153 0 -250.5 101t-97.5 258t97.5 258t250.5 101q195 0 356 -241q158 241 354 241q152 0 249 -101t97 -258t-97 -258t-249 -101zM216 531q0 -97 58.5 -158.5t151.5 -61.5q79 0 147 56.5t133 163.5q-133 219 -280 219
q-93 0 -151.5 -61t-58.5 -158zM842 531q129 -220 274 -220q93 0 152.5 61.5t59.5 158.5t-59.5 158t-152.5 61q-146 0 -274 -219z" />
    <glyph glyph-name="integral" unicode="&#x222b;" horiz-adv-x="714" 
d="M713 1188q-126 32 -180.5 -1.5t-62.5 -160.5l-70 -1086q-9 -143 -55.5 -219.5t-140 -94t-238.5 35.5l34 126q126 -32 181 1.5t63 160.5l69 1086q7 109 33 177.5t78 104t131 34t191 -37.5z" />
    <glyph glyph-name="approxequal" unicode="&#x2248;" horiz-adv-x="946" 
d="M780 332q-73 -63 -168 -63q-45 0 -83 16.5t-61.5 36.5t-58.5 36.5t-73 16.5q-87 0 -170 -71v131q76 66 170 66q44 0 82 -16.5t61.5 -37t58.5 -37t74 -16.5q89 0 168 69v-131zM166 610v131q75 65 170 65q44 0 82 -16.5t61.5 -36.5t58.5 -36.5t74 -16.5q93 0 168 69v-131
q-73 -63 -168 -63q-45 0 -83 16.5t-61.5 36.5t-58.5 36.5t-73 16.5q-87 0 -170 -71z" />
    <glyph glyph-name="notequal" unicode="&#x2260;" horiz-adv-x="1034" 
d="M702 1036h149l-122 -238h173v-133h-242l-137 -269h379v-132h-447l-123 -239h-150l122 239h-171v132h240l138 269h-378v133h447z" />
    <glyph glyph-name="lessequal" unicode="&#x2264;" horiz-adv-x="882" 
d="M106 702v127l653 303v-140l-503 -226l503 -225v-140zM97 122v134h658v-134h-658z" />
    <glyph glyph-name="greaterequal" unicode="&#x2265;" horiz-adv-x="882" 
d="M778 702l-652 -301v140l502 225l-502 226v140l652 -303v-127zM127 122v134h658v-134h-658z" />
    <glyph glyph-name="uni2318" unicode="&#x2318;" horiz-adv-x="1457" 
d="M1116 479q106 0 179.5 -72t73.5 -177q0 -104 -73.5 -176t-179.5 -72t-178.5 72t-72.5 176v154h-271v-154q0 -104 -73.5 -176t-179.5 -72t-179.5 72t-73.5 176q0 105 73.5 177t179.5 72h151v280h-151q-106 0 -179.5 71t-73.5 176t73.5 177.5t179.5 72.5t179.5 -72.5
t73.5 -177.5v-152h271v152q0 105 72.5 177.5t178.5 72.5t179.5 -72.5t73.5 -177.5t-73.5 -176t-179.5 -71h-150v-280h150zM191 230q0 -64 43 -108t107 -44t107.5 44t43.5 108v154h-151q-64 0 -107 -44.5t-43 -109.5zM191 1006q0 -64 43 -108t107 -44h151v152q0 64 -44 109
t-107 45t-106.5 -45t-43.5 -109zM594 479h271v280h-271v-280zM966 230q0 -64 44 -108t106 -44q64 0 108 44t44 108q0 65 -44 109.5t-108 44.5h-150v-154zM966 854h150q64 0 108 44t44 108t-44 109t-108 45q-62 0 -106 -45t-44 -109v-152z" />
    <glyph glyph-name="uni2325" unicode="&#x2325;" horiz-adv-x="1432" 
d="M1302 136v-136h-374l-525 1102h-293v136h373l523 -1102h296zM838 1102v136h464v-136h-464z" />
    <glyph glyph-name="uni2326" unicode="&#x2326;" horiz-adv-x="1855" 
d="M1314 1238l497 -619l-497 -619h-1155v1238h1155zM272 103h980l414 516l-414 516h-980v-1032zM506 361l260 260l-258 256l84 85l259 -256l256 256l85 -85l-256 -256l258 -260l-85 -85l-258 260l-260 -260z" />
    <glyph glyph-name="uni232B" unicode="&#x232b;" horiz-adv-x="1855" 
d="M541 1238h1155v-1238h-1155l-497 619zM189 619l414 -516h980v1032h-980zM661 361l260 260l-258 256l85 85l258 -256l257 256l85 -85l-257 -256l258 -260l-84 -85l-259 260l-260 -260z" />
    <glyph glyph-name="uni2380" unicode="&#x2380;" horiz-adv-x="1107" 
d="M711 569v71q-81 -83 -216 -83q-126 0 -206 67t-80 172q0 106 80 173t206 67q135 0 216 -83v13q0 108 -54.5 162.5t-154.5 54.5q-126 0 -228 -71l-37 78q121 83 283 83q145 0 224.5 -76t79.5 -231v-397h-113zM164 430l94 85l296 -359l298 359l94 -87l-389 -439h-7z
M320 798q0 -71 55 -116t143 -45q87 0 142 45t55 116t-55 116t-142 45q-88 0 -143 -45t-55 -116z" />
    <glyph glyph-name="uni2387" unicode="&#x2387;" horiz-adv-x="1432" 
d="M1302 1102h-296l-523 -1102h-373v136h293l525 1102h374v-136zM838 0v136h464v-136h-464z" />
    <glyph glyph-name="uni23CE" unicode="&#x23ce;" horiz-adv-x="1469" 
d="M488 -5l-426 421l426 424l85 -87l-288 -279h746q73 0 104.5 30t31.5 101v456h121v-481q0 -126 -52 -176t-180 -50h-768l285 -274z" />
    <glyph glyph-name="uni2400" unicode="&#x2400;" horiz-adv-x="1375" 
d="M688 53q-176 0 -308 113l-224 -224l-57 56l225 225q-114 133 -114 308q0 130 64 240t174 173.5t240 63.5q176 0 308 -113l224 225l57 -57l-225 -225q113 -132 113 -307q0 -130 -63.5 -240t-173.5 -174t-240 -64zM302 531q0 -137 85 -244l545 544q-110 87 -244 87
q-159 0 -273 -114t-113 -273zM444 230q110 -87 244 -87q159 0 273 114.5t113 273.5q0 137 -85 244z" />
    <glyph glyph-name="uni24D8" unicode="&#x24d8;" horiz-adv-x="1423" 
d="M642 267v465h140v-465h-140zM85 617q0 174 83 318t226.5 226t316.5 82q130 0 246.5 -48.5t200 -131.5t132.5 -199.5t49 -246.5t-49 -246.5t-132.5 -199.5t-200 -131.5t-246.5 -48.5q-173 0 -316.5 82t-226.5 226t-83 318zM200 617q0 -141 68 -259.5t185.5 -186.5
t257.5 -68q106 0 201.5 40t163.5 109t108 164t40 201q0 141 -67.5 259.5t-185.5 187t-260 68.5q-140 0 -257.5 -68.5t-185.5 -187t-68 -259.5zM621 904q0 36 25.5 58.5t64.5 22.5q41 0 67.5 -22.5t26.5 -58.5t-26.5 -59t-67.5 -23q-39 0 -64.5 23t-25.5 59z" />
    <glyph glyph-name="uni24FF" unicode="&#x24ff;" horiz-adv-x="1423" 
d="M715 221q-154 0 -244.5 109.5t-90.5 288.5q0 178 90.5 287t244.5 109q151 0 239.5 -109t88.5 -287q0 -179 -88.5 -288.5t-239.5 -109.5zM85 617q0 -174 83 -318t226.5 -226t316.5 -82q130 0 246.5 48.5t200 131.5t132.5 199.5t49 246.5t-49 246.5t-132.5 199.5
t-200 131.5t-246.5 48.5q-173 0 -316.5 -82t-226.5 -226t-83 -318zM502 619q0 -131 57 -209.5t156 -78.5q97 0 152.5 78.5t55.5 209.5q0 129 -55.5 208t-152.5 79q-99 0 -156 -79t-57 -208z" />
    <glyph glyph-name="filledbox" unicode="&#x25a0;" horiz-adv-x="1273" 
d="M106 1061h1061v-1061h-1061v1061z" />
    <glyph glyph-name="uni25A1" unicode="&#x25a1;" horiz-adv-x="1280" 
d="M106 1068h1068v-1068h-1068v1068zM218 108h845v852h-845v-852z" />
    <glyph glyph-name="uni25A4" unicode="&#x25a4;" horiz-adv-x="1542" 
d="M152 1238h1238v-1238h-1238v1238zM209 55h1124v115h-1124v-115zM209 221h1124v119h-1124v-119zM209 391h1124v118h-1124v-118zM209 561h1124v118h-1124v-118zM209 730h1124v117h-1124v-117zM209 900h1124v115h-1124v-115zM209 1068h1124v115h-1124v-115z" />
    <glyph glyph-name="triagup" unicode="&#x25b2;" horiz-adv-x="1358" 
d="M18 0l661 1173l662 -1173h-1323z" />
    <glyph glyph-name="uni25B3" unicode="&#x25b3;" horiz-adv-x="1358" 
d="M18 0l661 1173l662 -1173h-1323zM212 111h936l-469 830z" />
    <glyph glyph-name="triagdn" unicode="&#x25bc;" horiz-adv-x="1358" 
d="M18 1061h1323l-662 -1172z" />
    <glyph glyph-name="uni25BD" unicode="&#x25bd;" horiz-adv-x="1358" 
d="M18 1061h1323l-662 -1172zM212 950l467 -830l469 830h-936z" />
    <glyph glyph-name="uni25C6" unicode="&#x25c6;" horiz-adv-x="1061" 
d="M531 157l-462 462l462 462l461 -462z" />
    <glyph glyph-name="uni25C7" unicode="&#x25c7;" horiz-adv-x="1061" 
d="M531 157l-462 462l462 462l461 -462zM216 619l315 -315l314 315l-314 315z" />
    <glyph glyph-name="lozenge" unicode="&#x25ca;" horiz-adv-x="974" 
d="M486 1302l455 -683l-455 -683l-452 683zM168 619l318 -486l319 486l-319 486z" />
    <glyph glyph-name="circle" unicode="&#x25cb;" horiz-adv-x="1423" 
d="M711 -9q-173 0 -316.5 82t-226.5 226t-83 318t83 318t226.5 226t316.5 82q130 0 246.5 -48.5t200 -131.5t132.5 -199.5t49 -246.5t-49 -246.5t-132.5 -199.5t-200 -131.5t-246.5 -48.5zM200 617q0 -141 68 -259.5t185.5 -186.5t257.5 -68q106 0 201.5 40t163.5 109
t108 164t40 201q0 141 -67.5 259.5t-185.5 187t-260 68.5q-140 0 -257.5 -68.5t-185.5 -187t-68 -259.5z" />
    <glyph glyph-name="uni25CC" unicode="&#x25cc;" horiz-adv-x="1423" 
d="M711 1088q-32 0 -54 22t-22 55t22 55.5t54 22.5q33 0 55.5 -22.5t22.5 -55.5t-22.5 -55t-55.5 -22zM85 617q0 32 22.5 54t55.5 22t55.5 -22t22.5 -54q0 -34 -22.5 -56.5t-55.5 -22.5t-55.5 22.5t-22.5 56.5zM244 228q0 33 22.5 55.5t55.5 22.5t55.5 -22.5t22.5 -55.5
q0 -32 -22.5 -55t-55.5 -23t-55.5 23t-22.5 55zM244 1006q0 32 23.5 55t56.5 23q31 0 53.5 -23t22.5 -55q0 -33 -22 -55.5t-54 -22.5q-33 0 -56.5 22.5t-23.5 55.5zM635 67q0 33 22 55.5t54 22.5q33 0 55.5 -22.5t22.5 -55.5t-22.5 -55.5t-55.5 -22.5q-32 0 -54 22.5
t-22 55.5zM1022 226q0 33 23.5 55.5t56.5 22.5q32 0 55 -22.5t23 -55.5q0 -31 -23 -54t-55 -23q-33 0 -56.5 22.5t-23.5 54.5zM1022 1006q0 32 22.5 55t55.5 23t55.5 -23t22.5 -55q0 -33 -22.5 -55.5t-55.5 -22.5t-55.5 22.5t-22.5 55.5zM1183 617q0 32 22.5 54t55.5 22
t55.5 -22t22.5 -54q0 -34 -22.5 -56.5t-55.5 -22.5t-55.5 22.5t-22.5 56.5z" />
    <glyph glyph-name="uni25CF" unicode="&#x25cf;" horiz-adv-x="1423" 
d="M711 -9q130 0 246.5 48.5t200 131.5t132.5 199.5t49 246.5t-49 246.5t-132.5 199.5t-200 131.5t-246.5 48.5q-173 0 -316.5 -82t-226.5 -226t-83 -318t83 -318t226.5 -226t316.5 -82z" />
    <glyph glyph-name="uni2605" unicode="&#x2605;" horiz-adv-x="1457" 
d="M267 -94l126 527l-411 350l538 41l209 502l207 -502l539 -41l-414 -350l131 -527l-465 285z" />
    <glyph glyph-name="uni2606" unicode="&#x2606;" horiz-adv-x="1457" 
d="M267 -94l149 534l-434 343l554 22l193 521l192 -521l554 -22l-437 -343l154 -534l-465 310zM244 700l290 -221l-106 -350l302 209l301 -209l-104 350l290 221l-366 9l-121 345l-120 -345z" />
    <glyph glyph-name="uni2610" unicode="&#x2610;" horiz-adv-x="1280" 
d="M106 1068h1068v-1068h-1068v1068zM218 108h845v852h-845v-852z" />
    <glyph glyph-name="uni2611" unicode="&#x2611;" horiz-adv-x="1280" 
d="M536 225l-219 344l93 61l177 -280l234 494h113l-280 -619h-118zM106 0v1068h1068v-1068h-1068zM218 108h845v852h-845v-852z" />
    <glyph glyph-name="uni2612" unicode="&#x2612;" horiz-adv-x="1280" 
d="M354 317l212 212l-212 214l72 72l214 -212l212 212l75 -72l-214 -214l214 -212l-75 -75l-212 214l-214 -214zM106 0v1068h1068v-1068h-1068zM218 108h845v852h-845v-852z" />
    <glyph glyph-name="uni262E" unicode="&#x262e;" horiz-adv-x="1423" 
d="M711 -9q-173 0 -316.5 82t-226.5 226t-83 318t83 318t226.5 226t316.5 82q130 0 246.5 -48.5t200 -131.5t132.5 -199.5t49 -246.5t-49 -246.5t-132.5 -199.5t-200 -131.5t-246.5 -48.5zM200 617q0 -137 67 -258l391 302v467q-196 -19 -327 -164.5t-131 -346.5zM331 272
q130 -148 327 -166v419zM775 106q195 24 322 170l-322 249v-419zM775 661l383 -297q66 116 66 253q0 198 -128 342.5t-321 168.5v-467z" />
    <glyph glyph-name="uni262F" unicode="&#x262f;" horiz-adv-x="1423" 
d="M962 842q107 0 177.5 -62.5t84.5 -167.5v5q0 141 -67.5 259.5t-185.5 187t-260 68.5q-104 0 -197.5 -39t-161 -106t-108.5 -160t-44 -197q4 -60 28.5 -103.5t61.5 -64.5t72.5 -30t72.5 -9q36 0 67 7.5t53.5 18t43.5 30t34 35.5t28 44t22.5 45t20.5 48q80 194 258 191z
M85 617q0 174 83 318t226.5 226t316.5 82q130 0 246.5 -48.5t200 -131.5t132.5 -199.5t49 -246.5t-49 -246.5t-132.5 -199.5t-200 -131.5t-246.5 -48.5q-173 0 -316.5 82t-226.5 226t-83 318z" />
    <glyph glyph-name="smileface" unicode="&#x263a;" horiz-adv-x="1423" 
d="M1075 578q0 -142 -104 -239.5t-255 -97.5q-150 0 -252.5 97.5t-102.5 239.5h102q0 -100 73.5 -170t179.5 -70q107 0 181 69.5t74 170.5h104zM85 617q0 174 83 318t226.5 226t316.5 82q130 0 246.5 -48.5t200 -131.5t132.5 -199.5t49 -246.5t-49 -246.5t-132.5 -199.5
t-200 -131.5t-246.5 -48.5q-173 0 -316.5 82t-226.5 226t-83 318zM200 617q0 -141 68 -259.5t185.5 -186.5t257.5 -68q106 0 201.5 40t163.5 109t108 164t40 201q0 141 -67.5 259.5t-185.5 187t-260 68.5q-140 0 -257.5 -68.5t-185.5 -187t-68 -259.5zM485 796
q0 38 23.5 62.5t60.5 24.5q35 0 60 -25t25 -62t-24.5 -61t-60.5 -24q-37 0 -60.5 23.5t-23.5 61.5zM780 796q0 34 26 60.5t59 26.5q37 0 61.5 -26t24.5 -61q0 -37 -24 -61t-62 -24q-36 0 -60.5 24t-24.5 61z" />
    <glyph glyph-name="uni263F" unicode="&#x263f;" horiz-adv-x="1414" 
d="M707 485q-114 0 -191 -77.5t-76 -191.5q0 -114 77.5 -192.5t189.5 -78.5q113 0 191 78.5t78 192.5t-78 191.5t-191 77.5zM302 216q0 150 96.5 260.5t243.5 133.5l7 250l-269 -94l-40 124l272 81l-172 225l105 76l162 -236l161 236l106 -76l-173 -225l273 -81l-41 -124
l-267 94l7 -250q148 -23 244.5 -133t96.5 -261q0 -169 -118 -285.5t-289 -116.5q-170 0 -287.5 116.5t-117.5 285.5z" />
    <glyph glyph-name="female" unicode="&#x2640;" horiz-adv-x="1768" 
d="M884 1243q188 0 348 -93.5t253.5 -253.5t93.5 -348q0 -66 9 -130.5t29 -132.5t58.5 -125.5t91.5 -92.5q16 -11 19 -28t-12 -28q-71 -54 -225.5 -66.5t-282.5 23.5q-173 -115 -382 -115t-382 115q-128 -35 -282 -23.5t-225 66.5q-15 11 -12 28t19 28q70 45 114 133
t58.5 172.5t14.5 175.5q0 188 93.5 348t253.5 253.5t348 93.5zM81 53q60 -35 160.5 -40.5t184.5 14.5q-139 123 -200 295q-38 -196 -145 -269zM262 548q0 -166 84.5 -310t228 -229t309.5 -85t310 85t228.5 229t84.5 310l-2 41q-61 3 -134 26.5t-172 88t-180 159.5
q-89 -75 -198.5 -130t-214 -82.5t-188 -40t-154.5 -14.5q-2 -16 -2 -48zM272 663q68 3 151.5 18.5t182.5 44.5t200.5 82.5t178.5 121.5q41 33 73 -2q100 -124 222.5 -192t215.5 -78q-40 218 -214 366.5t-398 148.5q-222 0 -395.5 -146.5t-216.5 -363.5zM523 447
q0 33 14 55.5t36 22.5t36 -22.5t14 -55.5q0 -35 -14 -57t-36 -22t-36 22t-14 57zM653 226q23 23 51 -1q75 -68 180 -68q106 0 181 68q28 24 51 1q10 -8 8.5 -24t-17.5 -29q-92 -83 -223 -83t-223 83q-32 27 -8 53zM1146 447q0 34 14 56t37 22q21 0 34.5 -22.5t13.5 -55.5
q0 -35 -13.5 -57t-34.5 -22q-24 0 -37.5 22t-13.5 57zM1342 27q84 -20 184.5 -14.5t160.5 40.5q-107 73 -145 269q-61 -172 -200 -295z" />
    </font>
</defs>
</svg>
