<svg width="168" height="74" viewBox="0 0 168 74" fill="none" xmlns="http://www.w3.org/2000/svg">
<mask id="mask0_691_25971" style="mask-type:luminance" maskUnits="userSpaceOnUse" x="27" y="5" width="140" height="54">
<path d="M166.647 5.31463H27.6863V58.4721H166.647V5.31463Z" fill="white"/>
</mask>
<g mask="url(#mask0_691_25971)">
<path d="M165.272 39.0346C161.925 20.5959 123.164 5.65018 78.7014 5.65018C72.8497 5.65018 67.1936 5.91029 61.7862 6.40304C68.8926 6.34097 75.9958 6.73327 83.0521 7.57757C127.424 12.7636 157.086 30.3573 158.033 47.7312C158.249 51.7234 156.723 55.3342 153.753 58.4716C162.232 52.9981 166.592 46.2869 165.272 39.0346Z" fill="#1C468A"/>
<path d="M166.384 37.07C163.061 18.8753 128.066 1.12656 64.3233 6.19141C68.9552 5.83597 73.7583 5.65019 78.702 5.65019C123.164 5.65019 161.925 20.5959 165.273 39.0346C166.591 46.2869 162.232 52.9981 153.754 58.4717C162.287 53.8883 167.961 45.6989 166.384 37.07Z" fill="#1C468A"/>
<path d="M73.3659 44.9794C73.3235 44.9201 73.2678 44.8716 73.2033 44.8376C73.1388 44.8037 73.0672 44.7853 72.9943 44.784L68.4739 44.7807H68.4707C67.7954 44.7807 67.2525 44.5545 66.9423 44.1458C66.6322 43.7338 66.5918 43.1829 66.826 42.5965C66.8826 42.4591 68.0878 39.4331 68.356 38.7821C68.3786 38.7212 68.3852 38.6556 68.3754 38.5914C68.3738 38.5898 68.3738 38.5882 68.3721 38.585C68.3738 38.585 68.3738 38.585 68.3738 38.5833C68.3597 38.5158 68.3316 38.452 68.2914 38.3959C67.7986 37.7513 65.3623 34.5266 65.2605 34.3909C64.8162 33.8045 64.8179 33.4393 64.9843 33.029C65.1474 32.617 65.6111 32.3908 66.2896 32.3908C66.2896 32.3908 71.2091 32.3892 71.3303 32.3892C71.3688 32.3907 71.407 32.3822 71.4413 32.3646C71.4756 32.347 71.5048 32.3209 71.5261 32.2888C71.5473 32.2566 71.5599 32.2196 71.5627 32.1811C71.5655 32.1427 71.5583 32.1042 71.5419 32.0693C69.9554 28.0982 66.2622 25.2903 60.7433 25.2903L49.1548 25.2952C45.4648 25.2952 44.5407 27.2484 45.1401 30.6508L45.2564 31.3181C45.3461 31.6181 45.5273 31.8826 45.7746 32.0747C46.022 32.2667 46.3232 32.3767 46.6361 32.3892L53.596 32.3908C57.2876 32.3908 58.698 34.1793 59.2069 37.0599L59.7045 39.892C60.2054 42.7176 60.1084 44.792 56.3587 44.792H48.8656C48.7169 44.7867 48.5689 44.8157 48.4332 44.8767C48.2974 44.9377 48.1776 45.0292 48.0829 45.1441C47.9883 45.2589 47.9213 45.394 47.8872 45.5389C47.8532 45.6837 47.8529 45.8345 47.8865 45.9795L48.0804 47.0862C48.7622 50.9474 50.8786 52.1591 54.5686 52.1591H74.7989C77.4452 52.1591 77.4485 50.432 76.3709 48.9489C76.2206 48.7437 73.3659 44.9794 73.3659 44.9794ZM99.4204 38.0906C97.6416 27.998 91.1664 25.2903 85.1112 25.2903H77.8605C75.2157 25.2903 75.206 27.0642 76.2885 28.5005C76.6956 29.0385 79.0754 32.1921 79.0754 32.1921C79.1182 32.2515 79.1741 32.3002 79.2389 32.3344C79.3036 32.3686 79.3754 32.3874 79.4486 32.3892L86.3342 32.3908C87.0111 32.3908 87.5556 32.617 87.8641 33.029C88.1759 33.4393 88.2163 33.9886 87.9805 34.5751C87.9336 34.6882 86.4602 38.3701 86.4537 38.3895C86.4301 38.4548 86.4237 38.5252 86.4353 38.5937C86.4469 38.6622 86.4761 38.7265 86.52 38.7804C86.5248 38.7853 89.3052 42.4769 89.3941 42.5948C89.8368 43.1813 89.9902 43.7338 89.8271 44.1442C89.6607 44.5545 89.1986 44.7807 88.5201 44.7807L82.2823 44.784C82.2177 44.7813 82.1539 44.7987 82.0995 44.8337C82.0452 44.8687 82.0029 44.9196 81.9786 44.9794C81.9786 44.9794 80.6231 48.4125 80.4098 48.9489C79.8395 50.3836 80.4858 52.1591 83.1321 52.1591H89.9062C97.5189 52.1591 101.159 47.9489 99.6337 39.299L99.4204 38.0906ZM42.8088 37.9565L42.4646 36.0049L41.6633 31.4586C40.9815 27.5958 39.0186 25.2903 34.6355 25.2903H31.8697C28.1797 25.2903 27.2556 27.2484 27.8549 30.6508L27.9729 31.3181C28.062 31.6181 28.2428 31.8828 28.49 32.0749C28.7371 32.267 29.0382 32.3769 29.351 32.3892H30.498C31.9957 32.3892 32.2703 32.966 32.5046 34.2924L32.8067 36.0049L33.1718 38.0712L33.2671 38.8192C33.8181 41.9341 35.5209 43.0876 38.6923 43.0876H42.4663C42.615 43.0928 42.7629 43.0638 42.8985 43.0027C43.0342 42.9416 43.154 42.8501 43.2486 42.7353C43.3433 42.6205 43.4102 42.4855 43.4444 42.3407C43.4785 42.1958 43.4788 42.0451 43.4453 41.9001L42.8088 37.9565ZM135.92 41.0681L135.17 36.8143C133.55 27.6168 128.229 25.1465 122.538 25.1465H121.543C117.518 25.1465 114.515 26.2387 114.137 30.6056C114.064 31.8141 113.025 31.6266 112.668 30.4344C111.658 27.0465 109.411 25.2952 105.616 25.2952H103.855C100.165 25.2952 99.2411 27.2484 99.8421 30.6508C99.8421 30.6508 99.8808 30.8592 99.9584 31.3181C100.075 31.9772 100.7 32.4716 101.619 32.4716C103.246 32.4716 103.69 32.9724 103.954 34.4685L106.881 50.9959C106.964 51.3042 107.143 51.5781 107.392 51.7775C107.642 51.9769 107.948 52.0913 108.267 52.1042H112.684C115.673 52.1042 117.061 51.4143 116.512 48.3108L114.694 37.9727C114.085 34.525 115.71 32.3973 118.155 32.3973H119.416C122.636 32.3973 124.27 33.8352 124.879 37.2828L125.349 39.9824C125.866 42.9131 125.386 44.7516 121.593 44.7516H120.068C119.919 44.7463 119.771 44.7753 119.636 44.8363C119.501 44.8973 119.381 44.9887 119.287 45.1034C119.192 45.2181 119.125 45.353 119.092 45.4977C119.058 45.6423 119.058 45.7928 119.092 45.9375L119.164 46.3543C119.935 50.7261 121.925 52.563 126.41 52.563H127.43C133.349 52.563 137.29 48.8278 135.92 41.0681Z" fill="#1C468A"/>
</g>
<path d="M3.72808 36.247H11.5081V28.3332C11.5081 26.9437 12.4584 25.9771 13.8242 25.9771C15.1309 25.9771 16.1405 26.9437 16.1405 28.3332V36.247H23.9799C24.5979 36.2574 25.187 36.5103 25.6203 36.9509C26.0536 37.3916 26.2964 37.9849 26.2964 38.603C26.2964 39.221 26.0536 39.8143 25.6203 40.255C25.187 40.6957 24.5979 40.9485 23.9799 40.9589H16.1405V48.8728C16.1405 50.2621 15.1309 51.2287 13.8242 51.2287C12.5177 51.2287 11.5081 50.2621 11.5081 48.8728V40.9589H3.72808C2.30266 40.9589 1.35248 39.9923 1.35248 38.603C1.35248 37.274 2.30266 36.247 3.72808 36.247Z" fill="#EA088B" stroke="#EA088B" stroke-width="1.80342" stroke-miterlimit="10"/>
</svg>
